<svg width="148" height="104" viewBox="0 0 148 104" fill="none" xmlns="http://www.w3.org/2000/svg">
<path d="M0 88V16C0 7.16344 7.16344 0 16 0H87C95.8366 0 103 7.16344 103 16V34C103 42.8366 110.163 50 119 50H132C140.837 50 148 57.1634 148 66V88C148 96.8366 140.837 104 132 104H16C7.16344 104 0 96.8366 0 88Z" fill="white"/>
<path d="M18.25 19.52H21.01V38.51H33.22V41H18.25V19.52ZM34.5459 33.23C34.5459 27.8 38.3859 25.16 42.3159 25.16C46.3959 25.16 49.5459 27.59 49.5459 32.93V33.68H37.2459C37.4259 37.4 39.7659 38.9 42.1959 38.9C44.4459 38.9 45.8859 38.06 47.0259 36.08L49.1859 37.25C47.8059 39.86 45.3759 41.3 42.1659 41.3C38.2659 41.3 34.5459 38.69 34.5459 33.23ZM37.3959 31.61H46.8159C46.3959 28.76 44.6559 27.56 42.3159 27.56C40.1559 27.56 37.9959 28.73 37.3959 31.61ZM50.984 25.46H53.114V21.68H55.784V25.46H61.964V27.8H55.784V36.08C55.784 38.09 56.894 38.87 58.394 38.87C59.954 38.87 60.914 38.03 61.424 36.26L63.914 36.92C63.194 39.77 61.214 41.3 58.334 41.3C54.944 41.3 53.114 39.26 53.114 36.2V27.8H50.984V25.46ZM67.9398 19.28C68.7798 19.28 69.5898 19.91 69.5898 20.93C69.5898 21.38 69.4998 21.74 69.3798 22.46L68.5098 27.62H67.3998L66.5298 22.46C66.4098 21.74 66.3198 21.38 66.3198 20.93C66.3198 19.91 67.0998 19.28 67.9398 19.28ZM83.0369 36.68C83.0369 35.27 82.1969 34.85 80.2469 34.46L77.9069 34.01C75.0569 33.44 73.4669 32.3 73.4669 29.72C73.4669 27.08 75.7469 25.16 79.1669 25.16C81.5069 25.16 83.6969 26.12 84.7169 27.95L82.6769 29.15C81.9569 28.07 80.6069 27.47 79.1369 27.47C77.0069 27.47 76.0169 28.43 76.0169 29.69C76.0169 30.95 76.9169 31.37 78.4769 31.67L80.8469 32.15C83.7569 32.72 85.5569 33.59 85.5569 36.68C85.5569 39.83 82.8569 41.3 79.5869 41.3C76.1669 41.3 73.4669 40.04 72.6869 36.41L75.2069 35.96C75.7769 38.12 77.3369 39.02 79.5569 39.02C81.5669 39.02 83.0369 38.27 83.0369 36.68Z" fill="black"/>
<path d="M32.71 65.52V67.98H21.01V74.7H31.66V77.16H21.01V84.54H33.31V87H18.25V65.52H32.71ZM37.0488 71.46H39.6888V73.59C40.7088 72.12 42.3888 71.16 44.4888 71.16C48.2988 71.16 50.5788 73.71 50.5788 77.55V87H47.8788V77.7C47.8788 75.12 46.1688 73.59 43.7988 73.59C41.4588 73.59 39.7488 75.12 39.7488 77.67V87H37.0488V71.46ZM58.1371 87L51.7471 71.46H54.7171L59.5771 83.94L64.4671 71.46H67.2271L60.8371 87H58.1371ZM69.4853 71.46H72.1553V87H69.4853V71.46ZM69.0053 66.6C69.0053 65.52 69.8153 64.8 70.8053 64.8C71.8253 64.8 72.6353 65.52 72.6353 66.6C72.6353 67.68 71.8253 68.4 70.8053 68.4C69.8153 68.4 69.0053 67.68 69.0053 66.6ZM85.6736 82.68C85.6736 81.27 84.8336 80.85 82.8836 80.46L80.5436 80.01C77.6936 79.44 76.1036 78.3 76.1036 75.72C76.1036 73.08 78.3836 71.16 81.8036 71.16C84.1436 71.16 86.3336 72.12 87.3536 73.95L85.3136 75.15C84.5936 74.07 83.2436 73.47 81.7736 73.47C79.6436 73.47 78.6536 74.43 78.6536 75.69C78.6536 76.95 79.5536 77.37 81.1136 77.67L83.4836 78.15C86.3936 78.72 88.1936 79.59 88.1936 82.68C88.1936 85.83 85.4936 87.3 82.2236 87.3C78.8036 87.3 76.1036 86.04 75.3236 82.41L77.8436 81.96C78.4136 84.12 79.9736 85.02 82.1936 85.02C84.2036 85.02 85.6736 84.27 85.6736 82.68ZM91.458 71.46H94.128V87H91.458V71.46ZM90.978 66.6C90.978 65.52 91.788 64.8 92.778 64.8C93.798 64.8 94.608 65.52 94.608 66.6C94.608 67.68 93.798 68.4 92.778 68.4C91.788 68.4 90.978 67.68 90.978 66.6ZM105.036 71.16C108.936 71.16 112.686 73.8 112.686 79.23C112.686 84.69 108.936 87.3 105.036 87.3C101.166 87.3 97.4463 84.69 97.4463 79.23C97.4463 73.8 101.166 71.16 105.036 71.16ZM100.146 79.23C100.146 83.31 102.576 84.87 105.036 84.87C107.556 84.87 109.986 83.31 109.986 79.23C109.986 75.18 107.556 73.59 105.036 73.59C102.576 73.59 100.146 75.18 100.146 79.23ZM115.799 71.46H118.439V73.59C119.459 72.12 121.139 71.16 123.239 71.16C127.049 71.16 129.329 73.71 129.329 77.55V87H126.629V77.7C126.629 75.12 124.919 73.59 122.549 73.59C120.209 73.59 118.499 75.12 118.499 77.67V87H115.799V71.46Z" fill="black"/>
</svg>
