<svg width="376" height="522" viewBox="0 0 376 522" fill="none" xmlns="http://www.w3.org/2000/svg">
<g clip-path="url(#clip0_1508_3996)">
<path d="M368 426V358C368 349.163 360.837 342 352 342H155C146.163 342 139 349.163 139 358V374C139 382.837 131.837 390 123 390H122C113.163 390 106 397.163 106 406V426C106 434.837 113.163 442 122 442H352C360.837 442 368 434.837 368 426Z" fill="white"/>
<path d="M351.883 380.524C351.043 380.972 350.007 381.28 348.887 381.28C346.479 381.28 344.463 380.132 344.463 376.828V359.636H348.355V376.408C348.355 377.416 348.775 377.836 349.587 377.836C350.007 377.836 350.399 377.752 350.819 377.556L351.883 380.524Z" fill="black"/>
<path d="M334.456 365.964C338.6 365.964 341.008 368.288 341.008 372.124V381H337.48V378.872C336.444 380.356 334.764 381.28 332.468 381.28C329.808 381.28 327.82 379.88 327.82 377.248C327.82 374.56 329.948 373.552 332.832 372.796L337.088 371.676C336.836 370.108 335.772 369.296 334.008 369.296C332.412 369.296 331.152 370.08 330.228 371.592L327.512 369.912C328.94 367.476 331.292 365.964 334.456 365.964ZM331.712 376.884C331.712 377.948 332.44 378.452 333.504 378.452C335.296 378.452 337.144 377.388 337.144 375.064V374.056L333.784 375.008C332.44 375.372 331.712 375.932 331.712 376.884Z" fill="black"/>
<path d="M320.738 366.244H324.602V381H320.738V366.244ZM320.262 361.988C320.262 360.532 321.354 359.58 322.67 359.58C323.986 359.58 325.078 360.532 325.078 361.988C325.078 363.416 323.986 364.368 322.67 364.368C321.354 364.368 320.262 363.416 320.262 361.988Z" fill="black"/>
<path d="M306.64 373.636C306.64 376.52 308.32 377.836 310.448 377.836C312.128 377.836 313.528 376.968 313.976 375.204L317.84 375.876C317.084 379.432 314.228 381.28 310.448 381.28C306.164 381.28 302.748 378.452 302.748 373.636C302.748 368.82 306.164 365.964 310.448 365.964C314.228 365.964 317.084 367.812 317.84 371.368L313.976 372.068C313.528 370.276 312.128 369.408 310.448 369.408C308.32 369.408 306.64 370.724 306.64 373.636Z" fill="black"/>
<path d="M285.797 366.244H289.493V368.26C290.417 366.888 291.901 365.964 293.973 365.964C297.529 365.964 299.853 368.484 299.853 372.012V381H295.961V372.488C295.961 370.584 294.645 369.296 292.797 369.296C291.005 369.296 289.689 370.584 289.689 372.488V381H285.797V366.244Z" fill="black"/>
<path d="M275.819 365.964C279.963 365.964 282.371 368.288 282.371 372.124V381H278.843V378.872C277.807 380.356 276.127 381.28 273.831 381.28C271.171 381.28 269.183 379.88 269.183 377.248C269.183 374.56 271.311 373.552 274.195 372.796L278.451 371.676C278.199 370.108 277.135 369.296 275.371 369.296C273.775 369.296 272.515 370.08 271.591 371.592L268.875 369.912C270.303 367.476 272.655 365.964 275.819 365.964ZM273.075 376.884C273.075 377.948 273.803 378.452 274.867 378.452C276.659 378.452 278.507 377.388 278.507 375.064V374.056L275.147 375.008C273.803 375.372 273.075 375.932 273.075 376.884Z" fill="black"/>
<path d="M252.035 366.244H255.731V368.26C256.655 366.888 258.139 365.964 260.211 365.964C263.767 365.964 266.091 368.484 266.091 372.012V381H262.199V372.488C262.199 370.584 260.883 369.296 259.035 369.296C257.243 369.296 255.927 370.584 255.927 372.488V381H252.035V366.244Z" fill="black"/>
<path d="M244.644 366.244H248.508V381H244.644V366.244ZM244.168 361.988C244.168 360.532 245.26 359.58 246.576 359.58C247.892 359.58 248.984 360.532 248.984 361.988C248.984 363.416 247.892 364.368 246.576 364.368C245.26 364.368 244.168 363.416 244.168 361.988Z" fill="black"/>
<path d="M241.234 360.7V364.2H230.594V370.052H240.058V373.524H230.594V381H226.646V360.7H241.234Z" fill="black"/>
<path d="M205.16 366.496H207.568V367.98C208.352 366.916 209.556 366.244 211.236 366.244C214.148 366.244 216.22 368.092 216.22 371.536V372.124L213.812 372.348V371.844C213.812 369.604 212.692 368.512 210.788 368.512C208.968 368.512 207.68 369.716 207.68 371.956V381H205.16V366.496Z" fill="black"/>
<path d="M201.315 381H198.852V379.012C197.9 380.384 196.331 381.28 194.371 381.28C190.815 381.28 188.688 378.9 188.688 375.316V366.496H191.208V375.176C191.208 377.584 192.803 379.012 195.015 379.012C197.199 379.012 198.796 377.584 198.796 375.204V366.496H201.315V381Z" fill="black"/>
<path d="M178.307 366.216C181.947 366.216 185.447 368.68 185.447 373.748C185.447 378.844 181.947 381.28 178.307 381.28C174.695 381.28 171.223 378.844 171.223 373.748C171.223 368.68 174.695 366.216 178.307 366.216ZM173.743 373.748C173.743 377.556 176.011 379.012 178.307 379.012C180.659 379.012 182.927 377.556 182.927 373.748C182.927 369.968 180.659 368.484 178.307 368.484C176.011 368.484 173.743 369.968 173.743 373.748Z" fill="black"/>
<path d="M169.451 360.952H172.335L164.915 372.796V381H162.367V372.768L154.975 360.952H157.943L163.711 370.304L169.451 360.952Z" fill="black"/>
<path d="M327.312 410.496H329.777V412.484C330.729 411.112 332.269 410.216 334.229 410.216C336.581 410.216 338.317 411.252 339.185 413.016C340.109 411.336 341.817 410.216 344.197 410.216C347.837 410.216 349.937 412.596 349.937 416.18V425H347.417V416.292C347.417 413.884 345.849 412.456 343.637 412.456C341.453 412.456 339.885 413.884 339.885 416.264V425H337.365V416.292C337.365 413.884 335.797 412.456 333.585 412.456C331.401 412.456 329.833 413.884 329.833 416.264V425H327.312V410.496Z" fill="black"/>
<path d="M317.594 410.216C321.122 410.216 323.53 412.204 323.53 416.096V425H321.122V422.9C319.974 424.496 318.126 425.28 316.166 425.28C313.674 425.28 311.602 423.908 311.602 421.276C311.602 418.504 313.87 417.664 316.39 416.992L321.01 415.788C320.87 413.604 319.33 412.456 317.398 412.456C315.494 412.456 314.318 413.268 313.254 415.032L311.35 413.94C312.666 411.56 314.682 410.216 317.594 410.216ZM314.122 421.136C314.122 422.592 315.186 423.18 316.558 423.18C318.49 423.18 321.038 422.2 321.038 419.4V417.692L316.81 418.812C315.298 419.204 314.122 419.764 314.122 421.136Z" fill="black"/>
<path d="M294.906 417.748C294.906 412.68 298.49 410.216 302.158 410.216C305.966 410.216 308.906 412.484 308.906 417.468V418.168H297.426C297.594 421.64 299.778 423.04 302.046 423.04C304.146 423.04 305.49 422.256 306.554 420.408L308.57 421.5C307.282 423.936 305.014 425.28 302.018 425.28C298.378 425.28 294.906 422.844 294.906 417.748ZM297.566 416.236H306.358C305.966 413.576 304.342 412.456 302.158 412.456C300.142 412.456 298.126 413.548 297.566 416.236Z" fill="black"/>
<path d="M281.674 410.496H284.082V411.98C284.866 410.916 286.07 410.244 287.75 410.244C290.662 410.244 292.734 412.092 292.734 415.536V416.124L290.326 416.348V415.844C290.326 413.604 289.206 412.512 287.302 412.512C285.482 412.512 284.194 413.716 284.194 415.956V425H281.674V410.496Z" fill="black"/>
<path d="M264.506 407.276V422.676H269.098C273.046 422.676 275.51 419.54 275.51 414.976C275.51 410.412 273.046 407.276 269.098 407.276H264.506ZM261.93 425V404.952H269.098C274.446 404.952 278.086 409.096 278.086 414.976C278.086 420.856 274.446 425 269.098 425H261.93Z" fill="black"/>
<path d="M226.869 410.244H230.565V412.204C231.461 410.86 232.917 409.964 234.961 409.964C237.313 409.964 239.105 411.084 240.029 412.876C240.869 411.14 242.465 409.964 244.901 409.964C248.485 409.964 250.725 412.484 250.725 416.012V425H246.833V416.376C246.833 414.528 245.573 413.296 243.753 413.296C242.017 413.296 240.729 414.528 240.729 416.376V425H236.865V416.376C236.865 414.528 235.577 413.296 233.785 413.296C232.021 413.296 230.761 414.528 230.761 416.376V425H226.869V410.244Z" fill="black"/>
<path d="M216.36 409.964C220.644 409.964 223.92 412.988 223.92 417.636C223.92 422.256 220.644 425.28 216.36 425.28C212.076 425.28 208.828 422.256 208.828 417.636C208.828 412.988 212.076 409.964 216.36 409.964ZM212.72 417.636C212.72 420.464 214.344 421.836 216.36 421.836C218.404 421.836 220.028 420.464 220.028 417.636C220.028 414.78 218.404 413.408 216.36 413.408C214.344 413.408 212.72 414.78 212.72 417.636Z" fill="black"/>
<path d="M205.863 403.636V425H202.335V422.872C201.215 424.356 199.591 425.28 197.631 425.28C193.963 425.28 190.771 422.256 190.771 417.636C190.771 412.988 193.963 409.964 197.631 409.964C199.367 409.964 200.879 410.692 201.971 411.924V403.636H205.863ZM194.663 417.636C194.663 420.38 196.287 421.836 198.331 421.836C200.347 421.836 201.971 420.38 201.971 417.636C201.971 414.864 200.347 413.408 198.331 413.408C196.287 413.408 194.663 414.864 194.663 417.636Z" fill="black"/>
<path d="M173.508 417.636C173.508 412.988 176.812 409.964 181.124 409.964C185.492 409.964 188.348 412.596 188.348 417.356V418.336H177.428C177.68 420.744 179.192 421.948 181.068 421.948C182.832 421.948 183.98 421.164 184.624 419.68L187.984 420.94C186.864 423.572 184.4 425.28 181.04 425.28C176.756 425.28 173.508 422.256 173.508 417.636ZM177.652 415.872H184.288C183.868 414.164 182.748 413.296 181.124 413.296C179.556 413.296 178.184 414.136 177.652 415.872Z" fill="black"/>
<path d="M156.244 417.636C156.244 412.988 159.548 409.964 163.86 409.964C168.228 409.964 171.084 412.596 171.084 417.356V418.336H160.164C160.416 420.744 161.928 421.948 163.804 421.948C165.568 421.948 166.716 421.164 167.36 419.68L170.72 420.94C169.6 423.572 167.136 425.28 163.776 425.28C159.492 425.28 156.244 422.256 156.244 417.636ZM160.388 415.872H167.024C166.604 414.164 165.484 413.296 163.86 413.296C162.292 413.296 160.92 414.136 160.388 415.872Z" fill="black"/>
<path d="M142.027 410.244H145.555V411.756C146.311 410.692 147.487 409.992 149.111 409.992C152.135 409.992 154.319 411.952 154.319 415.34V416.04L150.567 416.376V416.152C150.567 414.22 149.783 413.324 148.243 413.324C146.787 413.324 145.919 414.276 145.919 416.04V425H142.027V410.244Z" fill="black"/>
<path d="M139.686 404.7V408.2H129.046V414.052H138.51V417.524H129.046V425H125.098V404.7H139.686Z" fill="black"/>
<path d="M418.223 315.718C405.431 311.629 395.506 298.426 382.666 294.49C369.827 290.555 354.208 295.914 341.32 292.131C328.443 288.348 318.192 275.394 305.267 271.764C292.342 268.133 276.847 273.865 263.883 270.398C250.91 266.92 240.363 254.215 227.352 250.9C214.341 247.585 198.989 253.68 185.939 250.518C172.89 247.355 157.588 232.009 144.5 229L141 202.5C151.403 194.017 170.157 191.155 180.656 182.796C191.165 174.437 195.769 158.569 206.373 150.334C216.977 142.099 233.485 141.564 244.194 133.463C254.893 125.353 259.88 109.609 270.675 101.632C281.47 93.6556 297.997 93.5218 308.888 85.6692C319.778 77.8165 325.137 62.1972 336.124 54.4783C347.11 46.7594 372.918 42.0852 384 34.5L418.232 315.727L418.223 315.718Z" fill="#60D9CF"/>
<path d="M418.423 266.5C409.396 265.258 402.202 257.52 392.668 256.23C382.848 254.893 370.486 260.386 359.939 259.182C349.058 257.94 340.155 249.591 328.596 248.272C316.654 246.916 301.809 253.077 288.903 251.883C275.547 250.641 264.303 241.528 250.012 240.2C235.185 238.815 216.977 245.798 200.832 244.604C184.048 243.362 162.622 229.866 144.5 228.5L141.5 203.5C156.212 194.969 180.341 192.836 194.012 184.916C207.252 177.245 212.917 163.316 225.699 156.257C238.099 149.398 256.699 149.283 268.296 142.892C279.56 136.682 284.68 124.311 295.571 118.598C306.155 113.048 321.794 114.003 331.748 108.816C341.435 103.762 346.097 92.6999 355.478 88.0667C364.611 83.5576 377.909 85.2867 386.535 81.0547L418.433 266.5H418.423Z" fill="#1BD0C2"/>
<path d="M140.383 201.593C147.032 195.059 158.464 187.878 165.686 184.601C171.15 182.117 176.319 179.777 179.347 176.873C182.375 173.969 184.935 168.915 187.649 163.556C191.231 156.467 195.291 148.443 202.102 142.071C208.914 135.699 217.187 132.183 224.495 129.069C230.026 126.719 235.242 124.503 238.337 121.675C241.432 118.847 244.117 113.851 246.954 108.558C250.709 101.566 254.96 93.6365 261.914 87.4269C268.869 81.2174 277.238 77.9025 284.613 74.9697C290.192 72.7534 295.465 70.6612 298.627 67.9099C301.789 65.1586 304.588 60.2197 307.55 55.0037C311.466 48.0968 315.908 40.2728 323.016 34.2352C330.124 28.1977 338.559 25.0834 346.01 22.3321C351.647 20.2495 356.968 18.2816 360.187 15.6067L379.784 0" stroke="black" stroke-miterlimit="10"/>
<path d="M382.962 318.106C380.546 317.619 378.683 315.631 376.791 314.609C363.417 311.294 349.823 314.714 336.506 309.47C324.154 304.263 316.759 294.395 305.429 287.297C303.538 286.275 300.682 285.224 297.797 285.128C281.442 284.603 264.991 286.972 249.935 275.9C241.462 269.853 234.937 262.898 225.441 258.752C211.007 258.294 195.521 260.692 181.277 254.453C171.81 249.333 163.365 241.375 153.927 235.29C151.118 233.479 146.344 230.478 143 230" stroke="black" stroke-miterlimit="10"/>
<path d="M199.273 189.13C197.038 196.476 189.137 200.708 181.648 198.587C174.148 196.466 169.897 188.795 172.133 181.449C174.378 174.103 182.268 169.871 189.758 171.991C197.257 174.112 201.508 181.783 199.273 189.13Z" fill="white"/>
<path d="M182.049 200.221C174.082 197.966 169.535 189.779 171.923 181.974C174.302 174.169 182.728 169.651 190.695 171.905C198.662 174.16 203.21 182.347 200.821 190.152C198.443 197.956 190.017 202.475 182.049 200.221ZM190.16 173.625C183.158 171.647 175.763 175.612 173.671 182.471C171.579 189.33 175.572 196.514 182.565 198.501C189.568 200.479 196.962 196.514 199.054 189.655C201.146 182.796 197.153 175.612 190.16 173.634V173.625Z" fill="black"/>
<path d="M181.381 199.437C173.414 197.183 168.867 188.996 171.255 181.191C173.634 173.386 182.06 168.867 190.017 171.122C197.985 173.376 202.532 181.563 200.144 189.368C197.765 197.173 189.339 201.692 181.381 199.437ZM189.492 172.841C182.49 170.864 175.096 174.828 173.003 181.687C170.911 188.547 174.904 195.73 181.897 197.718C188.9 199.695 196.294 195.73 198.376 188.871C200.469 182.012 196.475 174.828 189.483 172.841H189.492Z" fill="white"/>
<path d="M188.488 200.087C186.167 200.526 183.702 200.459 181.285 199.771C177.302 198.644 174.034 196.046 172.076 192.463C170.165 188.957 169.745 184.916 170.92 181.086C173.356 173.099 181.963 168.475 190.112 170.787C194.096 171.915 197.363 174.513 199.321 178.095C201.232 181.601 201.643 185.642 200.477 189.473C198.767 195.09 194 199.036 188.488 200.087ZM183.043 171.16C177.779 172.163 173.222 175.936 171.589 181.296C170.481 184.945 170.872 188.795 172.697 192.138C174.56 195.558 177.684 198.033 181.486 199.112C189.272 201.319 197.497 196.905 199.828 189.273C200.936 185.623 200.544 181.773 198.72 178.43C196.857 175.01 193.733 172.535 189.931 171.456C187.619 170.797 185.269 170.73 183.043 171.15V171.16ZM188.163 198.329C186.119 198.721 183.95 198.654 181.82 198.052C178.305 197.058 175.429 194.775 173.71 191.613C172.019 188.518 171.665 184.964 172.687 181.592C174.837 174.561 182.422 170.482 189.596 172.516C193.112 173.51 195.987 175.793 197.707 178.955C199.398 182.05 199.751 185.604 198.729 188.976C197.22 193.925 193.016 197.402 188.163 198.329ZM183.377 172.918C178.763 173.796 174.78 177.102 173.347 181.792C172.372 184.983 172.716 188.355 174.311 191.279C175.945 194.269 178.677 196.437 182.002 197.383C188.823 199.313 196.026 195.453 198.06 188.776C199.035 185.585 198.691 182.213 197.096 179.29C195.462 176.299 192.73 174.131 189.405 173.185C187.38 172.612 185.326 172.555 183.377 172.918Z" fill="black"/>
<path d="M190.571 191.164C191.297 188.795 190.113 187.028 187.313 185.088C185.04 183.512 184.142 182.452 184.6 180.942C184.935 179.844 186.291 178.793 188.804 179.509C190.466 179.977 191.555 180.809 192.071 181.267L193.246 179.748C192.549 179.108 191.297 178.344 189.415 177.809C189.406 177.809 189.396 177.809 189.386 177.809L190.132 175.354L188.67 174.943L187.887 177.513C185.021 177.188 182.785 178.363 182.126 180.512C181.429 182.786 182.871 184.678 185.594 186.464C187.82 188.002 188.546 189.148 188.087 190.658C187.591 192.282 185.823 193.008 183.397 192.32C181.754 191.852 180.349 190.935 179.451 190.056L178.314 191.632C179.126 192.482 180.922 193.486 182.699 193.992C182.747 194.001 182.795 194.011 182.843 194.03L182.212 196.094L183.674 196.504L184.333 194.336C187.734 194.785 189.902 193.333 190.562 191.174L190.571 191.164Z" fill="black"/>
<path d="M190.161 190.543C190.887 188.174 189.702 186.407 186.903 184.468C184.62 182.891 183.732 181.831 184.19 180.322C184.525 179.223 185.881 178.172 188.394 178.889C190.056 179.357 191.145 180.188 191.661 180.646L192.836 179.127C192.138 178.487 190.887 177.723 189.005 177.188C188.995 177.188 188.986 177.188 188.976 177.188L189.721 174.733L188.26 174.322L187.477 176.892C184.611 176.567 182.375 177.742 181.716 179.892C181.019 182.165 182.461 184.057 185.184 185.843C187.419 187.381 188.136 188.528 187.677 190.037C187.18 191.661 185.413 192.387 182.987 191.699C181.343 191.241 179.939 190.314 179.041 189.435L177.904 191.011C178.716 191.862 180.512 192.865 182.289 193.371C182.337 193.381 182.385 193.39 182.432 193.409L181.802 195.473L183.264 195.884L183.923 193.715C187.324 194.164 189.492 192.712 190.151 190.553L190.161 190.543Z" fill="white"/>
<path d="M183.502 196.294L181.372 195.693L182.002 193.639C180.283 193.113 178.515 192.148 177.656 191.241L177.455 191.031L178.993 188.891L179.28 189.177C180.264 190.142 181.678 190.954 183.072 191.346C185.25 191.957 186.884 191.413 187.343 189.913C187.744 188.585 187.132 187.592 184.983 186.111C181.84 184.047 180.694 182.032 181.381 179.777C182.069 177.542 184.343 176.271 187.218 176.51L188.021 173.883L190.151 174.485L189.406 176.94C191.441 177.561 192.568 178.411 193.074 178.87L193.313 179.089L191.718 181.153L191.441 180.904C190.839 180.369 189.817 179.653 188.317 179.223C186.148 178.612 184.849 179.385 184.534 180.427C184.161 181.659 184.782 182.576 187.113 184.191C190.208 186.34 191.231 188.27 190.505 190.649C189.75 193.113 187.352 194.412 184.19 194.088L183.512 196.304L183.502 196.294ZM182.241 195.215L183.044 195.444L183.693 193.323L183.98 193.362C186.913 193.753 189.158 192.636 189.826 190.438C190.457 188.375 189.549 186.722 186.702 184.754C184.438 183.188 183.311 181.993 183.856 180.217C184.276 178.85 185.871 177.809 188.489 178.545C189.903 178.946 190.935 179.596 191.603 180.14L192.358 179.175C191.785 178.707 190.705 178.029 188.909 177.523C188.9 177.523 188.89 177.523 188.881 177.523L188.537 177.427L189.282 174.972L188.479 174.743L187.706 177.265L187.419 177.236C184.744 176.93 182.633 178.019 182.031 179.987C181.448 181.907 182.499 183.675 185.355 185.547C188.116 187.458 188.403 188.757 187.992 190.133C187.419 192.005 185.413 192.75 182.872 192.024C181.486 191.633 180.12 190.887 179.079 189.951L178.353 190.964C179.222 191.757 180.856 192.597 182.375 193.027C182.394 193.027 182.413 193.037 182.432 193.046C182.461 193.046 182.48 193.056 182.509 193.065L182.853 193.161L182.222 195.224L182.241 195.215Z" fill="black"/>
<path d="M264.942 254.96C269.327 264.179 265.372 275.423 256.106 280.065C246.839 284.708 235.777 280.992 231.392 271.773C227.007 262.545 230.962 251.311 240.229 246.668C249.495 242.025 260.558 245.741 264.942 254.96Z" fill="white"/>
<path d="M257.979 281.317C248.13 286.256 236.332 282.291 231.67 272.48C227.008 262.679 231.23 250.68 241.08 245.751C250.929 240.812 262.727 244.776 267.389 254.587C272.051 264.389 267.828 276.387 257.979 281.317ZM242.102 247.919C233.456 252.256 229.74 262.784 233.838 271.401C237.927 280.018 248.302 283.495 256.947 279.158C265.593 274.821 269.309 264.293 265.211 255.676C261.122 247.059 250.747 243.582 242.102 247.919Z" fill="black"/>
<path d="M256.622 281.145C246.772 286.084 234.974 282.119 230.312 272.308C225.65 262.507 229.873 250.508 239.722 245.579C249.571 240.64 261.369 244.604 266.031 254.415C270.693 264.217 266.471 276.215 256.622 281.145ZM240.744 247.747C232.099 252.084 228.383 262.612 232.481 271.229C236.57 279.846 246.944 283.323 255.59 278.986C264.235 274.649 267.952 264.121 263.853 255.504C259.765 246.887 249.39 243.41 240.744 247.747Z" fill="white"/>
<path d="M264.178 275.413C262.287 277.935 259.812 280.065 256.822 281.565C251.902 284.03 246.362 284.421 241.222 282.654C236.197 280.925 232.166 277.323 229.882 272.518C225.115 262.488 229.433 250.221 239.502 245.177C244.422 242.713 249.963 242.321 255.103 244.088C260.128 245.817 264.159 249.419 266.442 254.224C269.795 261.274 268.658 269.442 264.178 275.413ZM232.882 251.884C228.602 257.596 227.513 265.382 230.723 272.117C232.901 276.693 236.742 280.123 241.528 281.775C246.428 283.457 251.711 283.094 256.411 280.734C266.041 275.91 270.168 264.188 265.611 254.616C263.433 250.04 259.593 246.61 254.806 244.958C249.906 243.276 244.623 243.639 239.923 245.999C237.066 247.432 234.688 249.467 232.892 251.884H232.882ZM262.277 273.98C260.615 276.206 258.427 278.078 255.8 279.396C251.463 281.575 246.581 281.909 242.053 280.352C237.62 278.823 234.076 275.652 232.061 271.42C227.857 262.583 231.659 251.778 240.534 247.327C244.871 245.149 249.753 244.814 254.281 246.371C258.714 247.9 262.258 251.072 264.274 255.304C267.226 261.523 266.222 268.707 262.277 273.97V273.98ZM234.793 253.317C231.048 258.313 230.093 265.134 232.901 271.038C234.802 275.05 238.165 278.05 242.359 279.492C246.648 280.963 251.272 280.648 255.389 278.584C263.815 274.362 267.426 264.102 263.442 255.714C261.541 251.702 258.179 248.702 253.985 247.26C249.696 245.789 245.072 246.104 240.954 248.167C238.452 249.419 236.379 251.205 234.793 253.317Z" fill="black"/>
<path d="M258.216 264.78C256.802 261.8 254.051 261.131 249.58 261.733C245.921 262.22 244.097 261.981 243.199 260.09C242.54 258.704 242.941 256.459 246.046 254.902C248.109 253.871 249.915 253.708 250.822 253.699L250.622 251.158C249.361 251.158 247.45 251.521 245.119 252.686C245.109 252.686 245.09 252.705 245.081 252.705L243.619 249.629L241.814 250.537L243.352 253.766C240.247 256.02 239.101 259.182 240.381 261.876C241.737 264.732 244.852 265.296 249.122 264.608C252.695 264.121 254.424 264.599 255.331 266.49C256.306 268.535 255.217 270.827 252.217 272.337C250.192 273.349 247.975 273.712 246.313 273.655L246.619 276.225C248.176 276.34 250.851 275.709 253.039 274.61C253.096 274.582 253.153 274.544 253.21 274.515L254.443 277.104L256.248 276.196L254.959 273.474C258.704 270.866 259.525 267.493 258.235 264.78H258.216Z" fill="black"/>
<path d="M257.251 264.532C255.838 261.551 253.086 260.883 248.615 261.484C244.957 261.972 243.132 261.733 242.234 259.841C241.575 258.456 241.976 256.211 245.081 254.654C247.144 253.622 248.95 253.46 249.857 253.45L249.657 250.909C248.405 250.909 246.485 251.272 244.154 252.438C244.145 252.438 244.126 252.457 244.116 252.457L242.654 249.381L240.849 250.288L242.387 253.517C239.282 255.772 238.136 258.934 239.416 261.628C240.772 264.484 243.887 265.048 248.157 264.36C251.73 263.873 253.459 264.35 254.366 266.242C255.341 268.286 254.252 270.579 251.252 272.088C249.227 273.101 247.011 273.464 245.358 273.407L245.664 275.976C247.221 276.091 249.896 275.461 252.083 274.362C252.141 274.333 252.198 274.295 252.255 274.266L253.488 276.855L255.293 275.948L253.994 273.225C257.739 270.617 258.56 267.245 257.271 264.532H257.251Z" fill="white"/>
<path d="M255.877 276.158L253.24 277.477L252.008 274.888C249.849 275.919 247.25 276.55 245.588 276.435L245.206 276.407L244.795 272.929L245.33 272.948C247.164 273.015 249.285 272.538 251.005 271.678C253.689 270.331 254.807 268.325 253.918 266.443C253.125 264.78 251.626 264.351 248.187 264.819C243.248 265.612 240.315 264.666 238.968 261.829C237.63 259.02 238.739 255.734 241.776 253.374L240.21 250.078L242.846 248.76L244.308 251.846C246.868 250.632 248.731 250.451 249.639 250.451H250.059L250.336 253.909H249.839C248.779 253.928 247.117 254.138 245.263 255.074C242.579 256.421 242.006 258.342 242.627 259.65C243.362 261.198 244.795 261.532 248.53 261.036C253.498 260.367 256.23 261.351 257.644 264.341C259.115 267.436 257.921 270.875 254.53 273.388L255.848 276.168L255.877 276.158ZM253.67 276.235L254.654 275.738L253.383 273.073L253.708 272.853C256.947 270.598 258.141 267.494 256.832 264.733C255.6 262.134 253.231 261.332 248.674 261.943C245.044 262.43 242.875 262.278 241.815 260.042C241.003 258.323 241.633 255.867 244.872 254.243C246.62 253.364 248.215 253.078 249.362 253.011L249.228 251.387C248.253 251.444 246.572 251.74 244.356 252.858C244.346 252.858 244.327 252.877 244.318 252.877L243.897 253.087L242.436 250.002L241.452 250.499L242.961 253.67L242.646 253.899C239.751 256.001 238.643 258.963 239.828 261.437C240.974 263.844 243.591 264.637 248.081 263.911C252.514 263.309 253.957 264.331 254.778 266.051C255.896 268.401 254.587 270.933 251.454 272.509C249.734 273.369 247.728 273.856 245.865 273.885L246.056 275.537C247.623 275.537 249.983 274.897 251.864 273.951C251.893 273.942 251.912 273.923 251.941 273.913C251.97 273.894 251.998 273.875 252.036 273.865L252.457 273.646L253.689 276.235H253.67Z" fill="black"/>
<path d="M100.228 202.81L98.1738 211.522L100.151 221.008L102.062 211.742L100.228 202.81Z" fill="white"/>
<path d="M107.02 211.694L100.476 209.936L93.3496 211.646L100.314 213.28L107.03 211.703L107.02 211.694Z" fill="white"/>
<path d="M284.392 290.096L282.338 298.808L284.315 308.295L286.226 299.028L284.392 290.096Z" fill="white"/>
<path d="M291.184 298.971L284.64 297.213L277.514 298.923L284.478 300.557L291.194 298.98L291.184 298.971Z" fill="white"/>
<path d="M194.679 219.336L192.625 228.049L194.602 237.535L196.513 228.268L194.679 219.336Z" fill="white"/>
<path d="M201.471 228.211L194.927 226.453L187.801 228.163L194.765 229.797L201.481 228.22L201.471 228.211Z" fill="white"/>
<path d="M311.878 134L309.824 142.712L311.802 152.199L313.712 142.932L311.878 134Z" fill="white"/>
<path d="M318.67 142.875L312.127 141.117L305 142.827L311.964 144.46L318.68 142.884L318.67 142.875Z" fill="white"/>
<path d="M217.708 74.5204L215.367 84.4497L217.621 95.2608L219.798 84.7001L217.708 74.5204Z" fill="white"/>
<path d="M225.449 84.6347L217.991 82.6315L209.869 84.5803L217.806 86.442L225.46 84.6456L225.449 84.6347Z" fill="white"/>
<path d="M235.06 143.198L232.146 155.541L234.955 168.973L237.659 155.856L235.06 143.208V143.198Z" fill="white"/>
<path d="M244.681 155.761L235.414 153.267L225.316 155.684L235.175 157.996L244.681 155.761Z" fill="white"/>
<path d="M291.998 230.905L289.084 243.248L291.893 256.679L294.596 243.563L291.998 230.914V230.905Z" fill="white"/>
<path d="M301.618 243.467L292.352 240.974L282.254 243.391L292.113 245.703L301.618 243.467Z" fill="white"/>
<path d="M150.42 255.848L147.506 268.19L150.314 281.622L153.018 268.506L150.42 255.857V255.848Z" fill="white"/>
<path d="M160.04 268.41L150.773 265.917L140.676 268.334L150.535 270.646L160.04 268.41Z" fill="white"/>
<path d="M289.332 162.075C290.115 164.902 282.884 169.431 273.168 172.191C263.453 174.952 254.941 174.895 254.148 172.067C253.365 169.239 260.596 164.711 270.312 161.95C280.027 159.19 288.539 159.247 289.332 162.075Z" fill="white"/>
<path d="M274.104 174.828C263.777 177.761 254.549 177.197 253.536 173.567C252.523 169.937 260.099 164.597 270.426 161.664C280.753 158.731 289.981 159.295 290.994 162.925C292.006 166.555 284.431 171.895 274.104 174.828ZM271.945 162.275C262.869 164.855 256.096 169.096 256.832 171.733C257.568 174.37 265.544 174.417 274.62 171.848C283.686 169.268 290.468 165.027 289.733 162.39C288.997 159.753 281.02 159.706 271.945 162.275Z" fill="white"/>
<path d="M274.726 174.828C274.535 174.886 274.344 174.943 274.153 175C269.128 176.433 264.198 177.083 260.272 176.844C256.298 176.596 253.824 175.459 253.317 173.644C253.021 172.593 253.394 171.399 254.425 170.109C255.658 168.552 257.769 166.937 260.549 165.428C263.386 163.89 266.787 162.533 270.389 161.511C275.414 160.078 280.343 159.429 284.269 159.667C288.243 159.916 290.718 161.053 291.224 162.877C291.52 163.928 291.147 165.113 290.116 166.412C288.883 167.969 286.763 169.584 283.992 171.093C281.308 172.555 278.117 173.844 274.735 174.838L274.726 174.828ZM274.057 174.666C281.117 172.66 287.269 169.364 289.724 166.259C290.679 165.055 291.033 163.947 290.765 162.992C290.297 161.301 287.938 160.241 284.145 160.011C280.286 159.773 275.433 160.422 270.475 161.826C263.415 163.833 257.263 167.128 254.807 170.233C253.852 171.446 253.499 172.545 253.766 173.5C254.234 175.191 256.594 176.252 260.387 176.481C264.246 176.72 269.099 176.07 274.057 174.666ZM275.28 171.829C275.07 171.886 274.869 171.953 274.659 172.01C270.245 173.261 265.946 173.94 262.555 173.921C259.097 173.902 256.986 173.147 256.603 171.8C256.422 171.141 256.661 170.386 257.32 169.545C259.364 166.966 265.087 164.043 271.898 162.113C276.312 160.862 280.61 160.183 284.002 160.202C287.46 160.222 289.571 160.976 289.953 162.323C290.135 162.982 289.896 163.737 289.237 164.578C287.25 167.081 281.814 169.899 275.28 171.829ZM271.401 162.61C265.058 164.482 259.603 167.3 257.702 169.689C257.11 170.434 256.89 171.102 257.052 171.676C257.387 172.879 259.374 173.558 262.641 173.577C265.975 173.596 270.217 172.927 274.573 171.685C281.165 169.813 286.906 166.899 288.855 164.434C289.447 163.689 289.667 163.021 289.504 162.447C289.17 161.244 287.183 160.565 283.916 160.546C280.582 160.527 276.34 161.196 271.984 162.428C271.783 162.486 271.592 162.543 271.392 162.6L271.401 162.61Z" fill="black"/>
<path d="M273.253 172.517C262.926 175.449 253.841 175.392 253.01 172.392C252.169 169.393 259.888 164.559 270.215 161.626C280.542 158.693 289.627 158.751 290.458 161.75C291.299 164.75 283.58 169.584 273.253 172.517ZM270.397 162.285C261.321 164.865 254.548 169.106 255.284 171.743C256.019 174.38 263.996 174.427 273.071 171.857C282.137 169.278 288.92 165.037 288.184 162.4C287.449 159.763 279.472 159.716 270.397 162.285Z" fill="white"/>
<path d="M274.008 172.469C273.769 172.535 273.54 172.602 273.301 172.669C268.276 174.093 263.385 174.866 259.535 174.847C255.609 174.819 253.211 173.968 252.791 172.449C252.581 171.704 252.858 170.845 253.603 169.908C255.934 166.976 262.43 163.661 270.178 161.454C275.202 160.03 280.094 159.257 283.944 159.276C287.87 159.304 290.268 160.155 290.688 161.674C290.898 162.419 290.621 163.278 289.876 164.215C287.621 167.062 281.431 170.262 274.008 172.459V172.469ZM269.566 161.979C266.041 163.021 262.745 164.31 259.984 165.724C257.138 167.186 255.055 168.676 253.975 170.042C253.297 170.892 253.049 171.666 253.23 172.316C253.612 173.701 255.886 174.475 259.612 174.494C263.414 174.522 268.238 173.758 273.206 172.344C276.989 171.265 280.543 169.908 283.485 168.399C286.332 166.937 288.414 165.447 289.494 164.081C290.172 163.231 290.421 162.457 290.239 161.807C289.857 160.422 287.583 159.648 283.858 159.629C280.055 159.601 275.231 160.365 270.263 161.779C270.034 161.846 269.795 161.912 269.566 161.979ZM273.741 171.829C273.54 171.886 273.33 171.953 273.12 172.01C268.706 173.261 264.407 173.94 261.016 173.921C257.558 173.902 255.447 173.147 255.064 171.8C254.883 171.141 255.122 170.386 255.781 169.545C257.825 166.966 263.548 164.043 270.359 162.113C274.773 160.862 279.071 160.183 282.463 160.202C285.921 160.221 288.032 160.976 288.414 162.323C288.596 162.982 288.357 163.737 287.698 164.578C285.711 167.081 280.275 169.899 273.741 171.829ZM269.862 162.61C263.519 164.482 258.064 167.3 256.163 169.689C255.571 170.434 255.351 171.102 255.513 171.676C255.848 172.879 257.835 173.558 261.102 173.577C264.436 173.596 268.678 172.927 273.034 171.685C273.234 171.628 273.426 171.571 273.626 171.513C279.969 169.641 285.424 166.823 287.325 164.434C287.918 163.689 288.137 163.021 287.975 162.447C287.641 161.244 285.654 160.565 282.386 160.546C279.052 160.527 274.811 161.196 270.455 162.438C270.254 162.495 270.063 162.552 269.862 162.61Z" fill="black"/>
<path d="M280.132 166.402C279.874 165.495 277.677 165.571 273.531 166.307C270.14 166.909 268.611 167.033 268.449 166.46C268.334 166.039 269.433 165.18 272.69 164.253C274.849 163.642 276.493 163.374 277.305 163.259L277.973 162.361C276.865 162.505 275.06 162.858 272.614 163.556C272.595 163.556 272.585 163.556 272.576 163.565L272.318 162.619L270.417 163.154L270.694 164.148C267.207 165.323 265.144 166.603 265.373 167.425C265.621 168.304 268.172 168.141 272.165 167.396C275.48 166.804 276.846 166.775 277.008 167.348C277.18 167.979 275.461 168.934 272.308 169.822C270.188 170.424 268.115 170.816 266.672 170.988L266.08 171.886C267.417 171.743 269.977 171.208 272.28 170.548C272.347 170.529 272.404 170.51 272.461 170.491L272.681 171.284L274.582 170.749L274.353 169.918C278.527 168.542 280.371 167.224 280.142 166.393L280.132 166.402Z" fill="black"/>
<path d="M279.359 166.431C279.101 165.524 276.904 165.6 272.758 166.336C269.366 166.937 267.838 167.071 267.675 166.488C267.561 166.068 268.659 165.208 271.917 164.282C274.076 163.67 275.719 163.403 276.531 163.288L277.2 162.39C276.092 162.533 274.286 162.887 271.841 163.584C271.821 163.584 271.812 163.584 271.802 163.594L271.544 162.648L269.643 163.183L269.92 164.177C266.434 165.352 264.37 166.632 264.599 167.453C264.848 168.332 267.398 168.17 271.392 167.425C274.707 166.832 276.073 166.804 276.235 167.386C276.407 168.017 274.687 168.972 271.535 169.861C269.414 170.463 267.341 170.854 265.899 171.026L265.306 171.924C266.644 171.781 269.204 171.246 271.506 170.587C271.573 170.568 271.63 170.549 271.688 170.529L271.907 171.322L273.809 170.787L273.579 169.956C277.754 168.581 279.598 167.262 279.368 166.431H279.359Z" fill="white"/>
<path d="M274.075 170.892L271.725 171.561L271.506 170.768C269.289 171.399 266.681 171.953 265.287 172.106L264.914 172.144L265.745 170.883L265.888 170.864C267.532 170.673 269.614 170.243 271.477 169.708C273.798 169.049 275.451 168.323 275.9 167.75C275.986 167.635 276.024 167.539 275.996 167.453C275.871 167.004 274.496 167.043 271.391 167.606C266.786 168.466 264.618 168.447 264.36 167.53C264.102 166.613 266.127 165.304 269.643 164.1L269.366 163.097L271.716 162.428L271.974 163.374C274.687 162.61 276.406 162.323 277.199 162.218L277.61 162.161L276.655 163.441L276.531 163.46C275.556 163.594 273.97 163.871 271.955 164.444C268.869 165.323 268.133 166.02 267.98 166.211C267.933 166.269 267.875 166.355 267.904 166.422C268.038 166.899 269.853 166.68 272.748 166.164C276.626 165.476 279.272 165.237 279.588 166.364C279.865 167.367 277.725 168.743 273.846 170.042L274.085 170.883L274.075 170.892ZM272.088 171.103L273.54 170.692L273.311 169.87L273.521 169.803C277.944 168.342 279.31 167.109 279.148 166.498C278.938 165.753 276.98 165.762 272.786 166.508C269.347 167.119 267.675 167.281 267.465 166.555C267.436 166.46 267.446 166.288 267.618 166.078C268.105 165.457 269.624 164.769 271.888 164.119C273.856 163.565 275.413 163.279 276.416 163.135L276.798 162.629C275.881 162.772 274.266 163.088 271.897 163.756H271.859L271.63 163.833L271.362 162.887L269.92 163.298L270.197 164.282L269.987 164.349C266.194 165.629 264.666 166.804 264.828 167.406C265.019 168.093 267.226 168.046 271.381 167.272C274.945 166.632 276.273 166.651 276.464 167.329C276.511 167.501 276.464 167.692 276.301 167.893C275.766 168.562 274.094 169.326 271.592 170.033C269.757 170.558 267.694 170.988 266.041 171.189L265.697 171.705C267.13 171.513 269.471 170.998 271.467 170.424C271.496 170.424 271.534 170.405 271.563 170.396C271.592 170.396 271.62 170.377 271.649 170.367L271.878 170.3L272.098 171.093L272.088 171.103Z" fill="black"/>
<path d="M277.658 160.69C277.658 160.69 286.447 159.257 288.186 162.4C288.186 162.4 288.721 163.861 286.103 165.887C286.103 165.887 292.714 159.973 277.658 160.69Z" fill="black"/>
<path d="M346.114 113.897C342.79 116.142 333.791 108.69 326.033 97.2648C318.267 85.8393 314.675 74.7577 317.999 72.5222C321.324 70.2773 330.323 77.7287 338.08 89.1542C345.847 100.58 349.439 111.661 346.114 113.897Z" fill="white"/>
<path d="M323.006 99.6247C314.752 87.4731 311.514 75.2547 315.794 72.3696C320.074 69.4942 330.267 77.0316 338.521 89.1736C346.774 101.325 350.013 113.544 345.733 116.429C341.453 119.304 331.26 111.767 323.006 99.6247ZM338.368 91.4185C331.117 80.7477 322.691 73.774 319.586 75.8661C316.482 77.9582 319.854 88.3424 327.105 99.0133C334.355 109.684 342.781 116.658 345.886 114.566C348.991 112.474 345.619 102.089 338.368 91.4185Z" fill="white"/>
<path d="M323.274 100.436C323.121 100.207 322.958 99.9875 322.805 99.7582C318.784 93.8448 315.813 87.7213 314.437 82.5244C313.042 77.2511 313.453 73.554 315.602 72.1115C316.835 71.2804 318.545 71.2517 320.675 72.0255C323.216 72.9522 326.235 75.0061 329.378 77.9676C332.597 80.9863 335.826 84.8171 338.702 89.0587C342.724 94.9721 345.695 101.086 347.07 106.293C348.465 111.566 348.054 115.263 345.905 116.705C344.673 117.537 342.963 117.565 340.832 116.791C338.291 115.865 335.272 113.811 332.129 110.849C329.082 107.993 326.034 104.401 323.274 100.436ZM323.188 99.5003C328.833 107.802 335.759 114.365 340.851 116.228C342.829 116.954 344.415 116.935 345.542 116.17C347.538 114.833 347.892 111.317 346.564 106.283C345.208 101.172 342.284 95.1441 338.32 89.3071C332.674 81.0055 325.748 74.4329 320.656 72.5796C318.679 71.8536 317.093 71.8727 315.965 72.6369C313.978 73.9744 313.615 77.4899 314.943 82.5244C316.3 87.6353 319.223 93.6633 323.188 99.5003ZM327.401 99.8633C327.238 99.6245 327.066 99.3856 326.904 99.1372C323.369 93.9404 320.637 88.6479 319.204 84.244C317.742 79.7444 317.809 76.6683 319.395 75.608C320.169 75.0825 321.258 75.073 322.624 75.5697C326.856 77.1173 333.113 83.2886 338.549 91.2941C342.074 96.491 344.806 101.774 346.239 106.187C347.701 110.687 347.634 113.763 346.048 114.833C345.274 115.358 344.185 115.368 342.819 114.871C338.711 113.371 332.712 107.525 327.391 99.8728L327.401 99.8633ZM337.699 90.8547C332.531 83.4224 326.531 77.5472 322.614 76.1143C321.392 75.6653 320.436 75.6748 319.758 76.1143C318.335 77.0696 318.316 79.9355 319.691 84.1866C321.095 88.5237 323.799 93.7397 327.276 98.8698C332.54 106.617 338.797 112.817 342.838 114.298C344.061 114.747 345.016 114.737 345.695 114.298C347.109 113.343 347.137 110.477 345.752 106.226C344.348 101.889 341.644 96.6726 338.167 91.5425C338.014 91.3133 337.852 91.084 337.689 90.8547H337.699Z" fill="black"/>
<path d="M325.644 97.5324C317.39 85.3809 313.549 73.5637 317.084 71.185C320.619 68.8062 330.21 76.7449 338.473 88.8964C346.727 101.048 350.568 112.865 347.033 115.244C343.498 117.623 333.907 109.684 325.644 97.5324ZM337.69 89.4218C330.439 78.751 322.014 71.7773 318.909 73.8694C315.804 75.9615 319.176 86.3457 326.427 97.0166C333.678 107.687 342.104 114.661 345.208 112.569C348.313 110.477 344.941 100.093 337.69 89.4218Z" fill="white"/>
<path d="M326.016 98.4877C325.825 98.2106 325.634 97.9431 325.443 97.6565C321.43 91.7432 318.316 85.7343 316.692 80.7093C315.03 75.5984 315.106 72.1211 316.902 70.9078C317.781 70.3155 319.013 70.306 320.551 70.8696C325.366 72.6274 332.464 79.6489 338.655 88.753C342.667 94.6569 345.781 100.675 347.405 105.7C349.067 110.811 348.991 114.288 347.195 115.502C346.316 116.094 345.084 116.104 343.546 115.54C338.884 113.839 332.063 107.181 326.006 98.4877H326.016ZM337.709 88.199C334.843 84.072 331.748 80.3463 328.719 77.3753C325.596 74.2992 322.758 72.2548 320.532 71.4333C319.128 70.9174 318.029 70.927 317.256 71.4428C315.632 72.5414 315.603 75.8181 317.179 80.6711C318.784 85.6196 321.86 91.5617 325.825 97.3986C328.853 101.85 332.158 105.882 335.378 109.044C338.502 112.11 341.339 114.164 343.565 114.986C344.969 115.502 346.068 115.492 346.842 114.976C348.466 113.878 348.494 110.601 346.918 105.748C345.313 100.8 342.237 94.8575 338.272 89.0205C338.081 88.7435 337.9 88.476 337.709 88.199ZM326.723 97.8571C326.56 97.6183 326.388 97.3699 326.226 97.1311C322.701 91.9342 319.959 86.6418 318.536 82.2378C317.074 77.7383 317.141 74.6622 318.727 73.5923C319.501 73.0668 320.59 73.0573 321.956 73.5541C326.188 75.1017 332.436 81.273 337.881 89.2785C341.415 94.4754 344.148 99.7582 345.571 104.172C347.033 108.671 346.966 111.747 345.38 112.808C344.606 113.333 343.517 113.343 342.151 112.846C338.043 111.346 332.044 105.5 326.723 97.8476V97.8571ZM337.021 88.8486C331.853 81.4163 325.853 75.5411 321.937 74.1081C320.714 73.6591 319.759 73.6687 319.08 74.1081C317.666 75.0634 317.638 77.9294 319.023 82.1805C320.427 86.5176 323.131 91.7336 326.608 96.8636C326.761 97.0929 326.923 97.3222 327.086 97.5514C332.254 104.974 338.253 110.859 342.17 112.292C343.393 112.741 344.348 112.731 345.027 112.292C346.45 111.337 346.469 108.471 345.093 104.22C343.689 99.8824 340.986 94.6664 337.508 89.5364C337.355 89.3071 337.193 89.0778 337.031 88.8486H337.021Z" fill="black"/>
<path d="M336.523 103.819C337.593 103.093 336.552 100.275 333.801 95.2121C331.556 91.0756 330.734 89.1363 331.422 88.6777C331.919 88.3434 333.504 89.3942 336.112 93.225C337.841 95.7661 338.892 97.7914 339.389 98.7945L340.841 99.2721C340.172 97.8965 338.931 95.6993 336.982 92.8238C336.972 92.8047 336.963 92.7951 336.943 92.776L338.052 92.0309L336.533 89.7955L335.367 90.5788C332.339 86.5569 329.788 84.4266 328.814 85.0762C327.782 85.7736 329.091 89.0216 331.785 93.8842C333.982 97.9347 334.612 99.6925 333.925 100.151C333.189 100.648 331.202 98.8231 328.69 95.1165C326.989 92.6136 325.594 90.0916 324.754 88.2956L323.34 87.9135C324.095 89.5853 325.9 92.69 327.744 95.3936C327.792 95.47 327.839 95.5369 327.897 95.6037L326.96 96.2342L328.479 98.4697L329.463 97.8105C333.046 102.635 335.558 104.469 336.533 103.81L336.523 103.819Z" fill="black"/>
<path d="M336.162 102.835C337.232 102.109 336.19 99.2912 333.439 94.228C331.194 90.0916 330.372 88.1523 331.051 87.6937C331.547 87.3594 333.143 88.4102 335.741 92.2506C337.47 94.7917 338.521 96.8074 339.018 97.82L340.47 98.2977C339.801 96.922 338.559 94.7248 336.611 91.8493C336.601 91.8302 336.591 91.8207 336.572 91.8016L337.681 91.0564L336.162 88.821L334.996 89.6043C331.968 85.5825 329.417 83.4521 328.443 84.1018C327.411 84.7991 328.72 88.0472 331.414 92.9097C333.611 96.9602 334.241 98.718 333.554 99.1766C332.818 99.6733 330.831 97.8487 328.318 94.1421C326.618 91.6392 325.223 89.1171 324.383 87.3211L322.969 86.939C323.723 88.6108 325.529 91.7156 327.373 94.4191C327.42 94.4955 327.468 94.5624 327.526 94.6293L326.589 95.2598L328.108 97.4952L329.092 96.836C332.675 101.66 335.187 103.495 336.162 102.835Z" fill="white"/>
<path d="M328.099 97.8873L326.227 95.1265L327.153 94.4959C325.386 91.888 323.542 88.745 322.749 86.9968L322.539 86.5382L324.536 87.0827L324.622 87.2547C325.577 89.2991 327.039 91.8306 328.529 94.0183C330.382 96.7409 332.044 98.5751 332.971 98.919C333.153 98.9859 333.296 98.9859 333.391 98.919C333.917 98.5656 333.267 96.7887 331.213 93.0057C328.109 87.3884 327.211 84.5607 328.28 83.8347C329.36 83.1086 331.93 85.1626 335.006 89.2131L336.19 88.4202L338.063 91.181L336.955 91.9262C339.114 95.1265 340.222 97.2281 340.7 98.2121L340.948 98.7184L338.884 98.0306L338.808 97.8777C338.216 96.6645 337.174 94.7348 335.56 92.3656C333.095 88.7354 331.872 88.0763 331.557 87.9616C331.462 87.9234 331.328 87.8948 331.242 87.9521C330.678 88.3342 331.748 90.5983 333.659 94.1329C336.229 98.8713 337.671 102.205 336.343 103.103C335.159 103.896 332.455 101.709 329.092 97.2281L328.099 97.8969V97.8873ZM326.962 95.3939L328.118 97.0944L329.092 96.4352L329.274 96.6836C333.076 101.795 335.264 103.046 335.98 102.559C336.85 101.976 335.999 99.4254 333.219 94.3049C330.946 90.1015 330.01 87.9998 330.869 87.4171C330.984 87.3407 331.204 87.2738 331.557 87.4075C332.57 87.7801 334.117 89.4424 335.933 92.1077C337.499 94.4195 338.541 96.3301 339.161 97.5721L339.983 97.8491C339.41 96.7218 338.302 94.7539 336.41 91.9644L336.372 91.9166L336.19 91.6491L337.299 90.904L336.143 89.2035L334.987 89.9773L334.805 89.7385C331.509 85.3632 329.322 83.8824 328.615 84.3601C327.803 84.9046 328.815 87.7515 331.615 92.8146C333.974 97.1708 334.528 98.8999 333.726 99.4445C333.525 99.5782 333.248 99.5878 332.923 99.4731C331.825 99.0719 330.115 97.2281 328.118 94.2762C326.647 92.1172 325.204 89.6239 324.23 87.5699L323.408 87.3502C324.278 89.1271 325.95 91.9357 327.554 94.2953C327.583 94.3335 327.602 94.3718 327.631 94.4004C327.66 94.4386 327.679 94.4673 327.707 94.5055L327.889 94.773L326.953 95.4035L326.962 95.3939Z" fill="black"/>
<path d="M332.042 110.44L331.756 110.163L334.412 108.405L334.689 108.692L332.042 110.44Z" fill="black"/>
<path d="M332.904 111.233L332.607 110.965L335.225 109.227L335.512 109.504L332.904 111.233Z" fill="black"/>
<path d="M333.657 111.892L333.342 111.634L335.931 109.914L336.227 110.191L333.657 111.892Z" fill="black"/>
<path d="M334.555 112.656L334.24 112.398L336.8 110.707L337.106 110.975L334.565 112.656H334.555Z" fill="black"/>
<path d="M335.424 113.344L335.1 113.096L337.612 111.433L337.918 111.701L335.415 113.354L335.424 113.344Z" fill="black"/>
<path d="M336.227 113.937L335.883 113.698L338.367 112.055L338.682 112.313L336.227 113.937Z" fill="black"/>
<path d="M337.069 114.557L336.744 114.309L339.18 112.695L339.515 112.943L337.079 114.557H337.069Z" fill="black"/>
<path d="M337.89 115.083L337.67 114.758L339.944 113.258L340.287 113.497L337.89 115.083Z" fill="black"/>
<path d="M338.845 115.646L338.625 115.322L340.841 113.86L341.204 114.089L338.845 115.646Z" fill="black"/>
<path d="M339.868 116.105L339.457 115.914L341.731 114.405L342.122 114.615L339.868 116.105Z" fill="black"/>
<path d="M340.727 116.468L340.287 116.296L342.513 114.825L342.924 115.016L340.727 116.468Z" fill="black"/>
<path d="M341.683 116.774L341.205 116.621L343.374 115.188L343.832 115.35L341.692 116.774H341.683Z" fill="black"/>
<path d="M342.589 116.974L342.045 116.869L344.166 115.465L344.691 115.589L342.589 116.984V116.974Z" fill="black"/>
<path d="M343.317 117.041L342.811 116.984L344.893 115.608L345.419 115.656L343.326 117.041H343.317Z" fill="black"/>
<path d="M344.071 117.022L343.555 117.051L345.656 115.666L346.22 115.599L344.071 117.022Z" fill="black"/>
<g opacity="0.74">
<path d="M330.906 109.332L330.629 109.045L333.313 107.269L333.562 107.574L330.906 109.332Z" fill="black"/>
</g>
<g opacity="0.55">
<path d="M329.293 107.622L329.016 107.335L331.757 105.52L332.015 105.816L329.293 107.622Z" fill="black"/>
</g>
<path d="M313.959 75.9898L314.035 75.4739L315.774 74.3275V74.7956L313.969 75.9993L313.959 75.9898Z" fill="black"/>
<path d="M313.931 77.1092L313.912 76.6506L315.794 75.3992L315.832 75.8386L313.922 77.0996L313.931 77.1092Z" fill="black"/>
<path d="M313.951 78.4085L313.922 77.9595L315.938 76.622L316.004 77.0424L313.951 78.3989V78.4085Z" fill="black"/>
<path d="M314.112 79.7174L314.035 79.297L316.156 77.8927L316.251 78.294L314.112 79.7174Z" fill="black"/>
<path d="M314.322 80.9784L314.236 80.5676L316.462 79.0965L316.567 79.4977L314.322 80.988V80.9784Z" fill="black"/>
<path d="M314.819 82.2772L314.6 81.9524L316.711 80.5577L316.931 80.8825L314.819 82.2772Z" fill="black"/>
<path d="M315.058 83.7964L314.943 83.4047L317.293 81.8475L317.475 82.201L315.068 83.7964H315.058Z" fill="black"/>
<path d="M315.477 85.0957L315.344 84.7136L317.789 83.0895L317.942 83.4526L315.477 85.0861V85.0957Z" fill="black"/>
<path d="M315.975 86.4616L315.832 86.089L318.335 84.4268L318.507 84.7802L315.975 86.4616Z" fill="black"/>
<path d="M316.626 88.0668L316.473 87.7038L319.033 86.0033L319.214 86.3568L316.626 88.0668Z" fill="black"/>
<path d="M317.782 90.6172L317.619 90.2542L320.265 88.4964L320.447 88.8499L317.782 90.6172Z" fill="black"/>
<path d="M319.166 93.3496L318.984 93.0056L321.707 91.2001L321.898 91.544L319.166 93.3496Z" fill="black"/>
<path d="M342.886 98.1453C342.886 98.1453 348.522 108.94 345.207 112.561C345.207 112.561 343.545 113.889 339.781 111.357C339.781 111.357 350.309 117.395 342.886 98.1453Z" fill="black"/>
<path d="M349.995 223.76C342.514 228.651 332.312 226.549 327.201 219.06C322.09 211.579 324.001 201.549 331.471 196.658C338.951 191.766 349.154 193.868 354.265 201.348C359.376 208.828 357.465 218.859 349.995 223.75V223.76Z" fill="white"/>
<path d="M326.34 220.836C320.905 212.878 322.949 202.179 330.888 196.982C338.836 191.785 349.726 194.03 355.162 201.978C360.598 209.936 358.553 220.636 350.615 225.832C342.667 231.029 331.776 228.784 326.34 220.836ZM353.414 203.125C348.637 196.141 339.075 194.164 332.091 198.73C325.108 203.297 323.321 212.697 328.088 219.68C332.865 226.664 342.428 228.641 349.411 224.075C356.394 219.508 358.181 210.108 353.404 203.125H353.414Z" fill="black"/>
<path d="M326.321 219.633C320.885 211.675 322.929 200.976 330.868 195.779C338.816 190.582 349.707 192.827 355.142 200.775C360.578 208.733 358.534 219.432 350.595 224.629C342.647 229.826 331.756 227.581 326.321 219.633ZM353.394 201.922C348.618 194.929 339.055 192.961 332.072 197.527C325.088 202.093 323.302 211.494 328.069 218.477C332.846 225.46 342.408 227.438 349.391 222.871C356.375 218.305 358.161 208.905 353.385 201.922H353.394Z" fill="white"/>
<path d="M332.187 225.517C329.779 224.18 327.639 222.279 325.987 219.862C323.264 215.888 322.28 211.13 323.207 206.468C324.114 201.902 326.76 197.985 330.649 195.444C338.778 190.123 349.917 192.416 355.477 200.555C358.2 204.529 359.184 209.286 358.257 213.948C357.35 218.515 354.703 222.431 350.815 224.973C345.102 228.717 337.89 228.689 332.187 225.517ZM348.885 195.606C343.431 192.578 336.552 192.549 331.098 196.122C327.381 198.549 324.869 202.284 324 206.631C323.121 211.073 324.057 215.61 326.655 219.413C331.967 227.189 342.609 229.377 350.376 224.304C354.082 221.877 356.604 218.142 357.474 213.795C358.353 209.353 357.416 204.815 354.818 201.013C353.242 198.701 351.188 196.886 348.895 195.606H348.885ZM333.199 223.692C331.079 222.508 329.197 220.836 327.735 218.715C325.337 215.209 324.468 211.015 325.28 206.917C326.082 202.895 328.404 199.447 331.843 197.202C339.008 192.521 348.819 194.536 353.719 201.701C356.117 205.207 356.987 209.401 356.174 213.499C355.372 217.521 353.041 220.97 349.612 223.215C344.577 226.511 338.224 226.491 333.199 223.692ZM347.863 197.421C343.087 194.766 337.068 194.746 332.292 197.87C329.044 199.991 326.837 203.268 326.082 207.07C325.308 210.958 326.14 214.932 328.404 218.257C333.056 225.068 342.37 226.988 349.172 222.536C352.42 220.416 354.627 217.139 355.382 213.337C356.155 209.449 355.324 205.475 353.06 202.15C351.685 200.125 349.889 198.539 347.873 197.421H347.863Z" fill="black"/>
<path d="M340.698 219.088C343.115 217.512 343.373 215.047 342.322 211.235C341.462 208.121 341.453 206.506 342.991 205.503C344.109 204.768 346.105 204.844 347.825 207.357C348.962 209.019 349.315 210.566 349.43 211.359L351.608 210.882C351.465 209.793 350.92 208.169 349.63 206.287C349.63 206.277 349.611 206.268 349.611 206.258L352.105 204.624L351.102 203.163L348.484 204.873C346.172 202.446 343.287 201.825 341.109 203.258C338.797 204.777 338.673 207.538 339.772 211.159C340.612 214.197 340.412 215.754 338.874 216.757C337.211 217.846 335.1 217.168 333.438 214.741C332.32 213.108 331.747 211.226 331.604 209.783L329.416 210.347C329.502 211.713 330.362 213.948 331.575 215.725C331.613 215.773 331.642 215.811 331.68 215.868L329.578 217.244L330.581 218.706L332.788 217.263C335.482 220.206 338.511 220.521 340.708 219.078L340.698 219.088Z" fill="black"/>
<path d="M340.794 218.219C343.211 216.643 343.469 214.178 342.418 210.366C341.558 207.252 341.549 205.647 343.087 204.635C344.204 203.899 346.201 203.975 347.921 206.488C349.057 208.15 349.411 209.698 349.525 210.491L351.704 210.013C351.56 208.924 351.016 207.3 349.726 205.418C349.726 205.408 349.707 205.399 349.707 205.389L352.2 203.756L351.197 202.294L348.58 204.004C346.268 201.578 343.383 200.957 341.205 202.39C338.893 203.909 338.769 206.669 339.867 210.29C340.708 213.328 340.507 214.885 338.969 215.888C337.307 216.977 335.196 216.299 333.534 213.873C332.416 212.239 331.843 210.357 331.699 208.914L329.512 209.478C329.598 210.844 330.457 213.08 331.671 214.856C331.699 214.904 331.738 214.952 331.776 215L329.674 216.375L330.677 217.837L332.884 216.395C335.578 219.337 338.606 219.652 340.803 218.21L340.794 218.219Z" fill="white"/>
<path d="M330.563 218.41L329.111 216.28L331.203 214.914C330.057 213.166 329.197 210.978 329.111 209.535L329.092 209.201L332.063 208.437L332.111 208.905C332.263 210.5 332.932 212.287 333.878 213.672C335.359 215.841 337.231 216.576 338.76 215.573C340.107 214.694 340.298 213.338 339.486 210.414C338.215 206.23 338.693 203.574 340.995 202.065C343.269 200.575 346.249 201.148 348.647 203.498L351.322 201.75L352.774 203.88L350.281 205.514C351.628 207.587 352.01 209.182 352.115 209.965L352.163 210.328L349.201 210.978L349.134 210.548C349 209.631 348.618 208.217 347.596 206.717C346.115 204.549 344.377 204.281 343.316 204.969C342.065 205.791 341.941 207.071 342.81 210.252C343.976 214.484 343.441 216.958 341.024 218.544C338.511 220.187 335.397 219.557 332.818 216.91L330.563 218.382V218.41ZM330.238 216.509L330.783 217.302L332.942 215.888L333.171 216.137C335.502 218.678 338.339 219.347 340.575 217.885C342.676 216.509 343.097 214.36 342.027 210.481C341.176 207.386 341.062 205.485 342.867 204.31C344.262 203.402 346.459 203.651 348.255 206.278C349.22 207.692 349.66 209.039 349.851 210.023L351.245 209.717C351.083 208.876 350.625 207.453 349.402 205.666C349.402 205.666 349.383 205.647 349.383 205.638L349.153 205.294L351.647 203.66L351.102 202.867L348.532 204.549L348.303 204.31C346.144 202.046 343.45 201.434 341.434 202.753C339.476 204.033 339.103 206.402 340.259 210.204C341.301 213.968 340.594 215.344 339.199 216.261C337.298 217.503 334.948 216.672 333.209 214.14C332.263 212.755 331.604 211.074 331.365 209.459L329.961 209.822C330.152 211.179 330.983 213.156 332.015 214.665C332.025 214.685 332.044 214.704 332.063 214.723C332.082 214.751 332.101 214.771 332.12 214.799L332.359 215.143L330.257 216.519L330.238 216.509Z" fill="black"/>
<path d="M220.94 303.47L219.451 309.087L220.561 315.278L221.972 309.296L220.94 303.47Z" fill="white"/>
<path d="M225.185 309.348L220.966 308.094L216.316 309.073L220.81 310.262L225.198 309.361L225.185 309.348Z" fill="white"/>
<path d="M240.821 215.429L239.732 219.537L240.544 224.065L241.576 219.69L240.821 215.429Z" fill="white"/>
<path d="M243.926 219.728L240.84 218.811L237.439 219.527L240.726 220.397L243.936 219.738L243.926 219.728Z" fill="white"/>
<path d="M358.849 157.174L357.76 161.282L358.572 165.81L359.604 161.435L358.849 157.174Z" fill="white"/>
<path d="M361.953 161.473L358.868 160.556L355.467 161.273L358.753 162.142L361.963 161.483L361.953 161.473Z" fill="white"/>
<path d="M277.915 90.1821L276.01 97.3666L277.43 105.286L279.234 97.634L277.915 90.1821Z" fill="white"/>
<path d="M283.345 97.7011L277.948 96.0971L272 97.3502L277.748 98.8707L283.362 97.7178L283.345 97.7011Z" fill="white"/>
<path d="M305.07 111L304.17 114.91L305.07 119.16L305.91 115L305.07 111Z" fill="white"/>
<path d="M308.13 114.97L305.19 114.19L302 114.97L305.12 115.69L308.13 114.97Z" fill="white"/>
<path d="M111.515 262.147C111.661 262.805 111.698 263.884 111.579 264.808C111.515 265.32 110.847 265.484 110.546 265.064C110.107 264.442 109.448 262.448 109.119 261.763L109.165 261.744C109.778 261.443 110.783 262.394 111.46 262.055L111.515 262.156V262.147Z" fill="black"/>
<path d="M125.816 217.661C126.575 214.853 129.309 212.412 132.034 211.269L133.177 214.817" fill="white"/>
<path d="M125.816 217.661C126.575 214.853 129.309 212.412 132.034 211.269L133.177 214.817" stroke="black" stroke-width="0.78" stroke-linecap="round" stroke-linejoin="round"/>
<path d="M143.126 207.575C144.169 207.749 145.12 208.416 145.632 209.321C144.8 209.87 143.876 210.327 142.943 210.666C143.017 209.66 143.053 208.572 143.126 207.566V207.575Z" fill="white" stroke="black" stroke-width="0.78" stroke-linecap="round" stroke-linejoin="round"/>
<path d="M112.145 262.001C112.987 261.735 113.709 261.168 114.523 260.382C122.149 252.984 125.34 248.559 132.18 240.457C135.947 236.004 138.553 232.118 142.065 227.463L133.14 227.628C130.818 229.914 121.381 238.482 119.515 240.055C116.233 242.835 107.162 250.909 107.098 251.796C106.915 254.292 106.074 256.743 104.684 258.828C104.446 259.184 104.19 259.669 104.464 260.007C104.583 260.144 104.757 260.208 104.931 260.272C106.54 260.821 106.705 261.287 108.415 261.635C109.329 261.818 111.496 262.202 112.145 262.001Z" fill="white" stroke="black" stroke-width="0.78" stroke-linecap="round" stroke-linejoin="round"/>
<path d="M143.802 210.419L147.944 225.58C148.228 226.631 147.798 227.838 146.948 228.295L140.336 231.871C140.218 231.935 140.09 231.99 139.971 232.026C139.852 232.063 139.742 232.09 139.632 232.118C139.413 232.154 139.203 232.145 139.001 232.118C138.325 231.999 137.758 231.487 137.548 230.691L130.15 203.597C129.93 202.793 130.168 202.079 130.689 201.64C130.836 201.522 131.009 201.412 131.192 201.339C131.421 201.247 131.677 201.192 131.951 201.183L139.486 201C140.455 200.982 141.443 201.814 141.736 202.866L143.802 210.437" fill="white"/>
<path d="M143.802 210.419L147.944 225.58C148.228 226.631 147.798 227.838 146.948 228.295L140.336 231.871C140.218 231.935 140.09 231.99 139.971 232.026C139.852 232.063 139.742 232.09 139.632 232.118C139.413 232.154 139.203 232.145 139.001 232.118C138.325 231.999 137.758 231.487 137.548 230.691L130.15 203.597C129.93 202.793 130.168 202.079 130.689 201.64C130.836 201.522 131.009 201.412 131.192 201.339C131.421 201.247 131.677 201.192 131.951 201.183L139.486 201C140.455 200.982 141.443 201.814 141.736 202.866L143.802 210.437" stroke="black" stroke-width="0.78" stroke-linecap="round" stroke-linejoin="round"/>
<path d="M139.632 232.109L138.343 232.447C137.639 232.538 136.935 231.953 136.651 230.902L129.254 203.808C128.952 202.71 129.299 201.842 130.013 201.604L130.077 201.586L131.192 201.302C131.055 201.366 130.936 201.458 130.826 201.567C130.461 201.961 130.323 202.646 130.543 203.46L137.94 230.554C138.16 231.35 138.617 231.889 139.138 232.054C139.285 232.099 139.449 232.118 139.614 232.099L139.632 232.109Z" fill="black" stroke="black" stroke-width="0.78" stroke-linecap="round" stroke-linejoin="round"/>
<path d="M134.264 203.835C134.392 204.301 134.136 204.768 133.67 204.877C133.203 204.987 132.664 204.694 132.527 204.192C132.389 203.689 132.7 203.213 133.194 203.131C133.688 203.049 134.136 203.369 134.264 203.835Z" stroke="black" stroke-width="0.78" stroke-linecap="round" stroke-linejoin="round"/>
<path d="M136.074 205.728C136.193 206.167 135.983 206.633 135.59 206.78C135.197 206.926 134.73 206.679 134.602 206.213C134.474 205.746 134.721 205.262 135.142 205.143C135.562 205.024 135.956 205.298 136.074 205.728Z" stroke="black" stroke-width="0.78" stroke-linecap="round" stroke-linejoin="round"/>
<path d="M137.813 215.009C138.188 214.534 138.307 213.875 138.115 213.299C137.667 211.946 136.112 211.708 134.896 211.982C133.488 212.302 132.162 212.897 130.873 213.537C129.41 214.278 127.956 215.101 126.831 216.298C125.139 218.1 124.38 220.541 123.667 222.891L122.954 223.586C114.358 230.426 106.595 235.931 97.3778 241.929C96.1983 242.697 94.9638 243.374 93.7659 244.115C92.815 244.7 92.5315 246.017 92.1109 247.032C91.0136 249.683 90.0169 252.372 89.139 255.106C89.0019 255.536 88.8739 256.011 89.075 256.413C89.2853 256.825 89.7883 256.99 90.2363 257.118C91.9371 257.584 93.8117 258.096 95.6313 257.977C97.6613 257.849 99.225 256.752 100.752 255.508C102.617 253.999 104.465 252.472 106.302 250.927C109.942 247.873 113.526 244.755 117.01 241.527C121.29 237.568 125.459 233.489 129.51 229.292L129.711 229.045C131.385 229.045 133.14 229 134.585 228.167C135.609 227.573 136.368 226.631 137.228 225.827C138.087 225.022 139.23 224.391 140.419 224.446C141.077 223.943 141.333 222.992 141.023 222.233C140.712 221.474 139.843 220.98 139.02 221.072" fill="white"/>
<path d="M137.813 215.009C138.188 214.534 138.307 213.875 138.115 213.299C137.667 211.946 136.112 211.708 134.896 211.982C133.488 212.302 132.162 212.897 130.873 213.537C129.41 214.278 127.956 215.101 126.831 216.298C125.139 218.1 124.38 220.541 123.667 222.891L122.954 223.586C114.358 230.426 106.595 235.931 97.3778 241.929C96.1983 242.697 94.9638 243.374 93.7659 244.115C92.815 244.7 92.5315 246.017 92.1109 247.032C91.0136 249.683 90.0169 252.372 89.139 255.106C89.0019 255.536 88.8739 256.011 89.075 256.413C89.2853 256.825 89.7883 256.99 90.2363 257.118C91.9371 257.584 93.8117 258.096 95.6313 257.977C97.6613 257.849 99.225 256.752 100.752 255.508C102.617 253.999 104.465 252.472 106.302 250.927C109.942 247.873 113.526 244.755 117.01 241.527C121.29 237.568 125.459 233.489 129.51 229.292L129.711 229.045C131.385 229.045 133.14 229 134.585 228.167C135.609 227.573 136.368 226.631 137.228 225.827C138.087 225.022 139.23 224.391 140.419 224.446C141.077 223.943 141.333 222.992 141.023 222.233C140.712 221.474 139.843 220.98 139.02 221.072" stroke="black" stroke-width="0.78" stroke-linecap="round" stroke-linejoin="round"/>
<path d="M135.051 214.872C135.874 214.78 136.715 214.808 137.529 214.972C138.297 215.128 139.074 215.42 139.577 216.006C140.08 216.591 140.217 217.533 139.714 218.127" fill="white"/>
<path d="M135.051 214.872C135.874 214.78 136.715 214.808 137.529 214.972C138.297 215.128 139.074 215.42 139.577 216.006C140.08 216.591 140.217 217.533 139.714 218.127" stroke="black" stroke-width="0.78" stroke-linecap="round" stroke-linejoin="round"/>
<path d="M137.127 217.889C137.831 217.908 138.535 217.926 139.203 218.136C139.87 218.346 140.501 218.785 140.766 219.416C141.031 220.047 140.858 220.889 140.254 221.245" fill="white"/>
<path d="M137.127 217.889C137.831 217.908 138.535 217.926 139.203 218.136C139.87 218.346 140.501 218.785 140.766 219.416C141.031 220.047 140.858 220.889 140.254 221.245" stroke="black" stroke-width="0.78" stroke-linecap="round" stroke-linejoin="round"/>
<path d="M145.183 219.389C145.705 219.746 146.363 220.459 146.774 220.816L147.405 223.586C147.405 223.586 147.643 223.541 147.643 223.55C147.954 222.964 148.292 222.361 148.512 221.739C149.49 218.923 150.926 215.219 148.932 212.97C148.045 211.964 147.149 210.967 146.262 209.962C145.887 209.541 145.485 209.102 144.955 208.892C143.94 208.489 142.714 209.084 141.745 209.596C141.123 209.925 140.465 210.346 140.3 211.022C140.182 211.525 140.392 212.092 140.822 212.385" fill="white"/>
<path d="M145.183 219.389C145.705 219.746 146.363 220.459 146.774 220.816L147.405 223.586C147.405 223.586 147.643 223.541 147.643 223.55C147.954 222.964 148.292 222.361 148.512 221.739C149.49 218.923 150.926 215.219 148.932 212.97C148.045 211.964 147.149 210.967 146.262 209.962C145.887 209.541 145.485 209.102 144.955 208.892C143.94 208.489 142.714 209.084 141.745 209.596C141.123 209.925 140.465 210.346 140.3 211.022C140.182 211.525 140.392 212.092 140.822 212.385" stroke="black" stroke-width="0.78" stroke-linecap="round" stroke-linejoin="round"/>
<path d="M146.033 212.275C145.64 211.991 145.256 211.699 144.817 211.488C144.47 211.324 144.168 211.159 143.756 211.205C143.409 211.25 143.089 211.397 142.778 211.561C142.175 211.881 141.589 212.256 141.05 212.677C140.775 212.887 140.666 213.034 140.593 213.372C140.538 213.646 140.519 213.939 140.611 214.213C140.748 214.634 141.096 214.981 141.525 215.128" fill="white"/>
<path d="M146.033 212.275C145.64 211.991 145.256 211.699 144.817 211.488C144.47 211.324 144.168 211.159 143.756 211.205C143.409 211.25 143.089 211.397 142.778 211.561C142.175 211.881 141.589 212.256 141.05 212.677C140.775 212.887 140.666 213.034 140.593 213.372C140.538 213.646 140.519 213.939 140.611 214.213C140.748 214.634 141.096 214.981 141.525 215.128" stroke="black" stroke-width="0.78" stroke-linecap="round" stroke-linejoin="round"/>
<path d="M143.419 217.505C142.925 217.615 142.102 217.423 141.764 217.057C140.886 216.115 141.617 215.32 142.55 214.826C143.026 214.57 143.528 214.378 144.031 214.177C144.745 213.884 145.476 214.122 146.144 214.479C146.711 214.79 147.223 215.192 147.716 215.603" fill="white"/>
<path d="M143.419 217.505C142.925 217.615 142.102 217.423 141.764 217.057C140.886 216.115 141.617 215.32 142.55 214.826C143.026 214.57 143.528 214.378 144.031 214.177C144.745 213.884 145.476 214.122 146.144 214.479C146.711 214.79 147.223 215.192 147.716 215.603" stroke="black" stroke-width="0.78" stroke-linecap="round" stroke-linejoin="round"/>
<path d="M147.396 218.209C146.601 217.633 146.071 216.938 145.019 216.893C144.562 216.874 144.114 217.066 143.757 217.341C143.291 217.697 142.696 218.264 142.651 218.895C142.605 219.526 143.254 220.249 143.94 220.203C144.233 220.185 144.507 220.038 144.726 219.837C144.946 219.636 145.12 219.407 145.293 219.17" fill="white"/>
<path d="M147.396 218.209C146.601 217.633 146.071 216.938 145.019 216.893C144.562 216.874 144.114 217.066 143.757 217.341C143.291 217.697 142.696 218.264 142.651 218.895C142.605 219.526 143.254 220.249 143.94 220.203C144.233 220.185 144.507 220.038 144.726 219.837C144.946 219.636 145.12 219.407 145.293 219.17" stroke="black" stroke-width="0.78" stroke-linecap="round" stroke-linejoin="round"/>
<path d="M89.5054 273.76C89.5328 272.589 89.3865 271.419 89.0482 270.294C88.847 269.563 88.5636 268.868 88.1887 268.182L88.0332 267.807C91.8554 266.143 95.5314 264.186 99.0061 261.936C99.0061 261.918 99.0153 261.9 99.0153 261.882C99.4999 260.4 99.7651 258.114 99.3444 256.633H99.6188C102.737 254.603 106.047 251.265 109.138 248.924L109.074 249.455C107.94 252.765 107.839 258.837 109.522 262.403C110.025 263.454 110.647 264.451 111.405 265.32C105.279 268.365 96.2995 271.666 89.7797 273.76H89.5054Z" fill="#FB030A"/>
<path d="M140.072 463.756C140.575 463.93 140.931 464.231 141.196 464.606C141.27 464.707 141.325 464.816 141.389 464.926C141.69 465.502 141.782 466.216 141.773 466.92C141.754 467.743 141.59 468.575 141.416 469.206C140.94 470.906 139.615 472.827 138.325 474.518C135.472 478.267 132.4 480.508 129.355 482.693C126.374 484.842 123.457 486.095 120.43 488.024C117.861 489.67 115.374 491.728 112.868 493.556C110.225 495.495 107.235 497.891 102.956 497.397C102.151 497.296 101.383 497.113 100.725 496.848C100.085 496.601 99.5452 496.281 99.1063 495.906C98.4753 495.349 98.0913 494.663 98.073 493.895C98.0547 493.648 98.0913 493.383 98.1736 493.108C99.024 490.072 101.036 488.006 104.007 485.875C106.998 483.736 110.353 482.922 113.334 481.038C116.709 478.917 119.991 476.018 123.338 473.138C126.74 470.193 130.269 467.212 133.671 465.374C136.844 463.637 138.856 463.326 140.063 463.747L140.072 463.756Z" fill="black"/>
<path d="M104.017 485.893C101.045 488.024 99.0334 490.091 98.183 493.126C98.1007 493.392 98.0733 493.657 98.0824 493.913C98.1007 494.681 98.4847 495.367 99.1157 495.924C98.8871 495.796 98.6676 495.641 98.4847 495.476C98.0001 495.056 97.2777 494.187 96.8297 493.154C96.8297 493.145 96.8297 493.135 96.8114 493.126C96.4822 492.349 96.3085 491.49 96.5096 490.657C97.2503 487.585 99.3717 485.555 102.344 483.424C105.334 481.285 108.69 480.471 111.671 478.587C115.045 476.466 118.327 473.567 121.674 470.687C125.076 467.742 128.605 464.771 132.007 462.923C135.765 460.875 137.667 461.259 138.865 462.055C139.213 462.274 139.505 462.53 139.761 462.777C140.072 463.07 140.904 464.167 141.197 464.615C140.932 464.231 140.575 463.938 140.072 463.765C138.865 463.344 136.853 463.655 133.68 465.392C130.279 467.23 126.749 470.211 123.348 473.156C120.001 476.036 116.727 478.935 113.344 481.056C110.363 482.94 107.007 483.754 104.017 485.893Z" fill="white"/>
<path d="M138.874 462.045C137.676 461.259 135.774 460.875 132.016 462.914C128.614 464.761 125.085 467.733 121.683 470.677C118.336 473.558 115.063 476.457 111.68 478.578C108.699 480.462 105.343 481.275 102.353 483.415C99.3807 485.546 97.2593 487.576 96.5186 490.648C96.3175 491.48 96.4912 492.349 96.8204 493.117C94.6258 489.816 95.6682 482.921 93.9766 475.103C93.9766 475.103 94.2692 474.646 94.8727 473.896C96.1711 472.305 98.9235 469.416 103.377 467.02C107.565 464.752 110.857 463.39 112.768 462.676C113.966 462.228 114.615 462.045 114.615 462.045C115.136 463.618 115.648 465.173 116.16 466.736L116.343 466.928C118.218 465.173 120.184 463.518 122.378 462.183C124.902 460.656 127.737 459.567 130.681 459.421C133.625 459.257 136.67 460.089 138.911 462L138.883 462.045H138.874Z" fill="#FB030A"/>
<path d="M94.708 473.787C94.1045 472.049 93.2449 467.496 92.8609 465.576L92.7969 465.511C98.2102 460.427 106.44 453.834 111.433 455.855L111.332 456.12C111.789 458.9 112.265 459.833 112.722 462.613L112.749 462.686C110.838 463.399 107.546 464.762 103.358 467.029C98.9143 469.434 96.1528 472.324 94.8543 473.906L94.6988 473.778L94.708 473.787Z" fill="white"/>
<path d="M99.3433 256.642C99.7639 258.124 99.4987 260.419 99.0141 261.891C99.0049 261.891 98.9958 261.909 98.9775 261.918C97.8436 260.684 96.9475 259.303 96.2617 257.822C97.2127 257.319 98.182 256.807 99.1604 256.286L99.3433 256.642Z" fill="black"/>
<path d="M99.0157 261.891C99.0157 261.891 99.0064 261.928 99.0064 261.947L98.9785 261.919C98.9785 261.919 99.0064 261.9 99.0157 261.891Z" fill="black"/>
<path d="M94.9734 254.008C94.7356 253.076 94.5528 252.052 94.4979 251.082C94.443 250.497 94.4247 249.848 94.4339 249.208C94.443 250.826 94.6168 252.445 94.9734 254.008Z" fill="white"/>
<path d="M94.9456 243.813C94.9456 243.813 94.9639 243.813 94.973 243.813C94.9364 243.996 94.8907 244.188 94.8633 244.371C94.9181 244.023 94.9456 243.822 94.9456 243.822V243.813Z" fill="white"/>
<path d="M73.0547 377.454C73.1187 376.731 73.1827 376.009 73.2467 375.268C73.1918 375.991 73.1187 376.722 73.0547 377.454Z" fill="black"/>
<path d="M72.7168 380.691C72.7717 380.27 72.8174 379.831 72.8631 379.401C72.8174 379.84 72.7717 380.261 72.7168 380.691Z" fill="black"/>
<path d="M71.8574 386.717C71.9489 386.204 72.022 385.674 72.1043 385.144C72.0312 385.674 71.9397 386.195 71.8574 386.717Z" fill="black"/>
<path d="M70.916 391.646C71.0623 390.951 71.2178 390.256 71.3458 389.542C71.1995 390.256 71.0623 390.951 70.916 391.646Z" fill="black"/>
<path d="M59.9336 274.226C73.6131 273.714 87.4847 269.298 98.9788 261.918L99.0063 261.946C95.5315 264.195 91.8556 266.152 88.0334 267.816C79.1727 271.666 69.5349 273.888 59.9336 274.226Z" fill="#FB030A"/>
<path d="M62.6308 223.028C64.5693 221.968 66.1147 220.194 66.8736 218.118C66.9193 218.731 66.837 219.353 66.6176 219.938C68.4647 219.901 70.5587 218.475 70.9702 216.692C72.1955 218.182 74.3992 218.749 76.1914 218.045L76.484 217.761C78.6421 219.883 80.1965 222.617 81.175 225.497C82.9398 230.682 83.4336 236.031 81.0561 241.115C80.0685 243.246 78.4135 245.157 76.2006 245.916C75.2496 246.245 74.2346 246.355 73.2379 246.382C70.5678 246.483 67.8246 246.136 65.2734 245.276L65.2185 245.422C65.182 247.05 65.3923 248.367 66.0781 249.839L66.0964 249.939C61.7529 250.616 57.4186 251.384 53.2581 252.765V252.71C54.2182 248.86 54.6388 244.224 54.017 240.311V240.247C52.8009 240.42 51.5115 240.137 50.4966 239.405C49.1889 238.464 48.4574 236.799 48.558 235.19C48.5671 234.916 48.622 234.641 48.686 234.385C48.9512 233.352 49.5821 232.438 50.4234 231.788C51.0726 231.286 51.859 230.938 52.6728 230.828V230.728C52.7369 230.728 52.81 230.728 52.874 230.719C55.4801 230.581 58.0221 229.393 59.7869 227.463C60.8477 226.284 61.5975 224.857 61.9998 223.33C62.2193 223.239 62.4387 223.129 62.6399 223.01L62.6308 223.028Z" fill="white"/>
<path d="M72.8629 379.401C72.8172 379.84 72.7715 380.27 72.7166 380.691C72.7715 380.261 72.8172 379.831 72.8629 379.401ZM41.078 382.373L41.1695 382.355C36.7163 356.532 38.984 330.353 43.1812 315.868C55.928 312.805 69.8545 311.69 82.894 313.061C92.541 342.359 100.332 372.361 105.343 402.801C108.26 420.586 111.039 438.893 112.932 456.824C106.641 456.824 98.2103 460.427 92.7879 465.511C92.1203 466.124 91.5077 466.728 90.9499 467.267C81.5132 443.053 74.774 417.779 70.9061 392.084L70.8146 392.057C70.7323 392.468 70.6409 392.88 70.5403 393.301C69.7905 396.528 68.8944 399.646 67.8245 402.609C66.4437 406.459 63.9474 413.948 61.5425 417.697C59.1376 421.455 55.7269 424.729 51.5023 426.137C48.7042 427.07 45.2295 426.96 42.5685 425.625C40.0539 424.363 37.7953 421.638 36.1311 419.407C26.1092 405.892 19.0957 389.835 15.4106 373.376C15.0723 371.848 14.7522 370.321 14.4688 368.785C14.5602 367.496 14.7248 366.234 14.9442 364.972C15.6392 360.93 16.9377 357.026 18.6293 353.259C19.0865 352.244 19.6169 351.174 20.5861 350.625C21.2994 350.214 22.415 350.396 23.1465 350.918C23.4117 351.101 23.6311 351.329 23.75 351.594C25.1948 354.594 26.3103 356.889 27.9746 359.769C32.3272 367.304 36.6889 374.839 41.0598 382.382L41.078 382.373ZM73.2469 375.278C73.1921 376.009 73.1189 376.731 73.0549 377.463C73.1189 376.741 73.1921 376.009 73.2469 375.278ZM71.857 386.717C71.9393 386.196 72.0216 385.674 72.1039 385.144C72.0308 385.674 71.9485 386.196 71.857 386.717Z" fill="black"/>
<path d="M66.8734 218.118C66.1145 220.194 64.5691 221.968 62.6306 223.028C62.4203 223.138 62.2099 223.257 61.9905 223.348C61.5882 224.876 60.8383 226.302 59.7776 227.482C58.022 229.411 55.4708 230.6 52.8647 230.737C52.8007 230.737 52.7367 230.737 52.6635 230.746V230.847C51.8497 230.966 51.0633 231.304 50.4141 231.807L50.1398 231.752C49.4814 228.003 50.1398 224.592 52.0966 221.529C52.1057 221.501 52.124 221.474 52.1423 221.447C54.1266 218.347 57.0893 215.887 60.4817 214.506C65.3647 212.577 71.2535 213.464 75.35 216.746C75.7432 217.057 76.1181 217.396 76.4839 217.752L76.1913 218.036C74.399 218.74 72.1861 218.173 70.97 216.682C70.5585 218.466 68.4645 219.892 66.6174 219.929C66.8369 219.343 66.9191 218.722 66.8734 218.109V218.118Z" fill="black"/>
<path d="M38.1428 225.241C38.5086 224.647 38.8012 224.007 39.0024 223.33C39.9351 220.139 41.1878 217.597 43.2909 215.028C45.4032 212.467 48.3568 210.501 51.6395 210.035C54.5565 209.614 58.1044 210.465 59.8783 213.308C60.1161 213.683 60.3264 214.086 60.4818 214.515C57.0894 215.905 54.1358 218.365 52.1424 221.456C52.1241 221.483 52.1058 221.511 52.0967 221.538C50.149 224.601 49.4906 228.012 50.1399 231.761L50.4142 231.816C49.5729 232.474 48.942 233.38 48.6768 234.413C48.6128 234.678 48.5671 234.943 48.5488 235.218H48.4939C48.0367 235.711 47.607 236.324 47.2229 237.001C46.7931 237.714 46.4182 238.5 46.0616 239.25C45.577 240.311 45.3209 241.454 44.8912 242.542C44.4614 243.63 43.8213 244.691 42.7972 245.24C41.773 245.807 40.3283 245.688 39.6425 244.746C39.1395 246.282 38.6366 247.864 37.7313 249.208C36.8261 250.552 35.4545 251.677 33.8542 251.906C32.254 252.134 30.4344 251.256 29.9406 249.711C28.5141 252.034 25.3868 253.149 22.8082 252.271C19.1597 251 18.5013 247.26 18.8762 243.905C18.8762 243.777 18.8945 243.649 18.9128 243.53C17.276 244.508 15.1546 244.078 14.0939 242.487C13.1246 241.015 13.216 239.022 14.0573 237.467C16.0416 233.819 21.3909 232.602 25.1216 231.789C27.9106 231.167 30.7453 230.636 33.3147 229.393C35.2533 228.46 37.0272 227.043 38.1337 225.232L38.1428 225.241Z" fill="black"/>
<path d="M18.4471 346.446C19.1329 346.081 20.3765 346.09 20.8886 346.675C20.9343 346.73 20.98 346.794 21.0166 346.858C21.7298 348.211 22.4522 349.564 23.1654 350.909H23.1563C22.4248 350.397 21.3092 350.223 20.596 350.625C19.6267 351.174 19.0963 352.244 18.6391 353.259C16.9475 357.026 15.649 360.94 14.9541 364.972L14.2134 364.844C13.7745 363.18 13.3264 361.516 12.8875 359.852C11.8085 355.801 14.7437 352.033 16.7737 348.367C17.1944 347.608 17.6698 346.83 18.438 346.437L18.4471 346.446Z" fill="white"/>
<path d="M20.888 346.675C20.3668 346.089 19.1323 346.08 18.4465 346.446C17.6784 346.839 17.2029 347.617 16.7823 348.376C14.7523 352.042 11.817 355.81 12.896 359.86C13.3441 361.516 13.783 363.18 14.2219 364.853L14.9626 364.981C14.7432 366.243 14.5786 367.505 14.4871 368.794C14.7706 370.33 15.0815 371.858 15.429 373.385H15.365C15.365 373.439 14.4688 378.012 12.5943 381.55C11.7896 383.068 10.6923 384.403 9.39386 385.281L9.47616 385.18C7.69306 386.351 5.53506 386.625 3.23075 385.263C-0.564051 383.013 -1.58819 377.957 -1.68877 373.869C-1.80765 369.626 -1.05783 365.374 -0.0336943 361.278C1.26477 356.102 2.993 350.927 5.2333 346.062C5.2333 346.062 6.64149 342.633 8.14112 341.609C9.32985 340.795 10.8478 340.502 12.32 340.539C12.3383 340.548 12.3565 340.539 12.3657 340.539C13.5453 340.585 14.6883 340.877 15.7216 341.399C16.2153 341.682 16.7731 342.048 17.4498 342.496L17.5504 342.569C18.1722 343.072 18.7391 343.666 19.2329 344.306C19.8181 345.074 20.3759 345.861 20.9337 346.638L20.8971 346.666L20.888 346.675Z" fill="#FB030A"/>
<path d="M1.2378 386.36C-2.96848 384.156 -4.37667 379.182 -4.48639 374.802C-4.60527 370.239 -3.80059 365.676 -2.71244 361.277C-1.32254 355.718 0.542852 350.158 2.94775 344.946C2.94775 344.946 4.45652 341.27 6.07502 340.155C6.34935 339.963 6.71511 339.798 7.10831 339.67C8.94627 339.057 10.9397 339.176 12.7319 339.889C13.5732 340.219 14.4053 340.584 15.7312 341.389C14.6979 340.868 13.5549 340.575 12.3753 340.53C12.3753 340.53 12.3479 340.53 12.3296 340.53C10.8574 340.493 9.33946 340.786 8.15073 341.599C6.64196 342.633 5.24291 346.053 5.24291 346.053C3.00261 350.917 1.27438 356.093 -0.0240808 361.268C-1.04822 365.365 -1.79803 369.617 -1.67916 373.86C-1.57858 377.947 -0.554438 383.004 3.24036 385.253C5.54467 386.625 7.70267 386.341 9.48577 385.171L9.40347 385.272C8.22389 386.561 4.86801 388.262 1.2378 386.36Z" fill="white"/>
<path d="M78.7886 234.349C76.7221 235.73 73.9788 236.041 71.6471 235.154C71.3179 236.992 73.0919 239.415 74.9573 239.534C79.4561 239.835 78.7886 234.34 78.7886 234.34V234.349Z" fill="black"/>
<path d="M66.1699 226.97C66.3711 226.009 67.1209 225.187 68.0627 224.903" stroke="black" stroke-width="0.78" stroke-linecap="round" stroke-linejoin="round"/>
<path d="M76.5215 221.821C77.4725 221.575 78.5423 221.885 79.2098 222.599" stroke="black" stroke-width="0.78" stroke-linecap="round" stroke-linejoin="round"/>
<path d="M69.2785 229.548C70.031 229.548 70.641 228.938 70.641 228.186C70.641 227.433 70.031 226.823 69.2785 226.823C68.526 226.823 67.916 227.433 67.916 228.186C67.916 228.938 68.526 229.548 69.2785 229.548Z" fill="black"/>
<path d="M78.1763 226.174C78.8227 226.174 79.3467 225.65 79.3467 225.003C79.3467 224.357 78.8227 223.833 78.1763 223.833C77.5299 223.833 77.0059 224.357 77.0059 225.003C77.0059 225.65 77.5299 226.174 78.1763 226.174Z" fill="black"/>
<path d="M76.6852 229.119C77.0692 229.622 77.243 230.289 77.1515 230.911C77.0601 231.533 76.7035 232.127 76.1914 232.493" stroke="black" stroke-width="0.78" stroke-linecap="round" stroke-linejoin="round"/>
<path d="M89.0483 270.294C89.3775 271.419 89.5238 272.59 89.5055 273.76C89.4781 275.379 89.1489 277.015 88.6002 278.551C87.9601 280.316 86.872 281.706 86.0399 283.334C85.3266 284.742 85.4547 286.406 85.2809 287.961C84.2751 296.977 84.1105 304.054 83.0863 313.07L82.8943 313.052C69.864 311.681 55.9376 312.796 43.1816 315.859C42.9895 315.905 42.8066 315.951 42.6146 315.997C39.0576 300.817 35.6194 283.846 39.4782 268.42C41.6911 259.559 44.9098 255.71 52.2982 253.094C52.6091 252.985 52.9291 252.875 53.24 252.783C57.4098 251.403 61.7349 250.635 66.0783 249.958C68.8033 249.528 71.5282 249.144 74.2349 248.669C81.3581 247.407 88.3625 245.496 95.1291 242.981C95.0651 243.255 95.0011 243.539 94.9554 243.813C94.9554 243.813 94.9371 243.813 94.9279 243.813C94.9279 243.813 94.8914 244.014 94.8456 244.362V244.407C94.553 245.962 94.3976 247.58 94.4159 249.19V249.208C94.4067 249.848 94.4159 250.497 94.4799 251.083C94.5347 252.052 94.7176 253.067 94.9554 254.009C94.9645 254.054 94.9828 254.1 94.9919 254.137C95.2663 255.316 95.6412 256.459 96.1441 257.566C96.1624 257.602 96.1715 257.63 96.1807 257.657C96.1898 257.703 96.2173 257.758 96.2447 257.813C96.9213 259.303 97.8266 260.684 98.9605 261.918C87.4664 269.298 73.5948 273.714 59.9152 274.226C69.5165 273.879 79.1452 271.657 88.015 267.816L88.1705 268.191C88.5454 268.877 88.8288 269.572 89.03 270.304L89.0483 270.294Z" fill="#FB030A"/>
<path d="M83.0137 313.39C92.6607 342.688 100.342 372.36 105.353 402.801C108.27 420.586 111.013 438.554 112.906 456.486" stroke="black" stroke-width="0.78" stroke-linecap="round" stroke-linejoin="round"/>
<path d="M111.396 265.32C111.817 264.396 111.744 263.134 111.515 262.147" stroke="black" stroke-width="0.78" stroke-linecap="round" stroke-linejoin="round"/>
<path d="M62.1546 218.977C62.429 220.422 62.3558 221.931 61.99 223.339C61.5877 224.866 60.8379 226.293 59.7772 227.472C58.0215 229.402 55.4703 230.59 52.8642 230.727C52.8002 230.727 52.7362 230.728 52.6631 230.737C52.2973 230.746 51.9224 230.737 51.5566 230.709" stroke="black" stroke-width="0.78" stroke-linecap="round" stroke-linejoin="round"/>
<path d="M52.6631 230.846C51.8493 230.965 51.0629 231.303 50.4136 231.806C49.5724 232.465 48.9414 233.37 48.6763 234.403C48.6122 234.668 48.5665 234.934 48.5482 235.208C48.4477 236.817 49.1792 238.482 50.4868 239.423C51.4926 240.146 52.782 240.438 53.9981 240.265C54.6473 240.182 55.2783 239.963 55.8269 239.615" stroke="black" stroke-width="0.78" stroke-linecap="round" stroke-linejoin="round"/>
<path d="M54.0162 240.329C54.6379 244.252 54.2173 248.888 53.248 252.728" stroke="black" stroke-width="0.78" stroke-linecap="round" stroke-linejoin="round"/>
<path d="M67.1749 217.13C67.0926 217.469 66.992 217.807 66.8732 218.118C66.1142 220.194 64.5689 221.968 62.6303 223.028C62.42 223.138 62.2097 223.257 61.9902 223.348C61.661 223.495 61.3227 223.623 60.9844 223.723" stroke="black" stroke-width="0.78" stroke-linecap="round" stroke-linejoin="round"/>
<path d="M76.1921 218.045C74.3999 218.749 72.187 218.182 70.9708 216.692C70.5594 218.475 68.4654 219.901 66.6183 219.938C66.5085 219.938 66.3988 219.938 66.2891 219.938" stroke="black" stroke-width="0.78" stroke-linecap="round" stroke-linejoin="round"/>
<path d="M53.1489 227.445C52.6734 228.46 52.5728 229.649 52.8654 230.737C52.9477 231.048 53.0666 231.359 53.2129 231.66" stroke="black" stroke-width="0.78" stroke-linecap="round" stroke-linejoin="round"/>
<path d="M52.0957 221.529C52.0957 221.529 52.1231 221.474 52.1414 221.446C54.1257 218.347 57.0884 215.887 60.4808 214.506C65.3638 212.577 71.2526 213.464 75.3491 216.746C75.7423 217.057 76.1172 217.396 76.483 217.752C78.641 219.874 80.1955 222.608 81.1739 225.488C82.9387 230.673 83.4325 236.022 81.055 241.106C80.0675 243.237 78.4124 245.148 76.1995 245.907C75.2485 246.236 74.2335 246.346 73.2368 246.373C70.5668 246.474 67.8235 246.126 65.2723 245.267C63.2606 244.59 61.3587 243.612 59.7036 242.277" stroke="black" stroke-width="0.78" stroke-linecap="round" stroke-linejoin="round"/>
<path d="M48.5037 235.208C48.0465 235.702 47.6167 236.324 47.2327 236.991C46.8029 237.705 46.428 238.491 46.0714 239.241C45.5867 240.302 45.3307 241.445 44.9009 242.533C44.4712 243.621 43.8311 244.682 42.8069 245.23C41.7828 245.797 40.338 245.678 39.6522 244.736C39.1493 246.273 38.6464 247.855 37.7411 249.199C36.8358 250.543 35.4642 251.668 33.864 251.896C32.2638 252.125 30.4441 251.247 29.9503 249.702C28.5239 252.024 25.3966 253.14 22.818 252.262C19.1695 250.991 18.5111 247.251 18.886 243.895C18.886 243.767 18.9043 243.639 18.9226 243.52C17.2858 244.499 15.1644 244.069 14.1036 242.478C13.1344 241.006 13.2258 239.012 14.0671 237.458C16.0513 233.809 21.4006 232.593 25.1314 231.779C27.9204 231.158 30.755 230.627 33.3245 229.384C35.2631 228.451 37.037 227.034 38.1434 225.223C38.5092 224.629 38.8018 223.989 39.003 223.312C39.9357 220.121 41.1884 217.579 43.2916 215.009C45.4038 212.449 48.3574 210.483 51.6401 210.016C54.5571 209.596 58.105 210.446 59.8789 213.29C60.1167 213.665 60.327 214.067 60.4824 214.497" stroke="black" stroke-width="0.78" stroke-linecap="round" stroke-linejoin="round"/>
<path d="M65.2188 245.431C65.1822 247.059 65.3926 248.376 66.0784 249.848" stroke="black" stroke-width="0.78" stroke-linecap="round" stroke-linejoin="round"/>
<path d="M89.7793 273.76C96.299 271.666 105.269 268.365 111.405 265.329C110.646 264.451 110.024 263.463 109.521 262.403C107.839 258.836 108.287 252.436 109.421 249.125" stroke="#FB030A" stroke-width="0.78" stroke-linecap="round" stroke-linejoin="round"/>
<path d="M99.0059 261.936C99.0059 261.936 99.015 261.9 99.015 261.882C99.4996 260.4 99.7648 258.114 99.3442 256.633" stroke="black" stroke-width="0.78" stroke-linecap="round" stroke-linejoin="round"/>
<path d="M96.1895 257.657C96.226 257.739 96.2443 257.794 96.2535 257.812" stroke="#FB030A" stroke-miterlimit="10"/>
<path d="M95 254.136C95.4115 255.7 95.9418 257.035 96.1522 257.565" stroke="#FB030A" stroke-miterlimit="10"/>
<path d="M94.4336 249.208C94.4336 249.848 94.4427 250.497 94.4976 251.082C94.5525 252.052 94.7354 253.067 94.9731 254.008" stroke="black" stroke-width="0.78" stroke-linecap="round" stroke-linejoin="round"/>
<path d="M94.8542 244.407C94.7079 245.349 94.4519 247.297 94.4336 249.189" stroke="#FB030A" stroke-miterlimit="10"/>
<path d="M78.916 289.222C80.9003 288.226 82.6377 286.753 83.9635 284.97" stroke="black" stroke-width="0.78" stroke-linecap="round" stroke-linejoin="round"/>
<path d="M41.1777 382.355C41.9458 386.781 42.906 391.207 44.0856 395.559" stroke="black" stroke-width="0.78" stroke-linecap="round" stroke-linejoin="round"/>
<path d="M41.0773 382.364C36.7156 374.82 32.3539 367.295 27.9921 359.751C26.3279 356.87 25.2123 354.575 23.7676 351.576C23.6396 351.32 23.4292 351.082 23.1641 350.899C22.4325 350.378 21.317 350.204 20.6037 350.607C19.6344 351.155 19.1041 352.225 18.6469 353.24C16.9552 357.007 15.6568 360.921 14.9618 364.954C14.7424 366.216 14.5778 367.477 14.4863 368.767C14.7698 370.303 15.0807 371.83 15.4282 373.357" stroke="black" stroke-width="0.78" stroke-linecap="round" stroke-linejoin="round"/>
<path d="M70.916 392.084C74.784 417.779 81.5232 443.044 90.9599 467.267C91.5176 466.718 92.1303 466.124 92.7978 465.511C98.2111 460.427 106.441 453.834 111.433 455.855C111.973 456.065 112.448 456.056 112.897 456.486" stroke="black" stroke-width="0.78" stroke-linecap="round" stroke-linejoin="round"/>
<path d="M92.8613 465.575C93.2362 467.504 94.1049 472.049 94.7084 473.786" stroke="black" stroke-width="0.78" stroke-linecap="round" stroke-linejoin="round"/>
<path d="M111.342 456.12C111.799 458.9 112.274 459.833 112.732 462.613" stroke="black" stroke-width="0.78" stroke-linecap="round" stroke-linejoin="round"/>
<path d="M96.8106 493.135C94.616 489.834 95.6585 482.94 93.9668 475.121C93.9668 475.121 94.2594 474.664 94.8629 473.914C96.1614 472.323 98.9137 469.434 103.367 467.038C107.555 464.77 110.847 463.408 112.758 462.695C113.956 462.247 114.605 462.064 114.605 462.064C115.126 463.637 115.638 465.191 116.15 466.755" stroke="black" stroke-width="0.78" stroke-linecap="round" stroke-linejoin="round"/>
<path d="M141.196 464.615C141.269 464.716 141.324 464.825 141.388 464.935C141.689 465.511 141.781 466.224 141.772 466.928C141.753 467.751 141.589 468.584 141.415 469.214C140.94 470.915 139.614 472.836 138.324 474.527C135.472 478.276 132.399 480.517 129.354 482.702C126.373 484.851 123.456 486.104 120.429 488.033C117.86 489.679 115.373 491.736 112.867 493.565C110.225 495.504 107.235 497.899 102.955 497.406C102.15 497.305 101.382 497.122 100.724 496.857C100.084 496.61 99.5444 496.29 99.1055 495.915" stroke="black" stroke-width="0.78" stroke-linecap="round" stroke-linejoin="round"/>
<path d="M99.1157 495.924C98.8871 495.796 98.6676 495.641 98.4847 495.476C98.0001 495.056 97.2777 494.187 96.8297 493.154C96.8297 493.145 96.8297 493.135 96.8114 493.126C96.4822 492.349 96.3085 491.489 96.5096 490.657C97.2503 487.585 99.3717 485.555 102.344 483.424C105.334 481.285 108.69 480.471 111.671 478.587C115.045 476.466 118.327 473.567 121.674 470.687C125.076 467.742 128.605 464.77 132.007 462.923C135.765 460.875 137.667 461.259 138.865 462.055C139.213 462.274 139.505 462.53 139.761 462.777C140.072 463.07 140.904 464.167 141.197 464.615C140.932 464.231 140.575 463.938 140.072 463.765C138.865 463.344 136.853 463.655 133.68 465.392C130.279 467.23 126.749 470.211 123.348 473.156C120.001 476.036 116.727 478.935 113.344 481.056C110.363 482.94 107.007 483.754 104.017 485.893C101.045 488.024 99.0334 490.09 98.183 493.126C98.1007 493.391 98.0733 493.657 98.0824 493.913C98.1007 494.681 98.4847 495.367 99.1157 495.924Z" stroke="black" stroke-width="0.78" stroke-linecap="round" stroke-linejoin="round"/>
<path d="M115.492 467.733C115.776 467.468 116.05 467.203 116.324 466.938C118.199 465.182 120.165 463.527 122.359 462.192C124.883 460.665 127.718 459.577 130.662 459.43C133.607 459.266 136.652 460.098 138.892 462.009" stroke="black" stroke-width="0.78" stroke-linecap="round" stroke-linejoin="round"/>
<path d="M23.1739 350.899C22.4606 349.555 21.7383 348.202 21.025 346.848C20.9884 346.784 20.9427 346.72 20.897 346.666C20.3758 346.08 19.1413 346.071 18.4555 346.437C17.6874 346.83 17.2119 347.607 16.7913 348.366C14.7613 352.033 11.8261 355.801 12.9051 359.851C13.3531 361.506 13.792 363.171 14.231 364.844" stroke="black" stroke-width="0.78" stroke-linecap="round" stroke-linejoin="round"/>
<path d="M17.541 342.569C18.1628 343.072 18.7297 343.666 19.2235 344.306C19.8087 345.074 20.3665 345.861 20.9243 346.638" stroke="black" stroke-width="0.78" stroke-linecap="round" stroke-linejoin="round"/>
<path d="M9.31055 385.336C9.31055 385.336 9.37456 385.299 9.40199 385.272C10.7004 384.394 11.7886 383.059 12.6024 381.541C14.4678 378.002 15.3639 373.43 15.3731 373.393" stroke="black" stroke-width="0.78" stroke-linecap="round" stroke-linejoin="round"/>
<path d="M15.7214 341.389C14.6881 340.868 13.5451 340.575 12.3655 340.529C12.3655 340.529 12.3381 340.529 12.3198 340.529C10.8476 340.493 9.3297 340.785 8.14097 341.599C6.63219 342.633 5.23315 346.052 5.23315 346.052C2.99285 350.917 1.26461 356.093 -0.0338459 361.268C-1.05798 365.365 -1.8078 369.617 -1.68893 373.86C-1.58834 377.947 -0.564203 383.004 3.23059 385.253C5.5349 386.625 7.69291 386.341 9.47601 385.171L9.39371 385.271C8.21412 386.561 4.85824 388.262 1.22804 386.36C-2.97824 384.156 -4.38643 379.181 -4.49616 374.801C-4.61503 370.239 -3.81035 365.676 -2.72221 361.277C-1.33231 355.718 0.533087 350.158 2.93798 344.946C2.93798 344.946 4.44676 341.27 6.06526 340.155C6.33958 339.963 6.70535 339.798 7.09854 339.67C8.9365 339.057 10.9299 339.176 12.7222 339.889C13.5634 340.219 14.3955 340.584 15.7214 341.389ZM15.7214 341.389C16.2152 341.672 16.773 342.038 17.4496 342.486C16.9193 342.047 16.3432 341.682 15.7214 341.389Z" stroke="black" stroke-width="0.78" stroke-linecap="round" stroke-linejoin="round"/>
<path d="M10.0703 364.926C11.5242 365.374 12.8867 366.142 14.0114 367.166" stroke="black" stroke-width="0.78" stroke-linecap="round" stroke-linejoin="round"/>
<path d="M55.0311 217.56C53.7875 218.657 52.7817 220.029 52.0959 221.538C51.6844 222.452 51.4009 223.403 51.2363 224.391" stroke="white" stroke-width="0.78" stroke-linecap="round" stroke-linejoin="round"/>
<path d="M62.4663 221.245C62.6217 221.821 62.6766 222.425 62.6309 223.028C62.5943 223.641 62.4571 224.254 62.2285 224.821" stroke="white" stroke-width="0.78" stroke-linecap="round" stroke-linejoin="round"/>
<path d="M66.8089 217.642C66.8364 217.798 66.8638 217.953 66.8729 218.118C66.9187 218.731 66.8364 219.352 66.6169 219.938C66.4523 220.404 66.2146 220.843 65.8945 221.227" stroke="white" stroke-width="0.78" stroke-linecap="round" stroke-linejoin="round"/>
<path d="M14.0117 234.084C15.5662 232.054 18.026 230.92 20.504 230.316C22.9821 229.713 25.5516 229.576 28.057 229.109C30.151 228.716 35.5095 227.555 38.1521 225.232C38.6733 224.775 39.0757 224.281 39.3408 223.742" stroke="black" stroke-width="0.78" stroke-linecap="round" stroke-linejoin="round"/>
<path d="M47.2318 237C46.6192 238.253 46.6192 239.716 46.6558 241.115C46.6832 242.514 46.7015 243.968 46.1163 245.239C45.531 246.51 44.1229 247.516 42.7695 247.169" stroke="black" stroke-width="0.78" stroke-linecap="round" stroke-linejoin="round"/>
<path d="M19.2139 243.164C19.1134 243.41 19.0128 243.666 18.8939 243.913C18.2264 245.376 17.4034 246.812 17.376 248.412C17.3486 249.702 17.8972 250.982 18.8299 251.869" stroke="black" stroke-width="0.78" stroke-linecap="round" stroke-linejoin="round"/>
<path d="M56.1465 208.59C58.149 209.276 59.667 211.205 59.8773 213.299C59.8956 213.4 59.9047 213.5 59.9047 213.601" stroke="black" stroke-width="0.78" stroke-linecap="round" stroke-linejoin="round"/>
<path d="M42.6224 315.996C39.0654 300.817 35.6272 283.845 39.486 268.419C41.6989 259.559 44.9176 255.709 52.306 253.094C52.6169 252.984 52.937 252.874 53.2479 252.783C57.4176 251.402 61.7427 250.634 66.0862 249.957C68.8111 249.528 71.536 249.144 74.2427 248.668C81.3659 247.406 88.3703 245.495 95.1369 242.98C95.0729 243.255 95.0089 243.538 94.9632 243.813C94.9266 243.995 94.8809 244.188 94.8535 244.37V244.416C94.5609 245.971 94.4054 247.589 94.4237 249.198V249.217C94.4237 250.835 94.6066 252.454 94.9632 254.017C94.9723 254.063 94.9906 254.109 94.9998 254.145C95.2741 255.325 95.649 256.468 96.1519 257.574C96.1702 257.611 96.1794 257.638 96.1885 257.666C96.1976 257.712 96.2251 257.766 96.2525 257.821C96.9292 259.312 97.8344 260.693 98.9683 261.927L98.9957 261.954C95.521 264.204 91.8451 266.161 88.0228 267.825C79.1622 271.675 69.5243 273.897 59.923 274.235" stroke="#FB030A" stroke-miterlimit="10"/>
<path d="M99.1881 261.781C99.1332 261.817 99.0692 261.854 99.0144 261.891C99.0052 261.891 98.9961 261.909 98.9778 261.918C87.4837 269.297 73.6121 273.714 59.9325 274.226C59.009 274.253 58.1037 274.281 57.1802 274.272C54.7021 274.272 52.7453 273.97 50.377 273.266" stroke="black" stroke-width="0.78" stroke-linecap="round" stroke-linejoin="round"/>
<path d="M41.0781 383.882C41.8279 388.152 42.7698 392.404 43.9036 396.583" stroke="white" stroke-width="0.78" stroke-linecap="round" stroke-linejoin="round"/>
<path d="M88.5547 268.758C88.7559 269.252 88.9296 269.764 89.0485 270.294C89.6703 272.681 89.524 275.25 88.6461 277.555" stroke="black" stroke-width="0.78" stroke-linecap="round" stroke-linejoin="round"/>
<path d="M70.3672 394.096C70.4312 393.831 70.4952 393.566 70.5501 393.3C70.6507 392.889 70.7421 392.477 70.8244 392.057C70.861 391.92 70.8884 391.792 70.9158 391.645C71.0621 390.95 71.2176 390.255 71.3456 389.542C71.5193 388.61 71.6931 387.668 71.8577 386.717C71.9491 386.205 72.0223 385.674 72.1046 385.144C72.3423 383.681 72.5343 382.181 72.7172 380.682C72.7721 380.252 72.8178 379.822 72.8635 379.392C72.9275 378.743 73.0007 378.103 73.0647 377.454C73.1287 376.731 73.1927 376.009 73.2567 375.268C74.3449 361.516 73.5951 347.187 71.9948 334.76" stroke="white" stroke-width="0.78" stroke-linecap="round" stroke-linejoin="round"/>
<path d="M8 144V76C8 67.1634 15.1634 60 24 60H92C100.837 60 108 67.1634 108 76V92C108 100.837 115.163 108 124 108H136C144.837 108 152 115.163 152 124V144C152 152.837 144.837 160 136 160H24C15.1634 160 8 152.837 8 144Z" fill="white"/>
<path d="M88.2479 94.968C88.2479 93.652 87.4639 93.26 85.6439 92.896L83.4599 92.476C80.7999 91.944 79.3159 90.88 79.3159 88.472C79.3159 86.008 81.4439 84.216 84.6359 84.216C86.8199 84.216 88.8639 85.112 89.8159 86.82L87.9119 87.94C87.2399 86.932 85.9799 86.372 84.6079 86.372C82.6199 86.372 81.6959 87.268 81.6959 88.444C81.6959 89.62 82.5359 90.012 83.9919 90.292L86.2039 90.74C88.9199 91.272 90.5999 92.084 90.5999 94.968C90.5999 97.908 88.0799 99.28 85.0279 99.28C81.8359 99.28 79.3159 98.104 78.5879 94.716L80.9399 94.296C81.4719 96.312 82.9279 97.152 84.9999 97.152C86.8759 97.152 88.2479 96.452 88.2479 94.968Z" fill="black"/>
<path d="M73.7366 78.728C74.5206 78.728 75.2766 79.316 75.2766 80.268C75.2766 80.688 75.1926 81.024 75.0806 81.696L74.2686 86.512H73.2326L72.4206 81.696C72.3086 81.024 72.2246 80.688 72.2246 80.268C72.2246 79.316 72.9526 78.728 73.7366 78.728Z" fill="black"/>
<path d="M57.4922 84.496H59.4802V80.968H61.9722V84.496H67.7402V86.68H61.9722V94.408C61.9722 96.284 63.0082 97.012 64.4082 97.012C65.8642 97.012 66.7602 96.228 67.2362 94.576L69.5602 95.192C68.8882 97.852 67.0402 99.28 64.3522 99.28C61.1882 99.28 59.4802 97.376 59.4802 94.52V86.68H57.4922V84.496Z" fill="black"/>
<path d="M41.7285 91.748C41.7285 86.68 45.3125 84.216 48.9805 84.216C52.7885 84.216 55.7285 86.484 55.7285 91.468V92.168H44.2485C44.4165 95.64 46.6005 97.04 48.8685 97.04C50.9685 97.04 52.3125 96.256 53.3765 94.408L55.3925 95.5C54.1045 97.936 51.8365 99.28 48.8405 99.28C45.2005 99.28 41.7285 96.844 41.7285 91.748ZM44.3885 90.236H53.1805C52.7885 87.576 51.1645 86.456 48.9805 86.456C46.9645 86.456 44.9485 87.548 44.3885 90.236Z" fill="black"/>
<path d="M26.0996 78.952H28.6756V96.676H40.0716V99H26.0996V78.952Z" fill="black"/>
<path d="M120.086 128.496H122.55V130.484C123.502 129.112 125.07 128.216 127.03 128.216C130.586 128.216 132.714 130.596 132.714 134.18V143H130.194V134.32C130.194 131.912 128.598 130.484 126.386 130.484C124.202 130.484 122.606 131.912 122.606 134.292V143H120.086V128.496Z" fill="black"/>
<path d="M109.619 128.216C113.259 128.216 116.759 130.68 116.759 135.748C116.759 140.844 113.259 143.28 109.619 143.28C106.007 143.28 102.535 140.844 102.535 135.748C102.535 130.68 106.007 128.216 109.619 128.216ZM105.055 135.748C105.055 139.556 107.323 141.012 109.619 141.012C111.971 141.012 114.239 139.556 114.239 135.748C114.239 131.968 111.971 130.484 109.619 130.484C107.323 130.484 105.055 131.968 105.055 135.748Z" fill="black"/>
<path d="M96.5261 128.496H99.0181V143H96.5261V128.496ZM96.0781 123.96C96.0781 122.952 96.8341 122.28 97.7581 122.28C98.7101 122.28 99.4661 122.952 99.4661 123.96C99.4661 124.968 98.7101 125.64 97.7581 125.64C96.8341 125.64 96.0781 124.968 96.0781 123.96Z" fill="black"/>
<path d="M90.7088 138.968C90.7088 137.652 89.9248 137.26 88.1048 136.896L85.9208 136.476C83.2608 135.944 81.7768 134.88 81.7768 132.472C81.7768 130.008 83.9048 128.216 87.0968 128.216C89.2808 128.216 91.3248 129.112 92.2768 130.82L90.3728 131.94C89.7008 130.932 88.4408 130.372 87.0688 130.372C85.0808 130.372 84.1568 131.268 84.1568 132.444C84.1568 133.62 84.9968 134.012 86.4528 134.292L88.6648 134.74C91.3808 135.272 93.0608 136.084 93.0608 138.968C93.0608 141.908 90.5408 143.28 87.4888 143.28C84.2968 143.28 81.7768 142.104 81.0488 138.716L83.4008 138.296C83.9328 140.312 85.3888 141.152 87.4608 141.152C89.3368 141.152 90.7088 140.452 90.7088 138.968Z" fill="black"/>
<path d="M75.1785 128.496H77.6705V143H75.1785V128.496ZM74.7305 123.96C74.7305 122.952 75.4865 122.28 76.4105 122.28C77.3625 122.28 78.1185 122.952 78.1185 123.96C78.1185 124.968 77.3625 125.64 76.4105 125.64C75.4865 125.64 74.7305 124.968 74.7305 123.96Z" fill="black"/>
<path d="M64.1671 143L58.2031 128.496H60.9751L65.5111 140.144L70.0751 128.496H72.6511L66.6871 143H64.1671Z" fill="black"/>
<path d="M44.0645 128.496H46.5285V130.484C47.4805 129.112 49.0485 128.216 51.0085 128.216C54.5645 128.216 56.6925 130.596 56.6925 134.18V143H54.1725V134.32C54.1725 131.912 52.5765 130.484 50.3645 130.484C48.1805 130.484 46.5845 131.912 46.5845 134.292V143H44.0645V128.496Z" fill="black"/>
<path d="M39.5956 122.952V125.248H28.6756V131.52H38.6156V133.816H28.6756V140.704H40.1556V143H26.0996V122.952H39.5956Z" fill="black"/>
</g>
<defs>
<clipPath id="clip0_1508_3996">
<rect width="376" height="522" fill="white"/>
</clipPath>
</defs>
</svg>
