<svg width="376" height="554" viewBox="0 0 376 554" fill="none" xmlns="http://www.w3.org/2000/svg">
    <path d="M368 426V354C368 345.163 360.837 338 352 338H146C137.163 338 130 345.163 130 354V372C130 380.837 122.837 388 114 388H112C103.163 388 96 395.163 96 404V426C96 434.837 103.163 442 112 442H352C360.837 442 368 434.837 368 426Z"
          fill="white"/>
    <path d="M156.411 357.52H159.501L151.551 370.21V379H148.821V370.18L140.901 357.52H144.081L150.261 367.54L156.411 357.52ZM165.9 363.16C169.8 363.16 173.55 365.8 173.55 371.23C173.55 376.69 169.8 379.3 165.9 379.3C162.03 379.3 158.31 376.69 158.31 371.23C158.31 365.8 162.03 363.16 165.9 363.16ZM161.01 371.23C161.01 375.31 163.44 376.87 165.9 376.87C168.42 376.87 170.85 375.31 170.85 371.23C170.85 367.18 168.42 365.59 165.9 365.59C163.44 365.59 161.01 367.18 161.01 371.23ZM190.552 379H187.912V376.87C186.892 378.34 185.212 379.3 183.112 379.3C179.302 379.3 177.022 376.75 177.022 372.91V363.46H179.722V372.76C179.722 375.34 181.432 376.87 183.802 376.87C186.142 376.87 187.852 375.34 187.852 372.79V363.46H190.552V379ZM194.672 363.46H197.252V365.05C198.092 363.91 199.382 363.19 201.182 363.19C204.302 363.19 206.522 365.17 206.522 368.86V369.49L203.942 369.73V369.19C203.942 366.79 202.742 365.62 200.702 365.62C198.752 365.62 197.372 366.91 197.372 369.31V379H194.672V363.46ZM233.322 357.25V361H221.922V367.27H232.062V370.99H221.922V379H217.692V357.25H233.322ZM236.976 363.19H241.116V379H236.976V363.19ZM236.466 358.63C236.466 357.07 237.636 356.05 239.046 356.05C240.456 356.05 241.626 357.07 241.626 358.63C241.626 360.16 240.456 361.18 239.046 361.18C237.636 361.18 236.466 360.16 236.466 358.63ZM244.895 363.19H248.855V365.35C249.845 363.88 251.435 362.89 253.655 362.89C257.465 362.89 259.955 365.59 259.955 369.37V379H255.785V369.88C255.785 367.84 254.375 366.46 252.395 366.46C250.475 366.46 249.065 367.84 249.065 369.88V379H244.895V363.19ZM270.377 362.89C274.817 362.89 277.397 365.38 277.397 369.49V379H273.617V376.72C272.507 378.31 270.707 379.3 268.247 379.3C265.397 379.3 263.267 377.8 263.267 374.98C263.267 372.1 265.547 371.02 268.637 370.21L273.197 369.01C272.927 367.33 271.787 366.46 269.897 366.46C268.187 366.46 266.837 367.3 265.847 368.92L262.937 367.12C264.467 364.51 266.987 362.89 270.377 362.89ZM267.437 374.59C267.437 375.73 268.217 376.27 269.357 376.27C271.277 376.27 273.257 375.13 273.257 372.64V371.56L269.657 372.58C268.217 372.97 267.437 373.57 267.437 374.59ZM281.068 363.19H285.028V365.35C286.018 363.88 287.608 362.89 289.828 362.89C293.638 362.89 296.128 365.59 296.128 369.37V379H291.958V369.88C291.958 367.84 290.548 366.46 288.568 366.46C286.648 366.46 285.238 367.84 285.238 369.88V379H281.068V363.19ZM303.4 371.11C303.4 374.2 305.2 375.61 307.48 375.61C309.28 375.61 310.78 374.68 311.26 372.79L315.4 373.51C314.59 377.32 311.53 379.3 307.48 379.3C302.89 379.3 299.23 376.27 299.23 371.11C299.23 365.95 302.89 362.89 307.48 362.89C311.53 362.89 314.59 364.87 315.4 368.68L311.26 369.43C310.78 367.51 309.28 366.58 307.48 366.58C305.2 366.58 303.4 367.99 303.4 371.11ZM318.503 363.19H322.643V379H318.503V363.19ZM317.993 358.63C317.993 357.07 319.163 356.05 320.573 356.05C321.983 356.05 323.153 357.07 323.153 358.63C323.153 360.16 321.983 361.18 320.573 361.18C319.163 361.18 317.993 360.16 317.993 358.63ZM333.202 362.89C337.642 362.89 340.222 365.38 340.222 369.49V379H336.442V376.72C335.332 378.31 333.532 379.3 331.072 379.3C328.222 379.3 326.092 377.8 326.092 374.98C326.092 372.1 328.372 371.02 331.462 370.21L336.022 369.01C335.752 367.33 334.612 366.46 332.722 366.46C331.012 366.46 329.662 367.3 328.672 368.92L325.762 367.12C327.292 364.51 329.812 362.89 333.202 362.89ZM330.262 374.59C330.262 375.73 331.042 376.27 332.182 376.27C334.102 376.27 336.082 375.13 336.082 372.64V371.56L332.482 372.58C331.042 372.97 330.262 373.57 330.262 374.59ZM351.873 378.49C350.973 378.97 349.863 379.3 348.663 379.3C346.083 379.3 343.923 378.07 343.923 374.53V356.11H348.093V374.08C348.093 375.16 348.543 375.61 349.413 375.61C349.863 375.61 350.283 375.52 350.733 375.31L351.873 378.49Z"
          fill="black"/>
    <path d="M124.52 403.25V407H113.12V413.27H123.26V416.99H113.12V425H108.89V403.25H124.52ZM127.029 409.19H130.809V410.81C131.619 409.67 132.879 408.92 134.619 408.92C137.859 408.92 140.199 411.02 140.199 414.65V415.4L136.179 415.76V415.52C136.179 413.45 135.339 412.49 133.689 412.49C132.129 412.49 131.199 413.51 131.199 415.4V425H127.029V409.19ZM142.261 417.11C142.261 412.13 145.801 408.89 150.421 408.89C155.101 408.89 158.161 411.71 158.161 416.81V417.86H146.461C146.731 420.44 148.351 421.73 150.361 421.73C152.251 421.73 153.481 420.89 154.171 419.3L157.771 420.65C156.571 423.47 153.931 425.3 150.331 425.3C145.741 425.3 142.261 422.06 142.261 417.11ZM146.701 415.22H153.811C153.361 413.39 152.161 412.46 150.421 412.46C148.741 412.46 147.271 413.36 146.701 415.22ZM160.758 417.11C160.758 412.13 164.298 408.89 168.918 408.89C173.598 408.89 176.658 411.71 176.658 416.81V417.86H164.958C165.228 420.44 166.848 421.73 168.858 421.73C170.748 421.73 171.978 420.89 172.668 419.3L176.268 420.65C175.068 423.47 172.428 425.3 168.828 425.3C164.238 425.3 160.758 422.06 160.758 417.11ZM165.198 415.22H172.308C171.858 413.39 170.658 412.46 168.918 412.46C167.238 412.46 165.768 413.36 165.198 415.22ZM195.425 402.11V425H191.645V422.72C190.445 424.31 188.705 425.3 186.605 425.3C182.675 425.3 179.255 422.06 179.255 417.11C179.255 412.13 182.675 408.89 186.605 408.89C188.465 408.89 190.085 409.67 191.255 410.99V402.11H195.425ZM183.425 417.11C183.425 420.05 185.165 421.61 187.355 421.61C189.515 421.61 191.255 420.05 191.255 417.11C191.255 414.14 189.515 412.58 187.355 412.58C185.165 412.58 183.425 414.14 183.425 417.11ZM206.671 408.89C211.261 408.89 214.771 412.13 214.771 417.11C214.771 422.06 211.261 425.3 206.671 425.3C202.081 425.3 198.601 422.06 198.601 417.11C198.601 412.13 202.081 408.89 206.671 408.89ZM202.771 417.11C202.771 420.14 204.511 421.61 206.671 421.61C208.861 421.61 210.601 420.14 210.601 417.11C210.601 414.05 208.861 412.58 206.671 412.58C204.511 412.58 202.771 414.05 202.771 417.11ZM217.931 409.19H221.891V411.29C222.851 409.85 224.411 408.89 226.601 408.89C229.121 408.89 231.041 410.09 232.031 412.01C232.931 410.15 234.641 408.89 237.251 408.89C241.091 408.89 243.491 411.59 243.491 415.37V425H239.321V415.76C239.321 413.78 237.971 412.46 236.021 412.46C234.161 412.46 232.781 413.78 232.781 415.76V425H228.641V415.76C228.641 413.78 227.261 412.46 225.341 412.46C223.451 412.46 222.101 413.78 222.101 415.76V425H217.931V409.19ZM258.256 406.01V422.51H263.176C267.406 422.51 270.046 419.15 270.046 414.26C270.046 409.37 267.406 406.01 263.176 406.01H258.256ZM255.496 425V403.52H263.176C268.906 403.52 272.806 407.96 272.806 414.26C272.806 420.56 268.906 425 263.176 425H255.496ZM276.649 409.46H279.229V411.05C280.069 409.91 281.359 409.19 283.159 409.19C286.279 409.19 288.499 411.17 288.499 414.86V415.49L285.919 415.73V415.19C285.919 412.79 284.719 411.62 282.679 411.62C280.729 411.62 279.349 412.91 279.349 415.31V425H276.649V409.46ZM290.827 417.23C290.827 411.8 294.667 409.16 298.597 409.16C302.677 409.16 305.827 411.59 305.827 416.93V417.68H293.527C293.707 421.4 296.047 422.9 298.477 422.9C300.727 422.9 302.167 422.06 303.307 420.08L305.467 421.25C304.087 423.86 301.657 425.3 298.447 425.3C294.547 425.3 290.827 422.69 290.827 417.23ZM293.677 415.61H303.097C302.677 412.76 300.937 411.56 298.597 411.56C296.437 411.56 294.277 412.73 293.677 415.61ZM315.135 409.16C318.915 409.16 321.495 411.29 321.495 415.46V425H318.915V422.75C317.685 424.46 315.705 425.3 313.605 425.3C310.935 425.3 308.715 423.83 308.715 421.01C308.715 418.04 311.145 417.14 313.845 416.42L318.795 415.13C318.645 412.79 316.995 411.56 314.925 411.56C312.885 411.56 311.625 412.43 310.485 414.32L308.445 413.15C309.855 410.6 312.015 409.16 315.135 409.16ZM311.415 420.86C311.415 422.42 312.555 423.05 314.025 423.05C316.095 423.05 318.825 422 318.825 419V417.17L314.295 418.37C312.675 418.79 311.415 419.39 311.415 420.86ZM325.548 409.46H328.188V411.59C329.208 410.12 330.858 409.16 332.958 409.16C335.478 409.16 337.338 410.27 338.268 412.16C339.258 410.36 341.088 409.16 343.638 409.16C347.538 409.16 349.788 411.71 349.788 415.55V425H347.088V415.67C347.088 413.09 345.408 411.56 343.038 411.56C340.698 411.56 339.018 413.09 339.018 415.64V425H336.318V415.67C336.318 413.09 334.638 411.56 332.268 411.56C329.928 411.56 328.248 413.09 328.248 415.64V425H325.548V409.46Z"
          fill="black"/>
    <g clip-path="url(#clip0_0_1)">
        <path d="M432.101 321.82C418.711 317.54 408.321 303.72 394.881 299.6C381.441 295.48 365.091 301.09 351.601 297.13C338.121 293.17 327.39 279.61 313.86 275.81C300.33 272.01 284.111 278.01 270.541 274.38C256.961 270.74 245.921 257.44 232.301 253.97C218.681 250.5 202.611 256.88 188.951 253.57C175.291 250.26 162.2 235.65 148.5 232.5L144.271 201.29C155.161 192.41 172.431 191.43 183.421 182.68C194.421 173.93 199.24 157.32 210.34 148.7C221.441 140.08 238.72 139.52 249.93 131.04C261.13 122.55 266.35 106.07 277.65 97.7199C288.95 89.3699 306.25 89.2299 317.65 81.0099C329.05 72.7899 334.661 56.4399 346.161 48.3599C357.661 40.2799 374.95 40.5499 386.55 32.6099L432.11 321.83L432.101 321.82Z"
              fill="#B0ECE6"/>
        <path d="M432.31 270.3C422.86 269 415.33 260.9 405.35 259.55C395.07 258.15 382.13 263.9 371.09 262.64C359.7 261.34 350.38 252.6 338.28 251.22C325.78 249.8 310.24 256.25 296.73 255C282.75 253.7 270.98 244.16 256.02 242.77C240.5 241.32 221.44 248.63 204.54 247.38C186.97 246.08 166.47 232.93 147.5 231.5L144.26 203.82C159.66 194.89 183.09 193.19 197.4 184.9C211.26 176.87 217.19 162.29 230.57 154.9C243.55 147.72 263.02 147.6 275.16 140.91C286.95 134.41 292.31 121.46 303.71 115.48C314.79 109.67 331.16 110.67 341.58 105.24C351.72 99.9499 356.6 88.3699 366.42 83.5199C375.98 78.7999 389.9 80.6099 398.93 76.1799L432.32 270.3H432.31Z"
              fill="#19D3C5"/>
        <path d="M142.31 201.31C149.27 194.47 160.19 188 167.75 184.57C173.47 181.97 178.88 179.52 182.05 176.48C185.22 173.44 187.9 168.15 190.74 162.54C194.49 155.12 198.74 146.72 205.87 140.05C213 133.38 221.66 129.7 229.31 126.44C235.1 123.98 240.56 121.66 243.8 118.7C247.04 115.74 249.85 110.51 252.82 104.97C256.75 97.6499 261.2 89.3499 268.48 82.8499C275.76 76.3499 284.52 72.8799 292.24 69.8099C298.08 67.4899 303.6 65.2999 306.91 62.4199C310.22 59.5399 313.15 54.3699 316.25 48.9099C320.35 41.6799 325 33.4899 332.44 27.1699C339.88 20.8499 348.71 17.5899 356.51 14.7099C362.41 12.5299 367.98 10.4699 371.35 7.66988L389.77 -7.62012"
              stroke="black" stroke-miterlimit="10"/>
        <path d="M395.191 324.32C392.661 323.81 390.711 321.73 388.731 320.66C374.731 317.19 360.501 320.77 346.561 315.28C333.631 309.83 325.891 299.5 314.031 292.07C312.051 291 309.061 289.9 306.041 289.8C288.921 289.25 271.701 291.73 255.941 280.14C247.071 273.81 240.241 266.53 230.301 262.19C215.191 261.71 198.981 264.22 184.071 257.69C174.161 252.33 165.321 244 155.441 237.63C152.5 235.734 149.5 234 146 233.5"
              stroke="black" stroke-miterlimit="10"/>
        <path d="M202.91 189.31C200.57 197 192.3 201.43 184.46 199.21C176.61 196.99 172.16 188.96 174.5 181.27C176.85 173.58 185.11 169.15 192.95 171.37C200.8 173.59 205.25 181.62 202.91 189.31Z"
              fill="white"/>
        <path d="M184.881 200.92C176.541 198.56 171.781 189.99 174.281 181.82C176.771 173.65 185.591 168.92 193.931 171.28C202.271 173.64 207.031 182.21 204.531 190.38C202.041 198.55 193.221 203.28 184.881 200.92ZM193.371 173.08C186.041 171.01 178.301 175.16 176.111 182.34C173.921 189.52 178.101 197.04 185.421 199.12C192.751 201.19 200.491 197.04 202.681 189.86C204.871 182.68 200.691 175.16 193.371 173.09V173.08Z"
              fill="black"/>
        <path d="M184.18 200.1C175.84 197.74 171.08 189.17 173.58 181C176.07 172.83 184.89 168.1 193.22 170.46C201.56 172.82 206.32 181.39 203.82 189.56C201.33 197.73 192.51 202.46 184.18 200.1ZM192.67 172.26C185.34 170.19 177.6 174.34 175.41 181.52C173.22 188.7 177.4 196.22 184.72 198.3C192.05 200.37 199.79 196.22 201.97 189.04C204.16 181.86 199.98 174.34 192.66 172.26H192.67Z"
              fill="white"/>
        <path d="M191.62 200.78C189.19 201.24 186.61 201.17 184.08 200.45C179.91 199.27 176.49 196.55 174.44 192.8C172.44 189.13 172 184.9 173.23 180.89C175.78 172.53 184.79 167.69 193.32 170.11C197.49 171.29 200.91 174.01 202.96 177.76C204.96 181.43 205.39 185.66 204.17 189.67C202.38 195.55 197.39 199.68 191.62 200.78ZM185.92 170.5C180.41 171.55 175.64 175.5 173.93 181.11C172.77 184.93 173.18 188.96 175.09 192.46C177.04 196.04 180.31 198.63 184.29 199.76C192.44 202.07 201.05 197.45 203.49 189.46C204.65 185.64 204.24 181.61 202.33 178.11C200.38 174.53 197.11 171.94 193.13 170.81C190.71 170.12 188.25 170.05 185.92 170.49V170.5ZM191.28 198.94C189.14 199.35 186.87 199.28 184.64 198.65C180.96 197.61 177.95 195.22 176.15 191.91C174.38 188.67 174.01 184.95 175.08 181.42C177.33 174.06 185.27 169.79 192.78 171.92C196.46 172.96 199.47 175.35 201.27 178.66C203.04 181.9 203.41 185.62 202.34 189.15C200.76 194.33 196.36 197.97 191.28 198.94ZM186.27 172.34C181.44 173.26 177.27 176.72 175.77 181.63C174.75 184.97 175.11 188.5 176.78 191.56C178.49 194.69 181.35 196.96 184.83 197.95C191.97 199.97 199.51 195.93 201.64 188.94C202.66 185.6 202.3 182.07 200.63 179.01C198.92 175.88 196.06 173.61 192.58 172.62C190.46 172.02 188.31 171.96 186.27 172.34Z"
              fill="black"/>
        <path d="M193.801 191.44C194.561 188.96 193.321 187.11 190.391 185.08C188.011 183.43 187.071 182.32 187.551 180.74C187.901 179.59 189.321 178.49 191.951 179.24C193.691 179.73 194.831 180.6 195.371 181.08L196.601 179.49C195.871 178.82 194.561 178.02 192.591 177.46C192.581 177.46 192.571 177.46 192.561 177.46L193.341 174.89L191.811 174.46L190.991 177.15C187.991 176.81 185.651 178.04 184.961 180.29C184.231 182.67 185.741 184.65 188.591 186.52C190.921 188.13 191.681 189.33 191.201 190.91C190.681 192.61 188.831 193.37 186.291 192.65C184.571 192.16 183.101 191.2 182.161 190.28L180.971 191.93C181.821 192.82 183.701 193.87 185.561 194.4C185.611 194.41 185.661 194.42 185.711 194.44L185.051 196.6L186.581 197.03L187.271 194.76C190.831 195.23 193.101 193.71 193.791 191.45L193.801 191.44Z"
              fill="black"/>
        <path d="M193.371 190.79C194.131 188.31 192.891 186.46 189.961 184.43C187.571 182.78 186.641 181.67 187.121 180.09C187.471 178.94 188.891 177.84 191.521 178.59C193.261 179.08 194.401 179.95 194.941 180.43L196.171 178.84C195.441 178.17 194.131 177.37 192.161 176.81C192.151 176.81 192.141 176.81 192.131 176.81L192.911 174.24L191.381 173.81L190.561 176.5C187.561 176.16 185.221 177.39 184.531 179.64C183.801 182.02 185.311 184 188.161 185.87C190.501 187.48 191.251 188.68 190.771 190.26C190.251 191.96 188.401 192.72 185.861 192C184.141 191.52 182.671 190.55 181.731 189.63L180.541 191.28C181.391 192.17 183.271 193.22 185.131 193.75C185.181 193.76 185.231 193.77 185.281 193.79L184.621 195.95L186.151 196.38L186.841 194.11C190.401 194.58 192.671 193.06 193.361 190.8L193.371 190.79Z"
              fill="white"/>
        <path d="M186.4 196.81L184.17 196.18L184.83 194.03C183.03 193.48 181.18 192.47 180.28 191.52L180.07 191.3L181.68 189.06L181.98 189.36C183.01 190.37 184.49 191.22 185.95 191.63C188.23 192.27 189.94 191.7 190.42 190.13C190.84 188.74 190.2 187.7 187.95 186.15C184.66 183.99 183.46 181.88 184.18 179.52C184.9 177.18 187.28 175.85 190.29 176.1L191.13 173.35L193.36 173.98L192.58 176.55C194.71 177.2 195.89 178.09 196.42 178.57L196.67 178.8L195 180.96L194.71 180.7C194.08 180.14 193.01 179.39 191.44 178.94C189.17 178.3 187.81 179.11 187.48 180.2C187.09 181.49 187.74 182.45 190.18 184.14C193.42 186.39 194.49 188.41 193.73 190.9C192.94 193.48 190.43 194.84 187.12 194.5L186.41 196.82L186.4 196.81ZM185.08 195.68L185.92 195.92L186.6 193.7L186.9 193.74C189.97 194.15 192.32 192.98 193.02 190.68C193.68 188.52 192.73 186.79 189.75 184.73C187.38 183.09 186.2 181.84 186.77 179.98C187.21 178.55 188.88 177.46 191.62 178.23C193.1 178.65 194.18 179.33 194.88 179.9L195.67 178.89C195.07 178.4 193.94 177.69 192.06 177.16C192.05 177.16 192.04 177.16 192.03 177.16L191.67 177.06L192.45 174.49L191.61 174.25L190.8 176.89L190.5 176.86C187.7 176.54 185.49 177.68 184.86 179.74C184.25 181.75 185.35 183.6 188.34 185.56C191.23 187.56 191.53 188.92 191.1 190.36C190.5 192.32 188.4 193.1 185.74 192.34C184.29 191.93 182.86 191.15 181.77 190.17L181.01 191.23C181.92 192.06 183.63 192.94 185.22 193.39C185.24 193.39 185.26 193.4 185.28 193.41C185.31 193.41 185.33 193.42 185.36 193.43L185.72 193.53L185.06 195.69L185.08 195.68Z"
              fill="black"/>
        <path d="M271.65 258.22C276.24 267.87 272.1 279.64 262.4 284.5C252.7 289.36 241.12 285.47 236.53 275.82C231.94 266.16 236.08 254.4 245.78 249.54C255.48 244.68 267.06 248.57 271.65 258.22Z"
              fill="white"/>
        <path d="M264.36 285.81C254.05 290.98 241.7 286.83 236.82 276.56C231.94 266.3 236.36 253.74 246.67 248.58C256.98 243.41 269.33 247.56 274.21 257.83C279.09 268.09 274.67 280.65 264.36 285.81ZM247.74 250.85C238.69 255.39 234.8 266.41 239.09 275.43C243.37 284.45 254.23 288.09 263.28 283.55C272.33 279.01 276.22 267.99 271.93 258.97C267.65 249.95 256.79 246.31 247.74 250.85Z"
              fill="black"/>
        <path d="M262.94 285.63C252.63 290.8 240.28 286.65 235.4 276.38C230.52 266.12 234.94 253.56 245.25 248.4C255.56 243.23 267.91 247.38 272.79 257.65C277.67 267.91 273.25 280.47 262.94 285.63ZM246.32 250.67C237.27 255.21 233.38 266.23 237.67 275.25C241.95 284.27 252.81 287.91 261.86 283.37C270.91 278.83 274.8 267.81 270.51 258.79C266.23 249.77 255.37 246.13 246.32 250.67Z"
              fill="white"/>
        <path d="M270.85 279.63C268.87 282.27 266.28 284.5 263.15 286.07C258 288.65 252.2 289.06 246.82 287.21C241.56 285.4 237.34 281.63 234.95 276.6C229.96 266.1 234.48 253.26 245.02 247.98C250.17 245.4 255.97 244.99 261.35 246.84C266.61 248.65 270.83 252.42 273.22 257.45C276.73 264.83 275.54 273.38 270.85 279.63ZM238.09 255C233.61 260.98 232.47 269.13 235.83 276.18C238.11 280.97 242.13 284.56 247.14 286.29C252.27 288.05 257.8 287.67 262.72 285.2C272.8 280.15 277.12 267.88 272.35 257.86C270.07 253.07 266.05 249.48 261.04 247.75C255.91 245.99 250.38 246.37 245.46 248.84C242.47 250.34 239.98 252.47 238.1 255H238.09ZM268.86 278.13C267.12 280.46 264.83 282.42 262.08 283.8C257.54 286.08 252.43 286.43 247.69 284.8C243.05 283.2 239.34 279.88 237.23 275.45C232.83 266.2 236.81 254.89 246.1 250.23C250.64 247.95 255.75 247.6 260.49 249.23C265.13 250.83 268.84 254.15 270.95 258.58C274.04 265.09 272.99 272.61 268.86 278.12V278.13ZM240.09 256.5C236.17 261.73 235.17 268.87 238.11 275.05C240.1 279.25 243.62 282.39 248.01 283.9C252.5 285.44 257.34 285.11 261.65 282.95C270.47 278.53 274.25 267.79 270.08 259.01C268.09 254.81 264.57 251.67 260.18 250.16C255.69 248.62 250.85 248.95 246.54 251.11C243.92 252.42 241.75 254.29 240.09 256.5Z"
              fill="black"/>
        <path d="M264.61 268.5C263.13 265.38 260.25 264.68 255.57 265.31C251.74 265.82 249.83 265.57 248.89 263.59C248.2 262.14 248.62 259.79 251.87 258.16C254.03 257.08 255.92 256.91 256.87 256.9L256.66 254.24C255.34 254.24 253.34 254.62 250.9 255.84C250.89 255.84 250.87 255.86 250.86 255.86L249.33 252.64L247.44 253.59L249.05 256.97C245.8 259.33 244.6 262.64 245.94 265.46C247.36 268.45 250.62 269.04 255.09 268.32C258.83 267.81 260.64 268.31 261.59 270.29C262.61 272.43 261.47 274.83 258.33 276.41C256.21 277.47 253.89 277.85 252.15 277.79L252.47 280.48C254.1 280.6 256.9 279.94 259.19 278.79C259.25 278.76 259.31 278.72 259.37 278.69L260.66 281.4L262.55 280.45L261.2 277.6C265.12 274.87 265.98 271.34 264.63 268.5H264.61Z"
              fill="black"/>
        <path d="M263.6 268.24C262.12 265.12 259.24 264.42 254.56 265.05C250.73 265.56 248.82 265.31 247.88 263.33C247.19 261.88 247.61 259.53 250.86 257.9C253.02 256.82 254.91 256.65 255.86 256.64L255.65 253.98C254.34 253.98 252.33 254.36 249.89 255.58C249.88 255.58 249.86 255.6 249.85 255.6L248.32 252.38L246.43 253.33L248.04 256.71C244.79 259.07 243.59 262.38 244.93 265.2C246.35 268.19 249.61 268.78 254.08 268.06C257.82 267.55 259.63 268.05 260.58 270.03C261.6 272.17 260.46 274.57 257.32 276.15C255.2 277.21 252.88 277.59 251.15 277.53L251.47 280.22C253.1 280.34 255.9 279.68 258.19 278.53C258.25 278.5 258.31 278.46 258.37 278.43L259.66 281.14L261.55 280.19L260.19 277.34C264.11 274.61 264.97 271.08 263.62 268.24H263.6Z"
              fill="white"/>
        <path d="M262.16 280.41L259.4 281.79L258.11 279.08C255.85 280.16 253.13 280.82 251.39 280.7L250.99 280.67L250.56 277.03L251.12 277.05C253.04 277.12 255.26 276.62 257.06 275.72C259.87 274.31 261.04 272.21 260.11 270.24C259.28 268.5 257.71 268.05 254.11 268.54C248.94 269.37 245.87 268.38 244.46 265.41C243.06 262.47 244.22 259.03 247.4 256.56L245.76 253.11L248.52 251.73L250.05 254.96C252.73 253.69 254.68 253.5 255.63 253.5H256.07L256.36 257.12H255.84C254.73 257.14 252.99 257.36 251.05 258.34C248.24 259.75 247.64 261.76 248.29 263.13C249.06 264.75 250.56 265.1 254.47 264.58C259.67 263.88 262.53 264.91 264.01 268.04C265.55 271.28 264.3 274.88 260.75 277.51L262.13 280.42L262.16 280.41ZM259.85 280.49L260.88 279.97L259.55 277.18L259.89 276.95C263.28 274.59 264.53 271.34 263.16 268.45C261.87 265.73 259.39 264.89 254.62 265.53C250.82 266.04 248.55 265.88 247.44 263.54C246.59 261.74 247.25 259.17 250.64 257.47C252.47 256.55 254.14 256.25 255.34 256.18L255.2 254.48C254.18 254.54 252.42 254.85 250.1 256.02C250.09 256.02 250.07 256.04 250.06 256.04L249.62 256.26L248.09 253.03L247.06 253.55L248.64 256.87L248.31 257.11C245.28 259.31 244.12 262.41 245.36 265C246.56 267.52 249.3 268.35 254 267.59C258.64 266.96 260.15 268.03 261.01 269.83C262.18 272.29 260.81 274.94 257.53 276.59C255.73 277.49 253.63 278 251.68 278.03L251.88 279.76C253.52 279.76 255.99 279.09 257.96 278.1C257.99 278.09 258.01 278.07 258.04 278.06C258.07 278.04 258.1 278.02 258.14 278.01L258.58 277.78L259.87 280.49H259.85Z"
              fill="black"/>
        <path d="M99.2301 203.63L97.0801 212.75L99.1501 222.68L101.15 212.98L99.2301 203.63Z" fill="white"/>
        <path d="M106.34 212.93L99.4903 211.09L92.0303 212.88L99.3203 214.59L106.35 212.94L106.34 212.93Z"
              fill="white"/>
        <path d="M292.01 295L289.86 304.12L291.93 314.05L293.93 304.35L292.01 295Z" fill="white"/>
        <path d="M299.121 304.29L292.271 302.45L284.811 304.24L292.101 305.95L299.131 304.3L299.121 304.29Z"
              fill="white"/>
        <path d="M198.1 220.93L195.95 230.05L198.02 239.98L200.02 230.28L198.1 220.93Z" fill="white"/>
        <path d="M205.21 230.22L198.36 228.38L190.9 230.17L198.19 231.88L205.22 230.23L205.21 230.22Z" fill="white"/>
        <path d="M299.95 124.36L297.8 133.48L299.87 143.41L301.87 133.71L299.95 124.36Z" fill="white"/>
        <path d="M307.06 133.65L300.21 131.81L292.75 133.6L300.04 135.31L307.07 133.66L307.06 133.65Z" fill="white"/>
        <path d="M222.206 69.3394L219.755 79.7331L222.114 91.05L224.394 79.9952L222.206 69.3394Z" fill="white"/>
        <path d="M230.309 79.9268L222.502 77.8298L214 79.8698L222.308 81.8187L230.32 79.9382L230.309 79.9268Z"
              fill="white"/>
        <path d="M240.37 141.23L237.32 154.15L240.26 168.21L243.09 154.48L240.37 141.24V141.23Z" fill="white"/>
        <path d="M250.44 154.38L240.74 151.77L230.17 154.3L240.49 156.72L250.44 154.38Z" fill="white"/>
        <path d="M299.97 233.04L296.92 245.96L299.86 260.02L302.69 246.29L299.97 233.05V233.04Z" fill="white"/>
        <path d="M310.041 246.19L300.341 243.58L289.771 246.11L300.091 248.53L310.041 246.19Z" fill="white"/>
        <path d="M151.77 259.15L148.72 272.07L151.66 286.13L154.49 272.4L151.77 259.16V259.15Z" fill="white"/>
        <path d="M161.84 272.3L152.14 269.69L141.57 272.22L151.89 274.64L161.84 272.3Z" fill="white"/>
        <path d="M297.18 160.99C298 163.95 290.43 168.69 280.26 171.58C270.09 174.47 261.18 174.41 260.35 171.45C259.53 168.49 267.1 163.75 277.27 160.86C287.44 157.97 296.35 158.03 297.18 160.99Z"
              fill="white"/>
        <path d="M281.24 174.34C270.43 177.41 260.77 176.82 259.71 173.02C258.65 169.22 266.58 163.63 277.39 160.56C288.2 157.49 297.86 158.08 298.92 161.88C299.98 165.68 292.05 171.27 281.24 174.34ZM278.98 161.2C269.48 163.9 262.39 168.34 263.16 171.1C263.93 173.86 272.28 173.91 281.78 171.22C291.27 168.52 298.37 164.08 297.6 161.32C296.83 158.56 288.48 158.51 278.98 161.2Z"
              fill="white"/>
        <path d="M281.891 174.34C281.691 174.4 281.491 174.46 281.291 174.52C276.031 176.02 270.871 176.7 266.761 176.45C262.601 176.19 260.011 175 259.481 173.1C259.171 172 259.561 170.75 260.641 169.4C261.931 167.77 264.14 166.08 267.05 164.5C270.02 162.89 273.581 161.47 277.351 160.4C282.611 158.9 287.771 158.22 291.881 158.47C296.041 158.73 298.631 159.92 299.161 161.83C299.471 162.93 299.081 164.17 298.001 165.53C296.711 167.16 294.49 168.85 291.59 170.43C288.78 171.96 285.44 173.31 281.9 174.35L281.891 174.34ZM281.191 174.17C288.581 172.07 295.02 168.62 297.59 165.37C298.59 164.11 298.96 162.95 298.68 161.95C298.19 160.18 295.721 159.07 291.751 158.83C287.711 158.58 282.631 159.26 277.441 160.73C270.051 162.83 263.611 166.28 261.041 169.53C260.041 170.8 259.671 171.95 259.951 172.95C260.441 174.72 262.911 175.83 266.881 176.07C270.921 176.32 276.001 175.64 281.191 174.17ZM282.471 171.2C282.251 171.26 282.041 171.33 281.821 171.39C277.201 172.7 272.7 173.41 269.15 173.39C265.53 173.37 263.321 172.58 262.921 171.17C262.731 170.48 262.981 169.69 263.671 168.81C265.811 166.11 271.8 163.05 278.93 161.03C283.55 159.72 288.051 159.01 291.601 159.03C295.221 159.05 297.43 159.84 297.83 161.25C298.02 161.94 297.77 162.73 297.08 163.61C295 166.23 289.311 169.18 282.471 171.2ZM278.411 161.55C271.771 163.51 266.061 166.46 264.071 168.96C263.451 169.74 263.221 170.44 263.391 171.04C263.741 172.3 265.82 173.01 269.24 173.03C272.73 173.05 277.171 172.35 281.731 171.05C288.631 169.09 294.64 166.04 296.68 163.46C297.3 162.68 297.53 161.98 297.36 161.38C297.01 160.12 294.931 159.41 291.511 159.39C288.021 159.37 283.58 160.07 279.02 161.36C278.81 161.42 278.61 161.48 278.4 161.54L278.411 161.55Z"
              fill="black"/>
        <path d="M280.35 171.92C269.54 174.99 260.03 174.93 259.16 171.79C258.28 168.65 266.36 163.59 277.17 160.52C287.98 157.45 297.49 157.51 298.36 160.65C299.24 163.79 291.16 168.85 280.35 171.92ZM277.36 161.21C267.86 163.91 260.77 168.35 261.54 171.11C262.31 173.87 270.66 173.92 280.16 171.23C289.65 168.53 296.75 164.09 295.98 161.33C295.21 158.57 286.86 158.52 277.36 161.21Z"
              fill="white"/>
        <path d="M281.14 171.87C280.89 171.94 280.65 172.01 280.4 172.08C275.14 173.57 270.02 174.38 265.99 174.36C261.88 174.33 259.37 173.44 258.93 171.85C258.71 171.07 259 170.17 259.78 169.19C262.22 166.12 269.02 162.65 277.13 160.34C282.39 158.85 287.51 158.04 291.54 158.06C295.65 158.09 298.16 158.98 298.6 160.57C298.82 161.35 298.53 162.25 297.75 163.23C295.39 166.21 288.91 169.56 281.14 171.86V171.87ZM276.49 160.89C272.8 161.98 269.35 163.33 266.46 164.81C263.48 166.34 261.3 167.9 260.17 169.33C259.46 170.22 259.2 171.03 259.39 171.71C259.79 173.16 262.17 173.97 266.07 173.99C270.05 174.02 275.1 173.22 280.3 171.74C284.26 170.61 287.98 169.19 291.06 167.61C294.04 166.08 296.22 164.52 297.35 163.09C298.06 162.2 298.32 161.39 298.13 160.71C297.73 159.26 295.35 158.45 291.45 158.43C287.47 158.4 282.42 159.2 277.22 160.68C276.98 160.75 276.73 160.82 276.49 160.89ZM280.86 171.2C280.65 171.26 280.43 171.33 280.21 171.39C275.59 172.7 271.09 173.41 267.54 173.39C263.92 173.37 261.71 172.58 261.31 171.17C261.12 170.48 261.37 169.69 262.06 168.81C264.2 166.11 270.19 163.05 277.32 161.03C281.94 159.72 286.44 159.01 289.99 159.03C293.61 159.05 295.82 159.84 296.22 161.25C296.41 161.94 296.16 162.73 295.47 163.61C293.39 166.23 287.7 169.18 280.86 171.2ZM276.8 161.55C270.16 163.51 264.45 166.46 262.46 168.96C261.84 169.74 261.61 170.44 261.78 171.04C262.13 172.3 264.21 173.01 267.63 173.03C271.12 173.05 275.56 172.35 280.12 171.05C280.33 170.99 280.53 170.93 280.74 170.87C287.38 168.91 293.09 165.96 295.08 163.46C295.7 162.68 295.93 161.98 295.76 161.38C295.41 160.12 293.33 159.41 289.91 159.39C286.42 159.37 281.98 160.07 277.42 161.37C277.21 161.43 277.01 161.49 276.8 161.55Z"
              fill="black"/>
        <path d="M287.55 165.52C287.28 164.57 284.98 164.65 280.64 165.42C277.09 166.05 275.49 166.18 275.32 165.58C275.2 165.14 276.35 164.24 279.76 163.27C282.02 162.63 283.74 162.35 284.59 162.23L285.29 161.29C284.13 161.44 282.24 161.81 279.68 162.54C279.66 162.54 279.65 162.54 279.64 162.55L279.37 161.56L277.38 162.12L277.67 163.16C274.02 164.39 271.86 165.73 272.1 166.59C272.36 167.51 275.03 167.34 279.21 166.56C282.68 165.94 284.11 165.91 284.28 166.51C284.46 167.17 282.66 168.17 279.36 169.1C277.14 169.73 274.97 170.14 273.46 170.32L272.84 171.26C274.24 171.11 276.92 170.55 279.33 169.86C279.4 169.84 279.46 169.82 279.52 169.8L279.75 170.63L281.74 170.07L281.5 169.2C285.87 167.76 287.8 166.38 287.56 165.51L287.55 165.52Z"
              fill="black"/>
        <path d="M286.74 165.55C286.47 164.6 284.17 164.68 279.83 165.45C276.28 166.08 274.68 166.22 274.51 165.61C274.39 165.17 275.54 164.27 278.95 163.3C281.21 162.66 282.93 162.38 283.78 162.26L284.48 161.32C283.32 161.47 281.43 161.84 278.87 162.57C278.85 162.57 278.84 162.57 278.83 162.58L278.56 161.59L276.57 162.15L276.86 163.19C273.21 164.42 271.05 165.76 271.29 166.62C271.55 167.54 274.22 167.37 278.4 166.59C281.87 165.97 283.3 165.94 283.47 166.55C283.65 167.21 281.85 168.21 278.55 169.14C276.33 169.77 274.16 170.18 272.65 170.36L272.03 171.3C273.43 171.15 276.11 170.59 278.52 169.9C278.59 169.88 278.65 169.86 278.71 169.84L278.94 170.67L280.93 170.11L280.69 169.24C285.06 167.8 286.99 166.42 286.75 165.55H286.74Z"
              fill="white"/>
        <path d="M281.21 170.22L278.75 170.92L278.52 170.09C276.2 170.75 273.47 171.33 272.01 171.49L271.62 171.53L272.49 170.21L272.64 170.19C274.36 169.99 276.54 169.54 278.49 168.98C280.92 168.29 282.65 167.53 283.12 166.93C283.21 166.81 283.25 166.71 283.22 166.62C283.09 166.15 281.65 166.19 278.4 166.78C273.58 167.68 271.31 167.66 271.04 166.7C270.77 165.74 272.89 164.37 276.57 163.11L276.28 162.06L278.74 161.36L279.01 162.35C281.85 161.55 283.65 161.25 284.48 161.14L284.91 161.08L283.91 162.42L283.78 162.44C282.76 162.58 281.1 162.87 278.99 163.47C275.76 164.39 274.99 165.12 274.83 165.32C274.78 165.38 274.72 165.47 274.75 165.54C274.89 166.04 276.79 165.81 279.82 165.27C283.88 164.55 286.65 164.3 286.98 165.48C287.27 166.53 285.03 167.97 280.97 169.33L281.22 170.21L281.21 170.22ZM279.13 170.44L280.65 170.01L280.41 169.15L280.63 169.08C285.26 167.55 286.69 166.26 286.52 165.62C286.3 164.84 284.25 164.85 279.86 165.63C276.26 166.27 274.51 166.44 274.29 165.68C274.26 165.58 274.27 165.4 274.45 165.18C274.96 164.53 276.55 163.81 278.92 163.13C280.98 162.55 282.61 162.25 283.66 162.1L284.06 161.57C283.1 161.72 281.41 162.05 278.93 162.75H278.89L278.65 162.83L278.37 161.84L276.86 162.27L277.15 163.3L276.93 163.37C272.96 164.71 271.36 165.94 271.53 166.57C271.73 167.29 274.04 167.24 278.39 166.43C282.12 165.76 283.51 165.78 283.71 166.49C283.76 166.67 283.71 166.87 283.54 167.08C282.98 167.78 281.23 168.58 278.61 169.32C276.69 169.87 274.53 170.32 272.8 170.53L272.44 171.07C273.94 170.87 276.39 170.33 278.48 169.73C278.51 169.73 278.55 169.71 278.58 169.7C278.61 169.7 278.64 169.68 278.67 169.67L278.91 169.6L279.14 170.43L279.13 170.44Z"
              fill="black"/>
        <path d="M284.96 159.54C284.96 159.54 294.16 158.04 295.98 161.33C295.98 161.33 296.54 162.86 293.8 164.98C293.8 164.98 300.72 158.79 284.96 159.54Z"
              fill="black"/>
        <path d="M356.62 110.56C353.14 112.91 343.72 105.11 335.6 93.1499C327.47 81.1899 323.71 69.5899 327.19 67.2499C330.67 64.8999 340.09 72.6999 348.21 84.6599C356.34 96.6199 360.1 108.22 356.62 110.56Z"
              fill="white"/>
        <path d="M332.43 95.6199C323.79 82.8999 320.4 70.1099 324.88 67.0899C329.36 64.0799 340.03 71.9699 348.67 84.6799C357.31 97.3999 360.7 110.19 356.22 113.21C351.74 116.22 341.07 108.33 332.43 95.6199ZM348.51 87.0299C340.92 75.8599 332.1 68.5599 328.85 70.7499C325.6 72.9399 329.13 83.8099 336.72 94.9799C344.31 106.15 353.13 113.45 356.38 111.26C359.63 109.07 356.1 98.1999 348.51 87.0299Z"
              fill="white"/>
        <path d="M332.71 96.4698C332.55 96.2298 332.38 95.9998 332.22 95.7598C328.01 89.5698 324.9 83.1598 323.46 77.7198C322 72.1998 322.43 68.3298 324.68 66.8198C325.97 65.9498 327.76 65.9198 329.99 66.7298C332.65 67.6998 335.81 69.8498 339.1 72.9498C342.47 76.1098 345.85 80.1198 348.86 84.5598C353.07 90.7498 356.18 97.1498 357.62 102.6C359.08 108.12 358.65 111.99 356.4 113.5C355.11 114.37 353.32 114.4 351.09 113.59C348.43 112.62 345.27 110.47 341.98 107.37C338.79 104.38 335.6 100.62 332.71 96.4698ZM332.62 95.4898C338.53 104.18 345.78 111.05 351.11 113C353.18 113.76 354.84 113.74 356.02 112.94C358.11 111.54 358.48 107.86 357.09 102.59C355.67 97.2398 352.61 90.9298 348.46 84.8198C342.55 76.1298 335.3 69.2498 329.97 67.3098C327.9 66.5498 326.24 66.5698 325.06 67.3698C322.98 68.7698 322.6 72.4498 323.99 77.7198C325.41 83.0698 328.47 89.3798 332.62 95.4898ZM337.03 95.8698C336.86 95.6198 336.68 95.3698 336.51 95.1098C332.81 89.6698 329.95 84.1298 328.45 79.5198C326.92 74.8098 326.99 71.5898 328.65 70.4798C329.46 69.9298 330.6 69.9198 332.03 70.4398C336.46 72.0598 343.01 78.5198 348.7 86.8998C352.39 92.3398 355.25 97.8698 356.75 102.49C358.28 107.2 358.21 110.42 356.55 111.54C355.74 112.09 354.6 112.1 353.17 111.58C348.87 110.01 342.59 103.89 337.02 95.8798L337.03 95.8698ZM347.81 86.4398C342.4 78.6598 336.12 72.5098 332.02 71.0098C330.74 70.5398 329.74 70.5498 329.03 71.0098C327.54 72.0098 327.52 75.0098 328.96 79.4598C330.43 83.9998 333.26 89.4598 336.9 94.8298C342.41 102.94 348.96 109.43 353.19 110.98C354.47 111.45 355.47 111.44 356.18 110.98C357.66 109.98 357.69 106.98 356.24 102.53C354.77 97.9898 351.94 92.5298 348.3 87.1598C348.14 86.9198 347.97 86.6798 347.8 86.4398H347.81Z"
              fill="black"/>
        <path d="M335.191 93.4298C326.551 80.7098 322.531 68.3398 326.231 65.8498C329.931 63.3598 339.971 71.6698 348.621 84.3898C357.261 97.1098 361.281 109.48 357.581 111.97C353.881 114.46 343.841 106.15 335.191 93.4298ZM347.801 84.9398C340.211 73.7698 331.391 66.4698 328.141 68.6598C324.891 70.8498 328.421 81.7198 336.011 92.8898C343.601 104.06 352.421 111.36 355.671 109.17C358.921 106.98 355.391 96.1098 347.801 84.9398Z"
              fill="white"/>
        <path d="M335.58 94.4299C335.38 94.1399 335.18 93.8599 334.98 93.5599C330.78 87.3699 327.52 81.0799 325.82 75.8199C324.08 70.4699 324.16 66.8299 326.04 65.5599C326.96 64.9399 328.25 64.9299 329.86 65.5199C334.9 67.3599 342.33 74.7099 348.81 84.2399C353.01 90.4199 356.27 96.7199 357.97 101.98C359.71 107.33 359.63 110.97 357.75 112.24C356.83 112.86 355.54 112.87 353.93 112.28C349.05 110.5 341.91 103.53 335.57 94.4299H335.58ZM347.82 83.6599C344.82 79.3399 341.58 75.4399 338.41 72.3299C335.14 69.1099 332.17 66.9699 329.84 66.1099C328.37 65.5699 327.22 65.5799 326.41 66.1199C324.71 67.2699 324.68 70.6999 326.33 75.7799C328.01 80.9599 331.23 87.1799 335.38 93.2899C338.55 97.9499 342.01 102.17 345.38 105.48C348.65 108.69 351.62 110.84 353.95 111.7C355.42 112.24 356.57 112.23 357.38 111.69C359.08 110.54 359.11 107.11 357.46 102.03C355.78 96.8499 352.56 90.6299 348.41 84.5199C348.21 84.2299 348.02 83.9499 347.82 83.6599ZM336.32 93.7699C336.15 93.5199 335.97 93.2599 335.8 93.0099C332.11 87.5699 329.24 82.0299 327.75 77.4199C326.22 72.7099 326.29 69.4899 327.95 68.3699C328.76 67.8199 329.9 67.8099 331.33 68.3299C335.76 69.9499 342.3 76.4099 348 84.7899C351.7 90.2299 354.56 95.7599 356.05 100.38C357.58 105.09 357.51 108.31 355.85 109.42C355.04 109.97 353.9 109.98 352.47 109.46C348.17 107.89 341.89 101.77 336.32 93.7599V93.7699ZM347.1 84.3399C341.69 76.5599 335.41 70.4099 331.31 68.9099C330.03 68.4399 329.03 68.4499 328.32 68.9099C326.84 69.9099 326.81 72.9099 328.26 77.3599C329.73 81.8999 332.56 87.3599 336.2 92.7299C336.36 92.9699 336.53 93.2099 336.7 93.4499C342.11 101.22 348.39 107.38 352.49 108.88C353.77 109.35 354.77 109.34 355.48 108.88C356.97 107.88 356.99 104.88 355.55 100.43C354.08 95.8899 351.25 90.4299 347.61 85.0599C347.45 84.8199 347.28 84.5799 347.11 84.3399H347.1Z"
              fill="black"/>
        <path d="M346.58 100.01C347.7 99.25 346.61 96.3 343.73 91C341.38 86.67 340.52 84.64 341.24 84.16C341.76 83.81 343.42 84.91 346.15 88.92C347.96 91.58 349.06 93.7 349.58 94.75L351.1 95.25C350.4 93.81 349.1 91.51 347.06 88.5C347.05 88.48 347.04 88.47 347.02 88.45L348.18 87.67L346.59 85.33L345.37 86.15C342.2 81.94 339.53 79.71 338.51 80.39C337.43 81.12 338.8 84.52 341.62 89.61C343.92 93.85 344.58 95.69 343.86 96.17C343.09 96.69 341.01 94.78 338.38 90.9C336.6 88.28 335.14 85.64 334.26 83.76L332.78 83.36C333.57 85.11 335.46 88.36 337.39 91.19C337.44 91.27 337.49 91.34 337.55 91.41L336.57 92.07L338.16 94.41L339.19 93.72C342.94 98.77 345.57 100.69 346.59 100L346.58 100.01Z"
              fill="black"/>
        <path d="M346.2 98.98C347.32 98.22 346.23 95.27 343.35 89.97C341 85.64 340.14 83.61 340.85 83.13C341.37 82.78 343.04 83.88 345.76 87.9C347.57 90.56 348.67 92.67 349.19 93.73L350.71 94.23C350.01 92.79 348.71 90.49 346.67 87.48C346.66 87.46 346.65 87.45 346.63 87.43L347.79 86.65L346.2 84.31L344.98 85.13C341.81 80.92 339.14 78.69 338.12 79.37C337.04 80.1 338.41 83.5 341.23 88.59C343.53 92.83 344.19 94.67 343.47 95.15C342.7 95.67 340.62 93.76 337.99 89.88C336.21 87.26 334.75 84.62 333.87 82.74L332.39 82.34C333.18 84.09 335.07 87.34 337 90.17C337.05 90.25 337.1 90.32 337.16 90.39L336.18 91.05L337.77 93.39L338.8 92.7C342.55 97.75 345.18 99.67 346.2 98.98Z"
              fill="white"/>
        <path d="M337.76 93.8L335.8 90.91L336.77 90.25C334.92 87.52 332.99 84.23 332.16 82.4L331.94 81.92L334.03 82.49L334.12 82.67C335.12 84.81 336.65 87.46 338.21 89.75C340.15 92.6 341.89 94.52 342.86 94.88C343.05 94.95 343.2 94.95 343.3 94.88C343.85 94.51 343.17 92.65 341.02 88.69C337.77 82.81 336.83 79.85 337.95 79.09C339.08 78.33 341.77 80.48 344.99 84.72L346.23 83.89L348.19 86.78L347.03 87.56C349.29 90.91 350.45 93.11 350.95 94.14L351.21 94.67L349.05 93.95L348.97 93.79C348.35 92.52 347.26 90.5 345.57 88.02C342.99 84.22 341.71 83.53 341.38 83.41C341.28 83.37 341.14 83.34 341.05 83.4C340.46 83.8 341.58 86.17 343.58 89.87C346.27 94.83 347.78 98.32 346.39 99.26C345.15 100.09 342.32 97.8 338.8 93.11L337.76 93.81V93.8ZM336.57 91.19L337.78 92.97L338.8 92.28L338.99 92.54C342.97 97.89 345.26 99.2 346.01 98.69C346.92 98.08 346.03 95.41 343.12 90.05C340.74 85.65 339.76 83.45 340.66 82.84C340.78 82.76 341.01 82.69 341.38 82.83C342.44 83.22 344.06 84.96 345.96 87.75C347.6 90.17 348.69 92.17 349.34 93.47L350.2 93.76C349.6 92.58 348.44 90.52 346.46 87.6L346.42 87.55L346.23 87.27L347.39 86.49L346.18 84.71L344.97 85.52L344.78 85.27C341.33 80.69 339.04 79.14 338.3 79.64C337.45 80.21 338.51 83.19 341.44 88.49C343.91 93.05 344.49 94.86 343.65 95.43C343.44 95.57 343.15 95.58 342.81 95.46C341.66 95.04 339.87 93.11 337.78 90.02C336.24 87.76 334.73 85.15 333.71 83L332.85 82.77C333.76 84.63 335.51 87.57 337.19 90.04C337.22 90.08 337.24 90.12 337.27 90.15C337.3 90.19 337.32 90.22 337.35 90.26L337.54 90.54L336.56 91.2L336.57 91.19Z"
              fill="black"/>
        <path d="M341.89 106.94L341.59 106.65L344.37 104.81L344.66 105.11L341.89 106.94Z" fill="black"/>
        <path d="M342.79 107.77L342.48 107.49L345.22 105.67L345.52 105.96L342.79 107.77Z" fill="black"/>
        <path d="M343.58 108.46L343.25 108.19L345.96 106.39L346.27 106.68L343.58 108.46Z" fill="black"/>
        <path d="M344.52 109.26L344.19 108.99L346.87 107.22L347.19 107.5L344.53 109.26H344.52Z" fill="black"/>
        <path d="M345.43 109.98L345.09 109.72L347.72 107.98L348.04 108.26L345.42 109.99L345.43 109.98Z" fill="black"/>
        <path d="M346.27 110.6L345.91 110.35L348.51 108.63L348.84 108.9L346.27 110.6Z" fill="black"/>
        <path d="M347.151 111.25L346.811 110.99L349.361 109.3L349.711 109.56L347.161 111.25H347.151Z" fill="black"/>
        <path d="M348.01 111.8L347.78 111.46L350.16 109.89L350.52 110.14L348.01 111.8Z" fill="black"/>
        <path d="M349.01 112.39L348.78 112.05L351.1 110.52L351.48 110.76L349.01 112.39Z" fill="black"/>
        <path d="M350.08 112.87L349.65 112.67L352.03 111.09L352.44 111.31L350.08 112.87Z" fill="black"/>
        <path d="M350.981 113.25L350.521 113.07L352.851 111.53L353.281 111.73L350.981 113.25Z" fill="black"/>
        <path d="M351.98 113.57L351.48 113.41L353.75 111.91L354.23 112.08L351.99 113.57H351.98Z" fill="black"/>
        <path d="M352.93 113.78L352.36 113.67L354.58 112.2L355.13 112.33L352.93 113.79V113.78Z" fill="black"/>
        <path d="M353.69 113.85L353.16 113.79L355.34 112.35L355.89 112.4L353.7 113.85H353.69Z" fill="black"/>
        <path d="M354.48 113.83L353.94 113.86L356.14 112.41L356.73 112.34L354.48 113.83Z" fill="black"/>
        <g opacity="0.74">
            <path d="M340.7 105.78L340.41 105.48L343.22 103.62L343.48 103.94L340.7 105.78Z" fill="black"/>
        </g>
        <g opacity="0.55">
            <path d="M339.01 103.99L338.72 103.69L341.59 101.79L341.86 102.1L339.01 103.99Z" fill="black"/>
        </g>
        <path d="M322.96 70.8799L323.04 70.3399L324.86 69.1399V69.6299L322.97 70.8899L322.96 70.8799Z" fill="black"/>
        <path d="M322.93 72.0498L322.91 71.5698L324.88 70.2598L324.92 70.7198L322.92 72.0398L322.93 72.0498Z"
              fill="black"/>
        <path d="M322.95 73.4098L322.92 72.9398L325.03 71.5398L325.1 71.9798L322.95 73.3998V73.4098Z" fill="black"/>
        <path d="M323.121 74.7799L323.041 74.3399L325.261 72.8699L325.361 73.2899L323.121 74.7799Z" fill="black"/>
        <path d="M323.34 76.0999L323.25 75.6699L325.58 74.1299L325.69 74.5499L323.34 76.1099V76.0999Z" fill="black"/>
        <path d="M323.86 77.4599L323.63 77.1199L325.84 75.6599L326.07 75.9999L323.86 77.4599Z" fill="black"/>
        <path d="M324.11 79.0498L323.99 78.6398L326.45 77.0098L326.64 77.3798L324.12 79.0498H324.11Z" fill="black"/>
        <path d="M324.55 80.4098L324.41 80.0098L326.97 78.3098L327.13 78.6898L324.55 80.3998V80.4098Z" fill="black"/>
        <path d="M325.07 81.84L324.92 81.45L327.54 79.71L327.72 80.08L325.07 81.84Z" fill="black"/>
        <path d="M325.75 83.5199L325.59 83.1399L328.27 81.3599L328.46 81.7299L325.75 83.5199Z" fill="black"/>
        <path d="M326.961 86.19L326.791 85.81L329.561 83.97L329.751 84.34L326.961 86.19Z" fill="black"/>
        <path d="M328.41 89.0498L328.22 88.6898L331.07 86.7998L331.27 87.1598L328.41 89.0498Z" fill="black"/>
        <path d="M353.24 94.0698C353.24 94.0698 359.14 105.37 355.67 109.16C355.67 109.16 353.93 110.55 349.99 107.9C349.99 107.9 361.01 114.22 353.24 94.0698Z"
              fill="black"/>
        <path d="M360.68 225.56C352.85 230.68 342.17 228.48 336.82 220.64C331.47 212.81 333.47 202.31 341.29 197.19C349.12 192.07 359.8 194.27 365.15 202.1C370.5 209.93 368.5 220.43 360.68 225.55V225.56Z"
              fill="white"/>
        <path d="M335.92 222.5C330.23 214.17 332.37 202.97 340.68 197.53C349 192.09 360.4 194.44 366.09 202.76C371.78 211.09 369.64 222.29 361.33 227.73C353.01 233.17 341.61 230.82 335.92 222.5ZM364.26 203.96C359.26 196.65 349.25 194.58 341.94 199.36C334.63 204.14 332.76 213.98 337.75 221.29C342.75 228.6 352.76 230.67 360.07 225.89C367.38 221.11 369.25 211.27 364.25 203.96H364.26Z"
              fill="black"/>
        <path d="M335.9 221.24C330.21 212.91 332.35 201.71 340.66 196.27C348.98 190.83 360.38 193.18 366.07 201.5C371.76 209.83 369.62 221.03 361.31 226.47C352.99 231.91 341.59 229.56 335.9 221.24ZM364.24 202.7C359.24 195.38 349.23 193.32 341.92 198.1C334.61 202.88 332.74 212.72 337.73 220.03C342.73 227.34 352.74 229.41 360.05 224.63C367.36 219.85 369.23 210.01 364.23 202.7H364.24Z"
              fill="white"/>
        <path d="M342.04 227.4C339.52 226 337.28 224.01 335.55 221.48C332.7 217.32 331.67 212.34 332.64 207.46C333.59 202.68 336.36 198.58 340.43 195.92C348.94 190.35 360.6 192.75 366.42 201.27C369.27 205.43 370.3 210.41 369.33 215.29C368.38 220.07 365.61 224.17 361.54 226.83C355.56 230.75 348.01 230.72 342.04 227.4ZM359.52 196.09C353.81 192.92 346.61 192.89 340.9 196.63C337.01 199.17 334.38 203.08 333.47 207.63C332.55 212.28 333.53 217.03 336.25 221.01C341.81 229.15 352.95 231.44 361.08 226.13C364.96 223.59 367.6 219.68 368.51 215.13C369.43 210.48 368.45 205.73 365.73 201.75C364.08 199.33 361.93 197.43 359.53 196.09H359.52ZM343.1 225.49C340.88 224.25 338.91 222.5 337.38 220.28C334.87 216.61 333.96 212.22 334.81 207.93C335.65 203.72 338.08 200.11 341.68 197.76C349.18 192.86 359.45 194.97 364.58 202.47C367.09 206.14 368 210.53 367.15 214.82C366.31 219.03 363.87 222.64 360.28 224.99C355.01 228.44 348.36 228.42 343.1 225.49ZM358.45 197.99C353.45 195.21 347.15 195.19 342.15 198.46C338.75 200.68 336.44 204.11 335.65 208.09C334.84 212.16 335.71 216.32 338.08 219.8C342.95 226.93 352.7 228.94 359.82 224.28C363.22 222.06 365.53 218.63 366.32 214.65C367.13 210.58 366.26 206.42 363.89 202.94C362.45 200.82 360.57 199.16 358.46 197.99H358.45Z"
              fill="black"/>
        <path d="M350.95 220.67C353.48 219.02 353.75 216.44 352.65 212.45C351.75 209.19 351.74 207.5 353.35 206.45C354.52 205.68 356.61 205.76 358.41 208.39C359.6 210.13 359.97 211.75 360.09 212.58L362.37 212.08C362.22 210.94 361.65 209.24 360.3 207.27C360.3 207.26 360.28 207.25 360.28 207.24L362.89 205.53L361.84 204L359.1 205.79C356.68 203.25 353.66 202.6 351.38 204.1C348.96 205.69 348.83 208.58 349.98 212.37C350.86 215.55 350.65 217.18 349.04 218.23C347.3 219.37 345.09 218.66 343.35 216.12C342.18 214.41 341.58 212.44 341.43 210.93L339.14 211.52C339.23 212.95 340.13 215.29 341.4 217.15C341.44 217.2 341.47 217.24 341.51 217.3L339.31 218.74L340.36 220.27L342.67 218.76C345.49 221.84 348.66 222.17 350.96 220.66L350.95 220.67Z"
              fill="black"/>
        <path d="M351.05 219.76C353.58 218.11 353.85 215.53 352.75 211.54C351.85 208.28 351.84 206.6 353.45 205.54C354.62 204.77 356.71 204.85 358.51 207.48C359.7 209.22 360.07 210.84 360.19 211.67L362.47 211.17C362.32 210.03 361.75 208.33 360.4 206.36C360.4 206.35 360.38 206.34 360.38 206.33L362.99 204.62L361.94 203.09L359.2 204.88C356.78 202.34 353.76 201.69 351.48 203.19C349.06 204.78 348.93 207.67 350.08 211.46C350.96 214.64 350.75 216.27 349.14 217.32C347.4 218.46 345.19 217.75 343.45 215.21C342.28 213.5 341.68 211.53 341.53 210.02L339.24 210.61C339.33 212.04 340.23 214.38 341.5 216.24C341.53 216.29 341.57 216.34 341.61 216.39L339.41 217.83L340.46 219.36L342.77 217.85C345.59 220.93 348.76 221.26 351.06 219.75L351.05 219.76Z"
              fill="white"/>
        <path d="M340.34 219.96L338.82 217.73L341.01 216.3C339.81 214.47 338.91 212.18 338.82 210.67L338.8 210.32L341.91 209.52L341.96 210.01C342.12 211.68 342.82 213.55 343.81 215C345.36 217.27 347.32 218.04 348.92 216.99C350.33 216.07 350.53 214.65 349.68 211.59C348.35 207.21 348.85 204.43 351.26 202.85C353.64 201.29 356.76 201.89 359.27 204.35L362.07 202.52L363.59 204.75L360.98 206.46C362.39 208.63 362.79 210.3 362.9 211.12L362.95 211.5L359.85 212.18L359.78 211.73C359.64 210.77 359.24 209.29 358.17 207.72C356.62 205.45 354.8 205.17 353.69 205.89C352.38 206.75 352.25 208.09 353.16 211.42C354.38 215.85 353.82 218.44 351.29 220.1C348.66 221.82 345.4 221.16 342.7 218.39L340.34 219.93V219.96ZM340 217.97L340.57 218.8L342.83 217.32L343.07 217.58C345.51 220.24 348.48 220.94 350.82 219.41C353.02 217.97 353.46 215.72 352.34 211.66C351.45 208.42 351.33 206.43 353.22 205.2C354.68 204.25 356.98 204.51 358.86 207.26C359.87 208.74 360.33 210.15 360.53 211.18L361.99 210.86C361.82 209.98 361.34 208.49 360.06 206.62C360.06 206.62 360.04 206.6 360.04 206.59L359.8 206.23L362.41 204.52L361.84 203.69L359.15 205.45L358.91 205.2C356.65 202.83 353.83 202.19 351.72 203.57C349.67 204.91 349.28 207.39 350.49 211.37C351.58 215.31 350.84 216.75 349.38 217.71C347.39 219.01 344.93 218.14 343.11 215.49C342.12 214.04 341.43 212.28 341.18 210.59L339.71 210.97C339.91 212.39 340.78 214.46 341.86 216.04C341.87 216.06 341.89 216.08 341.91 216.1C341.93 216.13 341.95 216.15 341.97 216.18L342.22 216.54L340.02 217.98L340 217.97Z"
              fill="black"/>
        <path d="M225.59 309L224.031 314.879L225.193 321.36L226.67 315.098L225.59 309Z" fill="white"/>
        <path d="M230.034 315.153L225.617 313.84L220.75 314.866L225.453 316.11L230.047 315.166L230.034 315.153Z"
              fill="white"/>
        <path d="M246.4 216.84L245.26 221.14L246.11 225.88L247.19 221.3L246.4 216.84Z" fill="white"/>
        <path d="M249.65 221.34L246.42 220.38L242.86 221.13L246.3 222.04L249.66 221.35L249.65 221.34Z" fill="white"/>
        <path d="M369.95 155.86L368.81 160.16L369.66 164.9L370.74 160.32L369.95 155.86Z" fill="white"/>
        <path d="M373.2 160.36L369.97 159.4L366.41 160.15L369.85 161.06L373.21 160.37L373.2 160.36Z" fill="white"/>
        <path d="M285.69 85.7346L283.858 92.6462L285.224 100.265L286.96 92.9034L285.69 85.7346Z" fill="white"/>
        <path d="M290.914 92.9676L285.722 91.4246L280 92.6301L285.529 94.0928L290.93 92.9837L290.914 92.9676Z"
              fill="white"/>
        <path d="M288.62 122.02L287.72 125.93L288.62 130.18L289.46 126.02L288.62 122.02Z" fill="white"/>
        <path d="M291.68 125.99L288.74 125.21L285.55 125.99L288.67 126.71L291.68 125.99Z" fill="white"/>
        <mask id="mask0_0_1" style="mask-type:luminance" maskUnits="userSpaceOnUse" x="-2" y="125" width="167"
              height="446">
            <path d="M164.97 125.45H-2V570.95H164.97V125.45Z" fill="white"/>
        </mask>
        <g mask="url(#mask0_0_1)">
            <path d="M113.85 267.42C114.01 268.14 114.05 269.32 113.92 270.33C113.85 270.89 113.12 271.07 112.79 270.61C112.31 269.93 111.59 267.75 111.23 267L111.28 266.98C111.95 266.65 113.05 267.69 113.79 267.32L113.85 267.43V267.42Z"
                  fill="black"/>
            <path d="M129.49 218.77C130.32 215.7 133.31 213.03 136.29 211.78L137.54 215.66" fill="white"/>
            <path d="M129.49 218.77C130.32 215.7 133.31 213.03 136.29 211.78L137.54 215.66" stroke="black"
                  stroke-width="0.78" stroke-linecap="round" stroke-linejoin="round"/>
            <path d="M148.42 207.74C149.56 207.93 150.6 208.66 151.16 209.65C150.25 210.25 149.24 210.75 148.22 211.12C148.3 210.02 148.34 208.83 148.42 207.73V207.74Z"
                  fill="white" stroke="black" stroke-width="0.78" stroke-linecap="round" stroke-linejoin="round"/>
            <path d="M114.54 267.26C115.46 266.97 116.25 266.35 117.14 265.49C125.48 257.4 128.97 252.56 136.45 243.7C140.57 238.83 143.42 234.58 147.26 229.49L137.5 229.67C134.96 232.17 124.64 241.54 122.6 243.26C119.01 246.3 109.09 255.13 109.02 256.1C108.82 258.83 107.9 261.51 106.38 263.79C106.12 264.18 105.84 264.71 106.14 265.08C106.27 265.23 106.46 265.3 106.65 265.37C108.41 265.97 108.59 266.48 110.46 266.86C111.46 267.06 113.83 267.48 114.54 267.26Z"
                  fill="white" stroke="black" stroke-width="0.78" stroke-linecap="round" stroke-linejoin="round"/>
            <path d="M149.16 210.85L153.69 227.43C154 228.58 153.53 229.9 152.6 230.4L145.37 234.31C145.24 234.38 145.1 234.44 144.97 234.48C144.84 234.52 144.72 234.55 144.6 234.58C144.36 234.62 144.13 234.61 143.91 234.58C143.17 234.45 142.55 233.89 142.32 233.02L134.23 203.39C133.99 202.51 134.25 201.73 134.82 201.25C134.98 201.12 135.17 201 135.37 200.92C135.62 200.82 135.9 200.76 136.2 200.75L144.44 200.55C145.5 200.53 146.58 201.44 146.9 202.59L149.16 210.87"
                  fill="white"/>
            <path d="M149.16 210.85L153.69 227.43C154 228.58 153.53 229.9 152.6 230.4L145.37 234.31C145.24 234.38 145.1 234.44 144.97 234.48C144.84 234.52 144.72 234.55 144.6 234.58C144.36 234.62 144.13 234.61 143.91 234.58C143.17 234.45 142.55 233.89 142.32 233.02L134.23 203.39C133.99 202.51 134.25 201.73 134.82 201.25C134.98 201.12 135.17 201 135.37 200.92C135.62 200.82 135.9 200.76 136.2 200.75L144.44 200.55C145.5 200.53 146.58 201.44 146.9 202.59L149.16 210.87"
                  stroke="black" stroke-width="0.78" stroke-linecap="round" stroke-linejoin="round"/>
            <path d="M144.6 234.57L143.19 234.94C142.42 235.04 141.65 234.4 141.34 233.25L133.25 203.62C132.92 202.42 133.3 201.47 134.08 201.21L134.15 201.19L135.37 200.88C135.22 200.95 135.09 201.05 134.97 201.17C134.57 201.6 134.42 202.35 134.66 203.24L142.75 232.87C142.99 233.74 143.49 234.33 144.06 234.51C144.22 234.56 144.4 234.58 144.58 234.56L144.6 234.57Z"
                  fill="black" stroke="black" stroke-width="0.78" stroke-linecap="round" stroke-linejoin="round"/>
            <path d="M138.73 203.65C138.87 204.16 138.59 204.67 138.08 204.79C137.57 204.91 136.98 204.59 136.83 204.04C136.68 203.49 137.02 202.97 137.56 202.88C138.1 202.79 138.59 203.14 138.73 203.65Z"
                  stroke="black" stroke-width="0.78" stroke-linecap="round" stroke-linejoin="round"/>
            <path d="M140.71 205.72C140.84 206.2 140.61 206.71 140.18 206.87C139.75 207.03 139.24 206.76 139.1 206.25C138.96 205.74 139.23 205.21 139.69 205.08C140.15 204.95 140.58 205.25 140.71 205.72Z"
                  stroke="black" stroke-width="0.78" stroke-linecap="round" stroke-linejoin="round"/>
            <path d="M142.61 215.87C143.02 215.35 143.15 214.63 142.94 214C142.45 212.52 140.75 212.26 139.42 212.56C137.88 212.91 136.43 213.56 135.02 214.26C133.42 215.07 131.83 215.97 130.6 217.28C128.75 219.25 127.92 221.92 127.14 224.49L126.36 225.25C116.96 232.73 108.47 238.75 98.3899 245.31C97.0999 246.15 95.7499 246.89 94.4399 247.7C93.3999 248.34 93.0899 249.78 92.6299 250.89C91.4299 253.79 90.3399 256.73 89.3799 259.72C89.2299 260.19 89.0899 260.71 89.3099 261.15C89.5399 261.6 90.0899 261.78 90.5799 261.92C92.4399 262.43 94.4899 262.99 96.4799 262.86C98.6999 262.72 100.41 261.52 102.08 260.16C104.12 258.51 106.14 256.84 108.15 255.15C112.13 251.81 116.05 248.4 119.86 244.87C124.54 240.54 129.1 236.08 133.53 231.49L133.75 231.22C135.58 231.22 137.5 231.17 139.08 230.26C140.2 229.61 141.03 228.58 141.97 227.7C142.91 226.82 144.16 226.13 145.46 226.19C146.18 225.64 146.46 224.6 146.12 223.77C145.78 222.94 144.83 222.4 143.93 222.5"
                  fill="white"/>
            <path d="M142.61 215.87C143.02 215.35 143.15 214.63 142.94 214C142.45 212.52 140.75 212.26 139.42 212.56C137.88 212.91 136.43 213.56 135.02 214.26C133.42 215.07 131.83 215.97 130.6 217.28C128.75 219.25 127.92 221.92 127.14 224.49L126.36 225.25C116.96 232.73 108.47 238.75 98.3899 245.31C97.0999 246.15 95.7499 246.89 94.4399 247.7C93.3999 248.34 93.0899 249.78 92.6299 250.89C91.4299 253.79 90.3399 256.73 89.3799 259.72C89.2299 260.19 89.0899 260.71 89.3099 261.15C89.5399 261.6 90.0899 261.78 90.5799 261.92C92.4399 262.43 94.4899 262.99 96.4799 262.86C98.6999 262.72 100.41 261.52 102.08 260.16C104.12 258.51 106.14 256.84 108.15 255.15C112.13 251.81 116.05 248.4 119.86 244.87C124.54 240.54 129.1 236.08 133.53 231.49L133.75 231.22C135.58 231.22 137.5 231.17 139.08 230.26C140.2 229.61 141.03 228.58 141.97 227.7C142.91 226.82 144.16 226.13 145.46 226.19C146.18 225.64 146.46 224.6 146.12 223.77C145.78 222.94 144.83 222.4 143.93 222.5"
                  stroke="black" stroke-width="0.78" stroke-linecap="round" stroke-linejoin="round"/>
            <path d="M139.59 215.72C140.49 215.62 141.41 215.65 142.3 215.83C143.14 216 143.99 216.32 144.54 216.96C145.09 217.6 145.24 218.63 144.69 219.28"
                  fill="white"/>
            <path d="M139.59 215.72C140.49 215.62 141.41 215.65 142.3 215.83C143.14 216 143.99 216.32 144.54 216.96C145.09 217.6 145.24 218.63 144.69 219.28"
                  stroke="black" stroke-width="0.78" stroke-linecap="round" stroke-linejoin="round"/>
            <path d="M141.86 219.02C142.63 219.04 143.4 219.06 144.13 219.29C144.86 219.52 145.55 220 145.84 220.69C146.13 221.38 145.94 222.3 145.28 222.69"
                  fill="white"/>
            <path d="M141.86 219.02C142.63 219.04 143.4 219.06 144.13 219.29C144.86 219.52 145.55 220 145.84 220.69C146.13 221.38 145.94 222.3 145.28 222.69"
                  stroke="black" stroke-width="0.78" stroke-linecap="round" stroke-linejoin="round"/>
            <path d="M150.67 220.66C151.24 221.05 151.96 221.83 152.41 222.22L153.1 225.25C153.1 225.25 153.36 225.2 153.36 225.21C153.7 224.57 154.07 223.91 154.31 223.23C155.38 220.15 156.95 216.1 154.77 213.64C153.8 212.54 152.82 211.45 151.85 210.35C151.44 209.89 151 209.41 150.42 209.18C149.31 208.74 147.97 209.39 146.91 209.95C146.23 210.31 145.51 210.77 145.33 211.51C145.2 212.06 145.43 212.68 145.9 213"
                  fill="white"/>
            <path d="M150.67 220.66C151.24 221.05 151.96 221.83 152.41 222.22L153.1 225.25C153.1 225.25 153.36 225.2 153.36 225.21C153.7 224.57 154.07 223.91 154.31 223.23C155.38 220.15 156.95 216.1 154.77 213.64C153.8 212.54 152.82 211.45 151.85 210.35C151.44 209.89 151 209.41 150.42 209.18C149.31 208.74 147.97 209.39 146.91 209.95C146.23 210.31 145.51 210.77 145.33 211.51C145.2 212.06 145.43 212.68 145.9 213"
                  stroke="black" stroke-width="0.78" stroke-linecap="round" stroke-linejoin="round"/>
            <path d="M151.6 212.88C151.17 212.57 150.75 212.25 150.27 212.02C149.89 211.84 149.56 211.66 149.11 211.71C148.73 211.76 148.38 211.92 148.04 212.1C147.38 212.45 146.74 212.86 146.15 213.32C145.85 213.55 145.73 213.71 145.65 214.08C145.59 214.38 145.57 214.7 145.67 215C145.82 215.46 146.2 215.84 146.67 216"
                  fill="white"/>
            <path d="M151.6 212.88C151.17 212.57 150.75 212.25 150.27 212.02C149.89 211.84 149.56 211.66 149.11 211.71C148.73 211.76 148.38 211.92 148.04 212.1C147.38 212.45 146.74 212.86 146.15 213.32C145.85 213.55 145.73 213.71 145.65 214.08C145.59 214.38 145.57 214.7 145.67 215C145.82 215.46 146.2 215.84 146.67 216"
                  stroke="black" stroke-width="0.78" stroke-linecap="round" stroke-linejoin="round"/>
            <path d="M148.74 218.6C148.2 218.72 147.3 218.51 146.93 218.11C145.97 217.08 146.77 216.21 147.79 215.67C148.31 215.39 148.86 215.18 149.41 214.96C150.19 214.64 150.99 214.9 151.72 215.29C152.34 215.63 152.9 216.07 153.44 216.52"
                  fill="white"/>
            <path d="M148.74 218.6C148.2 218.72 147.3 218.51 146.93 218.11C145.97 217.08 146.77 216.21 147.79 215.67C148.31 215.39 148.86 215.18 149.41 214.96C150.19 214.64 150.99 214.9 151.72 215.29C152.34 215.63 152.9 216.07 153.44 216.52"
                  stroke="black" stroke-width="0.78" stroke-linecap="round" stroke-linejoin="round"/>
            <path d="M153.09 219.37C152.22 218.74 151.64 217.98 150.49 217.93C149.99 217.91 149.5 218.12 149.11 218.42C148.6 218.81 147.95 219.43 147.9 220.12C147.85 220.81 148.56 221.6 149.31 221.55C149.63 221.53 149.93 221.37 150.17 221.15C150.41 220.93 150.6 220.68 150.79 220.42"
                  fill="white"/>
            <path d="M153.09 219.37C152.22 218.74 151.64 217.98 150.49 217.93C149.99 217.91 149.5 218.12 149.11 218.42C148.6 218.81 147.95 219.43 147.9 220.12C147.85 220.81 148.56 221.6 149.31 221.55C149.63 221.53 149.93 221.37 150.17 221.15C150.41 220.93 150.6 220.68 150.79 220.42"
                  stroke="black" stroke-width="0.78" stroke-linecap="round" stroke-linejoin="round"/>
            <path d="M89.7799 280.12C89.8099 278.84 89.6499 277.56 89.2799 276.33C89.0599 275.53 88.7499 274.77 88.3399 274.02L88.1699 273.61C92.3499 271.79 96.3699 269.65 100.17 267.19C100.17 267.17 100.18 267.15 100.18 267.13C100.71 265.51 101 263.01 100.54 261.39H100.84C104.25 259.17 107.87 255.52 111.25 252.96L111.18 253.54C109.94 257.16 109.83 263.8 111.67 267.7C112.22 268.85 112.9 269.94 113.73 270.89C107.03 274.22 97.2099 277.83 90.0799 280.12H89.7799Z"
                  fill="#FF0008"/>
            <path d="M145.08 487.9C145.63 488.09 146.02 488.42 146.31 488.83C146.39 488.94 146.45 489.06 146.52 489.18C146.85 489.81 146.95 490.59 146.94 491.36C146.92 492.26 146.74 493.17 146.55 493.86C146.03 495.72 144.58 497.82 143.17 499.67C140.05 503.77 136.69 506.22 133.36 508.61C130.1 510.96 126.91 512.33 123.6 514.44C120.79 516.24 118.07 518.49 115.33 520.49C112.44 522.61 109.17 525.23 104.49 524.69C103.61 524.58 102.77 524.38 102.05 524.09C101.35 523.82 100.76 523.47 100.28 523.06C99.5901 522.45 99.1701 521.7 99.1501 520.86C99.1301 520.59 99.1701 520.3 99.2601 520C100.19 516.68 102.39 514.42 105.64 512.09C108.91 509.75 112.58 508.86 115.84 506.8C119.53 504.48 123.12 501.31 126.78 498.16C130.5 494.94 134.36 491.68 138.08 489.67C141.55 487.77 143.75 487.43 145.07 487.89L145.08 487.9Z"
                  fill="black"/>
            <path d="M105.65 512.11C102.4 514.44 100.2 516.7 99.27 520.02C99.18 520.31 99.15 520.6 99.16 520.88C99.18 521.72 99.6 522.47 100.29 523.08C100.04 522.94 99.8 522.77 99.6 522.59C99.07 522.13 98.28 521.18 97.79 520.05C97.79 520.04 97.79 520.03 97.77 520.02C97.41 519.17 97.22 518.23 97.44 517.32C98.25 513.96 100.57 511.74 103.82 509.41C107.09 507.07 110.76 506.18 114.02 504.12C117.71 501.8 121.3 498.63 124.96 495.48C128.68 492.26 132.54 489.01 136.26 486.99C140.37 484.75 142.45 485.17 143.76 486.04C144.14 486.28 144.46 486.56 144.74 486.83C145.08 487.15 145.99 488.35 146.31 488.84C146.02 488.42 145.63 488.1 145.08 487.91C143.76 487.45 141.56 487.79 138.09 489.69C134.37 491.7 130.51 494.96 126.79 498.18C123.13 501.33 119.55 504.5 115.85 506.82C112.59 508.88 108.92 509.77 105.65 512.11Z"
                  fill="white"/>
            <path d="M143.77 486.03C142.46 485.17 140.38 484.75 136.27 486.98C132.55 489 128.69 492.25 124.97 495.47C121.31 498.62 117.73 501.79 114.03 504.11C110.77 506.17 107.1 507.06 103.83 509.4C100.58 511.73 98.2599 513.95 97.4499 517.31C97.2299 518.22 97.4199 519.17 97.7799 520.01C95.3799 516.4 96.5199 508.86 94.6699 500.31C94.6699 500.31 94.9899 499.81 95.6499 498.99C97.0699 497.25 100.08 494.09 104.95 491.47C109.53 488.99 113.13 487.5 115.22 486.72C116.53 486.23 117.24 486.03 117.24 486.03C117.81 487.75 118.37 489.45 118.93 491.16L119.13 491.37C121.18 489.45 123.33 487.64 125.73 486.18C128.49 484.51 131.59 483.32 134.81 483.16C138.03 482.98 141.36 483.89 143.81 485.98L143.78 486.03H143.77Z"
                  fill="#FF0008"/>
            <path d="M95.4699 498.87C94.8099 496.97 93.8699 491.99 93.4499 489.89L93.3799 489.82C99.2999 484.26 108.3 477.05 113.76 479.26L113.65 479.55C114.15 482.59 114.67 483.61 115.17 486.65L115.2 486.73C113.11 487.51 109.51 489 104.93 491.48C100.07 494.11 97.0499 497.27 95.6299 499L95.4599 498.86L95.4699 498.87Z"
                  fill="white"/>
            <path d="M100.54 261.4C101 263.02 100.71 265.53 100.18 267.14C100.17 267.14 100.16 267.16 100.14 267.17C98.8999 265.82 97.9199 264.31 97.1699 262.69C98.2099 262.14 99.2699 261.58 100.34 261.01L100.54 261.4Z"
                  fill="black"/>
            <path d="M100.18 267.14C100.18 267.14 100.17 267.18 100.17 267.2L100.14 267.17C100.14 267.17 100.17 267.15 100.18 267.14Z"
                  fill="black"/>
            <path d="M95.7599 258.52C95.4999 257.5 95.2999 256.38 95.2399 255.32C95.1799 254.68 95.1599 253.97 95.1699 253.27C95.1799 255.04 95.3699 256.81 95.7599 258.52Z"
                  fill="white"/>
            <path d="M95.7301 247.37C95.7301 247.37 95.7501 247.37 95.7601 247.37C95.7201 247.57 95.6701 247.78 95.6401 247.98C95.7001 247.6 95.7301 247.38 95.7301 247.38V247.37Z"
                  fill="white"/>
            <path d="M71.79 393.52C71.86 392.73 71.93 391.94 72 391.13C71.94 391.92 71.86 392.72 71.79 393.52Z"
                  fill="black"/>
            <path d="M71.4199 397.06C71.4799 396.6 71.5299 396.12 71.5799 395.65C71.5299 396.13 71.4799 396.59 71.4199 397.06Z"
                  fill="black"/>
            <path d="M70.48 403.65C70.58 403.09 70.66 402.51 70.75 401.93C70.67 402.51 70.57 403.08 70.48 403.65Z"
                  fill="black"/>
            <path d="M69.4502 409.04C69.6102 408.28 69.7802 407.52 69.9202 406.74C69.7602 407.52 69.6102 408.28 69.4502 409.04Z"
                  fill="black"/>
            <path d="M57.4399 280.63C72.3999 280.07 87.5699 275.24 100.14 267.17L100.17 267.2C96.3699 269.66 92.3499 271.8 88.1699 273.62C78.4799 277.83 67.9399 280.26 57.4399 280.63Z"
                  fill="#FF0008"/>
            <path d="M60.3903 224.64C62.5103 223.48 64.2003 221.54 65.0303 219.27C65.0803 219.94 64.9903 220.62 64.7503 221.26C66.7703 221.22 69.0603 219.66 69.5103 217.71C70.8503 219.34 73.2603 219.96 75.2203 219.19L75.5403 218.88C77.9003 221.2 79.6003 224.19 80.6703 227.34C82.6003 233.01 83.1403 238.86 80.5403 244.42C79.4603 246.75 77.6503 248.84 75.2303 249.67C74.1903 250.03 73.0803 250.15 71.9903 250.18C69.0703 250.29 66.0703 249.91 63.2803 248.97L63.2203 249.13C63.1803 250.91 63.4103 252.35 64.1603 253.96L64.1803 254.07C59.4303 254.81 54.6903 255.65 50.1403 257.16V257.1C51.1903 252.89 51.6503 247.82 50.9703 243.54V243.47C49.6403 243.66 48.2303 243.35 47.1203 242.55C45.6903 241.52 44.8903 239.7 45.0003 237.94C45.0103 237.64 45.0703 237.34 45.1403 237.06C45.4303 235.93 46.1203 234.93 47.0403 234.22C47.7503 233.67 48.6103 233.29 49.5003 233.17V233.06C49.5703 233.06 49.6503 233.06 49.7203 233.05C52.5703 232.9 55.3503 231.6 57.2803 229.49C58.4403 228.2 59.2603 226.64 59.7003 224.97C59.9403 224.87 60.1803 224.75 60.4003 224.62L60.3903 224.64Z"
                  fill="white"/>
            <path d="M71.5802 395.65C71.5302 396.13 71.4802 396.6 71.4202 397.06C71.4802 396.59 71.5302 396.12 71.5802 395.65ZM36.8202 398.9L36.9202 398.88C32.0502 370.64 34.5302 342.01 39.1202 326.17C53.0602 322.82 68.2902 321.6 82.5502 323.1C93.1002 355.14 101.62 387.95 107.1 421.24C110.29 440.69 113.33 460.71 115.4 480.32C108.52 480.32 99.3002 484.26 93.3702 489.82C92.6402 490.49 91.9702 491.15 91.3602 491.74C81.0402 465.26 73.6702 437.62 69.4402 409.52L69.3402 409.49C69.2502 409.94 69.1502 410.39 69.0402 410.85C68.2202 414.38 67.2402 417.79 66.0702 421.03C64.5602 425.24 61.8302 433.43 59.2002 437.53C56.5702 441.64 52.8402 445.22 48.2202 446.76C45.1602 447.78 41.3602 447.66 38.4502 446.2C35.7002 444.82 33.2302 441.84 31.4102 439.4C20.4502 424.62 12.7802 407.06 8.75022 389.06C8.38022 387.39 8.03021 385.72 7.72021 384.04C7.82021 382.63 8.00022 381.25 8.24022 379.87C9.00022 375.45 10.4202 371.18 12.2702 367.06C12.7702 365.95 13.3502 364.78 14.4102 364.18C15.1902 363.73 16.4102 363.93 17.2102 364.5C17.5002 364.7 17.7402 364.95 17.8702 365.24C19.4502 368.52 20.6702 371.03 22.4902 374.18C27.2502 382.42 32.0202 390.66 36.8002 398.91L36.8202 398.9ZM72.0002 391.14C71.9402 391.94 71.8602 392.73 71.7902 393.53C71.8602 392.74 71.9402 391.94 72.0002 391.14ZM70.4802 403.65C70.5702 403.08 70.6602 402.51 70.7502 401.93C70.6702 402.51 70.5802 403.08 70.4802 403.65Z"
                  fill="black"/>
            <path d="M65.0303 219.27C64.2003 221.54 62.5103 223.48 60.3903 224.64C60.1603 224.76 59.9303 224.89 59.6903 224.99C59.2503 226.66 58.4303 228.22 57.2703 229.51C55.3503 231.62 52.5603 232.92 49.7103 233.07C49.6403 233.07 49.5703 233.07 49.4903 233.08V233.19C48.6003 233.32 47.7403 233.69 47.0303 234.24L46.7303 234.18C46.0103 230.08 46.7303 226.35 48.8703 223C48.8803 222.97 48.9003 222.94 48.9203 222.91C51.0903 219.52 54.3303 216.83 58.0403 215.32C63.3803 213.21 69.8203 214.18 74.3003 217.77C74.7303 218.11 75.1403 218.48 75.5403 218.87L75.2203 219.18C73.2603 219.95 70.8403 219.33 69.5103 217.7C69.0603 219.65 66.7703 221.21 64.7503 221.25C64.9903 220.61 65.0803 219.93 65.0303 219.26V219.27Z"
                  fill="black"/>
            <path d="M33.61 227.06C34.01 226.41 34.33 225.71 34.55 224.97C35.57 221.48 36.94 218.7 39.24 215.89C41.55 213.09 44.78 210.94 48.37 210.43C51.56 209.97 55.44 210.9 57.38 214.01C57.64 214.42 57.87 214.86 58.04 215.33C54.33 216.85 51.1 219.54 48.92 222.92C48.9 222.95 48.88 222.98 48.87 223.01C46.74 226.36 46.02 230.09 46.73 234.19L47.03 234.25C46.11 234.97 45.42 235.96 45.13 237.09C45.06 237.38 45.01 237.67 44.99 237.97H44.93C44.43 238.51 43.96 239.18 43.54 239.92C43.07 240.7 42.66 241.56 42.27 242.38C41.74 243.54 41.46 244.79 40.99 245.98C40.52 247.17 39.82 248.33 38.7 248.93C37.58 249.55 36 249.42 35.25 248.39C34.7 250.07 34.15 251.8 33.16 253.27C32.17 254.74 30.67 255.97 28.92 256.22C27.17 256.47 25.18 255.51 24.64 253.82C23.08 256.36 19.66 257.58 16.84 256.62C12.85 255.23 12.13 251.14 12.54 247.47C12.54 247.33 12.56 247.19 12.58 247.06C10.79 248.13 8.47003 247.66 7.31003 245.92C6.25003 244.31 6.35003 242.13 7.27003 240.43C9.44003 236.44 15.29 235.11 19.37 234.22C22.42 233.54 25.52 232.96 28.33 231.6C30.45 230.58 32.39 229.03 33.6 227.05L33.61 227.06Z"
                  fill="black"/>
            <path d="M12.0702 359.61C12.8202 359.21 14.1802 359.22 14.7402 359.86C14.7902 359.92 14.8402 359.99 14.8802 360.06C15.6602 361.54 16.4502 363.02 17.2302 364.49H17.2202C16.4202 363.93 15.2002 363.74 14.4202 364.18C13.3602 364.78 12.7802 365.95 12.2802 367.06C10.4302 371.18 9.01019 375.46 8.25019 379.87L7.44019 379.73C6.96019 377.91 6.47019 376.09 5.99019 374.27C4.81019 369.84 8.02019 365.72 10.2402 361.71C10.7002 360.88 11.2202 360.03 12.0602 359.6L12.0702 359.61Z"
                  fill="white"/>
            <path d="M14.7402 359.86C14.1702 359.22 12.8202 359.21 12.0702 359.61C11.2302 360.04 10.7102 360.89 10.2502 361.72C8.03018 365.73 4.82018 369.85 6.00018 374.28C6.49018 376.09 6.97018 377.91 7.45018 379.74L8.26018 379.88C8.02018 381.26 7.84018 382.64 7.74018 384.05C8.05018 385.73 8.39018 387.4 8.77018 389.07H8.70018C8.70018 389.13 7.72018 394.13 5.67018 398C4.79018 399.66 3.59018 401.12 2.17018 402.08L2.26018 401.97C0.310179 403.25 -2.04982 403.55 -4.56982 402.06C-8.71982 399.6 -9.83982 394.07 -9.94982 389.6C-10.0798 384.96 -9.25982 380.31 -8.13982 375.83C-6.71982 370.17 -4.82982 364.51 -2.37982 359.19C-2.37982 359.19 -0.839821 355.44 0.800179 354.32C2.10018 353.43 3.76018 353.11 5.37018 353.15C5.39018 353.16 5.41018 353.15 5.42018 353.15C6.71018 353.2 7.96018 353.52 9.09018 354.09C9.63018 354.4 10.2402 354.8 10.9802 355.29L11.0902 355.37C11.7702 355.92 12.3902 356.57 12.9302 357.27C13.5702 358.11 14.1802 358.97 14.7902 359.82L14.7502 359.85L14.7402 359.86Z"
                  fill="#FF0008"/>
            <path d="M-6.75021 403.26C-11.3502 400.85 -12.8902 395.41 -13.0102 390.62C-13.1402 385.63 -12.2602 380.64 -11.0702 375.83C-9.55021 369.75 -7.51021 363.67 -4.88021 357.97C-4.88021 357.97 -3.23021 353.95 -1.46021 352.73C-1.16021 352.52 -0.760207 352.34 -0.330207 352.2C1.67979 351.53 3.85979 351.66 5.81979 352.44C6.73979 352.8 7.64979 353.2 9.09979 354.08C7.96979 353.51 6.71979 353.19 5.42979 353.14C5.42979 353.14 5.39979 353.14 5.37979 353.14C3.76979 353.1 2.10979 353.42 0.809793 354.31C-0.840207 355.44 -2.37021 359.18 -2.37021 359.18C-4.82021 364.5 -6.71021 370.16 -8.13021 375.82C-9.25021 380.3 -10.0702 384.95 -9.94021 389.59C-9.83021 394.06 -8.71021 399.59 -4.56021 402.05C-2.04021 403.55 0.319793 403.24 2.26979 401.96L2.17979 402.07C0.889793 403.48 -2.78021 405.34 -6.75021 403.26Z"
                  fill="white"/>
            <path d="M78.0604 237.02C75.8004 238.53 72.8004 238.87 70.2504 237.9C69.8904 239.91 71.8304 242.56 73.8704 242.69C78.7904 243.02 78.0604 237.01 78.0604 237.01V237.02Z"
                  fill="black"/>
            <path d="M64.2603 228.95C64.4803 227.9 65.3003 227 66.3303 226.69" stroke="black" stroke-width="0.78"
                  stroke-linecap="round" stroke-linejoin="round"/>
            <path d="M75.5801 223.32C76.6201 223.05 77.7901 223.39 78.5201 224.17" stroke="black" stroke-width="0.78"
                  stroke-linecap="round" stroke-linejoin="round"/>
            <path d="M67.6604 231.77C68.4833 231.77 69.1504 231.103 69.1504 230.28C69.1504 229.457 68.4833 228.79 67.6604 228.79C66.8375 228.79 66.1704 229.457 66.1704 230.28C66.1704 231.103 66.8375 231.77 67.6604 231.77Z"
                  fill="black"/>
            <path d="M77.3904 228.08C78.0973 228.08 78.6703 227.507 78.6703 226.8C78.6703 226.093 78.0973 225.52 77.3904 225.52C76.6834 225.52 76.1104 226.093 76.1104 226.8C76.1104 227.507 76.6834 228.08 77.3904 228.08Z"
                  fill="black"/>
            <path d="M75.7602 231.3C76.1802 231.85 76.3702 232.58 76.2702 233.26C76.1702 233.94 75.7802 234.59 75.2202 234.99"
                  stroke="black" stroke-width="0.78" stroke-linecap="round" stroke-linejoin="round"/>
            <path d="M89.2798 276.33C89.6398 277.56 89.7998 278.84 89.7798 280.12C89.7498 281.89 89.3898 283.68 88.7898 285.36C88.0898 287.29 86.8998 288.81 85.9898 290.59C85.2098 292.13 85.3498 293.95 85.1598 295.65C84.0598 305.51 83.8798 313.25 82.7598 323.11L82.5498 323.09C68.2998 321.59 53.0698 322.81 39.1198 326.16C38.9098 326.21 38.7098 326.26 38.4998 326.31C34.6098 309.71 30.8498 291.15 35.0698 274.28C37.4898 264.59 41.0098 260.38 49.0898 257.52C49.4298 257.4 49.7798 257.28 50.1198 257.18C54.6798 255.67 59.4098 254.83 64.1598 254.09C67.1398 253.62 70.1198 253.2 73.0798 252.68C80.8698 251.3 88.5298 249.21 95.9298 246.46C95.8598 246.76 95.7898 247.07 95.7398 247.37C95.7398 247.37 95.7198 247.37 95.7098 247.37C95.7098 247.37 95.6698 247.59 95.6198 247.97V248.02C95.2998 249.72 95.1298 251.49 95.1498 253.25V253.27C95.1398 253.97 95.1498 254.68 95.2198 255.32C95.2798 256.38 95.4798 257.49 95.7398 258.52C95.7498 258.57 95.7698 258.62 95.7798 258.66C96.0798 259.95 96.4898 261.2 97.0398 262.41C97.0598 262.45 97.0698 262.48 97.0798 262.51C97.0898 262.56 97.1198 262.62 97.1498 262.68C97.8898 264.31 98.8798 265.82 100.12 267.17C87.5498 275.24 72.3798 280.07 57.4198 280.63C67.9198 280.25 78.4498 277.82 88.1498 273.62L88.3198 274.03C88.7298 274.78 89.0398 275.54 89.2598 276.34L89.2798 276.33Z"
                  fill="#FF0008"/>
            <path d="M82.6802 323.46C93.2302 355.5 101.63 387.95 107.11 421.24C110.3 440.69 113.3 460.34 115.37 479.95"
                  stroke="black" stroke-width="0.78" stroke-linecap="round" stroke-linejoin="round"/>
            <path d="M113.72 270.89C114.18 269.88 114.1 268.5 113.85 267.42" stroke="black" stroke-width="0.78"
                  stroke-linecap="round" stroke-linejoin="round"/>
            <path d="M59.8703 220.21C60.1703 221.79 60.0903 223.44 59.6903 224.98C59.2503 226.65 58.4303 228.21 57.2703 229.5C55.3503 231.61 52.5603 232.91 49.7103 233.06C49.6403 233.06 49.5703 233.06 49.4903 233.07C49.0903 233.08 48.6803 233.07 48.2803 233.04"
                  stroke="black" stroke-width="0.78" stroke-linecap="round" stroke-linejoin="round"/>
            <path d="M49.49 233.19C48.6 233.32 47.74 233.69 47.03 234.24C46.11 234.96 45.42 235.95 45.13 237.08C45.06 237.37 45.01 237.66 44.99 237.96C44.88 239.72 45.68 241.54 47.11 242.57C48.21 243.36 49.62 243.68 50.95 243.49C51.66 243.4 52.35 243.16 52.95 242.78"
                  stroke="black" stroke-width="0.78" stroke-linecap="round" stroke-linejoin="round"/>
            <path d="M50.9699 243.56C51.6499 247.85 51.1899 252.92 50.1299 257.12" stroke="black" stroke-width="0.78"
                  stroke-linecap="round" stroke-linejoin="round"/>
            <path d="M65.3598 218.19C65.2698 218.56 65.1598 218.93 65.0298 219.27C64.1998 221.54 62.5098 223.48 60.3898 224.64C60.1598 224.76 59.9298 224.89 59.6898 224.99C59.3298 225.15 58.9598 225.29 58.5898 225.4"
                  stroke="black" stroke-width="0.78" stroke-linecap="round" stroke-linejoin="round"/>
            <path d="M75.2201 219.19C73.2601 219.96 70.8401 219.34 69.5101 217.71C69.0601 219.66 66.7701 221.22 64.7501 221.26C64.6301 221.26 64.5101 221.26 64.3901 221.26"
                  stroke="black" stroke-width="0.78" stroke-linecap="round" stroke-linejoin="round"/>
            <path d="M50.0199 229.47C49.4999 230.58 49.3899 231.88 49.7099 233.07C49.7999 233.41 49.9299 233.75 50.0899 234.08"
                  stroke="black" stroke-width="0.78" stroke-linecap="round" stroke-linejoin="round"/>
            <path d="M48.8701 223C48.8701 223 48.9001 222.94 48.9201 222.91C51.0901 219.52 54.3301 216.83 58.0401 215.32C63.3801 213.21 69.8201 214.18 74.3001 217.77C74.7301 218.11 75.1401 218.48 75.5401 218.87C77.9001 221.19 79.6001 224.18 80.6701 227.33C82.6001 233 83.1401 238.85 80.5401 244.41C79.4601 246.74 77.6501 248.83 75.2301 249.66C74.1901 250.02 73.0801 250.14 71.9901 250.17C69.0701 250.28 66.0701 249.9 63.2801 248.96C61.0801 248.22 59.0001 247.15 57.1901 245.69"
                  stroke="black" stroke-width="0.78" stroke-linecap="round" stroke-linejoin="round"/>
            <path d="M44.9398 237.96C44.4398 238.5 43.9698 239.18 43.5498 239.91C43.0798 240.69 42.6698 241.55 42.2798 242.37C41.7498 243.53 41.4698 244.78 40.9998 245.97C40.5298 247.16 39.8298 248.32 38.7098 248.92C37.5898 249.54 36.0098 249.41 35.2598 248.38C34.7098 250.06 34.1598 251.79 33.1698 253.26C32.1798 254.73 30.6798 255.96 28.9298 256.21C27.1798 256.46 25.1898 255.5 24.6498 253.81C23.0898 256.35 19.6698 257.57 16.8498 256.61C12.8598 255.22 12.1398 251.13 12.5498 247.46C12.5498 247.32 12.5698 247.18 12.5898 247.05C10.7998 248.12 8.4798 247.65 7.3198 245.91C6.2598 244.3 6.3598 242.12 7.2798 240.42C9.4498 236.43 15.2998 235.1 19.3798 234.21C22.4298 233.53 25.5298 232.95 28.3398 231.59C30.4598 230.57 32.3998 229.02 33.6098 227.04C34.0098 226.39 34.3298 225.69 34.5498 224.95C35.5698 221.46 36.9398 218.68 39.2398 215.87C41.5498 213.07 44.7798 210.92 48.3698 210.41C51.5598 209.95 55.4398 210.88 57.3798 213.99C57.6398 214.4 57.8698 214.84 58.0398 215.31"
                  stroke="black" stroke-width="0.78" stroke-linecap="round" stroke-linejoin="round"/>
            <path d="M63.2202 249.14C63.1802 250.92 63.4102 252.36 64.1602 253.97" stroke="black" stroke-width="0.78"
                  stroke-linecap="round" stroke-linejoin="round"/>
            <path d="M90.0801 280.12C97.2101 277.83 107.02 274.22 113.73 270.9C112.9 269.94 112.22 268.86 111.67 267.7C109.83 263.8 110.32 256.8 111.56 253.18"
                  stroke="#FF0008" stroke-width="0.78" stroke-linecap="round" stroke-linejoin="round"/>
            <path d="M100.17 267.19C100.17 267.19 100.18 267.15 100.18 267.13C100.71 265.51 101 263.01 100.54 261.39"
                  stroke="black" stroke-width="0.78" stroke-linecap="round" stroke-linejoin="round"/>
            <path d="M97.0898 262.51C97.1298 262.6 97.1498 262.66 97.1598 262.68" stroke="#FF0008"
                  stroke-miterlimit="10"/>
            <path d="M95.79 258.66C96.24 260.37 96.82 261.83 97.05 262.41" stroke="#FF0008" stroke-miterlimit="10"/>
            <path d="M95.1699 253.27C95.1699 253.97 95.1799 254.68 95.2399 255.32C95.2999 256.38 95.4999 257.49 95.7599 258.52"
                  stroke="black" stroke-width="0.78" stroke-linecap="round" stroke-linejoin="round"/>
            <path d="M95.6299 248.02C95.4699 249.05 95.1899 251.18 95.1699 253.25" stroke="#FF0008"
                  stroke-miterlimit="10"/>
            <path d="M78.2002 297.03C80.3702 295.94 82.2702 294.33 83.7202 292.38" stroke="black" stroke-width="0.78"
                  stroke-linecap="round" stroke-linejoin="round"/>
            <path d="M36.9302 398.88C37.7702 403.72 38.8202 408.56 40.1102 413.32" stroke="black" stroke-width="0.78"
                  stroke-linecap="round" stroke-linejoin="round"/>
            <path d="M36.8202 398.89C32.0502 390.64 27.2802 382.41 22.5102 374.16C20.6902 371.01 19.4702 368.5 17.8902 365.22C17.7502 364.94 17.5202 364.68 17.2302 364.48C16.4302 363.91 15.2102 363.72 14.4302 364.16C13.3702 364.76 12.7902 365.93 12.2902 367.04C10.4402 371.16 9.02023 375.44 8.26023 379.85C8.02023 381.23 7.84023 382.61 7.74023 384.02C8.05023 385.7 8.39024 387.37 8.77024 389.04"
                  stroke="black" stroke-width="0.78" stroke-linecap="round" stroke-linejoin="round"/>
            <path d="M69.4502 409.52C73.6802 437.62 81.0502 465.25 91.3702 491.74C91.9802 491.14 92.6502 490.49 93.3802 489.82C99.3002 484.26 108.3 477.05 113.76 479.26C114.35 479.49 114.87 479.48 115.36 479.95"
                  stroke="black" stroke-width="0.78" stroke-linecap="round" stroke-linejoin="round"/>
            <path d="M93.4502 489.89C93.8602 492 94.8102 496.97 95.4702 498.87" stroke="black" stroke-width="0.78"
                  stroke-linecap="round" stroke-linejoin="round"/>
            <path d="M113.66 479.55C114.16 482.59 114.68 483.61 115.18 486.65" stroke="black" stroke-width="0.78"
                  stroke-linecap="round" stroke-linejoin="round"/>
            <path d="M97.7702 520.03C95.3702 516.42 96.5102 508.88 94.6602 500.33C94.6602 500.33 94.9802 499.83 95.6402 499.01C97.0602 497.27 100.07 494.11 104.94 491.49C109.52 489.01 113.12 487.52 115.21 486.74C116.52 486.25 117.23 486.05 117.23 486.05C117.8 487.77 118.36 489.47 118.92 491.18"
                  stroke="black" stroke-width="0.78" stroke-linecap="round" stroke-linejoin="round"/>
            <path d="M146.31 488.84C146.39 488.95 146.45 489.07 146.52 489.19C146.85 489.82 146.95 490.6 146.94 491.37C146.92 492.27 146.74 493.18 146.55 493.87C146.03 495.73 144.58 497.83 143.17 499.68C140.05 503.78 136.69 506.23 133.36 508.62C130.1 510.97 126.91 512.34 123.6 514.45C120.79 516.25 118.07 518.5 115.33 520.5C112.44 522.62 109.17 525.24 104.49 524.7C103.61 524.59 102.77 524.39 102.05 524.1C101.35 523.83 100.76 523.48 100.28 523.07"
                  stroke="black" stroke-width="0.78" stroke-linecap="round" stroke-linejoin="round"/>
            <path d="M100.29 523.08C100.04 522.94 99.8 522.77 99.6 522.59C99.07 522.13 98.28 521.18 97.79 520.05C97.79 520.04 97.79 520.03 97.77 520.02C97.41 519.17 97.22 518.23 97.44 517.32C98.25 513.96 100.57 511.74 103.82 509.41C107.09 507.07 110.76 506.18 114.02 504.12C117.71 501.8 121.3 498.63 124.96 495.48C128.68 492.26 132.54 489.01 136.26 486.99C140.37 484.75 142.45 485.17 143.76 486.04C144.14 486.28 144.46 486.56 144.74 486.83C145.08 487.15 145.99 488.35 146.31 488.84C146.02 488.42 145.63 488.1 145.08 487.91C143.76 487.45 141.56 487.79 138.09 489.69C134.37 491.7 130.51 494.96 126.79 498.18C123.13 501.33 119.55 504.5 115.85 506.82C112.59 508.88 108.92 509.77 105.65 512.11C102.4 514.44 100.2 516.7 99.27 520.02C99.18 520.31 99.15 520.6 99.16 520.88C99.18 521.72 99.6 522.47 100.29 523.08Z"
                  stroke="black" stroke-width="0.78" stroke-linecap="round" stroke-linejoin="round"/>
            <path d="M118.2 492.25C118.51 491.96 118.81 491.67 119.11 491.38C121.16 489.46 123.31 487.65 125.71 486.19C128.47 484.52 131.57 483.33 134.79 483.17C138.01 482.99 141.34 483.9 143.79 485.99"
                  stroke="black" stroke-width="0.78" stroke-linecap="round" stroke-linejoin="round"/>
            <path d="M17.2402 364.48C16.4602 363.01 15.6702 361.53 14.8902 360.05C14.8502 359.98 14.8002 359.91 14.7502 359.85C14.1802 359.21 12.8302 359.2 12.0802 359.6C11.2402 360.03 10.7202 360.88 10.2602 361.71C8.04021 365.72 4.83021 369.84 6.01021 374.27C6.50021 376.08 6.98021 377.9 7.46021 379.73"
                  stroke="black" stroke-width="0.78" stroke-linecap="round" stroke-linejoin="round"/>
            <path d="M11.0801 355.37C11.7601 355.92 12.3801 356.57 12.9201 357.27C13.5601 358.11 14.1701 358.97 14.7801 359.82"
                  stroke="black" stroke-width="0.78" stroke-linecap="round" stroke-linejoin="round"/>
            <path d="M2.08008 402.14C2.08008 402.14 2.15008 402.1 2.18008 402.07C3.60008 401.11 4.79008 399.65 5.68008 397.99C7.72008 394.12 8.70008 389.12 8.71008 389.08"
                  stroke="black" stroke-width="0.78" stroke-linecap="round" stroke-linejoin="round"/>
            <path d="M9.09003 354.08C7.96003 353.51 6.71003 353.19 5.42003 353.14C5.42003 353.14 5.39003 353.14 5.37003 353.14C3.76003 353.1 2.10003 353.42 0.800028 354.31C-0.849972 355.44 -2.37997 359.18 -2.37997 359.18C-4.82997 364.5 -6.71997 370.16 -8.13997 375.82C-9.25997 380.3 -10.08 384.95 -9.94997 389.59C-9.83997 394.06 -8.71997 399.59 -4.56997 402.05C-2.04997 403.55 0.310028 403.24 2.26003 401.96L2.17003 402.07C0.880028 403.48 -2.78997 405.34 -6.75997 403.26C-11.36 400.85 -12.9 395.41 -13.02 390.62C-13.15 385.63 -12.27 380.64 -11.08 375.83C-9.55997 369.75 -7.51997 363.67 -4.88997 357.97C-4.88997 357.97 -3.23997 353.95 -1.46997 352.73C-1.16997 352.52 -0.769973 352.34 -0.339972 352.2C1.67003 351.53 3.85003 351.66 5.81003 352.44C6.73003 352.8 7.64003 353.2 9.09003 354.08ZM9.09003 354.08C9.63003 354.39 10.24 354.79 10.98 355.28C10.4 354.8 9.77003 354.4 9.09003 354.08Z"
                  stroke="black" stroke-width="0.78" stroke-linecap="round" stroke-linejoin="round"/>
            <path d="M2.91016 379.82C4.50016 380.31 5.99016 381.15 7.22016 382.27" stroke="black" stroke-width="0.78"
                  stroke-linecap="round" stroke-linejoin="round"/>
            <path d="M52.0802 218.66C50.7202 219.86 49.6202 221.36 48.8702 223.01C48.4202 224.01 48.1102 225.05 47.9302 226.13"
                  stroke="white" stroke-width="0.78" stroke-linecap="round" stroke-linejoin="round"/>
            <path d="M60.2102 222.69C60.3802 223.32 60.4402 223.98 60.3902 224.64C60.3502 225.31 60.2002 225.98 59.9502 226.6"
                  stroke="white" stroke-width="0.78" stroke-linecap="round" stroke-linejoin="round"/>
            <path d="M64.96 218.75C64.99 218.92 65.02 219.09 65.03 219.27C65.08 219.94 64.99 220.62 64.75 221.26C64.57 221.77 64.31 222.25 63.96 222.67"
                  stroke="white" stroke-width="0.78" stroke-linecap="round" stroke-linejoin="round"/>
            <path d="M7.22021 236.73C8.92021 234.51 11.6102 233.27 14.3202 232.61C17.0302 231.95 19.8402 231.8 22.5802 231.29C24.8702 230.86 30.7302 229.59 33.6202 227.05C34.1902 226.55 34.6302 226.01 34.9202 225.42"
                  stroke="black" stroke-width="0.78" stroke-linecap="round" stroke-linejoin="round"/>
            <path d="M43.5499 239.92C42.8799 241.29 42.8799 242.89 42.9199 244.42C42.9499 245.95 42.9699 247.54 42.3299 248.93C41.6899 250.32 40.1499 251.42 38.6699 251.04"
                  stroke="black" stroke-width="0.78" stroke-linecap="round" stroke-linejoin="round"/>
            <path d="M12.91 246.66C12.8 246.93 12.69 247.21 12.56 247.48C11.83 249.08 10.93 250.65 10.9 252.4C10.87 253.81 11.47 255.21 12.49 256.18"
                  stroke="black" stroke-width="0.78" stroke-linecap="round" stroke-linejoin="round"/>
            <path d="M53.2998 208.85C55.4898 209.6 57.1498 211.71 57.3798 214C57.3998 214.11 57.4098 214.22 57.4098 214.33"
                  stroke="black" stroke-width="0.78" stroke-linecap="round" stroke-linejoin="round"/>
            <path d="M38.5101 326.31C34.6201 309.71 30.8601 291.15 35.0801 274.28C37.5001 264.59 41.0201 260.38 49.1001 257.52C49.4401 257.4 49.7901 257.28 50.1301 257.18C54.6901 255.67 59.4201 254.83 64.1701 254.09C67.1501 253.62 70.1301 253.2 73.0901 252.68C80.8801 251.3 88.5401 249.21 95.9401 246.46C95.8701 246.76 95.8001 247.07 95.7501 247.37C95.7101 247.57 95.6601 247.78 95.6301 247.98V248.03C95.3101 249.73 95.1401 251.5 95.1601 253.26V253.28C95.1601 255.05 95.3601 256.82 95.7501 258.53C95.7601 258.58 95.7801 258.63 95.7901 258.67C96.0901 259.96 96.5001 261.21 97.0501 262.42C97.0701 262.46 97.0801 262.49 97.0901 262.52C97.1001 262.57 97.1301 262.63 97.1601 262.69C97.9001 264.32 98.8901 265.83 100.13 267.18L100.16 267.21C96.3601 269.67 92.3401 271.81 88.1601 273.63C78.4701 277.84 67.9301 280.27 57.4301 280.64"
                  stroke="#FF0008" stroke-miterlimit="10"/>
            <path d="M100.37 267.02C100.31 267.06 100.24 267.1 100.18 267.14C100.17 267.14 100.16 267.16 100.14 267.17C87.5702 275.24 72.4002 280.07 57.4402 280.63C56.4302 280.66 55.4402 280.69 54.4302 280.68C51.7202 280.68 49.5802 280.35 46.9902 279.58"
                  stroke="black" stroke-width="0.78" stroke-linecap="round" stroke-linejoin="round"/>
            <path d="M36.8198 400.55C37.6398 405.22 38.6698 409.87 39.9098 414.44" stroke="white" stroke-width="0.78"
                  stroke-linecap="round" stroke-linejoin="round"/>
            <path d="M88.7402 274.65C88.9602 275.19 89.1502 275.75 89.2802 276.33C89.9602 278.94 89.8002 281.75 88.8402 284.27"
                  stroke="black" stroke-width="0.78" stroke-linecap="round" stroke-linejoin="round"/>
            <path d="M68.8501 411.72C68.9201 411.43 68.9901 411.14 69.0501 410.85C69.1601 410.4 69.2601 409.95 69.3501 409.49C69.3901 409.34 69.4201 409.2 69.4501 409.04C69.6101 408.28 69.7801 407.52 69.9201 406.74C70.1101 405.72 70.3001 404.69 70.4801 403.65C70.5801 403.09 70.6601 402.51 70.7501 401.93C71.0101 400.33 71.2201 398.69 71.4201 397.05C71.4801 396.58 71.5301 396.11 71.5801 395.64C71.6501 394.93 71.7301 394.23 71.8001 393.52C71.8701 392.73 71.9401 391.94 72.0101 391.13C73.2001 376.09 72.3801 360.42 70.6301 346.83"
                  stroke="white" stroke-width="0.78" stroke-linecap="round" stroke-linejoin="round"/>
        </g>
    </g>
    <path d="M8 144V72C8 63.1634 15.1634 56 24 56H95C103.837 56 111 63.1634 111 72V90C111 98.8366 118.163 106 127 106H140C148.837 106 156 113.163 156 122V144C156 152.837 148.837 160 140 160H24C15.1634 160 8 152.837 8 144Z"
          fill="white"/>
    <path d="M26.25 75.52H29.01V94.51H41.22V97H26.25V75.52ZM42.9959 89.23C42.9959 83.8 46.8359 81.16 50.7659 81.16C54.8459 81.16 57.9959 83.59 57.9959 88.93V89.68H45.6959C45.8759 93.4 48.2159 94.9 50.6459 94.9C52.8959 94.9 54.3359 94.06 55.4759 92.08L57.6359 93.25C56.2559 95.86 53.8259 97.3 50.6159 97.3C46.7159 97.3 42.9959 94.69 42.9959 89.23ZM45.8459 87.61H55.2659C54.8459 84.76 53.1059 83.56 50.7659 83.56C48.6059 83.56 46.4459 84.73 45.8459 87.61ZM59.884 81.46H62.014V77.68H64.684V81.46H70.864V83.8H64.684V92.08C64.684 94.09 65.794 94.87 67.294 94.87C68.854 94.87 69.814 94.03 70.324 92.26L72.814 92.92C72.094 95.77 70.114 97.3 67.234 97.3C63.844 97.3 62.014 95.26 62.014 92.2V83.8H59.884V81.46ZM77.2898 75.28C78.1298 75.28 78.9398 75.91 78.9398 76.93C78.9398 77.38 78.8498 77.74 78.7298 78.46L77.8598 83.62H76.7498L75.8798 78.46C75.7598 77.74 75.6698 77.38 75.6698 76.93C75.6698 75.91 76.4498 75.28 77.2898 75.28ZM92.8369 92.68C92.8369 91.27 91.9969 90.85 90.0469 90.46L87.7069 90.01C84.8569 89.44 83.2669 88.3 83.2669 85.72C83.2669 83.08 85.5469 81.16 88.9669 81.16C91.3069 81.16 93.4969 82.12 94.5169 83.95L92.4769 85.15C91.7569 84.07 90.4069 83.47 88.9369 83.47C86.8069 83.47 85.8169 84.43 85.8169 85.69C85.8169 86.95 86.7169 87.37 88.2769 87.67L90.6469 88.15C93.5569 88.72 95.3569 89.59 95.3569 92.68C95.3569 95.83 92.6569 97.3 89.3869 97.3C85.9669 97.3 83.2669 96.04 82.4869 92.41L85.0069 91.96C85.5769 94.12 87.1369 95.02 89.3569 95.02C91.3669 95.02 92.8369 94.27 92.8369 92.68Z"
          fill="black"/>
    <path d="M40.71 121.52V123.98H29.01V130.7H39.66V133.16H29.01V140.54H41.31V143H26.25V121.52H40.71ZM45.4988 127.46H48.1388V129.59C49.1588 128.12 50.8388 127.16 52.9388 127.16C56.7488 127.16 59.0288 129.71 59.0288 133.55V143H56.3288V133.7C56.3288 131.12 54.6188 129.59 52.2488 129.59C49.9088 129.59 48.1988 131.12 48.1988 133.67V143H45.4988V127.46ZM67.0371 143L60.6471 127.46H63.6171L68.4771 139.94L73.3671 127.46H76.1271L69.7371 143H67.0371ZM78.8353 127.46H81.5053V143H78.8353V127.46ZM78.3553 122.6C78.3553 121.52 79.1653 120.8 80.1553 120.8C81.1753 120.8 81.9853 121.52 81.9853 122.6C81.9853 123.68 81.1753 124.4 80.1553 124.4C79.1653 124.4 78.3553 123.68 78.3553 122.6ZM95.4736 138.68C95.4736 137.27 94.6336 136.85 92.6836 136.46L90.3436 136.01C87.4936 135.44 85.9036 134.3 85.9036 131.72C85.9036 129.08 88.1836 127.16 91.6036 127.16C93.9436 127.16 96.1336 128.12 97.1536 129.95L95.1136 131.15C94.3936 130.07 93.0436 129.47 91.5736 129.47C89.4436 129.47 88.4536 130.43 88.4536 131.69C88.4536 132.95 89.3536 133.37 90.9136 133.67L93.2836 134.15C96.1936 134.72 97.9936 135.59 97.9936 138.68C97.9936 141.83 95.2936 143.3 92.0236 143.3C88.6036 143.3 85.9036 142.04 85.1236 138.41L87.6436 137.96C88.2136 140.12 89.7736 141.02 91.9936 141.02C94.0036 141.02 95.4736 140.27 95.4736 138.68ZM101.708 127.46H104.378V143H101.708V127.46ZM101.228 122.6C101.228 121.52 102.038 120.8 103.028 120.8C104.048 120.8 104.858 121.52 104.858 122.6C104.858 123.68 104.048 124.4 103.028 124.4C102.038 124.4 101.228 123.68 101.228 122.6ZM115.736 127.16C119.636 127.16 123.386 129.8 123.386 135.23C123.386 140.69 119.636 143.3 115.736 143.3C111.866 143.3 108.146 140.69 108.146 135.23C108.146 129.8 111.866 127.16 115.736 127.16ZM110.846 135.23C110.846 139.31 113.276 140.87 115.736 140.87C118.256 140.87 120.686 139.31 120.686 135.23C120.686 131.18 118.256 129.59 115.736 129.59C113.276 129.59 110.846 131.18 110.846 135.23ZM126.949 127.46H129.589V129.59C130.609 128.12 132.289 127.16 134.389 127.16C138.199 127.16 140.479 129.71 140.479 133.55V143H137.779V133.7C137.779 131.12 136.069 129.59 133.699 129.59C131.359 129.59 129.649 131.12 129.649 133.67V143H126.949V127.46Z"
          fill="black"/>
    <defs>
        <clipPath id="clip0_0_1">
            <rect width="376" height="554" fill="white"/>
        </clipPath>
    </defs>
</svg>
