<svg width="88" height="88" viewBox="0 0 88 88" fill="none" xmlns="http://www.w3.org/2000/svg">
    <path d="M30.0235 9.00205H57.9765C60.2353 9.00205 62 10.7697 62 13.0322L62 74.9698C62 77.2324 60.2353 79 57.9765 79L30.0235 78.8586C27.7647 78.8586 26 77.091 26 74.8284L26.0706 12.9615C26.0706 10.699 27.8353 8.93134 30.0235 9.00205Z" stroke="black" stroke-width="2"/>
    <path d="M59 18H29V70H59V18Z" fill="#19D3C5"/>
    <path d="M42.795 53.6728L36.205 49.8749C35.8257 49.6565 35.53 49.3649 35.318 49.0001C35.106 48.6352 35 48.2345 35 47.7978V40.2019C35 39.7654 35.106 39.3648 35.318 38.9999C35.53 38.6351 35.8257 38.3435 36.205 38.1251L42.795 34.3272C43.1743 34.1091 43.576 34 44 34C44.424 34 44.8257 34.1091 45.205 34.3272L51.795 38.1251C52.1743 38.3435 52.47 38.6351 52.682 38.9999C52.894 39.3648 53 39.7654 53 40.2019V47.7978C53 48.2345 52.894 48.6352 52.682 49.0001C52.47 49.3649 52.1743 49.6565 51.795 49.8749L45.205 53.6728C44.8257 53.8909 44.424 54 44 54C43.576 54 43.1743 53.8909 42.795 53.6728ZM43 51.4964V44.5601L37 41.1225V47.7978C37 47.8661 37.0171 47.93 37.0513 47.9897C37.0856 48.0495 37.1368 48.1007 37.205 48.1433L43 51.4964ZM45 51.4964L50.795 48.1433C50.8632 48.1007 50.9144 48.0495 50.9487 47.9897C50.9829 47.93 51 47.8661 51 47.7978V41.1225L45 44.5601V51.4964ZM44 42.8415L49.959 39.3783L44.205 36.0714C44.1368 36.0288 44.0684 36.0075 44 36.0075C43.9316 36.0075 43.8632 36.0288 43.795 36.0714L38.041 39.3783L44 42.8415Z" fill="black"/>
    <path d="M72.7914 36.6235C72.2631 36.4626 71.7043 36.7604 71.5434 37.2887C71.3825 37.817 71.6803 38.3758 72.2086 38.5367L72.7914 36.6235ZM83 46.0002C83 47.1722 82.2039 48.4895 80.2781 49.8554C78.3782 51.203 75.5642 52.4574 71.9969 53.5276C64.8751 55.6642 54.9764 57.0002 44 57.0002V59.0002C55.115 59.0002 65.2163 57.6499 72.5716 55.4433C76.2429 54.3419 79.2868 53.0106 81.4351 51.4868C83.5575 49.9814 85 48.1418 85 46.0002H83ZM44 57.0002C33.0236 57.0002 23.1249 55.6642 16.0031 53.5276C12.4358 52.4574 9.62179 51.203 7.72193 49.8554C5.7961 48.4895 5 47.1722 5 46.0002H3C3 48.1418 4.44248 49.9814 6.56487 51.4868C8.71323 53.0106 11.7571 54.3419 15.4284 55.4433C22.7837 57.6499 32.885 59.0002 44 59.0002V57.0002ZM72.2086 38.5367C75.7123 39.6039 78.4722 40.8497 80.3341 42.1849C82.2204 43.5375 83 44.84 83 46.0002H85C85 43.8797 83.5854 42.0553 81.4996 40.5596C79.3895 39.0464 76.3994 37.7225 72.7914 36.6235L72.2086 38.5367ZM5 46.0002C5 44.7323 5.93552 43.2962 8.19103 41.8261C10.4062 40.3823 13.6677 39.0635 17.7566 37.9777L17.2434 36.0447C13.0523 37.1576 9.56378 38.5441 7.09896 40.1506C4.67448 41.7308 3 43.6899 3 46.0002H5Z" fill="black"/>
    <path d="M76.8852 34.2827L70.2826 36.4976L72.9971 43.122" stroke="black" stroke-width="2" stroke-linecap="square"/>
</svg>
