<svg width="88" height="88" viewBox="0 0 88 88" fill="none" xmlns="http://www.w3.org/2000/svg">
    <g clip-path="url(#clip0_14_894)">
        <circle cx="44" cy="44" r="43" stroke="black" stroke-width="2"/>
        <ellipse cx="44" cy="44" rx="44" ry="20" fill="#19D3C5"/>
        <path d="M87.5 44C87.5 49.2062 82.8347 54.0829 74.9058 57.687C67.0221 61.2705 56.0957 63.5 44 63.5C31.9043 63.5 20.9779 61.2705 13.0942 57.687C5.16534 54.0829 0.5 49.2062 0.5 44C0.5 38.7938 5.16534 33.9171 13.0942 30.313C20.9779 26.7295 31.9043 24.5 44 24.5C56.0957 24.5 67.0221 26.7295 74.9058 30.313C82.8347 33.9171 87.5 38.7938 87.5 44Z"
              stroke="black"/>
        <path d="M44 0.499999C49.2062 0.499999 54.0829 5.16534 57.687 13.0942C61.2705 20.9779 63.5 31.9043 63.5 44C63.5 56.0957 61.2705 67.0221 57.687 74.9058C54.0829 82.8347 49.2062 87.5 44 87.5C38.7938 87.5 33.9171 82.8347 30.313 74.9058C26.7295 67.0221 24.5 56.0957 24.5 44C24.5 31.9043 26.7295 20.9779 30.313 13.0942C33.9171 5.16534 38.7938 0.499999 44 0.499999Z"
              stroke="black"/>
        <path d="M33.2781 43.008C34.3661 43.008 35.0701 42.48 35.0701 41.552C35.0701 40.688 34.3501 40.208 33.3581 40.208C32.4621 40.208 31.8061 40.736 31.5661 41.472L29.5661 40.848C29.9341 39.44 31.2461 38.24 33.3421 38.24C35.7581 38.24 37.3261 39.552 37.3261 41.328C37.3261 42.56 36.7181 43.424 35.7261 43.888C37.0061 44.272 37.8381 45.104 37.8381 46.64C37.8381 48.8 36.0141 50.16 33.4381 50.16C30.6861 50.16 28.9421 48.8 28.7661 46.544L30.9741 46.144C31.1021 47.408 31.9341 48.192 33.4381 48.192C34.7341 48.192 35.5661 47.504 35.5661 46.48C35.5661 45.424 34.6381 44.896 33.2781 44.896H32.1741V43.696H32.2061L32.1741 43.008H33.2781ZM47.7558 46.416C47.7558 48.592 46.1238 50.16 43.7558 50.16C40.9718 50.16 39.1798 48.416 39.1798 44.688C39.1798 40.192 41.3878 38.256 44.0438 38.256C45.7398 38.256 47.0198 38.928 47.9318 40.32L46.3158 41.488C45.7398 40.672 45.0038 40.208 44.0598 40.208C42.6838 40.208 41.6438 41.152 41.4358 43.6C42.0118 43.024 42.8278 42.672 43.8678 42.672C46.1238 42.672 47.7558 44.24 47.7558 46.416ZM41.5798 46.416C41.5798 47.568 42.4598 48.304 43.6118 48.304C44.7478 48.304 45.6278 47.648 45.6278 46.416C45.6278 45.184 44.7478 44.528 43.6118 44.528C42.4598 44.528 41.5798 45.184 41.5798 46.416ZM54.0747 50.16C51.1307 50.16 49.2267 47.808 49.2267 44.208C49.2267 40.592 51.1307 38.24 54.0747 38.24C57.0027 38.24 58.9227 40.592 58.9227 44.208C58.9227 47.824 57.0027 50.16 54.0747 50.16ZM51.4667 44.208C51.4667 46.64 52.3307 48.192 54.0747 48.192C55.8347 48.192 56.6667 46.624 56.6667 44.208C56.6667 41.792 55.8347 40.224 54.0747 40.224C52.3307 40.224 51.4667 41.76 51.4667 44.208Z"
              fill="black"/>
    </g>
    <defs>
        <clipPath id="clip0_14_894">
            <rect width="88" height="88" fill="white"/>
        </clipPath>
    </defs>
</svg>
