<svg width="27" height="27" viewBox="0 0 27 27" fill="none" xmlns="http://www.w3.org/2000/svg">
<path d="M17.5052 19.8633L13.2762 24.0923C11.8674 25.5011 10.1701 26.2056 8.18428 26.2057C6.19849 26.2058 4.50127 25.5016 3.09263 24.0929C1.68399 22.6843 0.979527 20.9869 0.979247 19.0007C0.978967 17.0145 1.68323 15.317 3.09204 13.9081L7.32105 9.67913L9.00398 11.3621L4.77497 15.5911C3.83278 16.5333 3.36168 17.6696 3.36168 19.0002C3.36168 20.3308 3.83278 21.4672 4.77497 22.4094C5.71717 23.3516 6.85355 23.8226 8.18412 23.8226C9.51469 23.8226 10.6511 23.3516 11.5933 22.4094L15.8223 18.1803L17.5052 19.8633ZM10.3849 18.4823L8.702 16.7994L17.1169 8.38452L18.7998 10.0675L10.3849 18.4823ZM20.1808 17.1877L18.4978 15.5048L22.7268 11.2758C23.669 10.3336 24.1401 9.19721 24.1401 7.86664C24.1401 6.53607 23.669 5.39969 22.7268 4.45749C21.7846 3.5153 20.6483 3.04421 19.3177 3.04421C17.9871 3.04421 16.8507 3.5153 15.9086 4.45749L11.6795 8.68651L9.99661 7.00357L14.2256 2.77456C15.6344 1.36575 17.3317 0.661283 19.3175 0.661152C21.3033 0.661021 23.0005 1.36527 24.4092 2.77392C25.8178 4.18256 26.5223 5.87998 26.5226 7.86619C26.5228 9.85239 25.8186 11.5499 24.4098 12.9587L20.1808 17.1877Z" fill="black"/>
</svg>
