<svg width="118" height="40" viewBox="0 0 118 40" fill="none" xmlns="http://www.w3.org/2000/svg">
    <path d="M11.9653 12.9211C8.67214 11.8229 5.67361 10.9405 5.67361 8.19181C5.67361 5.95627 7.53951 4.2698 10.466 4.2698C13.0259 4.2698 14.9278 5.33201 16.2078 7.31263L19.6809 4.74699C17.4844 2.21729 14.7805 0.530823 10.4267 0.530823C5.15967 0.530823 1.28384 3.97566 1.28384 8.30294C1.28384 13.5454 5.4903 15.0848 9.33012 16.3333C12.6233 17.3955 15.7691 18.3139 15.7691 21.2456C15.7691 23.7753 13.7559 25.8278 10.6133 25.8278C7.72283 25.8278 5.45429 24.3962 3.77171 21.6868L0.00390625 24.6185C2.41975 27.7365 5.74563 29.825 10.6493 29.825C16.5744 29.825 20.1589 25.6447 20.1589 21.2815C20.1589 15.928 15.9164 14.2415 11.9653 12.9211Z"
          fill="white"/>
    <path d="M39.0273 9.62008C31.7863 9.50895 29.8091 15.4116 29.9204 18.7126V29.4556H34.1269V19.1898C34.1269 15.7809 36.0648 13.5813 39.1026 13.5813C42.5038 13.5813 43.8197 16.513 43.8197 19.1898V29.4556H48.0622V18.0916C48.0262 12.8132 43.9277 9.6593 39.0273 9.62335"
          fill="white"/>
    <path d="M76.5591 1.63556H72.5V29.4982H76.5591V1.63556Z" fill="white"/>
    <path d="M81.9698 3.87109C83.2858 3.87109 84.2024 4.82544 84.2024 6.10663C84.2024 7.38782 83.2531 8.34218 81.9698 8.34218C80.6179 8.34218 79.7373 7.38782 79.7373 6.10663C79.7013 4.78622 80.6506 3.87109 81.9698 3.87109ZM79.9206 10.4339H84.0191V29.4981H79.9206V10.4339Z"
          fill="white"/>
    <path d="M25.0558 3.83514C26.3717 3.83514 27.2883 4.78951 27.2883 6.0707C27.2883 7.35189 26.3357 8.30623 25.0558 8.30623C23.7038 8.30623 22.8233 7.35189 22.8233 6.0707C22.7872 4.75029 23.7366 3.83514 25.0558 3.83514ZM22.9706 10.398H27.0657V29.4622H22.9706V10.398Z"
          fill="white"/>
    <path d="M86.4375 10.3751H89.6554V9.38479C89.6554 3.44622 91.4852 1.61267 97.4463 1.61267H97.7769V5.3876C94.1564 5.3876 93.7538 6.01186 93.7538 9.42074V10.3751H97.7769V14.0422H93.7538V29.4393H89.6554V14.0422H86.4375V10.3751Z"
          fill="white"/>
    <path d="M98.3568 19.6703C98.3568 14.0618 102.675 9.6626 108.233 9.6626C113.791 9.6626 117.998 13.7317 117.998 19.3794V20.9907H102.233C102.783 23.9224 105.048 25.867 108.341 25.867C110.937 25.867 112.914 24.5107 113.899 22.4222L117.265 24.2917C115.582 27.4064 112.583 29.4622 108.377 29.4622C102.377 29.4982 98.3535 25.2101 98.3535 19.6735M102.488 17.5458H113.899C113.277 14.7972 111.192 13.2578 108.266 13.2578C105.339 13.2578 103.218 15.0161 102.488 17.5458Z"
          fill="white"/>
    <path d="M60.2071 9.58738C54.7567 9.58738 50.2949 14.1336 50.2949 19.7061C50.2949 25.2787 54.7567 29.8249 60.2071 29.8249C62.3283 29.8249 64.2662 29.1288 65.8408 27.9555V30.155C65.8408 33.4561 63.3169 35.6164 60.0991 35.6164C57.1365 35.6164 55.3067 34.2601 54.3213 32.1324L50.4815 33.9659C51.9448 37.1199 55.2379 39.4273 60.1023 39.4273C65.8081 39.4273 69.7952 36.1263 69.7952 29.8217L69.8312 19.5558C69.7199 13.9114 65.5527 9.58411 60.2104 9.58411M60.2104 25.8245C56.9172 25.8245 54.2493 23.0758 54.2493 19.7029C54.2493 16.33 56.9205 13.5813 60.2104 13.5813C63.5002 13.5813 65.8441 16.2221 65.8441 19.7029C65.8441 23.1837 63.4282 25.8245 60.2104 25.8245Z"
          fill="white"/>
</svg>
