<svg width="118" height="169" viewBox="0 0 118 169" fill="none" xmlns="http://www.w3.org/2000/svg">
    <path d="M30.1653 15.0736H26.7249V9.23633H30.1653C44.7913 9.23633 58.6448 15.8253 67.9055 27.186L63.4045 30.8825C55.2469 20.8749 43.0465 15.0736 30.1653 15.0736Z" fill="white"/>
    <path d="M87.8379 102.76H91.2783V108.597H87.8379C73.2119 108.597 59.3584 102.008 50.0977 90.6474L54.5987 86.9509C62.7563 96.9586 74.9566 102.76 87.8379 102.76Z" fill="white"/>
    <path d="M46.5492 7.83085L43.3313 6.67386L45.2921 1.17651L48.51 2.3335C62.298 7.29157 73.1398 18.2046 78.037 32.0623L72.5539 34.0135C68.2394 21.8095 58.6939 12.1974 46.5492 7.83085Z" fill="white"/>
    <path d="M71.4507 109.983L74.6686 111.14L72.7078 116.637L69.4899 115.48C55.7019 110.522 44.8601 99.6093 39.9629 85.7515L45.446 83.8003C49.7605 96.0043 59.306 105.616 71.4507 109.983Z" fill="white"/>
    <path d="M65.0542 6.67722L62.4387 4.46782L66.1869 0L68.8024 2.2094C80.0076 11.6778 86.3811 25.699 86.1618 40.3999L80.3448 40.3117C80.5379 27.3658 74.9239 15.0148 65.0575 6.67395" fill="white"/>
    <path d="M52.9456 111.137L55.5612 113.346L51.813 117.814L49.1975 115.604C37.9923 106.136 31.622 92.1148 31.8381 77.4138L37.6551 77.5021C37.462 90.448 43.076 102.799 52.9424 111.14" fill="white"/>
    <path d="M81.687 11.5112L79.9324 8.56641L84.9245 5.56934L86.6791 8.51411C94.195 21.1332 95.6681 36.4715 90.6858 50.2998L85.2158 48.3127C89.6023 36.1348 88.306 22.6235 81.687 11.5112Z" fill="white"/>
    <path d="M36.3162 106.303L38.0708 109.248L33.0787 112.245L31.3241 109.3C23.8081 96.6808 22.3351 81.3425 27.3173 67.5142L32.7874 69.5013C28.4009 81.6791 29.6972 95.1905 36.3162 106.303Z" fill="white"/>
    <path d="M96.7058 22.4045L96.0839 19.0315L101.803 17.9661L102.425 21.339C105.096 35.7949 101.155 50.6887 91.6908 61.9089L87.252 58.1372C95.5863 48.2538 99.0595 35.1347 96.7058 22.4045Z" fill="white"/>
    <path d="M21.2973 95.4126L21.9193 98.7855L16.2005 99.851L15.5785 96.4781C12.9073 82.0222 16.8486 67.1284 26.3123 55.9082L30.7512 59.6799C22.4169 69.5633 18.9437 82.6824 21.2973 95.4126Z" fill="white"/>
    <path d="M106.899 37.6186L107.469 34.2358L113.204 35.2065L112.635 38.5893C110.199 53.0876 101.4 65.7165 88.6726 72.9918L85.7952 67.9193C97.0036 61.5101 104.755 50.3847 106.899 37.6186Z" fill="white"/>
    <path d="M11.1004 80.1953L10.5308 83.578L4.79565 82.6073L5.36524 79.2246C7.80073 64.7262 16.5999 52.0973 29.3273 44.822L32.2047 49.8945C20.9962 56.3037 13.2478 67.4291 11.1004 80.1953Z" fill="white"/>
    <path d="M111.253 55.1597L112.929 52.1692L118 55.0322L116.324 58.0228C109.139 70.8347 96.601 79.7278 82.1714 82.2477L81.1763 76.4954C93.8873 74.2762 104.929 66.442 111.256 55.1564" fill="white"/>
    <path d="M6.74669 62.6573L5.07066 65.6479L0 62.7848L1.67604 59.7943C8.86138 46.9824 21.3989 38.086 35.8285 35.5693L36.8236 41.3216C24.1126 43.5408 13.0711 51.375 6.74342 62.6606" fill="white"/>
    <path d="M109.194 73.9528L111.816 71.7532L115.548 76.2308L112.926 78.4304C101.691 87.8628 86.8297 91.7293 72.4426 88.9643L73.536 83.2283C86.2044 85.6665 99.2952 82.2609 109.191 73.9495" fill="white"/>
    <path d="M8.80578 43.8611L6.1837 46.0607L2.4519 41.5831L5.07398 39.3835C16.3086 29.9511 31.1704 26.0847 45.5574 28.8497L44.4641 34.5823C31.7956 32.1442 18.7049 35.553 8.80905 43.8611" fill="white"/>
    <path d="M101.092 90.2094L104.304 89.036L106.294 94.5236L103.083 95.6969C89.3209 100.727 74.0336 99.2855 61.447 91.7684L64.4194 86.7515C75.5067 93.3731 88.9706 94.6445 101.092 90.2126" fill="white"/>
    <path d="M16.9045 27.6077L13.6932 28.7811L11.7029 23.2935L14.9142 22.1202C28.676 17.0902 43.9633 18.5316 56.5499 26.0487L53.5775 31.0656C42.4902 24.444 29.0263 23.1726 16.9045 27.6045" fill="white"/>
    <path d="M30.1653 15.0736H26.7249V9.23633H30.1653C44.7913 9.23633 58.6448 15.8253 67.9055 27.186L63.4045 30.8825C55.2469 20.8749 43.0465 15.0736 30.1653 15.0736Z" fill="white"/>
    <path d="M87.8379 102.76H91.2783V108.597H87.8379C73.2119 108.597 59.3584 102.008 50.0977 90.6474L54.5987 86.9509C62.7563 96.9586 74.9566 102.76 87.8379 102.76Z" fill="white"/>
    <path d="M11.9646 141.921C8.67141 140.823 5.67288 139.94 5.67288 137.192C5.67288 134.956 7.53878 133.27 10.4653 133.27C13.0252 133.27 14.9271 134.332 16.207 136.313L19.6802 133.747C17.4837 131.217 14.7798 129.531 10.426 129.531C5.15894 129.531 1.28311 132.976 1.28311 137.303C1.28311 142.545 5.48957 144.085 9.32939 145.333C12.6225 146.395 15.7684 147.314 15.7684 150.246C15.7684 152.775 13.7552 154.828 10.6126 154.828C7.72209 154.828 5.45356 153.396 3.77097 150.687L0.00317383 153.618C2.41902 156.736 5.7449 158.825 10.6486 158.825C16.5736 158.825 20.1581 154.645 20.1581 150.281C20.1581 144.928 15.9157 143.241 11.9646 141.921Z" fill="white"/>
    <path d="M39.0268 138.62C31.7858 138.509 29.8086 144.411 29.9199 147.712V158.456H34.1264V148.19C34.1264 144.781 36.0643 142.581 39.1021 142.581C42.5033 142.581 43.8192 145.513 43.8192 148.19V158.456H48.0617V147.091C48.0257 141.813 43.9272 138.659 39.0268 138.623" fill="white"/>
    <path d="M76.5574 130.635H72.4983V158.498H76.5574V130.635Z" fill="white"/>
    <path d="M81.9686 132.871C83.2846 132.871 84.2012 133.825 84.2012 135.107C84.2012 136.388 83.2518 137.342 81.9686 137.342C80.6167 137.342 79.7361 136.388 79.7361 135.107C79.7001 133.786 80.6494 132.871 81.9686 132.871ZM79.9194 139.434H84.0178V158.498H79.9194V139.434Z" fill="white"/>
    <path d="M25.0553 132.835C26.3712 132.835 27.2878 133.789 27.2878 135.071C27.2878 136.352 26.3352 137.306 25.0553 137.306C23.7033 137.306 22.8228 136.352 22.8228 135.071C22.7868 133.75 23.7361 132.835 25.0553 132.835ZM22.9701 139.398H27.0652V158.462H22.9701V139.398Z" fill="white"/>
    <path d="M86.4368 139.375H89.6546V138.385C89.6546 132.446 91.4845 130.613 97.4456 130.613H97.7762V134.387C94.1557 134.387 93.753 135.012 93.753 138.421V139.375H97.7762V143.042H93.753V158.439H89.6546V143.042H86.4368V139.375Z" fill="white"/>
    <path d="M98.3558 148.67C98.3558 143.062 102.674 138.663 108.232 138.663C113.79 138.663 117.997 142.732 117.997 148.379V149.991H102.232C102.782 152.922 105.047 154.867 108.34 154.867C110.936 154.867 112.913 153.511 113.898 151.422L117.264 153.292C115.581 156.406 112.582 158.462 108.376 158.462C102.376 158.498 98.3525 154.21 98.3525 148.674M102.487 146.546H113.898C113.276 143.797 111.191 142.258 108.265 142.258C105.338 142.258 103.217 144.016 102.487 146.546Z" fill="white"/>
    <path d="M60.2064 138.587C54.756 138.587 50.2942 143.134 50.2942 148.706C50.2942 154.279 54.756 158.825 60.2064 158.825C62.3276 158.825 64.2655 158.129 65.8401 156.955V159.155C65.8401 162.456 63.3162 164.616 60.0983 164.616C57.1358 164.616 55.3059 163.26 54.3206 161.132L50.4808 162.966C51.944 166.12 55.2372 168.427 60.1016 168.427C65.8073 168.427 69.7945 165.126 69.7945 158.822L69.8305 148.556C69.7192 142.911 65.552 138.584 60.2096 138.584M60.2096 154.824C56.9165 154.824 54.2486 152.076 54.2486 148.703C54.2486 145.33 56.9198 142.581 60.2096 142.581C63.4995 142.581 65.8433 145.222 65.8433 148.703C65.8433 152.184 63.4275 154.824 60.2096 154.824Z" fill="white"/>
</svg>
