<svg width="118" height="118" viewBox="0 0 118 118" fill="none" xmlns="http://www.w3.org/2000/svg">
<path d="M30.1651 15.0736H26.7246V9.23633H30.1651C44.7911 9.23633 58.6445 15.8253 67.9053 27.186L63.4042 30.8825C55.2466 20.8749 43.0463 15.0736 30.1651 15.0736Z" fill="white"/>
<path d="M87.8379 102.76H91.2783V108.597H87.8379C73.2119 108.597 59.3584 102.008 50.0977 90.6474L54.5987 86.9509C62.7563 96.9586 74.9566 102.76 87.8379 102.76Z" fill="white"/>
<path d="M46.5499 7.83091L43.332 6.67392L45.2929 1.17657L48.5107 2.33356C62.2987 7.29164 73.1406 18.2046 78.0377 32.0624L72.5546 34.0136C68.2401 21.8096 58.6946 12.1974 46.5499 7.83091Z" fill="white"/>
<path d="M71.4507 109.983L74.6686 111.14L72.7078 116.637L69.4899 115.48C55.7019 110.522 44.8601 99.6092 39.9629 85.7514L45.446 83.8002C49.7605 96.0042 59.306 105.616 71.4507 109.983Z" fill="white"/>
<path d="M65.055 6.67722L62.4395 4.46782L66.1876 0L68.8031 2.2094C80.0083 11.6778 86.3819 25.699 86.1625 40.3999L80.3455 40.3117C80.5387 27.3658 74.9246 15.0148 65.0583 6.67395" fill="white"/>
<path d="M52.9449 111.137L55.5604 113.346L51.8123 117.814L49.1967 115.604C37.9915 106.136 31.6213 92.1149 31.8374 77.4139L37.6544 77.5021C37.4612 90.448 43.0753 102.799 52.9416 111.14" fill="white"/>
<path d="M81.6862 11.5111L79.9316 8.56635L84.9237 5.56927L86.6783 8.51405C94.1943 21.1331 95.6674 36.4714 90.6851 50.2998L85.2151 48.3126C89.6016 36.1348 88.3053 22.6235 81.6862 11.5111Z" fill="white"/>
<path d="M36.3172 106.303L38.0718 109.248L33.0797 112.245L31.3251 109.3C23.8091 96.6808 22.336 81.3424 27.3183 67.5141L32.7883 69.5013C28.4018 81.6791 29.6982 95.1904 36.3172 106.303Z" fill="white"/>
<path d="M96.7058 22.4045L96.0839 19.0315L101.803 17.9661L102.425 21.339C105.096 35.7949 101.155 50.6887 91.6908 61.9089L87.252 58.1372C95.5863 48.2538 99.0595 35.1347 96.7058 22.4045Z" fill="white"/>
<path d="M21.2971 95.4126L21.919 98.7855L16.2002 99.851L15.5783 96.4781C12.9071 82.0222 16.8484 67.1284 26.3121 55.9082L30.751 59.6799C22.4166 69.5633 18.9434 82.6824 21.2971 95.4126Z" fill="white"/>
<path d="M106.899 37.6186L107.469 34.2358L113.204 35.2065L112.634 38.5893C110.199 53.0876 101.4 65.7165 88.6723 72.9918L85.7949 67.9193C97.0034 61.5101 104.755 50.3847 106.899 37.6186Z" fill="white"/>
<path d="M11.0997 80.1953L10.5301 83.578L4.79492 82.6073L5.36451 79.2246C7.8 64.7262 16.5992 52.0973 29.3266 44.822L32.204 49.8945C20.9955 56.3037 13.2471 67.4291 11.0997 80.1953Z" fill="white"/>
<path d="M111.253 55.1598L112.929 52.1693L117.999 55.0323L116.323 58.0228C109.138 70.8347 96.6005 79.7279 82.1709 82.2478L81.1758 76.4955C93.8868 74.2763 104.928 66.4421 111.256 55.1565" fill="white"/>
<path d="M6.74669 62.6573L5.07066 65.6479L0 62.7848L1.67604 59.7943C8.86138 46.9824 21.3989 38.086 35.8285 35.5693L36.8236 41.3216C24.1126 43.5408 13.0711 51.375 6.74342 62.6606" fill="white"/>
<path d="M109.195 73.9527L111.817 71.7531L115.549 76.2307L112.927 78.4303C101.692 87.8628 86.8304 91.7292 72.4434 88.9642L73.5367 83.2283C86.2052 85.6664 99.2959 82.2608 109.192 73.9494" fill="white"/>
<path d="M8.80504 43.8611L6.18297 46.0607L2.45117 41.5831L5.07325 39.3835C16.3079 29.951 31.1696 26.0846 45.5567 28.8496L44.4633 34.5823C31.7949 32.1441 18.7041 35.553 8.80832 43.8611" fill="white"/>
<path d="M101.093 90.2094L104.304 89.0361L106.294 94.5236L103.083 95.697C89.3211 100.727 74.0339 99.2856 61.4473 91.7684L64.4196 86.7515C75.507 93.3732 88.9709 94.6446 101.093 90.2127" fill="white"/>
<path d="M16.9047 27.6077L13.6934 28.781L11.7031 23.2935L14.9144 22.1201C28.6762 17.0902 43.9635 18.5315 56.5501 26.0487L53.5778 31.0656C42.4904 24.4439 29.0265 23.1725 16.9047 27.6044" fill="white"/>
<path d="M30.1651 15.0736H26.7246V9.23633H30.1651C44.7911 9.23633 58.6445 15.8253 67.9053 27.186L63.4042 30.8825C55.2466 20.8749 43.0463 15.0736 30.1651 15.0736Z" fill="white"/>
<path d="M87.8379 102.76H91.2783V108.597H87.8379C73.2119 108.597 59.3584 102.008 50.0977 90.6474L54.5987 86.9509C62.7563 96.9586 74.9566 102.76 87.8379 102.76Z" fill="white"/>
</svg>
