<svg width="233" height="537" viewBox="0 0 233 537" fill="none" xmlns="http://www.w3.org/2000/svg">
<path d="M62.24 409.05L9.03 173.52" stroke="white" stroke-width="2"/>
<path d="M169.73 409.05L222.95 173.52" stroke="white" stroke-width="2"/>
<path d="M231.98 128.49C231.98 192.273 180.273 243.98 116.49 243.98C52.7066 243.98 1 192.273 1 128.49C1 64.7066 52.7066 13 116.49 13C180.273 13 231.98 64.7066 231.98 128.49Z" fill="white" stroke="black" stroke-width="2"/>
<path d="M218.39 128.49C218.39 184.768 172.768 230.39 116.49 230.39C60.2122 230.39 14.59 184.768 14.59 128.49C14.59 72.2122 60.2122 26.59 116.49 26.59C172.768 26.59 218.39 72.2122 218.39 128.49Z" fill="white" stroke="black" stroke-width="2"/>
<path d="M111.78 63.6C111.35 63.7 111.01 63.77 110.67 63.85C103.15 65.42 96.12 68.15 89.99 72.87C81.32 79.54 76.33 88.22 75.89 99.29C75.6 106.49 77.42 113.09 81.77 118.92C84.82 123.01 88.67 126.23 92.95 128.95C99.27 132.98 106.15 135.81 113.23 138.2C119.25 140.23 125.16 142.54 130.55 145.98C137.2 150.23 141.01 156.05 140.75 164.19C140.58 169.54 138.78 174.17 134.96 177.96C131.49 181.4 127.24 183.37 122.59 184.58C116.9 186.05 111.11 186.25 105.28 185.74C97 185.02 89.07 182.98 81.54 179.45C79.92 178.69 78.34 177.83 76.68 176.98C74.8 182.43 72.92 187.85 71 193.4C82.97 200.02 95.96 201.95 109.4 202.37C109.31 208.01 109.22 213.63 109.13 219.27H122.74C122.74 218.01 122.94 201.88 122.94 201.88C122.94 201.88 141.37 198.12 151.44 187.74C161.31 177.57 163.96 165.41 160.64 151.87C158.88 144.72 154.44 139.25 148.72 134.77C143.25 130.48 137.11 127.39 130.69 124.82C125.65 122.8 120.52 121 115.49 118.95C111.17 117.19 107.03 115.07 103.39 112.08C98.23 107.84 96.19 102.36 97.05 95.8C97.73 90.62 100.56 86.74 104.76 83.81C109.19 80.72 114.23 79.36 119.53 78.94C129.13 78.17 138.41 79.64 147.34 83.29C148.84 83.91 150.31 84.62 151.83 85.31C153.88 79.99 155.91 74.71 157.97 69.39C147.66 64.09 136.65 62.62 125.34 62.4C125.46 55.6 125.58 48.91 125.69 42.23H112.15C112.02 49.4 111.9 56.47 111.77 63.62L111.78 63.6Z" fill="white" stroke="black" stroke-width="2"/>
<path d="M28.88 288.08C28.44 286.92 28.17 286.28 27.96 285.06C27.61 283.04 27.9101 280.92 28.3101 278.92C28.6701 277.12 29.26 275.4 29.82 273.66C30.36 271.99 31.11 270.43 31.49 268.7C31.6 268.2 31.6701 267.63 31.3601 267.24C31.0101 266.81 30.3101 266.81 29.8301 267.09C29.2701 267.42 28.8 268.1 28.4 268.6C27.89 269.24 27.4901 270 27.0501 270.69C26.5801 271.43 25.9301 272.57 24.8901 272.45H24.84C23.84 272.31 23.7101 271.04 23.4701 270.26C23.1401 269.19 22.85 268.12 22.57 267.04C21.99 264.83 21.44 262.6 20.77 260.41C20.56 259.74 20.1 258.98 19.4 258.99C18.95 258.99 18.57 259.37 18.4 259.79C18.23 260.21 18.4001 262.99 18.4401 263.44C18.5801 265.8 18.82 268.05 19.23 270.57C17.39 266.74 16.0101 263.55 14.5301 260.6C14.2901 260.13 14.04 259.64 13.62 259.34C13.2 259.04 12.54 258.97 12.18 259.34C11.81 259.72 11.8901 260.34 12.0001 260.87C12.7701 264.46 14.27 268.83 15.46 272.3C13.88 269.79 11.74 266.47 10.16 263.95C9.95004 263.61 9.72005 263.26 9.39005 263.04C9.06005 262.82 8.58004 262.76 8.27004 263.01C7.85004 263.34 7.93004 263.99 8.07004 264.5C9.03005 268.23 10.51 271.7 12.71 274.85C11.13 273.4 9.60005 271.8 7.92005 270.47C6.63005 269.45 5.57005 270.08 6.01005 271.79C6.19005 272.47 6.62006 273.06 7.05006 273.62C9.86006 277.36 12.67 281.09 15.48 284.83C17.24 287.17 18.34 289.82 19.16 292.6L28.88 288.05V288.08Z" fill="white" stroke="black" stroke-width="0.78" stroke-linecap="round" stroke-linejoin="round"/>
<path d="M22.2 278.32C21.8 277.15 22.17 275.84 22.86 274.81C23.15 274.38 23.49 273.99 23.85 273.63" stroke="black" stroke-width="0.78" stroke-linecap="round" stroke-linejoin="round"/>
<path d="M14.08 276.11C15.11 274.2 16.95 272.74 19.04 272.16" stroke="black" stroke-width="0.78" stroke-linecap="round" stroke-linejoin="round"/>
<path d="M70.3701 528.94C70.1201 530.04 70.0901 531.21 70.3901 532.39L108.93 533.34L109.05 529.87H108.58L70.4501 528.96L70.3701 528.94Z" fill="black"/>
<path d="M90.35 519.29H90.31C88.13 519.87 83.5901 520.12 81.3701 520.52C79.1501 520.92 76.9301 521.49 74.9901 522.64C73.5801 523.48 71.05 525.94 70.38 528.91C70.38 528.92 70.38 528.93 70.38 528.94L70.4601 528.96L108.59 529.86V529.74C109.25 520.98 109.25 519.67 109.47 514.04L90.82 512.93C90.82 517.71 90.4401 517.22 90.3701 519.29H90.35Z" fill="white"/>
<path d="M95.8096 522.47C94.3896 520.87 92.4496 519.74 90.3496 519.29" stroke="black" stroke-width="0.78" stroke-linecap="round" stroke-linejoin="round"/>
<path d="M108.58 529.75C109.24 520.99 109.24 519.68 109.46 514.05L90.8098 512.94C90.8098 517.72 90.4298 517.23 90.3598 519.3" stroke="black" stroke-width="0.78" stroke-linecap="round" stroke-linejoin="round"/>
<path d="M90.3098 519.29C88.1298 519.87 83.5898 520.12 81.3698 520.52C79.1498 520.92 76.9298 521.49 74.9898 522.64C73.5798 523.48 71.0498 525.94 70.3798 528.91C70.3798 528.92 70.3798 528.93 70.3798 528.94C70.1298 530.04 70.0998 531.21 70.3998 532.39" stroke="black" stroke-width="0.78" stroke-linecap="round" stroke-linejoin="round"/>
<path d="M70.3898 532.4L108.93 533.34L109.05 529.87L108.58 529.86L70.4498 528.96" stroke="black" stroke-width="0.78" stroke-linecap="round" stroke-linejoin="round"/>
<path d="M163.91 528.94C164.16 530.04 164.19 531.21 163.89 532.39L125.35 533.34L125.23 529.87H125.7L163.83 528.96L163.91 528.94Z" fill="black"/>
<path d="M143.92 519.29H143.97C146.14 519.87 150.69 520.12 152.91 520.52C155.13 520.92 157.35 521.49 159.29 522.64C160.7 523.48 163.23 525.94 163.91 528.91C163.91 528.92 163.91 528.93 163.91 528.94L163.83 528.96L125.7 529.86V529.74C125.04 520.98 125.23 519.28 124.82 514.04L143.47 512.93C143.47 517.71 143.85 517.22 143.92 519.29Z" fill="white"/>
<path d="M138.46 522.47C139.88 520.87 141.82 519.74 143.92 519.29" stroke="black" stroke-width="0.78" stroke-linecap="round" stroke-linejoin="round"/>
<path d="M125.69 529.75C125.03 520.99 125.23 519.29 124.81 514.05L143.46 512.94C143.46 517.72 143.84 517.23 143.91 519.3" stroke="black" stroke-width="0.78" stroke-linecap="round" stroke-linejoin="round"/>
<path d="M143.96 519.29C146.13 519.87 150.68 520.12 152.9 520.52C155.12 520.92 157.34 521.49 159.28 522.64C160.69 523.48 163.22 525.94 163.9 528.91C163.9 528.92 163.9 528.93 163.9 528.94C164.15 530.04 164.18 531.21 163.88 532.39" stroke="black" stroke-width="0.78" stroke-linecap="round" stroke-linejoin="round"/>
<path d="M163.88 532.4L125.34 533.34L125.22 529.87L125.69 529.86L163.82 528.96" stroke="black" stroke-width="0.78" stroke-linecap="round" stroke-linejoin="round"/>
<path d="M96.19 366.87L84.98 513.46L111.93 515.28L117.13 396.52L122.59 516.18L147.83 513.68L138.49 378.5C138.39 378 138.29 377.46 138.15 376.77C137.93 375.71 137.82 374.8 137.83 373.99L136.37 364.11C136.37 364.11 131.68 366.33 116.7 367.27C106.88 367.88 96.2101 366.87 96.2101 366.87H96.19Z" fill="black"/>
<path d="M137.74 364.12L95.05 366.88C95.05 366.88 106.39 367.9 116.83 367.28C132.75 366.34 137.74 364.12 137.74 364.12Z" fill="black"/>
<path d="M124.66 272.81C124.8 273.38 125.19 273.88 125.71 274.14V274.17C127.07 274.35 128.31 275.3 128.89 276.54L129.02 276.51C131.19 273.36 129.34 268.66 126.79 265.75C123.96 262.54 119.83 260.31 115.65 259.61C113.34 259.22 110.98 259.03 108.77 258.28C107.22 257.75 105.76 256.95 104.16 256.58C102.56 256.22 100.7 256.39 99.56 257.56C98.71 258.43 98.4 259.71 98.43 260.92C98.47 262.65 99.19 264.41 100.54 265.49C101.13 265.96 101.88 266.24 102.66 266.33C103.68 266.46 104.75 266.27 105.6 265.78L105.81 265.66C105.9 265.84 106.01 266 106.14 266.15C106.54 266.63 107.08 266.97 107.64 267.24C109.83 268.26 112.74 267.95 114.82 266.71C115.43 268.83 116.87 270.72 118.8 271.83C120.56 272.84 122.68 273.17 124.66 272.79V272.81Z" fill="black"/>
<path d="M127.68 281.28C126.84 281.93 125.74 282.21 124.69 282.09L124.65 282.52C124 285.56 124.08 290.19 124.38 294.14C122.26 294.78 120.05 295.15 117.83 295.21C115.77 295.28 113.7 295.09 111.69 294.66H111.66C111.63 293.27 111.6 291.9 111.58 290.91V290.86C110.49 290.86 109.41 290.7 108.33 290.36C99.34 287.52 98.61 277.81 101.01 270.07C101.45 268.67 101.93 267.47 102.68 266.21V266.16C103.71 266.29 104.78 266.1 105.63 265.61L105.85 265.49C105.94 265.67 106.05 265.83 106.17 265.98C106.57 266.46 107.11 266.81 107.67 267.07C109.86 268.09 112.77 267.78 114.85 266.54C115.46 268.66 116.9 270.55 118.83 271.65C120.58 272.66 122.7 272.99 124.69 272.61C124.83 273.18 125.22 273.68 125.73 273.95V273.98C127.1 274.16 128.34 275.11 128.92 276.36C129 276.55 129.07 276.74 129.13 276.93C129.57 278.49 128.98 280.3 127.69 281.29L127.68 281.28Z" fill="white"/>
<path d="M111.65 294.66C111.68 296.14 111.71 297.64 111.74 298.73C111.74 298.77 111.74 298.81 111.74 298.85L111.92 298.92C112.61 299.37 113.29 299.81 113.98 300.26C114.04 300.3 114.11 300.34 114.19 300.34C114.26 300.34 114.32 300.29 114.38 300.25C115.95 299.04 116.85 297.31 117.83 295.59V295.22C115.76 295.29 113.69 295.1 111.68 294.66H111.65Z" fill="#FFA168"/>
<path d="M117.82 295.22V295.59C118.84 297.41 120.16 299.05 121.71 300.44C121.79 300.51 121.87 300.58 121.97 300.59C122.09 300.61 122.2 300.55 122.31 300.5C123.2 300.03 123.98 299.37 124.6 298.58L124.77 298.62C124.77 298.62 124.83 298.6 124.86 298.58L124.78 298.38C124.63 297.17 124.48 295.71 124.37 294.16C122.25 294.8 120.03 295.16 117.81 295.23L117.82 295.22Z" fill="#FFA168"/>
<path d="M139.29 373.99C139.29 374.8 139.4 375.71 139.63 376.77C139.79 377.46 139.89 378 140 378.5L139.29 373.98V373.99Z" fill="black"/>
<path d="M145.38 377.12C146.46 376.69 147.5 376.14 148.47 375.49C149.32 374.92 150.17 374.56 150.51 373.51C150.6 373.24 150.65 372.96 150.79 372.71C151.21 371.99 152.06 371.54 152.73 371.08L145.9 364.12C144.6 365.63 142.86 367.02 140.97 367.69C139.68 368.15 138.82 369.01 138.47 370.34C138.02 372.05 137.76 373.89 137.73 375.66C137.72 376.26 137.73 376.99 138.07 377.52C138.28 377.84 138.75 378.06 139.13 377.99C139.06 378.37 139.34 378.83 139.43 378.92C139.71 379.2 140.1 379.35 140.49 379.3C140.45 379.65 140.6 380.02 140.89 380.23C141.18 380.44 141.57 380.48 141.89 380.34C141.94 380.89 142.48 381.28 143.03 381.34C144.06 381.46 145.03 380.85 145.87 380.35C147.01 379.68 148.04 378.81 148.97 377.88C149.33 377.52 150 377.04 149.95 376.47C149.93 376.22 149.78 376 149.58 375.85C149.1 375.51 148.13 375.77 147.64 376" fill="white"/>
<path d="M145.38 377.12C146.46 376.69 147.5 376.14 148.47 375.49C149.32 374.92 150.17 374.56 150.51 373.51C150.6 373.24 150.65 372.96 150.79 372.71C151.21 371.99 152.06 371.54 152.73 371.08L145.9 364.12C144.6 365.63 142.86 367.02 140.97 367.69C139.68 368.15 138.82 369.01 138.47 370.34C138.02 372.05 137.76 373.89 137.73 375.66C137.72 376.26 137.73 376.99 138.07 377.52C138.28 377.84 138.75 378.06 139.13 377.99C139.06 378.37 139.34 378.83 139.43 378.92C139.71 379.2 140.1 379.35 140.49 379.3C140.45 379.65 140.6 380.02 140.89 380.23C141.18 380.44 141.57 380.48 141.89 380.34C141.94 380.89 142.48 381.28 143.03 381.34C144.06 381.46 145.03 380.85 145.87 380.35C147.01 379.68 148.04 378.81 148.97 377.88C149.33 377.52 150 377.04 149.95 376.47C149.93 376.22 149.78 376 149.58 375.85C149.1 375.51 148.13 375.77 147.64 376" stroke="black" stroke-width="0.78" stroke-linecap="round" stroke-linejoin="round"/>
<path d="M140.06 372C140.73 373.33 141.6 374.55 142.65 375.61L140.06 372Z" fill="white"/>
<path d="M140.06 372C140.73 373.33 141.6 374.55 142.65 375.61" stroke="black" stroke-width="0.78" stroke-linecap="round" stroke-linejoin="round"/>
<path d="M145.85 377.13C145.97 377.37 145.99 377.67 145.91 377.93L145.85 377.13Z" fill="white"/>
<path d="M145.85 377.13C145.97 377.37 145.99 377.67 145.91 377.93" stroke="black" stroke-width="0.78" stroke-linecap="round" stroke-linejoin="round"/>
<path d="M143.82 320.96L144.26 321.05C150.59 323.37 161.85 330.1 167.87 333.13C161.06 343.9 151.31 352.12 145.27 363.35C145.39 363.67 145.53 363.99 145.67 364.3C147.18 367.56 149.9 370.32 152.93 372.31C153.18 372.48 153.44 372.64 153.69 372.8C165.1 365.02 179.77 356.35 187.54 344.94C190.43 340.69 193.13 335.88 192.82 330.74C192.58 326.81 190.57 323.15 187.92 320.24C185.27 317.33 182 315.06 178.74 312.85C170.7 307.38 162.47 301.98 153.29 298.8C144.14 295.63 133.81 294.84 124.87 298.56C124.84 298.57 124.81 298.58 124.78 298.6L124.61 298.56C123.99 299.35 123.2 300.01 122.32 300.48C122.21 300.54 122.1 300.59 121.98 300.57C121.88 300.55 121.8 300.48 121.72 300.42C120.17 299.04 118.85 297.39 117.84 295.57C116.86 297.3 115.96 299.02 114.39 300.23C114.33 300.27 114.27 300.31 114.2 300.32C114.13 300.32 114.06 300.28 113.99 300.24C113.3 299.79 112.62 299.35 111.93 298.9L111.75 298.83C111.75 298.83 111.75 298.75 111.75 298.71H111.64C104.25 296.9 96.6 295.08 89.12 296.44C83.63 297.44 78.6 300.09 73.63 302.65C65.8 306.69 57.89 310.58 49.91 314.31H49.47C41.63 305.53 35.16 295.52 30.35 284.76C29.99 284.75 29.63 284.76 29.26 284.77C25.26 284.94 21.07 286.63 17.93 289.16C17.61 289.42 17.31 289.68 17.02 289.95C18.36 303.65 22.8 316.99 29.69 328.92C34.09 336.55 39.1 341.77 47.14 341.63C59.88 341.4 87.75 322.85 87.75 322.85C90.15 336.63 92.63 350.76 95.04 366.86L137.73 364.1C142.48 351.39 141.15 334.25 143.81 320.95L143.82 320.96Z" fill="#FFA168"/>
<path d="M122.05 284.79C119.93 288.62 115.82 291.15 111.54 291.15C110.46 291.15 109.37 290.99 108.29 290.65C99.3001 287.8 98.5701 278.1 100.97 270.36C101.41 268.96 101.89 267.76 102.64 266.5" stroke="black" stroke-width="0.78" stroke-linecap="round" stroke-linejoin="round"/>
<path d="M114.57 265.56C114.62 265.96 114.7 266.36 114.82 266.75C115.43 268.87 116.87 270.76 118.8 271.87C120.56 272.88 122.68 273.21 124.66 272.83C125.25 272.72 125.82 272.55 126.37 272.32" stroke="black" stroke-width="0.78" stroke-linecap="round" stroke-linejoin="round"/>
<path d="M125.59 274.24C125.59 274.24 125.66 274.24 125.7 274.26C127.07 274.44 128.31 275.39 128.89 276.63C128.97 276.82 129.04 277.01 129.1 277.2C129.54 278.76 128.95 280.57 127.66 281.56C126.82 282.21 125.72 282.49 124.67 282.37C124.11 282.31 123.57 282.14 123.08 281.85" stroke="black" stroke-width="0.78" stroke-linecap="round" stroke-linejoin="round"/>
<path d="M129.02 276.54C131.19 273.39 129.34 268.69 126.79 265.78C123.96 262.57 119.83 260.34 115.65 259.64C113.34 259.25 110.98 259.06 108.77 258.31C107.22 257.78 105.76 256.98 104.16 256.61C102.56 256.24 100.7 256.42 99.56 257.59C98.71 258.46 98.4001 259.74 98.4301 260.95C98.4701 262.68 99.1901 264.44 100.54 265.52C101.13 265.99 101.88 266.27 102.66 266.36C103.68 266.49 104.75 266.3 105.6 265.81" stroke="black" stroke-width="0.78" stroke-linecap="round" stroke-linejoin="round"/>
<path d="M105.56 264.47C105.51 264.9 105.61 265.32 105.81 265.7C105.9 265.88 106.01 266.04 106.14 266.19C106.54 266.67 107.08 267.01 107.64 267.28C109.83 268.3 112.74 267.99 114.82 266.75C114.82 266.75 114.83 266.75 114.84 266.74" stroke="black" stroke-width="0.78" stroke-linecap="round" stroke-linejoin="round"/>
<path d="M114.23 272.31C113.27 270.87 111.69 269.87 109.98 269.61" stroke="black" stroke-width="0.78" stroke-linecap="round" stroke-linejoin="round"/>
<path d="M103.65 268.57C102.96 268.33 102.16 268.47 101.58 268.91" stroke="black" stroke-width="0.78" stroke-linecap="round" stroke-linejoin="round"/>
<path d="M104.11 273.96C103.7 274.38 103.32 274.84 103.12 275.38C102.92 275.93 102.91 276.57 103.23 277.06C103.55 277.55 104.22 277.82 104.75 277.57" stroke="black" stroke-width="0.78" stroke-linecap="round" stroke-linejoin="round"/>
<path d="M100.65 271.72C100.6 272.3 101.03 272.82 101.61 272.87C102.19 272.92 102.71 272.49 102.76 271.91C102.81 271.33 102.38 270.81 101.8 270.76C101.22 270.71 100.7 271.14 100.65 271.72Z" fill="black"/>
<path d="M103.68 281.21C103.94 282.59 104.96 284.04 106.33 284.38C107.69 284.72 109.23 284.2 110.11 283.11C110.99 282.02 111.17 280.41 110.55 279.15C110 280.3 108.59 281.19 107.35 281.47C106.32 281.7 105.1 281.67 103.69 281.21H103.68Z" fill="black"/>
<path d="M108.74 274.06C108.69 274.64 109.12 275.16 109.7 275.21C110.28 275.26 110.8 274.83 110.85 274.25C110.9 273.67 110.47 273.15 109.89 273.1C109.31 273.05 108.79 273.48 108.74 274.06Z" fill="black"/>
<path d="M125.71 274.23C125.2 273.96 124.81 273.47 124.66 272.91" stroke="black" stroke-width="0.78" stroke-linecap="round" stroke-linejoin="round"/>
<path d="M124.62 282.81C123.97 285.85 123.83 290.36 124.13 294.32C124.25 295.88 124.44 297.16 124.59 298.38" stroke="black" stroke-width="0.78" stroke-linecap="round" stroke-linejoin="round"/>
<path d="M111.36 291.14C111.39 292.12 111.42 293.05 111.45 294.44C111.48 295.92 111.51 297.42 111.54 298.51C111.54 298.55 111.54 298.59 111.54 298.63" stroke="black" stroke-width="0.78" stroke-linecap="round" stroke-linejoin="round"/>
<path d="M124.39 298.33C123.77 299.12 122.98 299.78 122.1 300.25C121.99 300.31 121.88 300.36 121.76 300.34C121.66 300.32 121.58 300.25 121.5 300.19C119.95 298.81 118.63 297.16 117.62 295.34C116.64 297.07 115.74 298.79 114.17 300C114.11 300.04 114.05 300.08 113.98 300.09C113.91 300.09 113.84 300.05 113.77 300.01C113.08 299.56 112.4 299.12 111.71 298.67" stroke="white" stroke-width="0.78" stroke-linecap="round" stroke-linejoin="round"/>
<path d="M167.39 331.94C167.34 333.08 167.44 334.24 167.68 335.36" stroke="white" stroke-width="0.78" stroke-linecap="round" stroke-linejoin="round"/>
<path d="M48.6701 314.59C48.1701 316.13 47.9801 317.77 48.1101 319.38" stroke="white" stroke-width="0.78" stroke-linecap="round" stroke-linejoin="round"/>
<path d="M117.59 295.93C118.24 314.84 118.89 333.74 119.54 352.65" stroke="white" stroke-width="0.78" stroke-linecap="round" stroke-linejoin="round"/>
<path d="M118.67 398.1C116.53 396.96 114.65 395.32 113.22 393.36" stroke="white" stroke-width="0.78" stroke-linecap="round" stroke-linejoin="round"/>
<path d="M177.25 408.25L170.75 455.89C170.66 456.73 170.32 457.51 169.77 458.15C169.1 458.93 168.16 459.94 167.34 460.64C166.52 461.34 166 462.42 165.94 463.53L163.28 532.12C162.64 535.37 70.35 535.37 69.71 532.12L67.05 463.53C66.99 462.42 66.5 461.37 65.65 460.64C64.8 459.91 63.88 458.92 63.21 458.14C62.66 457.5 62.32 456.72 62.23 455.88L55.73 408.24H177.23L177.25 408.25Z" stroke="white" stroke-width="2"/>
<path d="M55.75 407.3C55.75 407.3 76.52 409.21 116.5 409.21C156.48 409.21 177.25 407.3 177.25 407.3" stroke="white" stroke-width="10" stroke-linecap="round" stroke-linejoin="round"/>
<path d="M80.05 408.25C80.05 416.86 74.62 423.83 67.9 423.83C61.18 423.83 55.75 416.86 55.75 408.25" stroke="white" stroke-width="2"/>
<path d="M104.35 408.25C104.35 416.86 98.92 423.83 92.2 423.83C85.48 423.83 80.05 416.86 80.05 408.25" stroke="white" stroke-width="2"/>
<path d="M128.65 408.25C128.65 416.86 123.22 423.83 116.5 423.83C109.78 423.83 104.35 416.86 104.35 408.25" stroke="white" stroke-width="2"/>
<path d="M152.95 408.25C152.95 416.86 147.52 423.83 140.8 423.83C134.08 423.83 128.65 416.86 128.65 408.25" stroke="white" stroke-width="2"/>
<path d="M177.25 408.25C177.25 416.86 171.82 423.83 165.1 423.83C158.38 423.83 152.95 416.86 152.95 408.25" stroke="white" stroke-width="2"/>
</svg>
