<svg width="354" height="236" viewBox="0 0 354 236" fill="none" xmlns="http://www.w3.org/2000/svg">
    <path d="M347.44 30.9093L348.04 30.8793C352.68 38.0593 350.45 46.6093 346.8 53.7993L347.58 53.7093C351.64 62.7793 346.17 72.3493 340.47 79.2493C340.14 79.6493 339.8 80.0493 339.46 80.4493L339.58 80.5593C339.65 90.6093 333.28 99.8293 325.16 105.759C322.01 108.059 318.92 109.989 315.64 111.669L315.72 111.829C312.04 117.069 306.92 121.189 301.13 123.889C294.6 132.089 284.64 137.339 274.26 138.549V138.639C265.71 144.349 255.64 145.399 245.36 144.839C235.09 144.279 220.6 136.449 212.71 129.839L228.63 102.669C239.6 92.7193 254.5 88.6793 268.14 82.9093C297.03 70.6793 321.97 49.2993 338.48 22.6193C339.21 21.4393 340 20.1793 341.29 19.6293C343.06 18.8793 345.2 19.8693 346.3 21.4393C347.4 23.0093 347.66 25.0193 347.68 26.9493C347.69 28.2793 347.61 29.6093 347.43 30.9293L347.44 30.9093Z"
          fill="white"/>
    <path d="M348.05 30.8894C352.69 38.0694 350.46 46.6194 346.81 53.8094C346.06 55.2894 345.25 56.7194 344.42 58.0594C339.6 65.9294 333.37 72.9194 326.15 78.6694C322.08 81.9094 317.7 84.7594 313.08 87.1394"
          stroke="black" stroke-width="0.78" stroke-linecap="round" stroke-linejoin="round"/>
    <path d="M347.58 53.7092C351.64 62.7792 346.17 72.3492 340.47 79.2492C340.14 79.6492 339.8 80.0492 339.46 80.4492C333.72 87.1192 326.84 92.7992 319.24 97.2292C314.69 99.8892 309.87 102.089 304.88 103.799"
          stroke="black" stroke-width="0.78" stroke-linecap="round" stroke-linejoin="round"/>
    <path d="M339.59 80.5593C339.66 90.6093 333.29 99.8293 325.17 105.759C322.02 108.059 318.93 109.989 315.65 111.669C310.47 114.309 304.83 116.299 297.76 118.029"
          stroke="black" stroke-width="0.78" stroke-linecap="round" stroke-linejoin="round"/>
    <path d="M274.28 138.629C265.72 144.339 255.65 145.389 245.37 144.829C235.1 144.269 220.61 136.439 212.72 129.829L228.64 102.659C239.61 92.7093 254.51 88.6693 268.15 82.8993C297.04 70.6693 321.98 49.2893 338.49 22.6093C339.22 21.4293 340.01 20.1693 341.3 19.6193C343.07 18.8693 345.21 19.8593 346.31 21.4293C347.41 22.9993 347.67 25.0093 347.69 26.9393C347.7 28.2693 347.62 29.5993 347.44 30.9193C346.69 36.6193 344.26 42.0793 341.07 46.8993C337.14 52.8293 332.09 57.9093 327.06 62.9493"
          stroke="black" stroke-width="0.78" stroke-linecap="round" stroke-linejoin="round"/>
    <path d="M262.05 138.029C266.07 138.859 270.2 139.009 274.27 138.539C284.66 137.329 294.62 132.079 301.14 123.879"
          stroke="black" stroke-width="0.78" stroke-linecap="round" stroke-linejoin="round"/>
    <path d="M275.87 126.449C284.25 128.639 293.31 127.549 301.14 123.879C306.93 121.179 312.05 117.059 315.73 111.819"
          stroke="black" stroke-width="0.78" stroke-linecap="round" stroke-linejoin="round"/>
    <path d="M35.2701 13.4095L34.6201 13.3895C29.7301 21.1095 32.2101 30.2195 36.1701 37.8695L35.3401 37.7795C31.1001 47.5195 37.0301 57.6895 43.2001 65.0095C43.5601 65.4295 43.9201 65.8595 44.2901 66.2695L44.1601 66.3895C44.1901 77.1295 51.0901 86.9195 59.8201 93.1895C63.2001 95.6195 66.5301 97.6495 70.0501 99.4095L69.9701 99.5795C73.9601 105.149 79.4701 109.489 85.6901 112.329C92.7501 121.039 103.45 126.539 114.56 127.729V127.819C123.76 133.829 133.54 135.819 144.52 135.119C155.49 134.419 162.79 129.189 171.16 122.049L171.25 106.649C167.69 88.1395 135.18 74.2195 120.54 68.1795C89.5301 55.3895 62.6601 32.7995 44.7501 4.43948C43.9601 3.17948 43.0901 1.83948 41.7201 1.26948C39.8201 0.489479 37.5401 1.55948 36.3801 3.25948C35.2201 4.95948 34.9601 7.10948 34.9601 9.15948C34.9601 10.5895 35.0601 11.9995 35.2601 13.4095H35.2701Z"
          fill="white"/>
    <path d="M34.6298 13.3794C29.7398 21.0994 32.2198 30.2094 36.1798 37.8594C36.9998 39.4394 37.8798 40.9494 38.7698 42.3794C43.9998 50.7394 50.7298 58.1594 58.4998 64.2294C62.8798 67.6494 67.5898 70.6494 72.5498 73.1594"
          stroke="black" stroke-width="0.78" stroke-linecap="round" stroke-linejoin="round"/>
    <path d="M35.3497 37.7795C31.1097 47.5195 37.0397 57.6895 43.2097 65.0095C43.5697 65.4295 43.9297 65.8595 44.2997 66.2695C50.5097 73.3395 57.9197 79.3495 66.0897 84.0095C70.9797 86.7995 76.1497 89.1095 81.4997 90.8895"
          stroke="black" stroke-width="0.78" stroke-linecap="round" stroke-linejoin="round"/>
    <path d="M44.1597 66.3894C44.1897 77.1294 51.0897 86.9194 59.8197 93.1894C63.1997 95.6194 66.5297 97.6494 70.0497 99.4094C75.6097 102.179 81.6597 104.249 89.2297 106.029"
          stroke="black" stroke-width="0.78" stroke-linecap="round" stroke-linejoin="round"/>
    <path d="M114.56 127.809C123.77 133.819 133.56 135.809 144.53 135.109C155.5 134.409 162.8 129.179 171.17 122.039L171.26 106.639C167.7 88.1295 135.19 74.2095 120.55 68.1695C89.5397 55.3795 62.6697 32.7895 44.7597 4.42947C43.9697 3.16947 43.0997 1.82947 41.7297 1.25947C39.8297 0.479469 37.5497 1.54947 36.3897 3.24947C35.2297 4.94947 34.9697 7.09947 34.9697 9.14947C34.9697 10.5795 35.0697 11.9895 35.2697 13.3995C36.1297 19.4795 38.7797 25.2995 42.2397 30.4195C46.4997 36.7195 51.9597 42.0995 57.3697 47.4395"
          stroke="black" stroke-width="0.78" stroke-linecap="round" stroke-linejoin="round"/>
    <path d="M127.62 127.06C123.33 127.99 118.92 128.19 114.57 127.72C103.45 126.53 92.7597 121.03 85.6997 112.32"
          stroke="black" stroke-width="0.78" stroke-linecap="round" stroke-linejoin="round"/>
    <path d="M112.73 114.81C103.8 117.23 94.1 116.16 85.7 112.32C79.48 109.49 73.96 105.14 69.98 99.5696" stroke="black"
          stroke-width="0.78" stroke-linecap="round" stroke-linejoin="round"/>
    <path d="M324.7 57.2894L325.13 57.0794C325.7 55.3094 326.27 53.5394 326.84 51.7694C327.06 51.0794 327.35 50.3194 328 50.0094C328.87 49.6094 329.87 50.2394 330.5 50.9494C334.91 55.9794 330.29 66.5394 330.29 66.5394C328.2 71.1494 324.44 74.9794 319.88 77.1694C311.47 88.4794 299.56 96.8094 286.81 102.789C274.05 108.759 259.81 112.739 246.17 116.269L246.03 116.239C247.36 109.249 246.11 102.569 243.63 95.7494L244.06 95.5894C249.62 95.4494 253.99 95.6694 259.43 95.0394C277.44 92.9694 294.69 83.7394 309.39 73.5294C311.13 72.3194 312.84 71.0694 314.53 69.7894L314.74 69.4994C317.72 66.2994 320.17 62.5994 321.94 58.5994C322.18 58.0694 322.41 57.5294 322.84 57.1394C323.27 56.7494 323.96 56.5994 324.42 56.9394C324.54 57.0294 324.63 57.1394 324.7 57.2594V57.2894Z"
          fill="white"/>
    <path d="M199.85 80.2095C199.83 80.7995 199.55 81.3695 199.1 81.7495V81.7795C197.79 82.2695 196.77 83.4695 196.48 84.8395L196.35 84.8095C193.53 82.1695 194.32 77.1395 196.21 73.7295C198.81 69.0195 203.65 66.8595 207.25 63.1595C208.22 62.1595 209.31 61.2095 210.63 60.7495C211.95 60.2895 213.56 60.4395 214.54 61.4295C215.01 61.8995 215.32 62.5395 215.88 62.8895C217.32 63.7895 219.18 62.2595 220.85 62.5595C222.04 62.7695 222.92 63.9595 222.96 65.1695C223 66.3795 222.33 67.5495 221.37 68.2895C221.02 68.5695 220.58 68.8195 220.1 69.0295C219.29 69.3795 218.37 69.5595 217.54 69.4395C217.22 70.0595 216.72 70.5595 216.17 70.9795C214.03 72.6295 210.77 72.9695 208.21 72.1195C208.06 74.3295 207.05 76.4795 205.41 77.9695C203.9 79.3395 201.88 80.1295 199.84 80.1995L199.85 80.2095Z"
          fill="white"/>
    <path d="M211.27 95.1993L211.31 95.5193C211.49 96.4693 211.67 97.4293 211.85 98.3793L211.98 98.3593C213.64 99.1093 215.52 99.3493 217.32 99.0393L217.47 99.0693C216.78 102.469 214.1 105.349 210.83 106.579C207.38 107.879 203.42 107.469 200.1 105.869C197.47 104.599 195.16 102.629 193.51 100.119L193.65 100.029C198.31 99.3993 201.39 94.4493 201.35 89.9993L201.29 89.6893C200.44 89.8493 199.55 89.7493 198.77 89.3893C197.29 88.6893 196.31 87.0393 196.41 85.4093C196.42 85.2093 196.45 85.0193 196.49 84.8293C196.78 83.4593 197.8 82.2593 199.12 81.7693V81.7393C199.56 81.3693 199.84 80.7993 199.86 80.2093C201.9 80.1393 203.92 79.3493 205.43 77.9793C207.07 76.4893 208.08 74.3393 208.23 72.1293C210.79 72.9893 214.05 72.6393 216.19 70.9893C216.74 70.5593 217.25 70.0593 217.56 69.4493C218.39 69.5693 219.31 69.3793 220.12 69.0393L220.15 69.1093C221.17 70.1893 221.9 71.2593 222.64 72.5493C226.69 79.6593 228.07 89.3793 219.83 94.1393C217.18 95.6793 214.11 95.9393 211.27 95.1993ZM223.34 74.0893C223.16 73.5293 222.56 73.2093 222 73.3893C221.44 73.5693 221.13 74.1693 221.31 74.7293C221.49 75.2893 222.09 75.5993 222.65 75.4293C223.21 75.2593 223.53 74.6493 223.35 74.0893H223.34ZM220.42 87.5393C221.69 86.9093 222.38 85.2493 222.34 83.8393C221.05 84.5993 219.86 84.8993 218.79 84.8893C217.5 84.8893 215.92 84.3093 215.13 83.2893C214.79 84.6693 215.32 86.2093 216.42 87.0993C217.52 87.9893 219.15 88.1593 220.42 87.5293V87.5393ZM215.88 78.1593C215.7 77.5993 215.1 77.2793 214.54 77.4593C213.98 77.6393 213.67 78.2393 213.85 78.7993C214.03 79.3593 214.63 79.6693 215.19 79.4993C215.75 79.3293 216.07 78.7193 215.89 78.1593H215.88Z"
          fill="white"/>
    <path d="M221.99 73.3993C222.55 73.2193 223.16 73.5293 223.33 74.0993C223.5 74.6693 223.2 75.2593 222.63 75.4393C222.06 75.6193 221.47 75.3093 221.29 74.7393C221.11 74.1693 221.42 73.5693 221.98 73.3993H221.99Z"
          fill="black"/>
    <path d="M222.33 83.8393C222.37 85.2493 221.68 86.9093 220.41 87.5393C219.14 88.1693 217.51 87.9893 216.41 87.1093C215.31 86.2193 214.78 84.6693 215.12 83.2993C215.92 84.3193 217.49 84.8893 218.78 84.8993C219.84 84.8993 221.04 84.6093 222.33 83.8493V83.8393Z"
          fill="black"/>
    <path d="M214.53 77.4693C215.09 77.2893 215.7 77.5993 215.87 78.1693C216.04 78.7393 215.74 79.3293 215.17 79.5093C214.6 79.6893 214.01 79.3793 213.83 78.8093C213.65 78.2493 213.96 77.6393 214.52 77.4693H214.53Z"
          fill="black"/>
    <path d="M123.47 202.239C115.04 206.989 107.35 211.089 101.95 213.919C97.1098 216.449 91.2498 216.039 86.8298 212.829C63.0698 195.529 41.0598 175.809 21.2798 154.069L24.7798 150.609L35.0398 140.449L38.4398 137.079C55.2798 148.909 73.0998 159.359 91.6398 168.299C93.7298 169.309 95.8198 170.289 97.9198 171.259C97.9198 171.259 106.32 163.459 117.02 155.399C124.05 150.099 132.08 144.679 139.37 141.289C140.65 144.119 144.41 150.309 153.95 154.239C160.57 156.959 167.77 157.869 174.84 158.999C181.91 160.129 189.1 161.559 195.27 165.179C196.28 165.769 197.37 166.299 198.48 166.699C186.99 179.249 180.5 184.629 167.29 195.359C163.95 198.079 160.56 200.729 157.12 203.309C156.53 203.749 155.58 204.449 154.53 205.209C151.17 207.649 146.92 208.529 142.86 207.619C136.44 206.189 127 203.919 123.47 202.239Z"
          fill="black"/>
    <path d="M72.3198 68.4891L72.3698 68.3991C93.9598 78.4191 116.07 88.5791 139.76 90.8691C144.07 91.2891 148.38 91.4391 152.71 91.5291C153.37 95.4691 155.17 108.199 152.48 115.819L153.58 114.689C123.55 108.409 93.5998 97.4691 68.0398 80.4991L67.7098 80.3291C65.6998 79.7591 63.8598 78.3991 62.5198 76.6791L62.4598 76.7291C57.7398 71.6791 56.0598 64.4591 55.1898 57.6091C54.9998 56.1491 54.8198 54.6291 55.2598 53.2191C55.6998 51.8091 56.9298 50.5291 58.3998 50.5391C59.7598 50.5391 60.8898 51.5891 61.7098 52.6791C63.6998 55.2991 64.7998 58.4491 66.2198 61.4091C67.5598 64.2191 69.6098 66.9491 72.3198 68.4791V68.4891Z"
          fill="white"/>
    <path d="M116.89 155.22L117.03 155.4C106.33 163.46 97.9298 171.26 97.9298 171.26C95.8298 170.29 93.7298 169.31 91.6498 168.3V168.27C83.7798 158.87 76.7898 148.72 70.8198 138.01L74.4298 134.52L83.7698 125.5L85.2198 124.1C93.9898 136.54 103.99 147.15 116.9 155.22H116.89Z"
          fill="black"/>
    <path d="M65.9601 125.079L65.9301 125.109C63.9001 126.019 62.0201 127.239 60.0601 128.329C58.1001 129.419 56.0401 130.369 53.8401 130.689C52.2401 130.929 48.9801 130.429 46.6001 128.569L46.7101 128.429L71.6401 108.329C73.9101 111.869 81.4301 121.899 83.7001 125.429L83.7701 125.509L74.4301 134.529L74.1301 134.219C72.7801 132.679 67.3101 126.629 65.9701 125.089L65.9601 125.079Z"
          fill="white"/>
    <path d="M69.7702 105.399L71.6402 108.309L46.7102 128.409L46.6002 128.549C45.7102 127.859 44.9402 126.979 44.4302 125.869L69.7702 105.389V105.399Z"
          fill="black"/>
    <path d="M13.6202 141.979L13.5902 142.019C11.5302 143.449 9.71021 145.189 7.78021 146.789C5.85021 148.389 3.78022 149.879 1.41022 150.699C-0.319785 151.299 -4.00979 151.429 -7.02979 149.869L-6.92979 149.689L16.3902 122.289C19.6402 125.719 31.6402 136.859 34.8902 140.289L35.0502 140.449L24.7902 150.599L24.5402 150.349C22.7302 148.929 15.4302 143.389 13.6202 141.979Z"
          fill="white"/>
    <path d="M13.71 119.459L16.38 122.289L-6.94 149.689L-7.04 149.869C-8.17 149.289 -9.2 148.479 -10 147.359L13.7 119.459H13.71Z"
          fill="black"/>
    <path d="M205 91.3494C206.67 93.2394 208.89 94.5794 211.27 95.1994C214.11 95.9394 217.18 95.6694 219.83 94.1394C228.07 89.3794 226.69 79.6594 222.64 72.5494C221.9 71.2594 221.17 70.1894 220.15 69.1094"
          stroke="black" stroke-width="0.78" stroke-linecap="round" stroke-linejoin="round"/>
    <path d="M208.21 70.8494C208.25 71.2794 208.25 71.6994 208.22 72.1294C208.07 74.3394 207.06 76.4894 205.42 77.9794C203.91 79.3494 201.89 80.1394 199.85 80.2094C199.25 80.2294 198.64 80.1894 198.05 80.0794"
          stroke="black" stroke-width="0.78" stroke-linecap="round" stroke-linejoin="round"/>
    <path d="M199.22 81.7292C199.22 81.7292 199.15 81.7592 199.11 81.7692C197.79 82.2592 196.78 83.4592 196.48 84.8292C196.44 85.0192 196.41 85.2192 196.4 85.4092C196.3 87.0392 197.28 88.6893 198.76 89.3893C199.54 89.7593 200.43 89.8492 201.28 89.6892C202.04 89.5492 202.77 89.2092 203.34 88.6792"
          stroke="black" stroke-width="0.78" stroke-linecap="round" stroke-linejoin="round"/>
    <path d="M211.3 95.5193C211.48 96.4693 211.66 97.4293 211.84 98.3793L212.45 101.629" stroke="black"
          stroke-width="0.78" stroke-linecap="round" stroke-linejoin="round"/>
    <path d="M244.06 95.5993C249.62 95.4593 253.99 95.6793 259.43 95.0493C277.44 92.9793 294.69 83.7493 309.39 73.5393C311.13 72.3293 312.84 71.0793 314.53 69.7993"
          stroke="black" stroke-width="0.78" stroke-linecap="round" stroke-linejoin="round"/>
    <path d="M198.49 166.699C187 179.249 180.51 184.629 167.3 195.359C163.96 198.079 160.57 200.729 157.13 203.309C156.54 203.749 155.59 204.449 154.54 205.209C151.18 207.649 146.93 208.529 142.87 207.619C136.45 206.189 127.01 203.919 123.48 202.239"
          stroke="black" stroke-width="0.78" stroke-linecap="round" stroke-linejoin="round"/>
    <path d="M168.14 173.149C157.37 182.349 139.15 193.409 123.47 202.239C115.04 206.989 107.35 211.089 101.95 213.919C97.1098 216.449 91.2498 216.039 86.8298 212.829C63.0698 195.529 41.0598 175.809 21.2798 154.069L24.7798 150.609L35.0398 140.449L38.4398 137.079C55.2798 148.909 73.0998 159.359 91.6398 168.299C93.7298 169.309 95.8198 170.289 97.9198 171.259C97.9198 171.259 106.32 163.459 117.02 155.399C124.05 150.099 132.08 144.679 139.37 141.289"
          stroke="black" stroke-width="0.78" stroke-linecap="round" stroke-linejoin="round"/>
    <path d="M91.6596 168.269C83.7796 158.869 76.7896 148.719 70.8096 138.009L74.4196 134.519L83.7596 125.499L85.2096 124.099C93.9796 136.539 103.98 147.149 116.89 155.219"
          stroke="black" stroke-width="0.78" stroke-linecap="round" stroke-linejoin="round"/>
    <path d="M201.35 90.0093C201.4 94.4593 198.31 99.4093 193.65 100.039" stroke="black" stroke-width="0.78"
          stroke-linecap="round" stroke-linejoin="round"/>
    <path d="M72.3696 68.3994C93.9596 78.4194 116.07 88.5794 139.76 90.8694C144.07 91.2894 148.38 91.4394 152.71 91.5294C152.72 91.5294 152.74 91.5294 152.75 91.5294"
          stroke="black" stroke-width="0.78" stroke-linecap="round" stroke-linejoin="round"/>
    <path d="M211.97 98.3594C213.63 99.1094 215.51 99.3494 217.31 99.0394" stroke="black" stroke-width="0.78"
          stroke-linecap="round" stroke-linejoin="round"/>
    <path d="M68.0498 80.4993C93.5998 97.4693 123.22 108.519 153.25 114.799" stroke="black" stroke-width="0.78"
          stroke-linecap="round" stroke-linejoin="round"/>
    <path d="M246.17 116.279C259.81 112.749 274.05 108.769 286.81 102.799C299.57 96.8194 311.48 88.4894 319.88 77.1794"
          stroke="black" stroke-width="0.78" stroke-linecap="round" stroke-linejoin="round"/>
    <path d="M24.5299 150.359C22.7199 148.939 15.4199 143.399 13.6099 141.989" stroke="black" stroke-width="0.78"
          stroke-linecap="round" stroke-linejoin="round"/>
    <path d="M14.8196 135.059C15.1596 137.419 14.7396 139.879 13.6196 141.979" stroke="black" stroke-width="0.78"
          stroke-linecap="round" stroke-linejoin="round"/>
    <path d="M16.3799 122.289C19.6299 125.719 31.6299 136.859 34.8799 140.289" stroke="black" stroke-width="0.78"
          stroke-linecap="round" stroke-linejoin="round"/>
    <path d="M13.5898 142.019C11.5298 143.449 9.70977 145.189 7.77977 146.789C5.84977 148.389 3.77977 149.879 1.40977 150.699C-0.320235 151.299 -4.01023 151.429 -7.03023 149.869C-8.16023 149.289 -9.19023 148.479 -9.99023 147.359"
          stroke="black" stroke-width="0.78" stroke-linecap="round" stroke-linejoin="round"/>
    <path d="M-9.99023 147.359L13.7098 119.459L16.3798 122.289L-6.94023 149.689" stroke="black" stroke-width="0.78"
          stroke-linecap="round" stroke-linejoin="round"/>
    <path d="M74.12 134.209C72.77 132.669 67.3 126.619 65.96 125.079" stroke="black" stroke-width="0.78"
          stroke-linecap="round" stroke-linejoin="round"/>
    <path d="M68.15 119.219C68.06 121.339 67.28 123.419 65.96 125.079" stroke="black" stroke-width="0.78"
          stroke-linecap="round" stroke-linejoin="round"/>
    <path d="M71.6299 108.319C73.8999 111.859 81.4199 121.889 83.6899 125.419" stroke="black" stroke-width="0.78"
          stroke-linecap="round" stroke-linejoin="round"/>
    <path d="M65.9199 125.109C63.8899 126.019 62.0099 127.239 60.0499 128.329C58.0899 129.419 56.0299 130.369 53.8299 130.689C52.2299 130.929 48.9699 130.429 46.5899 128.569C45.6999 127.879 44.9299 126.999 44.4199 125.889"
          stroke="black" stroke-width="0.78" stroke-linecap="round" stroke-linejoin="round"/>
    <path d="M44.4199 125.889L69.7699 105.399L71.6299 108.319L46.7099 128.419" stroke="black" stroke-width="0.78"
          stroke-linecap="round" stroke-linejoin="round"/>
    <path d="M196.35 84.8092C193.53 82.1692 194.32 77.1392 196.21 73.7292C198.81 69.0192 203.65 66.8592 207.25 63.1592C208.22 62.1592 209.31 61.2092 210.63 60.7492C211.95 60.2892 213.56 60.4392 214.54 61.4292C215.01 61.8992 215.32 62.5392 215.88 62.8892C217.32 63.7892 219.18 62.2592 220.85 62.5592C222.04 62.7692 222.92 63.9592 222.96 65.1692C223 66.3792 222.33 67.5492 221.37 68.2892C221.02 68.5692 220.58 68.8192 220.1 69.0292C219.29 69.3792 218.37 69.5592 217.54 69.4392"
          stroke="black" stroke-width="0.78" stroke-linecap="round" stroke-linejoin="round"/>
    <path d="M217.77 67.4395C217.99 68.0995 217.88 68.8395 217.56 69.4495C217.24 70.0695 216.74 70.5695 216.19 70.9895C214.05 72.6395 210.79 72.9795 208.23 72.1295"
          stroke="black" stroke-width="0.78" stroke-linecap="round" stroke-linejoin="round"/>
    <path d="M210 77.3593C210.63 75.7293 211.97 74.3993 213.6 73.7693" stroke="black" stroke-width="0.78"
          stroke-linecap="round" stroke-linejoin="round"/>
    <path d="M219.61 71.3793C220.24 70.9993 221.06 70.9593 221.72 71.2693" stroke="black" stroke-width="0.78"
          stroke-linecap="round" stroke-linejoin="round"/>
    <path d="M221.61 77.9692C221.93 78.4592 222.07 79.0892 221.87 79.6492C221.67 80.1992 221.06 80.6092 220.49 80.4792"
          stroke="black" stroke-width="0.78" stroke-linecap="round" stroke-linejoin="round"/>
    <path d="M199.1 81.7392C199.55 81.3692 199.83 80.7992 199.85 80.2092" stroke="black" stroke-width="0.78"
          stroke-linecap="round" stroke-linejoin="round"/>
    <path d="M67.9998 80.4694C65.9898 79.8994 64.1498 78.5394 62.8098 76.8194C62.1698 75.9994 61.6498 75.1094 61.2798 74.1794C60.0598 71.1394 58.6098 61.7394 58.7798 60.5294C58.9598 59.3294 59.7698 58.3594 60.6498 58.7994C62.2998 59.6294 62.2498 62.4494 63.2098 63.8194C63.7898 64.6394 64.5698 65.2794 65.2898 65.9794C66.0098 66.6794 66.6898 67.4694 66.9598 68.4294"
          stroke="black" stroke-width="0.78" stroke-linecap="round" stroke-linejoin="round"/>
    <path d="M62.2299 61.1492C61.5799 58.5092 61.1399 55.4892 60.4999 52.8492C60.3199 52.0992 59.3699 49.5992 60.6299 49.3892C61.4299 49.2592 62.0799 50.9992 62.3899 51.5892C62.9399 52.6392 63.4099 53.7292 63.8699 54.8292C64.7499 56.9492 65.4999 59.1292 66.4399 61.2192C67.8199 64.2892 69.6499 67.0292 72.6599 68.5392"
          stroke="black" stroke-width="0.78" stroke-linecap="round" stroke-linejoin="round"/>
    <path d="M60.0596 49.4194C59.9396 49.1094 59.7996 48.7894 59.5696 48.5494C59.3396 48.3094 58.9596 48.1694 58.6496 48.2994C58.1996 48.4894 58.1196 49.0794 58.1196 49.5694C58.1196 52.9894 58.6596 55.3794 59.2296 58.7594"
          stroke="black" stroke-width="0.78" stroke-linecap="round" stroke-linejoin="round"/>
    <path d="M58.0597 50.7292C57.9997 50.3792 57.9397 50.0292 57.7497 49.7392C57.5597 49.4492 57.1997 49.2292 56.8597 49.3192C56.5897 49.3892 56.3797 49.6392 56.2997 49.8992C56.2197 50.1592 56.2197 50.4592 56.2197 50.7392C56.2397 54.1592 56.8997 57.5492 57.5097 61.1092"
          stroke="black" stroke-width="0.78" stroke-linecap="round" stroke-linejoin="round"/>
    <path d="M55.9597 52.7893C55.5297 52.8993 55.2097 53.2993 55.0797 53.7193C54.9497 54.1393 54.9597 54.6093 54.9897 55.0493C55.1697 58.3593 55.7597 61.6393 56.5097 64.8693C57.1997 67.8593 57.8897 70.7293 59.5597 73.3493C60.0797 74.1693 60.7497 75.3093 62.9997 77.0593"
          stroke="black" stroke-width="0.78" stroke-linecap="round" stroke-linejoin="round"/>
    <path d="M314.65 69.6692C317.63 66.4692 320.08 62.7692 321.85 58.7692C322.09 58.2392 322.32 57.6992 322.75 57.3092C323.18 56.9192 323.87 56.7692 324.33 57.1092C324.45 57.1992 324.54 57.3092 324.61 57.4292C324.85 57.8592 324.81 58.4592 324.74 58.9792C324.56 60.2892 324.06 61.7392 324.14 63.0592C324.25 64.8492 324.66 66.3292 324.16 68.1292C323.62 70.0892 322.4 71.8492 320.76 73.0492"
          stroke="black" stroke-width="0.78" stroke-linecap="round" stroke-linejoin="round"/>
    <path d="M324.87 58.1693C325.06 56.3693 325.4 53.1793 325.86 51.5193C325.93 51.2593 326.03 50.9593 326.28 50.8393C326.57 50.6993 326.93 50.8793 327.1 51.1593C327.27 51.4393 327.28 51.7693 327.29 52.0893C327.37 54.8293 327.19 58.8793 326.66 61.5593"
          stroke="black" stroke-width="0.78" stroke-linecap="round" stroke-linejoin="round"/>
    <path d="M326.94 50.8693C326.88 50.0593 327.09 49.2293 327.53 48.5493C327.65 48.3593 327.81 48.1593 328.03 48.1093C328.31 48.0293 328.62 48.2193 328.77 48.4693C328.92 48.7193 328.97 49.0193 329 49.3193C329.37 52.4493 329.38 56.9393 328.97 60.0593"
          stroke="black" stroke-width="0.78" stroke-linecap="round" stroke-linejoin="round"/>
    <path d="M329.19 51.1393C329.23 50.4693 329.25 49.9793 329.59 49.3493C329.72 49.0993 329.93 48.8293 330.25 48.7993C330.76 48.7493 330.98 49.3093 331.01 49.7293C331.24 52.6993 331.34 55.7393 331.03 58.7193"
          stroke="black" stroke-width="0.86" stroke-linecap="round" stroke-linejoin="round"/>
    <path d="M331.16 51.2493C332.07 50.6093 332.46 51.5793 332.51 51.8593C332.83 53.9893 332.6 57.4593 332.34 59.5893C331.87 63.3593 330.66 66.7993 328.45 69.8893C326.24 72.9793 323.29 75.8293 319.8 77.3293"
          stroke="black" stroke-width="0.86" stroke-linecap="round" stroke-linejoin="round"/>
    <path d="M208.25 72.2093C208.1 74.4193 207.09 76.5693 205.45 78.0593C203.94 79.4293 201.92 80.2193 199.88 80.2893C199.86 80.8793 199.58 81.4493 199.13 81.8293V81.8493C197.82 82.3393 196.8 83.5393 196.51 84.9093L196.38 84.8793C193.56 82.2493 194.35 77.2093 196.24 73.7993C198.84 69.0893 203.68 66.9293 207.28 63.2393C208.25 62.2393 209.34 61.2893 210.66 60.8293C211.98 60.3793 213.59 60.5193 214.57 61.5193C215.04 61.9893 215.35 62.6293 215.91 62.9793C217.35 63.8793 219.21 62.3493 220.88 62.6493C222.07 62.8593 222.95 64.0493 223 65.2693C223.05 66.4893 222.37 67.6493 221.41 68.3893C220.46 69.1393 218.89 69.7293 217.58 69.5393C217.26 70.1593 216.76 70.6593 216.21 71.0793C214.07 72.7193 210.81 73.0693 208.25 72.2193V72.2093Z"
          fill="black"/>
    <path d="M225.56 121.439C224.33 127.099 221.09 132.479 217.86 137.419C206.45 154.889 202.97 167.469 202.97 167.469C201.56 167.559 200.01 167.249 198.49 166.699C197.38 166.299 196.29 165.779 195.28 165.179C189.11 161.559 181.92 160.119 174.85 158.999C167.78 157.869 160.58 156.969 153.96 154.239C144.42 150.309 140.65 144.119 139.38 141.289C138.96 140.359 138.81 139.789 138.81 139.789C143.19 136.399 147.58 132.979 152.32 130.079C157.89 126.679 163.88 124.549 168.85 120.129L168.83 120.109C167.42 120.679 165.86 120.769 164.35 120.609C162.84 120.459 161.36 120.069 159.88 119.719C157.1 119.059 151.45 118.099 151.45 118.099C153.83 111.369 153.38 95.4593 152.72 91.5193C152.59 90.7493 152.51 90.3193 152.51 90.3193C157.89 90.4293 163.28 90.5293 168.64 90.8493C176.64 91.3293 185.18 94.0293 192.37 98.0293C192.7 98.7593 193.09 99.4593 193.53 100.109C195.17 102.619 197.49 104.589 200.12 105.859C203.44 107.459 207.4 107.869 210.85 106.569C214.11 105.329 216.8 102.459 217.49 99.0593C217.53 98.8693 217.56 98.6793 217.59 98.4893C226.34 95.4293 233.78 94.5593 243.12 94.3093C243.3 94.7893 243.48 95.2693 243.66 95.7493C246.14 102.569 247.39 109.249 246.06 116.239C245.9 117.089 245.7 117.939 245.46 118.799C245.54 118.799 235.28 122.409 225.6 121.429L225.56 121.439Z"
          fill="#19D3C5"/>
    <path d="M118.13 154.099C111.07 159.689 104.01 165.289 96.95 170.879C96.95 170.879 92.43 168.609 90.21 167.459"
          stroke="white" stroke-width="0.78" stroke-linecap="round" stroke-linejoin="round"/>
    <path d="M225.61 120.249C225.38 122.499 224.42 124.589 223.47 126.639" stroke="black" stroke-width="0.78"
          stroke-linecap="round" stroke-linejoin="round"/>
    <path d="M164.79 122.999C167 121.689 169.05 120.109 170.88 118.309" stroke="black" stroke-width="0.78"
          stroke-linecap="round" stroke-linejoin="round"/>
    <path d="M170.6 116.529C170.79 118.149 171.22 119.739 171.87 121.239" stroke="black" stroke-width="0.78"
          stroke-linecap="round" stroke-linejoin="round"/>
    <path d="M168.14 173.149C157.37 182.349 135.01 195.909 119.33 204.739" stroke="white" stroke-width="0.78"
          stroke-linecap="round" stroke-linejoin="round"/>
</svg>
