<svg width="360" height="461" viewBox="0 0 360 461" fill="none" xmlns="http://www.w3.org/2000/svg">
    <g clip-path="url(#clip0_974_4465)">
        <path d="M29.8699 315.16L5.18994 205.91" stroke="white" stroke-width="2"/>
        <path d="M79.7202 315.16L104.4 205.91" stroke="white" stroke-width="2"/>
        <path d="M55.03 239.06C84.8699 239.06 109.06 214.87 109.06 185.03C109.06 155.19 84.8699 131 55.03 131C25.1901 131 1 155.19 1 185.03C1 214.87 25.1901 239.06 55.03 239.06Z"
              fill="white" stroke="black" stroke-width="2"/>
        <path d="M55.0301 232.75C81.3851 232.75 102.75 211.385 102.75 185.03C102.75 158.675 81.3851 137.31 55.0301 137.31C28.675 137.31 7.31006 158.675 7.31006 185.03C7.31006 211.385 28.675 232.75 55.0301 232.75Z"
              fill="white" stroke="black" stroke-width="2"/>
        <path d="M52.8399 154.93C52.6399 154.97 52.4799 155.01 52.3299 155.04C48.8399 155.77 45.5799 157.04 42.7399 159.22C38.7199 162.31 36.4099 166.34 36.1999 171.47C36.0699 174.81 36.9099 177.87 38.9299 180.57C40.3499 182.47 42.1299 183.96 44.1099 185.22C47.0399 187.09 50.2299 188.4 53.5199 189.51C56.3099 190.45 59.0499 191.52 61.5499 193.12C64.6399 195.09 66.3999 197.79 66.2799 201.57C66.1999 204.05 65.3699 206.2 63.5899 207.96C61.9799 209.55 60.0099 210.47 57.8499 211.03C55.2099 211.71 52.5299 211.8 49.8199 211.57C45.9799 211.24 42.2999 210.29 38.8099 208.65C38.0599 208.3 37.3299 207.9 36.5499 207.5C35.6799 210.03 34.8099 212.54 33.9199 215.12C39.4699 218.19 45.4999 219.09 51.7299 219.28C51.6899 221.9 51.6499 224.5 51.6099 227.12H57.9199C57.9199 226.54 58.0099 219.05 58.0099 219.05C58.0099 219.05 66.5599 217.31 71.2299 212.49C75.8099 207.77 77.0399 202.13 75.4999 195.85C74.6899 192.53 72.6199 190 69.9699 187.92C67.4299 185.93 64.5799 184.5 61.6099 183.31C59.2699 182.37 56.8999 181.54 54.5599 180.59C52.5599 179.78 50.6399 178.79 48.9499 177.4C46.5599 175.43 45.6099 172.89 46.0099 169.85C46.3299 167.45 47.6399 165.65 49.5899 164.29C51.6399 162.86 53.9799 162.23 56.4399 162.03C60.8899 161.67 65.1999 162.36 69.3399 164.05C70.0399 164.34 70.7199 164.67 71.4199 164.99C72.3699 162.52 73.3099 160.08 74.2699 157.6C69.4899 155.14 64.3799 154.46 59.1399 154.36C59.1999 151.21 59.2499 148.1 59.2999 145.01H53.0199C52.9599 148.34 52.8999 151.62 52.8499 154.93H52.8399Z"
              fill="white" stroke="black" stroke-width="2"/>
        <path d="M57.2914 359.518L49.4058 357.624L48.0251 363.37L55.9107 365.265L57.2914 359.518Z" fill="white"
              stroke="black" stroke-width="0.78" stroke-linecap="round" stroke-linejoin="round"/>
        <path d="M64.4995 373.2L51.9695 370.19C51.5495 370.09 51.0495 370.05 50.7695 369.69C50.6195 369.5 50.5295 369.27 50.4395 369.05C50.4195 369 50.3795 368.95 50.3395 368.96C50.3195 368.96 50.2995 368.98 50.2795 369C50.1195 369.15 49.8695 369.51 49.6595 369.58C49.4695 369.65 49.1995 369.53 48.9995 369.48L46.4395 368.86C45.9795 368.75 45.6995 368.29 45.8095 367.83L46.0395 367.15L64.5295 371.59C64.5695 371.75 64.5995 371.92 64.6095 372.08C64.6295 372.45 64.5895 372.83 64.4995 373.19V373.2Z"
              fill="black" stroke="black" stroke-miterlimit="10"/>
        <path d="M64.3795 371.56L46.1895 367.19L47.6395 362.78L50.0795 363.37C51.0595 363.61 52.0495 363.83 53.0295 364.08C53.3495 364.16 53.6595 364.25 53.9595 364.3C54.4795 364.39 54.9695 364.35 55.4595 363.91C55.6395 363.74 55.7895 363.53 55.9795 363.37C56.1695 363.21 56.4195 363.09 56.6595 363.15C57.0395 363.24 57.1995 363.69 57.3195 364.07C57.4495 364.47 57.5995 364.85 57.7895 365.23C58.1195 365.9 58.5295 366.53 59.0295 367.1C59.9295 368.13 62.1195 368.82 63.2595 369.5C63.6795 369.75 64.2194 370.29 64.3395 370.48C64.5895 370.88 64.5395 371.29 64.3795 371.57V371.56Z"
              fill="white" stroke="black" stroke-width="0.78" stroke-linecap="round" stroke-linejoin="round"/>
        <path d="M50.2897 361.73H42.1797V367.64H50.2897V361.73Z" fill="white" stroke="black" stroke-width="0.78"
              stroke-linecap="round" stroke-linejoin="round"/>
        <path d="M60.4898 373.35H47.5998C47.1698 373.35 46.6798 373.43 46.3198 373.14C46.1298 372.99 45.9898 372.79 45.8498 372.59C45.8198 372.55 45.7698 372.5 45.7298 372.52C45.7098 372.52 45.6898 372.55 45.6798 372.57C45.5598 372.75 45.3998 373.16 45.2198 373.28C45.0498 373.39 44.7698 373.34 44.5598 373.34H41.9198C41.4498 373.34 41.0698 372.96 41.0698 372.49L41.1398 371.78H60.1598C60.2398 371.93 60.2998 372.08 60.3498 372.24C60.4598 372.6 60.4998 372.97 60.4998 373.34L60.4898 373.35Z"
              fill="black" stroke="black" stroke-miterlimit="10"/>
        <path d="M59.99 371.79H41.29L41.67 367.16H44.18C45.19 367.16 46.2 367.16 47.21 367.16C47.54 367.16 47.86 367.18 48.17 367.16C48.7 367.13 49.17 366.97 49.54 366.43C49.68 366.22 49.77 365.99 49.92 365.79C50.07 365.59 50.28 365.41 50.53 365.41C50.92 365.41 51.18 365.81 51.39 366.15C51.61 366.51 51.85 366.85 52.12 367.17C52.59 367.75 53.15 368.26 53.76 368.69C54.88 369.48 57.16 369.64 58.44 370.03C58.91 370.17 59.56 370.57 59.72 370.73C60.05 371.06 60.11 371.47 60.02 371.78L59.99 371.79Z"
              fill="white" stroke="black" stroke-width="0.78" stroke-linecap="round" stroke-linejoin="round"/>
        <path d="M51.0797 364.22L41.0697 363.63C40.9697 360.46 41.0297 357.79 40.9497 354.62C40.6297 342.61 39.6697 330.62 38.0697 318.72C37.3997 313.77 36.6197 308.79 36.7997 303.8C36.9797 298.8 38.1897 293.71 41.1497 289.68L57.9197 290.91C60.2697 299.34 62.6197 307.77 64.6997 316.27C65.5797 319.85 66.3997 323.47 66.4597 327.17C66.5197 330.73 65.3897 334.21 64.5297 337.67C62.7097 344.99 59.5197 355.55 57.2397 362.75L51.5897 360.95L51.0797 364.23V364.22Z"
              fill="black"/>
        <path d="M55.2098 304.77C56.6698 315.22 57.6398 323.69 56.1598 332.79C54.6798 341.89 53.1198 351.55 51.5898 360.93"
              stroke="white" stroke-width="0.78" stroke-linecap="round" stroke-linejoin="round"/>
        <path d="M35.6697 297.27C35.4597 297.16 35.0398 297.04 34.8298 297.2C34.7398 297.27 34.6797 297.37 34.6697 297.48C34.6497 297.74 34.9398 297.96 35.0898 298.13C35.4897 298.56 35.9398 298.96 36.4298 299.27C36.7898 299.5 37.2097 299.78 37.6597 299.72C37.8897 299.69 38.1298 299.51 38.1498 299.26C38.2898 299.33 38.4598 299.31 38.5798 299.21C38.6998 299.11 38.7698 298.94 38.7498 298.78C38.9198 298.8 39.0897 298.73 39.2097 298.61C39.2498 298.57 39.3698 298.36 39.3398 298.18C39.4998 298.21 39.7097 298.11 39.7997 297.97C39.9497 297.73 39.9498 297.39 39.9498 297.12C39.9398 296.31 39.8298 295.46 39.6298 294.68C39.4798 294.07 39.1097 293.67 38.5497 293.46C37.7297 293.15 36.9797 292.51 36.4197 291.82C33.7697 287.48 30.8898 283.28 28.1998 278.97C27.3998 277.7 27.1698 277.57 28.4398 276.76C29.0398 276.37 29.6297 275.97 30.2197 275.57C30.2197 275.57 29.7198 274.13 28.6098 272.29C27.5998 270.61 26.2997 269.41 26.2997 269.41C25.3698 270.34 24.4497 271.29 23.5497 272.25C22.0497 273.86 20.4598 275.89 20.7798 278.39C20.8998 279.37 21.7598 280.98 22.2398 281.83C25.2698 287.22 29.2298 289.68 33.4698 293.93C33.7598 294.14 34.1298 295.41 34.3098 295.74C34.3698 295.85 34.3898 295.98 34.4298 296.11C34.5798 296.6 34.9498 296.76 35.3098 297.02C35.7298 297.32 36.1798 297.57 36.6498 297.77"
              fill="white"/>
        <path d="M35.6697 297.27C35.4597 297.16 35.0398 297.04 34.8298 297.2C34.7398 297.27 34.6797 297.37 34.6697 297.48C34.6497 297.74 34.9398 297.96 35.0898 298.13C35.4898 298.56 35.9398 298.96 36.4298 299.27C36.7898 299.5 37.2097 299.78 37.6597 299.72C37.8897 299.69 38.1298 299.51 38.1498 299.26C38.2898 299.33 38.4598 299.31 38.5798 299.21C38.6998 299.11 38.7698 298.94 38.7498 298.78C38.9198 298.8 39.0897 298.73 39.2097 298.61C39.2497 298.57 39.3698 298.36 39.3398 298.18C39.4998 298.21 39.7097 298.11 39.7997 297.97C39.9497 297.73 39.9498 297.39 39.9498 297.12C39.9398 296.31 39.8298 295.46 39.6298 294.68C39.4798 294.07 39.1097 293.67 38.5497 293.46C37.7297 293.15 36.9797 292.51 36.4197 291.82C33.7697 287.48 30.8898 283.28 28.1998 278.97C27.3998 277.7 27.1698 277.57 28.4398 276.76C29.0398 276.37 29.6297 275.97 30.2197 275.57C30.2197 275.57 29.7198 274.13 28.6098 272.29C27.5998 270.61 26.2997 269.41 26.2997 269.41C25.3697 270.34 24.4497 271.29 23.5497 272.25C22.0497 273.86 20.4598 275.89 20.7798 278.39C20.8998 279.37 21.7598 280.98 22.2398 281.83C25.2698 287.22 29.2298 289.68 33.4698 293.93C33.7598 294.14 34.1298 295.41 34.3098 295.74C34.3698 295.85 34.3898 295.98 34.4298 296.11C34.5798 296.6 34.9498 296.76 35.3098 297.02C35.7298 297.32 36.1798 297.57 36.6498 297.77"
              stroke="black" stroke-width="0.78" stroke-linecap="round" stroke-linejoin="round"/>
        <path d="M38.9501 295.39C38.6601 296 38.2801 296.56 37.8301 297.05L38.9501 295.39Z" fill="white"/>
        <path d="M38.9501 295.39C38.6601 296 38.2801 296.56 37.8301 297.05" stroke="black" stroke-width="0.78"
              stroke-linecap="round" stroke-linejoin="round"/>
        <path d="M36.45 297.75C36.4 297.86 36.39 298 36.43 298.12L36.45 297.75Z" fill="white"/>
        <path d="M36.45 297.75C36.4 297.86 36.39 298 36.43 298.12" stroke="black" stroke-width="0.78"
              stroke-linecap="round" stroke-linejoin="round"/>
        <path d="M57.5401 249.99C57.5401 250.26 57.3401 250.49 57.0701 250.5C56.8001 250.51 56.5701 250.3 56.5601 250.03C56.5601 249.76 56.7601 249.53 57.0401 249.52C57.3101 249.52 57.5401 249.72 57.5501 249.99H57.5401Z"
              fill="black"/>
        <path d="M52.83 258.44V258.46C52.79 258.87 52.65 260.6 52.61 261.18C52.56 261.79 52.52 262.08 52.51 262.35C52.75 262.35 53 262.34 53.24 262.29L53.71 263.86L49.91 267.29L45.19 261.96C45.51 261.99 46.17 262.05 46.47 262.09C46.56 261.54 46.67 261.01 46.76 260.3C46.79 260.08 46.81 259.84 46.82 259.59C46.99 258.26 46.95 257.01 46.82 255.65C46.78 255.26 46.67 254.91 46.61 254.51C46.61 254.49 46.61 254.46 46.59 254.44C46.59 254.44 46.59 254.4 46.59 254.38H46.56C46.56 254.38 46.48 254.33 46.43 254.32C46.23 254.3 46.12 254.28 45.93 254.18C45.72 254.06 45.51 253.92 45.33 253.76C45.19 253.63 45.07 253.49 44.96 253.33C44.74 252.88 44.7 252.35 44.86 251.88C44.89 251.79 44.93 251.71 44.97 251.62C44.98 251.59 45 251.57 45.01 251.54C45.01 251.54 45.01 251.53 45.01 251.52C45.2 251.26 45.46 251.03 45.74 250.87C45.98 250.73 46.39 250.66 46.66 250.71C47.11 250.8 47.23 250.95 47.44 251.29C47.54 251.45 47.63 251.62 47.72 251.82C47.81 252.02 48.11 251.95 48.11 251.73C48.09 250.49 47.95 249.22 48.54 248.17C48.48 248.46 48.46 248.76 48.43 249.05C48.41 249.27 48.65 249.42 48.84 249.31C49.05 249.19 49.47 249.11 49.63 248.92C49.8 248.7 49.79 248.18 49.88 247.91C50.08 248.43 50.09 248.78 50.69 248.62C51.21 248.48 51.73 248.33 52.26 248.22C53.17 248.03 54.09 247.89 55.02 247.82C55.38 247.79 55.36 247.82 55.47 247.55C55.59 247.25 55.57 246.92 55.72 246.61C55.67 246.73 55.91 247.25 55.95 247.39C56.06 247.74 56.03 247.76 56.39 247.76C56.44 247.76 56.62 247.75 56.82 247.74C57.07 248.26 57.24 248.76 57.39 249.34C58.25 252.71 57.78 256.92 54.16 258.38C53.76 258.54 53.28 258.53 52.79 258.43L52.83 258.44ZM57.07 250.5C57.34 250.5 57.55 250.26 57.54 249.99C57.53 249.72 57.3 249.51 57.03 249.52C56.76 249.52 56.55 249.76 56.55 250.03C56.55 250.3 56.79 250.52 57.06 250.5H57.07ZM53.25 251.4C53.52 251.39 53.73 251.16 53.72 250.89C53.72 250.62 53.48 250.41 53.21 250.42C52.94 250.43 52.73 250.66 52.74 250.93C52.74 251.2 52.98 251.42 53.25 251.41V251.4Z"
              fill="white"/>
        <path d="M55.76 246.62C55.61 246.93 55.63 247.26 55.51 247.56C55.4 247.84 55.42 247.8 55.06 247.83C54.13 247.9 53.21 248.04 52.3 248.23C51.77 248.34 51.25 248.49 50.73 248.63C50.12 248.8 50.12 248.45 49.92 247.92C49.83 248.19 49.84 248.71 49.67 248.93C49.52 249.12 49.1 249.2 48.88 249.32C48.68 249.43 48.45 249.28 48.47 249.06C48.5 248.76 48.52 248.47 48.58 248.18C48.58 248.17 48.58 248.16 48.59 248.15C49.19 247.13 50.15 246.35 51.22 245.85C52.29 245.35 53.47 245.11 54.65 245.02L54.83 245C54.78 244.91 54.73 244.82 54.66 244.74C55.83 245.07 56.85 246.22 57.52 247.33C57.63 247.51 57.49 247.74 57.28 247.74C57.15 247.74 57 247.74 56.87 247.75C56.67 247.75 56.49 247.77 56.44 247.77C56.08 247.77 56.1 247.74 56 247.4C55.96 247.27 55.72 246.74 55.77 246.62H55.76Z"
              fill="black"/>
        <path d="M50.0301 245.84C50.1801 245.7 50.3401 245.58 50.5101 245.46C51.6701 244.65 53.1901 244.36 54.5701 244.7C54.6001 244.7 54.6301 244.71 54.6601 244.73C54.7301 244.81 54.7801 244.9 54.8301 244.99L54.6501 245.01C53.4701 245.1 52.2901 245.34 51.2201 245.84C50.1501 246.34 49.1901 247.12 48.5901 248.14C48.5901 248.15 48.5801 248.16 48.5801 248.17C48.6201 247.98 48.6701 247.79 48.7401 247.6C49.0201 246.9 49.4601 246.33 50.0101 245.86C50.0101 245.86 50.0201 245.86 50.0301 245.84Z"
              fill="black"/>
        <path d="M50.01 245.86C49.46 246.33 49.02 246.9 48.74 247.6C48.67 247.79 48.61 247.98 48.58 248.17C47.98 249.22 48.13 250.49 48.15 251.73C48.15 251.95 47.85 252.02 47.76 251.82C47.67 251.63 47.58 251.45 47.48 251.29C47.27 250.95 47.15 250.79 46.7 250.71C46.43 250.66 46.01 250.73 45.78 250.87C45.5 251.04 45.25 251.26 45.05 251.52C45.05 251.52 45.05 251.53 45.05 251.54C44.84 251.84 44.71 252.18 44.73 252.54C44.74 252.82 44.84 253.09 45 253.32C45.11 253.55 45.27 253.76 45.46 253.93C45.78 254.2 46.18 254.35 46.59 254.38C46.6 254.38 46.61 254.4 46.62 254.41V254.43C46.8 255.68 46.95 257.85 46.84 259.57C46.83 259.68 46.81 259.78 46.79 259.89C46.62 259.91 46.46 259.92 46.29 259.92C46.17 259.92 46.07 259.82 46.07 259.69C46.07 259.54 46.07 259.38 46.07 259.23C46.07 259.18 46.07 258.98 46.07 258.94C46.07 258.91 46.07 258.84 46.02 258.89C45.97 258.95 45.95 259.04 45.91 259.11C45.87 259.18 45.84 259.26 45.8 259.34C45.72 259.49 45.64 259.65 45.56 259.79C45.51 259.87 45.42 259.91 45.33 259.9C44.53 259.76 43.74 259.51 42.98 259.25C42.8 259.19 42.62 259.12 42.45 259.06C42.32 259.02 42.24 258.89 42.24 258.75L42.26 258.13C42.26 258.06 42.16 258.02 42.12 258.09C41.98 258.29 41.93 258.39 41.79 258.57C41.71 258.68 41.54 258.73 41.41 258.68C41.09 258.55 40.78 258.42 40.48 258.26C40.35 258.19 40.31 258.03 40.39 257.92C40.72 257.44 41.1 256.86 41.36 256.45C41.41 256.38 41.31 256.29 41.25 256.35C40.76 256.77 40.14 257.23 39.61 257.6C39.53 257.65 39.44 257.66 39.36 257.6C38.6 257.11 37.85 256.58 37.13 256.03C36.69 255.69 36.31 255.31 35.95 254.88C35.83 254.73 35.69 254.58 35.56 254.42C35.44 254.28 35.5 254.06 35.68 254.01C36.65 253.7 38.79 252.78 41.33 250.31C42.88 248.8 44.18 247.04 45.88 245.68C47.02 244.77 48.33 244.04 49.75 243.74C50.99 243.47 53.72 243.5 54.64 244.69C54.61 244.68 54.58 244.67 54.55 244.66C53.17 244.32 51.65 244.6 50.49 245.42C50.32 245.54 50.16 245.66 50.01 245.8C50.01 245.8 49.99 245.81 49.99 245.82L50.01 245.86Z"
              fill="black"/>
        <path d="M53.73 250.88C53.73 251.15 53.53 251.38 53.26 251.39C52.99 251.39 52.76 251.19 52.75 250.91C52.75 250.64 52.95 250.41 53.22 250.4C53.49 250.4 53.72 250.6 53.73 250.87V250.88Z"
              fill="black"/>
        <path d="M46.8098 259.59C46.9198 257.87 46.7698 255.7 46.5898 254.45C46.5898 254.47 46.5998 254.49 46.6098 254.52C46.6598 254.91 46.7798 255.26 46.8198 255.66C46.9398 257.01 46.9898 258.27 46.8198 259.6L46.8098 259.59Z"
              fill="black"/>
        <path d="M46.44 254.34C46.44 254.34 46.54 254.36 46.57 254.4C46.16 254.37 45.76 254.22 45.44 253.95C45.25 253.78 45.09 253.57 44.98 253.34C45.08 253.5 45.21 253.64 45.35 253.77C45.53 253.93 45.74 254.07 45.95 254.19C46.13 254.3 46.25 254.32 46.45 254.33L46.44 254.34Z"
              fill="black"/>
        <path d="M56.23 248.45C56.56 248.36 56.92 248.44 57.18 248.66" stroke="black" stroke-width="0.78"
              stroke-linecap="round" stroke-linejoin="round"/>
        <path d="M44.98 253.34C44.83 253.1 44.73 252.84 44.71 252.56C44.69 252.2 44.82 251.85 45.03 251.56"
              stroke="black" stroke-width="0.78" stroke-linecap="round" stroke-linejoin="round"/>
        <path d="M50.0303 245.84C50.9503 245.16 52.1103 244.8 53.2603 244.87" stroke="white" stroke-width="0.78"
              stroke-linecap="round" stroke-linejoin="round"/>
        <path d="M49.4399 246.37C49.6199 246.19 49.8099 246.02 50.0099 245.86" stroke="white" stroke-width="0.78"
              stroke-linecap="round" stroke-linejoin="round"/>
        <path d="M48.1099 255.2C48.7799 256.24 49.7399 257.09 50.8299 257.67C51.3599 257.95 52.1099 258.3 52.8299 258.44C53.3199 258.54 53.7999 258.55 54.1999 258.39C57.8199 256.92 58.2899 252.72 57.4299 249.35C57.2799 248.77 57.1099 248.27 56.8599 247.75C56.8199 247.67 56.7799 247.59 56.7399 247.51"
              stroke="black" stroke-width="0.78" stroke-linecap="round" stroke-linejoin="round"/>
        <path d="M44.98 253.34C45.09 253.57 45.25 253.78 45.44 253.95C45.76 254.22 46.16 254.37 46.57 254.4H46.6C46.67 254.4 46.75 254.4 46.82 254.4C47.08 254.39 47.34 254.32 47.57 254.2"
              stroke="black" stroke-width="0.78" stroke-linecap="round" stroke-linejoin="round"/>
        <path d="M45.03 251.55C45.03 251.55 45 251.6 44.99 251.63C44.95 251.72 44.91 251.8 44.88 251.89C44.72 252.36 44.77 252.89 44.98 253.34"
              stroke="black" stroke-width="0.78" stroke-linecap="round" stroke-linejoin="round"/>
        <path d="M46.5798 250.59C46.5798 250.59 46.5498 250.59 46.5298 250.59C45.9198 250.64 45.3598 251.01 45.0498 251.53"
              stroke="black" stroke-width="0.78" stroke-linecap="round" stroke-linejoin="round"/>
        <path d="M51.2202 249.94C51.7002 249.3 52.4602 248.87 53.2602 248.79" stroke="black" stroke-width="0.78"
              stroke-linecap="round" stroke-linejoin="round"/>
        <path d="M56.31 251.63C56.39 251.89 56.38 252.19 56.22 252.41C56.06 252.63 55.74 252.74 55.5 252.61"
              stroke="black" stroke-width="0.78" stroke-linecap="round" stroke-linejoin="round"/>
        <path d="M46.6001 254.45C46.6001 254.45 46.6001 254.41 46.6001 254.39" stroke="black" stroke-width="0.78"
              stroke-linecap="round" stroke-linejoin="round"/>
        <path d="M52.8302 258.46C52.8002 258.87 52.6602 260.6 52.6202 261.18C52.5702 261.79 52.5302 262.08 52.5202 262.35C52.7602 262.35 53.0102 262.34 53.2502 262.29L53.7202 263.86L49.9202 267.29L45.2002 261.96C45.5202 261.99 46.1802 262.05 46.4802 262.09C46.5702 261.54 46.6802 261.01 46.7702 260.3C46.8002 260.08 46.8202 259.84 46.8302 259.59C46.9402 257.87 46.7902 255.7 46.6102 254.45"
              stroke="black" stroke-width="0.78" stroke-linecap="round" stroke-linejoin="round"/>
        <path d="M56.0203 253.48C55.2303 253.9 54.2003 253.81 53.5003 253.26C53.3703 253.92 53.6903 254.7 54.3303 254.91"
              stroke="black" stroke-width="0.78" stroke-linecap="round" stroke-linejoin="round"/>
        <path d="M91.9796 254.15C91.9096 254.38 91.7496 254.57 91.5896 254.76C91.0896 255.35 90.4396 255.95 90.0396 256.6C89.6296 257.27 89.2896 257.94 88.7696 258.55C88.2396 259.17 87.5096 259.61 87.1296 260.32C85.0296 264.19 82.5696 269.01 79.0996 273.19C78.6196 273.76 78.1096 274.35 77.4396 274.67C76.5096 275.11 75.3996 274.99 74.4096 274.72C73.4096 274.45 72.5496 274.19 71.5696 273.86C69.8396 273.27 68.1796 272.6 66.5596 271.88C66.6596 271.49 66.8396 271.13 66.9896 270.74C67.7696 268.82 68.6496 266.93 69.6196 265.1C70.5696 265.67 71.5096 266.24 72.4596 266.81C73.3896 267.37 74.3396 267.88 75.2996 268.4C76.1996 268.89 77.2696 267.39 77.7996 266.84C80.0396 264.5 81.9196 261.86 83.8596 259.27V259.25C84.0396 258.86 84.1496 258.65 84.2396 258.24C84.3996 257.56 84.3396 256.83 84.2396 256.14C84.1496 255.52 83.9796 254.92 83.8296 254.32C83.6796 253.74 83.4496 253.2 83.3596 252.6C83.2896 252.18 83.8196 251.9 84.1096 252.21C84.2296 252.34 84.3296 252.5 84.4196 252.62C84.5796 252.85 84.7096 253.12 84.8396 253.36C84.9796 253.62 85.1896 254.02 85.5396 254C85.5396 254 85.5496 254 85.5596 254C85.8996 253.97 85.9696 253.54 86.0696 253.28C86.1996 252.92 86.3196 252.56 86.4396 252.2C86.6796 251.46 86.9096 250.71 87.1796 249.97C87.2596 249.74 87.4296 249.5 87.6696 249.51C87.8196 249.52 87.9496 249.65 87.9896 249.8C88.0396 249.95 87.9296 250.89 87.9096 251.04C87.8296 251.77 87.7196 252.47 87.5496 253.23C87.5496 253.27 87.5896 253.29 87.6096 253.25C88.2596 252.07 88.7596 251.07 89.2896 250.15C89.3796 249.99 89.4696 249.83 89.6196 249.74C89.7696 249.64 89.9996 249.64 90.1096 249.77C90.2296 249.91 90.1896 250.12 90.1396 250.29C89.8296 251.41 89.2996 252.74 88.8496 253.85C88.8296 253.89 88.8796 253.91 88.9096 253.88C89.4696 253.09 90.1696 252.12 90.7096 251.37C90.7896 251.26 90.8696 251.14 90.9896 251.07C91.1096 251 91.2696 250.99 91.3696 251.08C91.5096 251.2 91.4696 251.42 91.4096 251.59C91.0396 252.75 90.5296 253.82 89.8096 254.8C89.7896 254.83 89.8296 254.87 89.8596 254.85C90.3496 254.44 90.8396 254 91.3496 253.63C91.8096 253.31 92.1596 253.54 91.9696 254.12L91.9796 254.15Z"
              fill="white" stroke="black" stroke-width="0.78" stroke-linecap="round" stroke-linejoin="round"/>
        <path d="M86.3394 256.22C86.4994 255.83 86.3994 255.37 86.1794 255.01C86.0894 254.86 85.9794 254.72 85.8594 254.59"
              stroke="black" stroke-width="0.78" stroke-linecap="round" stroke-linejoin="round"/>
        <path d="M89.1493 255.63C88.8393 254.96 88.2393 254.42 87.5293 254.19" stroke="black" stroke-width="0.78"
              stroke-linecap="round" stroke-linejoin="round"/>
        <path d="M61.3499 271.02C63.9199 272.13 64.5499 272.34 69.1499 273.67C69.1499 273.63 69.5999 271.35 70.3099 269.52C71.0399 267.62 72.0599 266.13 72.0899 266.06C69.8999 264.6 69.0399 264.24 67.4699 263.46C65.5599 262.51 63.4099 261.7 61.3099 261.32C58.6599 260.84 55.9299 260.93 53.2899 261.55C53.2799 261.55 51.7899 265.13 50.3299 266.53C50.3199 266.54 50.2999 266.54 50.2799 266.53C50.2799 266.53 45.1599 261.56 45.1499 261.56C41.6799 261.36 37.3299 261.92 34.3099 263.13C31.8499 264.11 29.9499 265.26 27.9699 267.11C27.2099 267.82 25.1299 269.58 25.1299 269.58C27.2099 271.55 28.9399 274.27 29.7399 277.03C29.7399 277.05 29.7699 277.06 29.7899 277.05C31.8399 276.22 33.0299 275.66 34.3099 274.85C36.1999 273.66 36.7699 273.22 38.3799 272.03C38.3999 272.01 38.4299 272.03 38.4399 272.05C38.6599 273.79 39.0599 276.77 39.2099 277.99C39.4999 280.43 39.7999 282.86 40.1199 285.3C40.3299 286.88 40.6799 290.2 40.6899 290.21C46.6199 291.97 52.1299 292.47 58.1799 291.18C58.1999 291.18 58.2099 291.17 58.2099 291.15C58.6199 286.12 59.3899 280.9 59.7999 275.88C59.7999 275.88 59.7999 275.87 59.7999 275.86C60.7599 274.58 61.3099 273 61.3599 271.39C61.3699 270.94 61.4299 271.48 61.3599 271.03L61.3499 271.02Z"
              fill="#883E89"/>
        <path d="M59.79 275.86C59.79 275.86 59.79 275.85 59.79 275.84C60.75 274.56 61.3 272.98 61.35 271.37C61.39 269.77 60.92 268.15 60.03 266.82"
              stroke="white" stroke-width="0.78" stroke-linecap="round" stroke-linejoin="round"/>
        <path d="M37.8701 271.35L39.2401 272.87" stroke="white" stroke-width="0.78" stroke-linecap="round"
              stroke-linejoin="round"/>
        <path d="M83.2099 314.79L80.1899 336.89C80.1499 337.28 79.9899 337.64 79.7399 337.94C79.4299 338.3 78.9899 338.77 78.6099 339.1C78.2299 339.43 77.9899 339.92 77.9599 340.44L76.7299 372.25C76.4299 373.76 33.6299 373.76 33.3299 372.25L32.0999 340.44C32.0699 339.92 31.8399 339.44 31.4499 339.1C31.0599 338.76 30.6299 338.3 30.3199 337.94C30.0699 337.64 29.9099 337.28 29.8699 336.89L26.8599 314.79H83.2099Z"
              stroke="white" stroke-width="2"/>
        <path d="M26.8501 314.34C26.8501 314.34 36.4901 315.22 55.0301 315.22C73.5701 315.22 83.2101 314.34 83.2101 314.34"
              stroke="white" stroke-width="10" stroke-linecap="round" stroke-linejoin="round"/>
        <path d="M38.1301 314.79C38.1301 318.78 35.6101 322.02 32.4901 322.02C29.3801 322.02 26.8501 318.79 26.8501 314.79"
              stroke="white" stroke-width="2"/>
        <path d="M49.4001 314.79C49.4001 318.78 46.8801 322.02 43.7601 322.02C40.6501 322.02 38.1201 318.79 38.1201 314.79"
              stroke="white" stroke-width="2"/>
        <path d="M60.6701 314.79C60.6701 318.78 58.1501 322.02 55.0301 322.02C51.9201 322.02 49.3901 318.79 49.3901 314.79"
              stroke="white" stroke-width="2"/>
        <path d="M71.9402 314.79C71.9402 318.78 69.4202 322.02 66.3002 322.02C63.1902 322.02 60.6602 318.79 60.6602 314.79"
              stroke="white" stroke-width="2"/>
        <path d="M83.2102 314.79C83.2102 318.78 80.6902 322.02 77.5702 322.02C74.4602 322.02 71.9302 318.79 71.9302 314.79"
              stroke="white" stroke-width="2"/>
    </g>
    <path d="M232.26 333.05L179.05 97.52" stroke="white" stroke-width="2"/>
    <path d="M339.75 333.05L392.97 97.52" stroke="white" stroke-width="2"/>
    <path d="M402 52.49C402 116.273 350.293 167.98 286.51 167.98C222.727 167.98 171.02 116.273 171.02 52.49C171.02 -11.2934 222.727 -63 286.51 -63C350.293 -63 402 -11.2934 402 52.49Z"
          fill="white" stroke="black" stroke-width="2"/>
    <path d="M388.41 52.4901C388.41 108.768 342.788 154.39 286.51 154.39C230.232 154.39 184.61 108.768 184.61 52.4901C184.61 -3.78773 230.232 -49.4099 286.51 -49.4099C342.788 -49.4099 388.41 -3.78773 388.41 52.4901Z"
          fill="white" stroke="black" stroke-width="2"/>
    <path d="M281.8 -12.4C281.37 -12.3 281.03 -12.23 280.69 -12.15C273.17 -10.58 266.14 -7.85002 260.01 -3.13002C251.34 3.53998 246.35 12.22 245.91 23.29C245.62 30.49 247.44 37.09 251.79 42.92C254.84 47.01 258.69 50.23 262.97 52.95C269.29 56.98 276.17 59.81 283.25 62.2C289.27 64.23 295.18 66.54 300.57 69.98C307.22 74.23 311.03 80.05 310.77 88.19C310.6 93.54 308.8 98.17 304.98 101.96C301.51 105.4 297.26 107.37 292.61 108.58C286.92 110.05 281.13 110.25 275.3 109.74C267.02 109.02 259.09 106.98 251.56 103.45C249.94 102.69 248.36 101.83 246.7 100.98C244.82 106.43 242.94 111.85 241.02 117.4C252.99 124.02 265.98 125.95 279.42 126.37C279.33 132.01 279.24 137.63 279.15 143.27H292.76C292.76 142.01 292.96 125.88 292.96 125.88C292.96 125.88 311.39 122.12 321.46 111.74C331.33 101.57 333.98 89.41 330.66 75.87C328.9 68.72 324.46 63.25 318.74 58.77C313.27 54.48 307.13 51.39 300.71 48.82C295.67 46.8 290.54 45 285.51 42.95C281.19 41.19 277.05 39.07 273.41 36.08C268.25 31.84 266.21 26.36 267.07 19.8C267.75 14.62 270.58 10.74 274.78 7.80998C279.21 4.71998 284.25 3.35998 289.55 2.93998C299.15 2.16998 308.43 3.63998 317.36 7.28998C318.86 7.90998 320.33 8.61998 321.85 9.30998C323.9 3.98998 325.93 -1.29002 327.99 -6.61002C317.68 -11.91 306.67 -13.38 295.36 -13.6C295.48 -20.4 295.6 -27.09 295.71 -33.77H282.17C282.04 -26.6 281.92 -19.53 281.79 -12.38L281.8 -12.4Z"
          fill="white" stroke="black" stroke-width="2"/>
    <path d="M198.9 212.08C198.46 210.92 198.19 210.28 197.98 209.06C197.63 207.04 197.93 204.92 198.33 202.92C198.69 201.12 199.28 199.4 199.84 197.66C200.38 195.99 201.13 194.43 201.51 192.7C201.62 192.2 201.69 191.63 201.38 191.24C201.03 190.81 200.33 190.81 199.85 191.09C199.29 191.42 198.82 192.1 198.42 192.6C197.91 193.24 197.51 194 197.07 194.69C196.6 195.43 195.95 196.57 194.91 196.45H194.86C193.86 196.31 193.73 195.04 193.49 194.26C193.16 193.19 192.87 192.12 192.59 191.04C192.01 188.83 191.46 186.6 190.79 184.41C190.58 183.74 190.12 182.98 189.42 182.99C188.97 182.99 188.59 183.37 188.42 183.79C188.25 184.21 188.42 186.99 188.46 187.44C188.6 189.8 188.84 192.05 189.25 194.57C187.41 190.74 186.03 187.55 184.55 184.6C184.31 184.13 184.06 183.64 183.64 183.34C183.22 183.04 182.56 182.97 182.2 183.34C181.83 183.72 181.91 184.34 182.02 184.87C182.79 188.46 184.29 192.83 185.48 196.3C183.9 193.79 181.76 190.47 180.18 187.95C179.97 187.61 179.74 187.26 179.41 187.04C179.08 186.82 178.6 186.76 178.29 187.01C177.87 187.34 177.95 187.99 178.09 188.5C179.05 192.23 180.53 195.7 182.73 198.85C181.15 197.4 179.62 195.8 177.94 194.47C176.65 193.45 175.59 194.08 176.03 195.79C176.21 196.47 176.64 197.06 177.07 197.62C179.88 201.36 182.69 205.09 185.5 208.83C187.26 211.17 188.36 213.82 189.18 216.6L198.9 212.05V212.08Z"
          fill="white" stroke="black" stroke-width="0.78" stroke-linecap="round" stroke-linejoin="round"/>
    <path d="M192.22 202.32C191.82 201.15 192.19 199.84 192.88 198.81C193.17 198.38 193.51 197.99 193.87 197.63"
          stroke="black" stroke-width="0.78" stroke-linecap="round" stroke-linejoin="round"/>
    <path d="M184.1 200.11C185.13 198.2 186.97 196.74 189.06 196.16" stroke="black" stroke-width="0.78"
          stroke-linecap="round" stroke-linejoin="round"/>
    <path d="M240.39 452.939C240.14 454.039 240.11 455.209 240.41 456.389L278.95 457.339L279.07 453.869H278.6L240.47 452.959L240.39 452.939Z"
          fill="black"/>
    <path d="M260.37 443.29H260.33C258.15 443.87 253.61 444.12 251.39 444.52C249.17 444.92 246.95 445.49 245.01 446.64C243.6 447.48 241.07 449.94 240.4 452.91C240.4 452.92 240.4 452.93 240.4 452.94L240.48 452.96L278.61 453.86V453.74C279.27 444.98 279.27 443.67 279.49 438.04L260.84 436.93C260.84 441.71 260.46 441.22 260.39 443.29H260.37Z"
          fill="white"/>
    <path d="M265.83 446.47C264.41 444.87 262.47 443.74 260.37 443.29" stroke="black" stroke-width="0.78"
          stroke-linecap="round" stroke-linejoin="round"/>
    <path d="M278.6 453.749C279.26 444.989 279.26 443.679 279.48 438.049L260.83 436.939C260.83 441.719 260.45 441.229 260.38 443.299"
          stroke="black" stroke-width="0.78" stroke-linecap="round" stroke-linejoin="round"/>
    <path d="M260.33 443.29C258.15 443.87 253.61 444.12 251.39 444.52C249.17 444.92 246.95 445.49 245.01 446.64C243.6 447.48 241.07 449.94 240.4 452.91C240.4 452.92 240.4 452.93 240.4 452.94C240.15 454.04 240.12 455.21 240.42 456.39"
          stroke="black" stroke-width="0.78" stroke-linecap="round" stroke-linejoin="round"/>
    <path d="M240.41 456.399L278.95 457.339L279.07 453.869L278.6 453.859L240.47 452.959" stroke="black"
          stroke-width="0.78" stroke-linecap="round" stroke-linejoin="round"/>
    <path d="M333.93 452.939C334.18 454.039 334.21 455.209 333.91 456.389L295.37 457.339L295.25 453.869H295.72L333.85 452.959L333.93 452.939Z"
          fill="black"/>
    <path d="M313.94 443.29H313.99C316.16 443.87 320.71 444.12 322.93 444.52C325.15 444.92 327.37 445.49 329.31 446.64C330.72 447.48 333.25 449.94 333.93 452.91C333.93 452.92 333.93 452.93 333.93 452.94L333.85 452.96L295.72 453.86V453.74C295.06 444.98 295.25 443.28 294.84 438.04L313.49 436.93C313.49 441.71 313.87 441.22 313.94 443.29Z"
          fill="white"/>
    <path d="M308.48 446.47C309.9 444.87 311.84 443.74 313.94 443.29" stroke="black" stroke-width="0.78"
          stroke-linecap="round" stroke-linejoin="round"/>
    <path d="M295.71 453.749C295.05 444.989 295.25 443.289 294.83 438.049L313.48 436.939C313.48 441.719 313.86 441.229 313.93 443.299"
          stroke="black" stroke-width="0.78" stroke-linecap="round" stroke-linejoin="round"/>
    <path d="M313.98 443.29C316.15 443.87 320.7 444.12 322.92 444.52C325.14 444.92 327.36 445.49 329.3 446.64C330.71 447.48 333.24 449.94 333.92 452.91C333.92 452.92 333.92 452.93 333.92 452.94C334.17 454.04 334.2 455.21 333.9 456.39"
          stroke="black" stroke-width="0.78" stroke-linecap="round" stroke-linejoin="round"/>
    <path d="M333.9 456.399L295.36 457.339L295.24 453.869L295.71 453.859L333.84 452.959" stroke="black"
          stroke-width="0.78" stroke-linecap="round" stroke-linejoin="round"/>
    <path d="M266.21 290.87L255 437.46L281.95 439.28L287.15 320.52L292.61 440.18L317.85 437.68L308.51 302.5C308.41 302 308.31 301.46 308.17 300.77C307.95 299.71 307.84 298.8 307.85 297.99L306.39 288.11C306.39 288.11 301.7 290.33 286.72 291.27C276.9 291.88 266.23 290.87 266.23 290.87H266.21Z"
          fill="black"/>
    <path d="M307.76 288.12L265.07 290.88C265.07 290.88 276.41 291.9 286.85 291.28C302.77 290.34 307.76 288.12 307.76 288.12Z"
          fill="black"/>
    <path d="M294.68 196.81C294.82 197.38 295.21 197.88 295.73 198.14V198.17C297.09 198.35 298.33 199.3 298.91 200.54L299.04 200.51C301.21 197.36 299.36 192.66 296.81 189.75C293.98 186.54 289.85 184.31 285.67 183.61C283.36 183.22 281 183.03 278.79 182.28C277.24 181.75 275.78 180.95 274.18 180.58C272.58 180.22 270.72 180.39 269.58 181.56C268.73 182.43 268.42 183.71 268.45 184.92C268.49 186.65 269.21 188.41 270.56 189.49C271.15 189.96 271.9 190.24 272.68 190.33C273.7 190.46 274.77 190.27 275.62 189.78L275.83 189.66C275.92 189.84 276.03 190 276.16 190.15C276.56 190.63 277.1 190.97 277.66 191.24C279.85 192.26 282.76 191.95 284.84 190.71C285.45 192.83 286.89 194.72 288.82 195.83C290.58 196.84 292.7 197.17 294.68 196.79V196.81Z"
          fill="black"/>
    <path d="M297.7 205.28C296.86 205.93 295.76 206.21 294.71 206.09L294.67 206.52C294.02 209.56 294.1 214.19 294.4 218.14C292.28 218.78 290.07 219.15 287.85 219.21C285.79 219.28 283.72 219.09 281.71 218.66H281.68C281.65 217.27 281.62 215.9 281.6 214.91V214.86C280.51 214.86 279.43 214.7 278.35 214.36C269.36 211.52 268.63 201.81 271.03 194.07C271.47 192.67 271.95 191.47 272.7 190.21V190.16C273.73 190.29 274.8 190.1 275.65 189.61L275.87 189.49C275.96 189.67 276.07 189.83 276.19 189.98C276.59 190.46 277.13 190.81 277.69 191.07C279.88 192.09 282.79 191.78 284.87 190.54C285.48 192.66 286.92 194.55 288.85 195.65C290.6 196.66 292.72 196.99 294.71 196.61C294.85 197.18 295.24 197.68 295.75 197.95V197.98C297.12 198.16 298.36 199.11 298.94 200.36C299.02 200.55 299.09 200.74 299.15 200.93C299.59 202.49 299 204.3 297.71 205.29L297.7 205.28Z"
          fill="white"/>
    <path d="M281.67 218.66C281.7 220.14 281.73 221.64 281.76 222.73C281.76 222.77 281.76 222.81 281.76 222.85L281.94 222.92C282.63 223.37 283.31 223.81 284 224.26C284.06 224.3 284.13 224.34 284.21 224.34C284.28 224.34 284.34 224.29 284.4 224.25C285.97 223.04 286.87 221.31 287.85 219.59V219.22C285.78 219.29 283.71 219.1 281.7 218.66H281.67Z"
          fill="#FFA168"/>
    <path d="M287.84 219.22V219.59C288.86 221.41 290.18 223.05 291.73 224.44C291.81 224.51 291.89 224.58 291.99 224.59C292.11 224.61 292.22 224.55 292.33 224.5C293.22 224.03 294 223.37 294.62 222.58L294.79 222.62C294.79 222.62 294.85 222.6 294.88 222.58L294.8 222.38C294.65 221.17 294.5 219.71 294.39 218.16C292.27 218.8 290.05 219.16 287.83 219.23L287.84 219.22Z"
          fill="#FFA168"/>
    <path d="M309.31 297.99C309.31 298.8 309.42 299.71 309.65 300.77C309.81 301.46 309.91 302 310.02 302.5L309.31 297.98V297.99Z"
          fill="black"/>
    <path d="M315.4 301.12C316.48 300.69 317.52 300.14 318.49 299.49C319.34 298.92 320.19 298.56 320.53 297.51C320.62 297.24 320.67 296.96 320.81 296.71C321.23 295.99 322.08 295.54 322.75 295.08L315.92 288.12C314.62 289.63 312.88 291.02 310.99 291.69C309.7 292.15 308.84 293.01 308.49 294.34C308.04 296.05 307.78 297.89 307.75 299.66C307.74 300.26 307.75 300.99 308.09 301.52C308.3 301.84 308.77 302.06 309.15 301.99C309.08 302.37 309.36 302.83 309.45 302.92C309.73 303.2 310.12 303.35 310.51 303.3C310.47 303.65 310.62 304.02 310.91 304.23C311.2 304.44 311.59 304.48 311.91 304.34C311.96 304.89 312.5 305.28 313.05 305.34C314.08 305.46 315.05 304.85 315.89 304.35C317.03 303.68 318.06 302.81 318.99 301.88C319.35 301.52 320.02 301.04 319.97 300.47C319.95 300.22 319.8 300 319.6 299.85C319.12 299.51 318.15 299.77 317.66 300"
          fill="white"/>
    <path d="M315.4 301.12C316.48 300.69 317.52 300.14 318.49 299.49C319.34 298.92 320.19 298.56 320.53 297.51C320.62 297.24 320.67 296.96 320.81 296.71C321.23 295.99 322.08 295.54 322.75 295.08L315.92 288.12C314.62 289.63 312.88 291.02 310.99 291.69C309.7 292.15 308.84 293.01 308.49 294.34C308.04 296.05 307.78 297.89 307.75 299.66C307.74 300.26 307.75 300.99 308.09 301.52C308.3 301.84 308.77 302.06 309.15 301.99C309.08 302.37 309.36 302.83 309.45 302.92C309.73 303.2 310.12 303.35 310.51 303.3C310.47 303.65 310.62 304.02 310.91 304.23C311.2 304.44 311.59 304.48 311.91 304.34C311.96 304.89 312.5 305.28 313.05 305.34C314.08 305.46 315.05 304.85 315.89 304.35C317.03 303.68 318.06 302.81 318.99 301.88C319.35 301.52 320.02 301.04 319.97 300.47C319.95 300.22 319.8 300 319.6 299.85C319.12 299.51 318.15 299.77 317.66 300"
          stroke="black" stroke-width="0.78" stroke-linecap="round" stroke-linejoin="round"/>
    <path d="M310.08 296C310.75 297.33 311.62 298.55 312.67 299.61L310.08 296Z" fill="white"/>
    <path d="M310.08 296C310.75 297.33 311.62 298.55 312.67 299.61" stroke="black" stroke-width="0.78"
          stroke-linecap="round" stroke-linejoin="round"/>
    <path d="M315.87 301.13C315.99 301.37 316.01 301.67 315.93 301.93L315.87 301.13Z" fill="white"/>
    <path d="M315.87 301.13C315.99 301.37 316.01 301.67 315.93 301.93" stroke="black" stroke-width="0.78"
          stroke-linecap="round" stroke-linejoin="round"/>
    <path d="M313.84 244.96L314.28 245.05C320.61 247.37 331.87 254.1 337.89 257.13C331.08 267.9 321.33 276.12 315.29 287.35C315.41 287.67 315.55 287.99 315.69 288.3C317.2 291.56 319.92 294.32 322.95 296.31C323.2 296.48 323.46 296.64 323.71 296.8C335.12 289.02 349.79 280.35 357.56 268.94C360.45 264.69 363.15 259.88 362.84 254.74C362.6 250.81 360.59 247.15 357.94 244.24C355.29 241.33 352.02 239.06 348.76 236.85C340.72 231.38 332.49 225.98 323.31 222.8C314.16 219.63 303.83 218.84 294.89 222.56C294.86 222.57 294.83 222.58 294.8 222.6L294.63 222.56C294.01 223.35 293.22 224.01 292.34 224.48C292.23 224.54 292.12 224.59 292 224.57C291.9 224.55 291.82 224.48 291.74 224.42C290.19 223.04 288.87 221.39 287.86 219.57C286.88 221.3 285.98 223.02 284.41 224.23C284.35 224.27 284.29 224.31 284.22 224.32C284.15 224.32 284.08 224.28 284.01 224.24C283.32 223.79 282.64 223.35 281.95 222.9L281.77 222.83C281.77 222.83 281.77 222.75 281.77 222.71H281.66C274.27 220.9 266.62 219.08 259.14 220.44C253.65 221.44 248.62 224.09 243.65 226.65C235.82 230.69 227.91 234.58 219.93 238.31H219.49C211.65 229.53 205.18 219.52 200.37 208.76C200.01 208.75 199.65 208.76 199.28 208.77C195.28 208.94 191.09 210.63 187.95 213.16C187.63 213.42 187.33 213.68 187.04 213.95C188.38 227.65 192.82 240.99 199.71 252.92C204.11 260.55 209.12 265.77 217.16 265.63C229.9 265.4 257.77 246.85 257.77 246.85C260.17 260.63 262.65 274.76 265.06 290.86L307.75 288.1C312.5 275.39 311.17 258.25 313.83 244.95L313.84 244.96Z"
          fill="#FFA168"/>
    <path d="M292.07 208.79C289.95 212.62 285.84 215.15 281.56 215.15C280.48 215.15 279.39 214.99 278.31 214.65C269.32 211.8 268.59 202.1 270.99 194.36C271.43 192.96 271.91 191.76 272.66 190.5"
          stroke="black" stroke-width="0.78" stroke-linecap="round" stroke-linejoin="round"/>
    <path d="M284.59 189.56C284.64 189.96 284.72 190.36 284.84 190.75C285.45 192.87 286.89 194.76 288.82 195.87C290.58 196.88 292.7 197.21 294.68 196.83C295.27 196.72 295.84 196.55 296.39 196.32"
          stroke="black" stroke-width="0.78" stroke-linecap="round" stroke-linejoin="round"/>
    <path d="M295.61 198.24C295.61 198.24 295.68 198.24 295.72 198.26C297.09 198.44 298.33 199.39 298.91 200.63C298.99 200.82 299.06 201.01 299.12 201.2C299.56 202.76 298.97 204.57 297.68 205.56C296.84 206.21 295.74 206.49 294.69 206.37C294.13 206.31 293.59 206.14 293.1 205.85"
          stroke="black" stroke-width="0.78" stroke-linecap="round" stroke-linejoin="round"/>
    <path d="M299.04 200.54C301.21 197.39 299.36 192.69 296.81 189.78C293.98 186.57 289.85 184.34 285.67 183.64C283.36 183.25 281 183.06 278.79 182.31C277.24 181.78 275.78 180.98 274.18 180.61C272.58 180.24 270.72 180.42 269.58 181.59C268.73 182.46 268.42 183.74 268.45 184.95C268.49 186.68 269.21 188.44 270.56 189.52C271.15 189.99 271.9 190.27 272.68 190.36C273.7 190.49 274.77 190.3 275.62 189.81"
          stroke="black" stroke-width="0.78" stroke-linecap="round" stroke-linejoin="round"/>
    <path d="M275.58 188.47C275.53 188.9 275.63 189.32 275.83 189.7C275.92 189.88 276.03 190.04 276.16 190.19C276.56 190.67 277.1 191.01 277.66 191.28C279.85 192.3 282.76 191.99 284.84 190.75C284.84 190.75 284.85 190.75 284.86 190.74"
          stroke="black" stroke-width="0.78" stroke-linecap="round" stroke-linejoin="round"/>
    <path d="M284.25 196.31C283.29 194.87 281.71 193.87 280 193.61" stroke="black" stroke-width="0.78"
          stroke-linecap="round" stroke-linejoin="round"/>
    <path d="M273.67 192.57C272.98 192.33 272.18 192.47 271.6 192.91" stroke="black" stroke-width="0.78"
          stroke-linecap="round" stroke-linejoin="round"/>
    <path d="M274.13 197.96C273.72 198.38 273.34 198.84 273.14 199.38C272.94 199.93 272.93 200.57 273.25 201.06C273.57 201.55 274.24 201.82 274.77 201.57"
          stroke="black" stroke-width="0.78" stroke-linecap="round" stroke-linejoin="round"/>
    <path d="M270.67 195.72C270.62 196.3 271.05 196.82 271.63 196.87C272.21 196.92 272.73 196.49 272.78 195.91C272.83 195.33 272.4 194.81 271.82 194.76C271.24 194.71 270.72 195.14 270.67 195.72Z"
          fill="black"/>
    <path d="M273.7 205.21C273.96 206.59 274.98 208.04 276.35 208.38C277.71 208.72 279.25 208.2 280.13 207.11C281.01 206.02 281.19 204.41 280.57 203.15C280.02 204.3 278.61 205.19 277.37 205.47C276.34 205.7 275.12 205.67 273.71 205.21H273.7Z"
          fill="black"/>
    <path d="M278.76 198.06C278.71 198.64 279.14 199.16 279.72 199.21C280.3 199.26 280.82 198.83 280.87 198.25C280.92 197.67 280.49 197.15 279.91 197.1C279.33 197.05 278.81 197.48 278.76 198.06Z"
          fill="black"/>
    <path d="M295.73 198.23C295.22 197.96 294.83 197.47 294.68 196.91" stroke="black" stroke-width="0.78"
          stroke-linecap="round" stroke-linejoin="round"/>
    <path d="M294.64 206.81C293.99 209.85 293.85 214.36 294.15 218.32C294.27 219.88 294.46 221.16 294.61 222.38"
          stroke="black" stroke-width="0.78" stroke-linecap="round" stroke-linejoin="round"/>
    <path d="M281.38 215.14C281.41 216.12 281.44 217.05 281.47 218.44C281.5 219.92 281.53 221.42 281.56 222.51C281.56 222.55 281.56 222.59 281.56 222.63"
          stroke="black" stroke-width="0.78" stroke-linecap="round" stroke-linejoin="round"/>
    <path d="M294.41 222.33C293.79 223.12 293 223.78 292.12 224.25C292.01 224.31 291.9 224.36 291.78 224.34C291.68 224.32 291.6 224.25 291.52 224.19C289.97 222.81 288.65 221.16 287.64 219.34C286.66 221.07 285.76 222.79 284.19 224C284.13 224.04 284.07 224.08 284 224.09C283.93 224.09 283.86 224.05 283.79 224.01C283.1 223.56 282.42 223.12 281.73 222.67"
          stroke="white" stroke-width="0.78" stroke-linecap="round" stroke-linejoin="round"/>
    <path d="M337.41 255.94C337.36 257.08 337.46 258.24 337.7 259.36" stroke="white" stroke-width="0.78"
          stroke-linecap="round" stroke-linejoin="round"/>
    <path d="M218.69 238.59C218.19 240.13 218 241.77 218.13 243.38" stroke="white" stroke-width="0.78"
          stroke-linecap="round" stroke-linejoin="round"/>
    <path d="M287.61 219.93C288.26 238.84 288.91 257.74 289.56 276.65" stroke="white" stroke-width="0.78"
          stroke-linecap="round" stroke-linejoin="round"/>
    <path d="M288.69 322.1C286.55 320.96 284.67 319.32 283.24 317.36" stroke="white" stroke-width="0.78"
          stroke-linecap="round" stroke-linejoin="round"/>
    <path d="M347.27 332.25L340.77 379.89C340.68 380.73 340.34 381.51 339.79 382.15C339.12 382.93 338.18 383.94 337.36 384.64C336.54 385.34 336.02 386.42 335.96 387.53L333.3 456.12C332.66 459.37 240.37 459.37 239.73 456.12L237.07 387.53C237.01 386.42 236.52 385.37 235.67 384.64C234.82 383.91 233.9 382.92 233.23 382.14C232.68 381.5 232.34 380.72 232.25 379.88L225.75 332.24H347.25L347.27 332.25Z"
          stroke="white" stroke-width="2"/>
    <path d="M225.77 331.3C225.77 331.3 246.54 333.21 286.52 333.21C326.5 333.21 347.27 331.3 347.27 331.3"
          stroke="white" stroke-width="10" stroke-linecap="round" stroke-linejoin="round"/>
    <path d="M250.07 332.25C250.07 340.86 244.64 347.83 237.92 347.83C231.2 347.83 225.77 340.86 225.77 332.25"
          stroke="white" stroke-width="2"/>
    <path d="M274.37 332.25C274.37 340.86 268.94 347.83 262.22 347.83C255.5 347.83 250.07 340.86 250.07 332.25"
          stroke="white" stroke-width="2"/>
    <path d="M298.67 332.25C298.67 340.86 293.24 347.83 286.52 347.83C279.8 347.83 274.37 340.86 274.37 332.25"
          stroke="white" stroke-width="2"/>
    <path d="M322.97 332.25C322.97 340.86 317.54 347.83 310.82 347.83C304.1 347.83 298.67 340.86 298.67 332.25"
          stroke="white" stroke-width="2"/>
    <path d="M347.27 332.25C347.27 340.86 341.84 347.83 335.12 347.83C328.4 347.83 322.97 340.86 322.97 332.25"
          stroke="white" stroke-width="2"/>
    <defs>
        <clipPath id="clip0_974_4465">
            <rect width="110" height="252" fill="white" transform="translate(0 130)"/>
        </clipPath>
    </defs>
</svg>
