<svg width="346" height="501" viewBox="0 0 346 501" fill="none" xmlns="http://www.w3.org/2000/svg">
    <g clip-path="url(#clip0_1263_2765)">
        <path d="M346.68 186.46C339.22 183.06 320.77 174.82 313.27 171.51C305.77 168.2 295.66 169.84 288.12 166.61C280.57 163.38 275.51 155.24 267.93 152.09C260.34 148.94 250.28 150.8 242.65 147.74C235.02 144.68 229.75 136.65 222.08 133.67C214.41 130.69 204.41 132.77 196.7 129.87C188.99 126.97 181.67 114.96 176.15 113.27L175.78 102.45C180.9 100.14 192.65 95.3099 199.89 91.5399C207.13 87.7699 211.47 79.2999 218.76 75.6099C226.05 71.9199 236.24 73.0599 243.58 69.4499C250.92 65.8399 255.48 57.4699 262.86 53.9399C270.25 50.4099 280.4 51.7699 287.83 48.3199C295.26 44.8699 300.04 36.5999 307.52 33.2399C315 29.8799 338.72 31.4499 346.24 28.1699L346.68 186.46Z"
              fill="#FFD5BE"/>
        <path d="M351.48 158.95C346.06 157.47 328.77 152.53 323.04 150.97C317.31 149.41 309.03 151.37 302.67 149.79C296.11 148.15 291.44 142.71 284.46 140.98C277.26 139.19 267.56 141.35 259.75 139.56C251.67 137.71 245.64 131.64 236.99 129.66C228.02 127.6 216.18 129.93 206.38 127.86C196.19 125.71 183.54 114.29 175.71 112.89L175.59 103.27C182.6 101.17 198.72 97.14 207.86 93.89C217 90.64 221.52 83.45 230.04 80.61C238.56 77.77 249.73 79.39 257.46 76.82C264.96 74.32 269.28 67.85 276.51 65.6C283.54 63.41 293.05 65.3 299.65 63.26C306.25 61.22 309.99 55.49 316.19 53.71C322.39 51.93 343.83 54.1 349.53 52.48L351.47 158.96L351.48 158.95Z"
              fill="#FFA168"/>
        <path d="M175 102.61C180.03 99.38 189.85 91.22 198.48 89.3C201.36 88.34 203.28 88.34 205.19 86.42C213.82 79.71 217.66 69.15 227.25 64.36C229.17 63.4 232.05 62.44 233.96 61.48C239.72 59.56 247.39 59.56 253.14 56.68C258.89 53.8 261.77 47.09 266.57 42.29C271.37 37.49 276.16 33.66 282.88 31.74C291.51 28.86 302.06 29.82 308.78 23.11C314.54 16.4 319.33 9.68 327 5.84C337.55 1.04 350.02 2 361.49 0"
              stroke="white" stroke-miterlimit="10"/>
        <path d="M352.09 197.63C350.38 197.06 349.24 195.54 347.97 194.66C338.55 191.06 314.6 191.94 305.44 187.07C296.98 182.32 292.69 174.97 285.2 169.06C283.93 168.18 281.96 167.18 279.85 166.82C267.93 164.78 255.61 164.66 245.84 155.71C240.32 150.8 236.33 145.49 229.85 141.73C219.33 139.93 207.72 139.93 197.99 134.3C191.64 129.91 183.61 118.14 179.18 115.12C177.78 114.52 176.96 113.61 175.23 113.37"
              stroke="white" stroke-miterlimit="10"/>
        <path d="M228.412 92.7882C224.859 99.487 215.89 102.361 208.365 99.2279C200.84 96.0821 197.607 88.1126 201.16 81.4262C204.713 74.7274 213.682 71.853 221.207 74.9865C228.733 78.1323 231.965 86.1018 228.412 92.7882Z"
              fill="white"/>
        <path d="M208.513 100.844C200.519 97.5008 197.077 89.0009 200.84 81.8827C204.615 74.7644 214.188 71.6926 222.182 75.0358C230.176 78.3791 233.618 86.879 229.855 93.9972C226.08 101.115 216.507 104.187 208.513 100.844ZM221.356 76.6026C214.324 73.6665 205.922 76.3682 202.604 82.6229C199.298 88.8775 202.32 96.3412 209.34 99.2773C216.372 102.213 224.773 99.5117 228.091 93.257C231.398 87.0024 228.375 79.5387 221.356 76.6026Z"
              fill="black"/>
        <path d="M207.946 100.005C199.952 96.6619 196.51 88.162 200.272 81.0438C204.047 73.9256 213.621 70.8538 221.615 74.197C229.609 77.5402 233.051 86.0401 229.288 93.1583C225.513 100.277 215.94 103.348 207.946 100.005ZM220.788 75.7637C213.756 72.8276 205.355 75.5293 202.037 81.784C198.73 88.0387 201.753 95.5023 208.772 98.4384C215.804 101.375 224.205 98.6728 227.524 92.4181C230.83 86.1635 227.808 78.6998 220.788 75.7637Z"
              fill="white"/>
        <path d="M215.298 101.683C212.782 101.757 210.216 101.325 207.785 100.313C203.788 98.648 200.766 95.6749 199.298 91.9616C197.854 88.3223 198.089 84.3869 199.927 80.908C203.788 73.6294 213.583 70.4836 221.763 73.9008C225.76 75.5662 228.782 78.5394 230.25 82.2527C231.694 85.892 231.459 89.815 229.621 93.3063C226.907 98.426 221.257 101.498 215.298 101.683ZM214.287 73.1976C208.587 73.3703 203.196 76.3064 200.605 81.2041C198.841 84.5226 198.631 88.2729 200.001 91.7395C201.407 95.2925 204.282 98.1176 208.094 99.709C215.915 102.978 225.266 99.9681 228.955 93.0225C230.719 89.704 230.929 85.9537 229.559 82.4871C228.153 78.9341 225.279 76.1091 221.467 74.5176C219.147 73.543 216.692 73.1359 214.287 73.21V73.1976ZM215.237 99.9557C213.028 100.03 210.758 99.6473 208.624 98.7467C205.096 97.2787 202.443 94.6633 201.148 91.3818C199.877 88.1743 200.075 84.7077 201.703 81.6359C205.108 75.2208 213.731 72.4451 220.936 75.4552C224.464 76.9233 227.117 79.5386 228.412 82.8202C229.683 86.0277 229.485 89.4943 227.857 92.5661C225.464 97.0813 220.492 99.783 215.237 99.9557ZM214.348 74.9247C209.364 75.0851 204.639 77.6511 202.369 81.9319C200.827 84.8434 200.642 88.1126 201.839 91.1597C203.06 94.2685 205.589 96.7482 208.933 98.1422C215.779 101.004 223.971 98.3643 227.203 92.2823C228.745 89.3709 228.93 86.1017 227.734 83.0546C226.512 79.9457 223.983 77.4661 220.64 76.072C218.604 75.2208 216.458 74.8631 214.348 74.9247Z"
              fill="black"/>
        <path d="M218.938 93.442C220.085 91.2831 219.123 89.4203 216.507 87.1503C214.373 85.2998 213.608 84.1525 214.336 82.7832C214.866 81.7839 216.47 80.982 218.987 82.0306C220.665 82.7338 221.664 83.6837 222.133 84.1895L223.613 82.9189C222.984 82.2033 221.8 81.2781 219.912 80.4886C219.912 80.4886 219.887 80.4886 219.875 80.4762L221.059 78.2433L219.591 77.6265L218.345 79.9704C215.385 79.2302 212.843 80.0321 211.807 81.9813C210.709 84.0538 211.918 86.077 214.484 88.1866C216.581 89.9877 217.149 91.1844 216.421 92.5661C215.631 94.0465 213.657 94.4783 211.227 93.4667C209.586 92.7758 208.254 91.6902 207.452 90.7156L206.009 92.0603C206.724 92.9979 208.451 94.2192 210.228 94.9717C210.277 94.9964 210.327 95.0087 210.376 95.0211L209.377 96.8962L210.845 97.5131L211.893 95.5392C215.385 96.4768 217.901 95.4035 218.95 93.4297L218.938 93.442Z"
              fill="black"/>
        <path d="M218.605 92.7882C219.752 90.6293 218.79 88.7664 216.174 86.4965C214.04 84.646 213.275 83.4987 214.003 82.1294C214.533 81.1301 216.137 80.3282 218.654 81.3768C220.332 82.08 221.331 83.0299 221.8 83.5357L223.28 82.2651C222.651 81.5495 221.467 80.6243 219.579 79.8347C219.579 79.8347 219.554 79.8347 219.542 79.8224L220.726 77.5895L219.258 76.9727L218.012 79.3166C215.052 78.5764 212.51 79.3783 211.474 81.3275C210.376 83.4 211.585 85.4232 214.151 87.5328C216.248 89.3339 216.816 90.5429 216.088 91.9123C215.298 93.3927 213.337 93.8245 210.894 92.8129C209.253 92.122 207.921 91.0364 207.119 90.0618L205.676 91.4065C206.391 92.3441 208.118 93.5654 209.895 94.3179C209.944 94.3426 209.994 94.3549 210.043 94.3796L209.044 96.2548L210.512 96.8716L211.56 94.8977C215.052 95.8353 217.568 94.762 218.617 92.7882H218.605Z"
              fill="white"/>
        <path d="M210.684 97.3035L208.538 96.4153L209.537 94.5401C207.81 93.7876 206.12 92.5909 205.367 91.604L205.194 91.382L207.156 89.5685L207.415 89.8769C208.291 90.9502 209.648 91.9371 211.042 92.5169C213.225 93.4298 215.027 93.1461 215.754 91.7767C216.396 90.5677 215.915 89.5191 213.892 87.792C210.919 85.3494 210.043 83.2521 211.141 81.1919C212.226 79.1564 214.817 78.2805 217.802 78.9343L219.073 76.541L221.22 77.4293L220.035 79.6622C222.071 80.5628 223.119 81.5373 223.564 82.0555L223.773 82.3022L221.762 84.0417L221.516 83.7579C220.973 83.1658 220.011 82.3146 218.506 81.6854C216.322 80.7725 214.842 81.3276 214.336 82.2775C213.744 83.4002 214.249 84.3748 216.433 86.2623C219.344 88.7789 220.085 90.7775 218.937 92.9487C217.741 95.194 215.014 96.0822 211.745 95.305L210.672 97.3282L210.684 97.3035ZM209.537 96.0822L210.339 96.4153L211.363 94.4784L211.659 94.5648C214.681 95.379 217.21 94.6388 218.271 92.6403C219.27 90.7528 218.592 89.0503 215.915 86.7434C213.793 84.9052 212.806 83.5976 213.657 81.9815C214.323 80.7355 216.162 79.9706 218.789 81.0686C220.208 81.6607 221.183 82.4379 221.799 83.0548L222.749 82.2405C222.219 81.7101 221.195 80.8958 219.394 80.1433C219.394 80.1433 219.369 80.1433 219.357 80.1433L219.011 79.9953L220.196 77.7623L219.394 77.4293L218.172 79.7239L217.876 79.6498C215.125 78.959 212.72 79.6869 211.77 81.488C210.845 83.2398 211.671 85.0903 214.36 87.2985C216.951 89.5315 217.037 90.8268 216.384 92.0728C215.483 93.7753 213.25 94.1947 210.696 93.1338C209.302 92.5539 207.995 91.641 207.045 90.5924L206.107 91.456C206.897 92.3442 208.476 93.3928 209.993 94.0343C210.018 94.0343 210.03 94.0467 210.055 94.059C210.08 94.059 210.104 94.0837 210.129 94.0837L210.474 94.2194L209.475 96.1069L209.537 96.0822Z"
              fill="black"/>
        <path d="M271.817 146.115C274.49 154.911 269.335 164.35 260.316 167.197C251.297 170.044 241.818 165.222 239.145 156.426C236.472 147.629 241.627 138.191 250.646 135.344C259.665 132.496 269.144 137.318 271.817 146.115Z"
              fill="white"/>
        <path d="M261.832 168.566C252.241 171.595 242.133 166.446 239.291 157.104C236.45 147.751 241.942 137.682 251.533 134.653C261.125 131.624 271.233 136.773 274.074 146.115C276.916 155.469 271.424 165.537 261.832 168.566ZM252.162 136.713C243.739 139.366 238.909 148.223 241.403 156.426C243.896 164.641 252.78 169.16 261.203 166.494C269.627 163.829 274.456 154.984 271.963 146.769C269.469 138.554 260.586 134.035 252.162 136.701V136.713Z"
              fill="black"/>
        <path d="M260.631 168.227C251.039 171.256 240.931 166.106 238.089 156.765C235.248 147.411 240.74 137.343 250.332 134.314C259.923 131.285 270.031 136.434 272.873 145.776C275.714 155.129 270.222 165.198 260.631 168.227ZM250.96 136.373C242.537 139.027 237.708 147.884 240.201 156.099C242.694 164.313 251.578 168.833 260.002 166.167C268.425 163.501 273.255 154.657 270.761 146.442C268.268 138.227 259.384 133.708 250.96 136.373Z"
              fill="white"/>
        <path d="M268.268 164.18C266.212 166.155 263.663 167.718 260.754 168.627C255.958 170.141 250.893 169.717 246.502 167.451C242.2 165.222 239.066 161.466 237.674 156.886C234.765 147.326 240.392 137.016 250.197 133.926C254.992 132.411 260.058 132.836 264.449 135.101C268.751 137.331 271.884 141.087 273.277 145.667C275.321 152.391 273.142 159.491 268.268 164.18ZM243.278 138.966C238.617 143.449 236.539 150.222 238.494 156.644C239.819 161.006 242.807 164.58 246.906 166.712C251.095 168.881 255.925 169.281 260.507 167.839C269.885 164.883 275.254 155.032 272.479 145.897C271.154 141.535 268.167 137.961 264.067 135.828C259.878 133.659 255.049 133.26 250.466 134.701C247.681 135.574 245.255 137.064 243.289 138.954L243.278 138.966ZM266.752 162.641C264.932 164.386 262.697 165.755 260.136 166.567C255.913 167.9 251.455 167.536 247.58 165.525C243.795 163.562 241.032 160.254 239.797 156.22C237.236 147.787 242.189 138.712 250.826 135.986C255.049 134.653 259.507 135.016 263.382 137.028C267.167 138.991 269.941 142.298 271.165 146.333C272.962 152.258 271.053 158.51 266.752 162.641ZM244.806 140.505C240.717 144.431 238.909 150.356 240.616 155.977C241.773 159.806 244.39 162.932 247.984 164.786C251.657 166.688 255.88 167.039 259.889 165.767C268.099 163.174 272.794 154.56 270.368 146.563C269.211 142.734 266.594 139.608 263 137.755C259.328 135.852 255.105 135.501 251.095 136.773C248.658 137.537 246.535 138.845 244.806 140.505Z"
              fill="black"/>
        <path d="M264.36 153.906C263.495 151.07 261.114 150.089 256.981 150.016C253.611 149.944 251.994 149.483 251.444 147.678C251.039 146.357 251.713 144.419 254.746 143.461C256.756 142.831 258.407 142.928 259.238 143.049L259.407 140.76C258.272 140.578 256.486 140.638 254.218 141.365C254.207 141.365 254.195 141.365 254.184 141.377L253.297 138.445L251.533 139.003L252.466 142.08C249.343 143.655 247.872 146.309 248.647 148.877C249.478 151.603 252.207 152.536 256.161 152.512C259.463 152.573 260.956 153.227 261.507 155.032C262.102 156.983 260.799 158.873 257.868 159.794C255.891 160.412 253.847 160.436 252.353 160.157L252.264 162.484C253.656 162.799 256.161 162.605 258.295 161.926C258.351 161.902 258.407 161.89 258.463 161.866L259.216 164.338L260.979 163.78L260.193 161.187C263.944 159.394 265.157 156.498 264.371 153.918L264.36 153.906Z"
              fill="black"/>
        <path d="M263.528 153.554C262.663 150.719 260.282 149.738 256.149 149.665C252.78 149.592 251.162 149.132 250.612 147.327C250.208 146.006 250.882 144.067 253.914 143.11C255.924 142.48 257.575 142.589 258.407 142.698L258.575 140.408C257.441 140.226 255.655 140.287 253.386 141.014C253.375 141.014 253.364 141.014 253.353 141.026L252.465 138.094L250.702 138.651L251.634 141.729C248.512 143.304 247.041 145.957 247.816 148.526C248.647 151.252 251.376 152.185 255.329 152.161C258.631 152.221 260.125 152.876 260.675 154.681C261.271 156.632 259.968 158.522 257.036 159.443C255.06 160.061 253.016 160.085 251.522 159.806L251.432 162.132C252.825 162.447 255.329 162.254 257.463 161.575C257.519 161.551 257.575 161.539 257.632 161.515L258.384 163.986L260.147 163.429L259.361 160.836C263.112 159.043 264.325 156.147 263.539 153.566L263.528 153.554Z"
              fill="white"/>
        <path d="M260.653 163.696L258.092 164.507L257.34 162.036C255.239 162.654 252.802 162.859 251.32 162.52L250.983 162.448L251.106 159.297L251.589 159.394C253.24 159.709 255.217 159.576 256.89 159.043C259.507 158.219 260.799 156.583 260.249 154.79C259.766 153.203 258.474 152.621 255.296 152.561C250.724 152.585 248.197 151.337 247.377 148.635C246.558 145.957 248.018 143.195 251.095 141.511L250.14 138.361L252.701 137.549L253.588 140.493C256.07 139.766 257.778 139.863 258.598 139.984L258.979 140.045L258.744 143.159L258.294 143.098C257.328 142.965 255.801 142.928 253.993 143.498C251.376 144.322 250.59 145.957 250.971 147.205C251.421 148.684 252.667 149.18 256.115 149.253C260.698 149.338 263.023 150.598 263.887 153.445C264.786 156.402 263.225 159.285 259.81 161.054L260.619 163.708L260.653 163.696ZM258.642 163.453L259.597 163.15L258.822 160.606L259.148 160.448C262.394 158.897 263.91 156.293 263.112 153.663C262.36 151.192 260.338 150.15 256.127 150.065C252.78 150.004 250.837 149.556 250.197 147.436C249.702 145.8 250.612 143.704 253.768 142.71C255.475 142.177 256.947 142.141 258.002 142.226L258.115 140.76C257.227 140.675 255.666 140.711 253.51 141.39C253.499 141.39 253.487 141.39 253.476 141.402L253.06 141.535L252.173 138.591L251.207 138.894L252.128 141.923L251.814 142.08C248.905 143.546 247.49 146.018 248.209 148.393C248.905 150.695 251.162 151.749 255.318 151.725C259.406 151.797 260.574 152.9 261.068 154.548C261.753 156.789 260.215 158.861 257.16 159.83C255.486 160.364 253.611 160.521 251.915 160.279L251.859 161.769C253.274 161.975 255.498 161.745 257.328 161.163C257.351 161.163 257.373 161.151 257.407 161.139C257.441 161.139 257.463 161.115 257.497 161.103L257.912 160.969L258.665 163.441L258.642 163.453Z"
              fill="black"/>
        <path d="M286.91 96.0799C287.21 98.3899 280.39 101.05 271.68 102.04C262.97 103.02 255.66 101.95 255.36 99.6399C255.06 97.3299 261.88 94.6699 270.59 93.6799C279.3 92.6999 286.61 93.7699 286.91 96.0799Z"
              fill="white"/>
        <path d="M272.13 104.22C262.87 105.26 255.02 103.7 254.63 100.74C254.24 97.77 261.46 94.51 270.73 93.47C279.99 92.43 287.84 93.99 288.23 96.95C288.62 99.92 281.4 103.18 272.13 104.22ZM271.95 94.13C263.81 95.05 257.42 97.55 257.7 99.7C257.98 101.85 264.83 102.86 272.97 101.94C281.11 101.02 287.5 98.52 287.22 96.37C286.94 94.22 280.09 93.21 271.95 94.13Z"
              fill="white"/>
        <path d="M272.66 104.29C272.49 104.31 272.31 104.33 272.14 104.35C267.63 104.86 263.31 104.77 259.97 104.11C256.58 103.44 254.61 102.25 254.42 100.76C254.31 99.8999 254.79 99.0199 255.84 98.1199C257.1 97.0499 259.14 96.0499 261.72 95.1999C264.36 94.3399 267.47 93.6899 270.7 93.3299C275.21 92.8199 279.53 92.9099 282.87 93.5699C286.26 94.2399 288.23 95.4299 288.42 96.9199C288.53 97.7799 288.05 98.6599 287 99.5599C285.74 100.63 283.7 101.64 281.11 102.48C278.61 103.3 275.69 103.92 272.65 104.29H272.66ZM272.11 104.08C278.44 103.37 284.17 101.53 286.69 99.3999C287.67 98.5699 288.12 97.7499 288.02 96.9699C287.84 95.5899 285.96 94.4699 282.73 93.8299C279.45 93.1799 275.19 93.0899 270.74 93.5999C264.41 94.3099 258.68 96.1499 256.16 98.2799C255.18 99.1099 254.73 99.9299 254.83 100.71C255.01 102.09 256.89 103.2 260.12 103.85C263.4 104.5 267.66 104.59 272.11 104.09V104.08ZM273.54 102.01C273.36 102.03 273.17 102.05 272.98 102.08C269.02 102.53 265.23 102.54 262.32 102.11C259.35 101.67 257.63 100.83 257.49 99.7299C257.42 99.1899 257.73 98.6299 258.41 98.0599C260.51 96.2899 265.82 94.6999 271.93 94.0099C275.89 93.5599 279.67 93.5499 282.59 93.9799C285.56 94.4199 287.28 95.2599 287.42 96.3599C287.49 96.8999 287.18 97.4599 286.5 98.0399C284.46 99.7599 279.41 101.31 273.54 102.03V102.01ZM271.44 94.3199C265.74 95.0199 260.68 96.5599 258.73 98.1999C258.12 98.7099 257.85 99.2099 257.91 99.6699C258.04 100.65 259.65 101.42 262.45 101.84C265.31 102.26 269.04 102.25 272.95 101.81C278.86 101.14 284.18 99.5599 286.19 97.8699C286.8 97.3599 287.07 96.8599 287.01 96.3999C286.88 95.4199 285.27 94.6499 282.47 94.2299C279.61 93.8099 275.88 93.8199 271.97 94.2599C271.79 94.2799 271.62 94.2999 271.44 94.3199Z"
              fill="black"/>
        <path d="M271.71 102.3C262.45 103.34 254.65 102.2 254.33 99.7401C254.01 97.2901 261.29 94.4401 270.55 93.4001C279.81 92.3601 287.61 93.5001 287.93 95.9601C288.25 98.4101 280.97 101.26 271.71 102.3ZM270.62 93.9401C262.48 94.8601 256.09 97.3601 256.37 99.5101C256.65 101.66 263.5 102.67 271.64 101.75C279.78 100.83 286.17 98.3301 285.89 96.1801C285.61 94.0301 278.76 93.0201 270.62 93.9401Z"
              fill="white"/>
        <path d="M272.36 102.36C272.15 102.39 271.94 102.41 271.73 102.43C267.22 102.94 262.92 102.95 259.61 102.46C256.24 101.96 254.29 101.01 254.13 99.76C254.05 99.15 254.4 98.51 255.17 97.87C257.56 95.85 263.59 94.05 270.54 93.26C275.05 92.75 279.35 92.74 282.66 93.23C286.03 93.73 287.98 94.68 288.14 95.93C288.22 96.54 287.87 97.18 287.1 97.82C284.78 99.77 279.04 101.53 272.37 102.35L272.36 102.36ZM269.94 93.61C266.77 94 263.77 94.61 261.21 95.38C258.57 96.18 256.58 97.1 255.47 98.03C254.77 98.62 254.46 99.19 254.53 99.72C254.68 100.85 256.52 101.73 259.72 102.2C262.98 102.68 267.23 102.67 271.69 102.17C275.08 101.79 278.32 101.15 281.04 100.33C283.68 99.53 285.67 98.61 286.78 97.68C287.48 97.09 287.79 96.52 287.72 95.99C287.57 94.86 285.73 93.98 282.53 93.51C279.27 93.03 275.02 93.04 270.56 93.55C270.35 93.57 270.14 93.6 269.93 93.62L269.94 93.61ZM272.21 101.83C272.03 101.85 271.84 101.87 271.65 101.9C267.69 102.35 263.91 102.36 260.99 101.93C258.02 101.49 256.3 100.65 256.16 99.55C256.09 99.01 256.4 98.45 257.08 97.87C259.18 96.1 264.49 94.51 270.59 93.82C274.55 93.37 278.33 93.36 281.25 93.79C284.22 94.23 285.94 95.07 286.08 96.17C286.15 96.71 285.84 97.27 285.16 97.85C283.12 99.57 278.07 101.12 272.2 101.84L272.21 101.83ZM270.11 94.14C264.41 94.84 259.35 96.38 257.4 98.02C256.79 98.53 256.52 99.03 256.58 99.49C256.71 100.47 258.32 101.24 261.12 101.66C263.98 102.08 267.71 102.07 271.62 101.63C271.8 101.61 271.97 101.59 272.15 101.57C277.85 100.87 282.91 99.33 284.86 97.69C285.47 97.18 285.74 96.68 285.68 96.22C285.55 95.24 283.94 94.47 281.14 94.05C278.28 93.63 274.55 93.64 270.64 94.08C270.46 94.1 270.29 94.12 270.11 94.14Z"
              fill="black"/>
        <path d="M278.42 98.3499C278.32 97.6099 276.43 97.3999 272.76 97.4799C269.77 97.5399 268.44 97.4599 268.37 96.9799C268.32 96.6299 269.38 96.0999 272.31 95.7699C274.25 95.5499 275.7 95.5399 276.41 95.5499L277.1 94.9299C276.13 94.9099 274.53 94.9699 272.33 95.2099C272.32 95.2099 272.31 95.2099 272.29 95.2099L272.19 94.4399L270.49 94.6299L270.6 95.4399C267.45 95.9399 265.5 96.6899 265.59 97.3599C265.68 98.0699 267.9 98.2599 271.43 98.1599C274.36 98.0999 275.54 98.2399 275.6 98.7099C275.67 99.2199 274.06 99.7599 271.23 100.08C269.32 100.29 267.49 100.35 266.23 100.31L265.6 100.94C266.77 100.99 269.04 100.88 271.11 100.65C271.17 100.65 271.22 100.64 271.27 100.63L271.35 101.28L273.05 101.09L272.96 100.41C276.73 99.8399 278.49 99.0299 278.4 98.3499H278.42Z"
              fill="black"/>
        <path d="M277.76 98.2801C277.66 97.5401 275.77 97.3301 272.1 97.4101C269.11 97.4701 267.78 97.3901 267.71 96.9101C267.66 96.5601 268.72 96.0301 271.65 95.7001C273.59 95.4801 275.04 95.4701 275.75 95.4801L276.44 94.8601C275.47 94.8401 273.87 94.9001 271.67 95.1401C271.66 95.1401 271.65 95.1401 271.63 95.1401L271.53 94.3701L269.83 94.5601L269.94 95.3701C266.79 95.8701 264.84 96.6201 264.93 97.2901C265.02 98.0101 267.24 98.1901 270.77 98.0901C273.7 98.0301 274.88 98.1701 274.94 98.6401C275.01 99.1501 273.4 99.6901 270.57 100.01C268.66 100.22 266.83 100.28 265.57 100.24L264.94 100.87C266.11 100.92 268.38 100.81 270.45 100.58C270.51 100.58 270.56 100.57 270.61 100.56L270.69 101.21L272.39 101.02L272.3 100.34C276.07 99.7701 277.83 98.9601 277.74 98.2801H277.76Z"
              fill="white"/>
        <path d="M272.62 101.13L270.51 101.37L270.43 100.72C268.45 100.94 266.13 101.06 264.91 101.01H264.59L265.48 100.11H265.6C267.04 100.16 268.89 100.08 270.56 99.89C272.64 99.66 274.16 99.28 274.62 98.9C274.71 98.82 274.75 98.75 274.74 98.68C274.69 98.31 273.5 98.18 270.76 98.24C266.69 98.36 264.82 98.07 264.73 97.33C264.63 96.58 266.54 95.8 269.72 95.28L269.61 94.46L271.72 94.22L271.82 94.99C274.25 94.72 275.77 94.71 276.46 94.72H276.82L275.83 95.61H275.72C274.86 95.59 273.47 95.62 271.66 95.82C268.89 96.13 268.17 96.59 268.01 96.72C267.96 96.76 267.9 96.82 267.91 96.88C267.96 97.27 269.55 97.32 272.1 97.27C275.53 97.2 277.83 97.34 277.95 98.26C278.06 99.08 276.03 99.89 272.52 100.45L272.61 101.14L272.62 101.13ZM270.88 101.05L272.18 100.9L272.09 100.23L272.28 100.2C276.27 99.59 277.62 98.79 277.55 98.3C277.47 97.69 275.78 97.46 272.08 97.54C269.04 97.6 267.58 97.53 267.5 96.93C267.49 96.85 267.51 96.72 267.69 96.57C268.19 96.15 269.59 95.79 271.62 95.56C273.38 95.36 274.76 95.33 275.65 95.34L276.04 94.99C275.23 94.99 273.8 95.04 271.68 95.28H271.64L271.44 95.31L271.34 94.54L270.04 94.69L270.14 95.49L269.95 95.52C266.52 96.06 265.05 96.8 265.11 97.29C265.18 97.85 267.08 98.08 270.76 97.98C273.91 97.91 275.05 98.09 275.12 98.64C275.14 98.78 275.06 98.92 274.9 99.06C274.35 99.52 272.82 99.91 270.56 100.17C268.91 100.36 267.08 100.44 265.64 100.4L265.28 100.77C266.54 100.79 268.61 100.67 270.41 100.47C270.44 100.47 270.47 100.47 270.49 100.47C270.52 100.47 270.54 100.47 270.57 100.47L270.77 100.45L270.85 101.1L270.88 101.05Z"
              fill="black"/>
        <path d="M277.06 93.5799C277.06 93.5799 284.8 93.5299 285.88 96.1999C285.88 96.1999 286.15 97.4099 283.63 98.6799C283.63 98.6799 290.1 94.8499 277.06 93.5899V93.5799Z"
              fill="black"/>
        <path d="M316.69 57.2698C313.94 58.4498 308.06 52.4098 303.56 43.7798C299.07 35.1498 297.66 27.2098 300.41 26.0298C303.16 24.8498 309.04 30.8898 313.54 39.5198C318.03 48.1498 319.44 56.0898 316.69 57.2698Z"
              fill="white"/>
        <path d="M301.02 45.08C296.24 35.91 295.23 27.22 298.77 25.7C302.31 24.19 309.08 30.41 313.85 39.58C318.63 48.75 319.63 57.44 316.1 58.96C312.56 60.47 305.79 54.25 301.02 45.08ZM313.49 41.1C309.29 33.05 303.79 27.39 301.21 28.49C298.64 29.59 299.96 37.04 304.16 45.09C308.36 53.14 313.86 58.8 316.44 57.7C319.01 56.6 317.69 49.15 313.49 41.1Z"
              fill="white"/>
        <path d="M301.13 45.6601C301.04 45.4901 300.95 45.3201 300.86 45.1501C298.53 40.6801 297.02 36.1901 296.59 32.5001C296.16 28.7501 296.89 26.2701 298.67 25.5101C299.69 25.0701 300.98 25.2301 302.48 25.9901C304.28 26.8901 306.3 28.6201 308.32 30.9701C310.39 33.3701 312.36 36.3301 314.02 39.5301C316.35 43.9901 317.86 48.4901 318.29 52.1801C318.73 55.9301 317.99 58.4101 316.21 59.1701C315.19 59.6101 313.9 59.4501 312.4 58.6901C310.6 57.7901 308.58 56.0601 306.56 53.7101C304.61 51.4301 302.74 48.6601 301.13 45.6601ZM301.18 45.0101C304.45 51.2801 308.88 56.5001 312.48 58.3001C313.88 59.0001 315.07 59.1601 316 58.7601C317.65 58.0601 318.33 55.6901 317.91 52.1201C317.49 48.4901 315.99 44.0601 313.7 39.6501C310.43 33.3901 306 28.1601 302.4 26.3601C301 25.6601 299.81 25.5001 298.88 25.9001C297.23 26.6101 296.55 28.9701 296.97 32.5501C297.39 36.1801 298.89 40.6101 301.18 45.0201V45.0101ZM304.29 45.7001C304.19 45.5201 304.1 45.3401 304 45.1501C301.96 41.2301 300.52 37.3301 299.96 34.1601C299.39 30.9301 299.79 28.8401 301.11 28.2801C301.75 28.0001 302.57 28.1101 303.54 28.6001C306.53 30.1001 310.5 34.9801 313.65 41.0301C315.69 44.9501 317.13 48.8501 317.69 52.0201C318.26 55.2501 317.86 57.3401 316.54 57.9001C315.9 58.1801 315.08 58.0701 314.11 57.5801C311.21 56.1201 307.39 51.4901 304.29 45.7001ZM313.05 40.6401C310.04 35.0201 306.22 30.3701 303.45 28.9801C302.59 28.5501 301.87 28.4501 301.31 28.6801C300.14 29.1801 299.79 31.1401 300.33 34.1901C300.88 37.3001 302.3 41.1501 304.31 45.0201C307.36 50.8701 311.33 55.7701 314.18 57.2001C315.04 57.6301 315.76 57.7301 316.32 57.5001C317.49 57.0001 317.84 55.0401 317.3 51.9901C316.75 48.8801 315.33 45.0301 313.32 41.1601C313.23 40.9901 313.14 40.8101 313.04 40.6401H313.05Z"
              fill="black"/>
        <path d="M303.24 43.9299C298.46 34.7599 296.96 26.2799 299.88 25.0299C302.81 23.7799 309.08 30.2199 313.86 39.3899C318.64 48.5599 320.14 57.0399 317.22 58.2899C314.29 59.5399 308.02 53.0999 303.24 43.9299ZM313.22 39.6599C309.02 31.6099 303.52 25.9499 300.95 27.0499C298.38 28.1499 299.7 35.5999 303.9 43.6499C308.1 51.6999 313.6 57.3599 316.18 56.2599C318.75 55.1599 317.43 47.7099 313.23 39.6599H313.22Z"
              fill="white"/>
        <path d="M303.41 44.62C303.3 44.41 303.19 44.2 303.08 43.99C300.76 39.53 299.12 35.09 298.48 31.49C297.83 27.82 298.29 25.46 299.77 24.82C300.5 24.51 301.42 24.63 302.51 25.18C305.91 26.89 310.42 32.43 314.01 39.31C316.33 43.77 317.97 48.21 318.61 51.81C319.26 55.48 318.8 57.84 317.32 58.48C316.59 58.79 315.67 58.67 314.58 58.12C311.28 56.46 306.94 51.2 303.41 44.61V44.62ZM313.37 38.83C311.7 35.71 309.81 32.83 307.89 30.49C305.9 28.06 304.02 26.36 302.44 25.56C301.45 25.06 300.62 24.95 299.98 25.22C298.63 25.8 298.23 28.03 298.85 31.52C299.48 35.07 301.09 39.45 303.39 43.86C305.14 47.22 307.15 50.32 309.2 52.82C311.19 55.25 313.07 56.95 314.65 57.74C315.64 58.24 316.47 58.35 317.11 58.08C318.46 57.5 318.86 55.27 318.24 51.78C317.61 48.23 316 43.85 313.7 39.44C313.59 39.23 313.48 39.03 313.37 38.82V38.83ZM304.01 44.27C303.91 44.09 303.82 43.9 303.72 43.72C301.68 39.8 300.24 35.9 299.68 32.73C299.11 29.5 299.51 27.41 300.83 26.85C301.47 26.57 302.29 26.68 303.26 27.17C306.25 28.67 310.22 33.55 313.37 39.6C315.41 43.52 316.85 47.42 317.41 50.59C317.98 53.82 317.58 55.91 316.26 56.47C315.62 56.75 314.8 56.64 313.83 56.15C310.93 54.69 307.11 50.06 304.01 44.27ZM312.77 39.21C309.76 33.59 305.94 28.94 303.17 27.55C302.31 27.12 301.59 27.02 301.03 27.25C299.86 27.75 299.51 29.71 300.05 32.76C300.6 35.87 302.02 39.72 304.03 43.59C304.12 43.76 304.21 43.94 304.31 44.11C307.32 49.73 311.14 54.38 313.91 55.77C314.77 56.2 315.49 56.3 316.05 56.07C317.23 55.57 317.57 53.61 317.03 50.56C316.48 47.45 315.06 43.6 313.05 39.73C312.96 39.56 312.87 39.38 312.77 39.21Z"
              fill="black"/>
        <path d="M310.67 49.38C311.56 49 311.1 46.96 309.63 43.21C308.43 40.15 308.04 38.74 308.6 38.5C309.01 38.32 310.08 39.21 311.59 42.11C312.59 44.03 313.15 45.52 313.4 46.26L314.43 46.74C314.09 45.73 313.42 44.1 312.28 41.93C312.28 41.92 312.27 41.91 312.26 41.89L313.18 41.5L312.3 39.81L311.33 40.22C309.53 37.15 307.86 35.43 307.06 35.77C306.21 36.13 306.81 38.49 308.26 42.1C309.44 45.1 309.7 46.37 309.14 46.61C308.53 46.87 307.26 45.42 305.8 42.62C304.82 40.73 304.06 38.86 303.64 37.54L302.62 37.13C302.99 38.35 303.99 40.66 305.05 42.71C305.08 42.77 305.11 42.82 305.14 42.87L304.37 43.2L305.25 44.89L306.06 44.54C308.19 48.21 309.85 49.73 310.66 49.39L310.67 49.38Z"
              fill="black"/>
        <path d="M310.51 48.6601C311.4 48.2801 310.94 46.2401 309.47 42.4901C308.27 39.4301 307.88 38.0201 308.44 37.7801C308.85 37.6001 309.92 38.4901 311.43 41.3901C312.43 43.3101 312.99 44.8001 313.24 45.5401L314.27 46.0201C313.93 45.0101 313.26 43.3801 312.12 41.2101C312.12 41.2001 312.11 41.1901 312.1 41.1701L313.02 40.7801L312.14 39.0901L311.17 39.5001C309.37 36.4301 307.7 34.7101 306.9 35.0501C306.05 35.4101 306.65 37.7701 308.1 41.3801C309.28 44.3801 309.54 45.6501 308.98 45.8901C308.37 46.1501 307.09 44.7001 305.64 41.9001C304.66 40.0101 303.9 38.1401 303.48 36.8201L302.46 36.4101C302.83 37.6301 303.83 39.9401 304.89 41.9901C304.92 42.0501 304.95 42.1001 304.98 42.1501L304.21 42.4801L305.09 44.1701L305.9 43.8201C308.03 47.4901 309.69 49.0101 310.5 48.6701L310.51 48.6601Z"
              fill="white"/>
        <path d="M305.04 44.43L303.95 42.34L304.72 42.01C303.7 40.04 302.68 37.7 302.29 36.42L302.19 36.08L303.63 36.66L303.67 36.79C304.15 38.29 304.95 40.17 305.81 41.82C306.88 43.88 307.92 45.31 308.57 45.63C308.7 45.7 308.81 45.71 308.89 45.68C309.33 45.49 309.05 44.22 307.95 41.41C306.27 37.25 305.93 35.22 306.82 34.84C307.71 34.46 309.4 36.14 311.24 39.23L312.22 38.81L313.31 40.9L312.39 41.29C313.64 43.7 314.23 45.26 314.47 45.98L314.59 46.35L313.12 45.66L313.08 45.54C312.78 44.65 312.22 43.22 311.29 41.43C309.86 38.69 309.02 38.11 308.8 38C308.73 37.96 308.63 37.93 308.57 37.96C308.1 38.16 308.64 39.82 309.66 42.44C311.04 45.95 311.73 48.38 310.63 48.85C309.65 49.27 307.88 47.48 305.88 44.07L305.06 44.42L305.04 44.43ZM304.48 42.61L305.15 43.9L305.95 43.55L306.06 43.74C308.32 47.63 309.81 48.72 310.41 48.46C311.13 48.15 310.79 46.32 309.3 42.53C308.08 39.42 307.63 37.88 308.34 37.58C308.44 37.54 308.6 37.52 308.86 37.64C309.58 38 310.55 39.3 311.59 41.32C312.5 43.06 313.06 44.48 313.38 45.39L313.97 45.66C313.67 44.83 313.07 43.37 311.98 41.27L311.96 41.23L311.86 41.03L312.78 40.64L312.11 39.35L311.15 39.76L311.04 39.58C309.08 36.24 307.61 35 307.02 35.25C306.35 35.54 306.78 37.59 308.29 41.34C309.56 44.56 309.77 45.81 309.1 46.09C308.93 46.16 308.73 46.14 308.5 46.02C307.72 45.63 306.66 44.19 305.5 41.96C304.65 40.33 303.86 38.47 303.36 36.97L302.77 36.73C303.21 38.04 304.14 40.13 305.07 41.91C305.08 41.94 305.1 41.97 305.11 41.99C305.12 42.02 305.14 42.04 305.15 42.07L305.26 42.27L304.49 42.6L304.48 42.61Z"
              fill="black"/>
        <path d="M306.54 53.42L306.36 53.2L308.56 52.28L308.74 52.5L306.55 53.42H306.54Z" fill="black"/>
        <path d="M307.09 54.0599L306.9 53.8399L309.07 52.9299L309.25 53.1499L307.09 54.0599Z" fill="black"/>
        <path d="M307.58 54.59L307.38 54.38L309.52 53.48L309.71 53.7L307.58 54.59Z" fill="black"/>
        <path d="M308.17 55.1999L307.96 54.9899L310.07 54.0999L310.26 54.3199L308.16 55.1999H308.17Z" fill="black"/>
        <path d="M308.74 55.7699L308.52 55.5599L310.6 54.6899L310.8 54.8999L308.73 55.7699H308.74Z" fill="black"/>
        <path d="M309.27 56.26L309.04 56.06L311.09 55.2L311.3 55.41L309.27 56.26Z" fill="black"/>
        <path d="M309.83 56.77L309.62 56.56L311.63 55.72L311.85 55.92L309.83 56.77Z" fill="black"/>
        <path d="M310.38 57.2099L310.25 56.9699L312.13 56.1799L312.36 56.3799L310.38 57.2099Z" fill="black"/>
        <path d="M311.03 57.6999L310.9 57.4599L312.73 56.6899L312.98 56.8799L311.03 57.6999Z" fill="black"/>
        <path d="M311.75 58.1199L311.46 57.9399L313.34 57.1499L313.61 57.3399L311.75 58.1199Z" fill="black"/>
        <path d="M312.35 58.46L312.04 58.29L313.88 57.52L314.17 57.7L312.35 58.46Z" fill="black"/>
        <path d="M313.03 58.7699L312.69 58.6199L314.48 57.8699L314.81 58.0299L313.04 58.7699H313.03Z" fill="black"/>
        <path d="M313.69 58.9999L313.29 58.8699L315.04 58.1399L315.42 58.2799L313.68 59.0099L313.69 58.9999Z"
              fill="black"/>
        <path d="M314.23 59.1301L313.85 59.0401L315.57 58.3201L315.96 58.4101L314.23 59.1401V59.1301Z" fill="black"/>
        <path d="M314.79 59.1899L314.4 59.1599L316.14 58.4299L316.57 58.4499L314.79 59.1999V59.1899Z" fill="black"/>
        <g opacity="0.74">
            <path d="M305.82 52.5499L305.64 52.3299L307.86 51.3999L308.01 51.6299L305.82 52.5499Z" fill="black"/>
        </g>
        <g opacity="0.55">
            <path d="M304.81 51.2L304.64 50.98L306.9 50.03L307.06 50.26L304.81 51.2Z" fill="black"/>
        </g>
        <path d="M296.99 27.9798L297.11 27.6298L298.54 27.0298L298.49 27.3498L296.99 27.9798Z" fill="black"/>
        <path d="M296.83 28.74L296.87 28.43L298.43 27.78L298.41 28.09L296.83 28.75V28.74Z" fill="black"/>
        <path d="M296.69 29.6299L296.72 29.3199L298.38 28.6199V28.9199L296.69 29.6299Z" fill="black"/>
        <path d="M296.67 30.54V30.24L298.42 29.5L298.44 29.79L296.67 30.53V30.54Z" fill="black"/>
        <path d="M296.68 31.4199L296.66 31.1299L298.5 30.3599L298.53 30.6399L296.68 31.4199Z" fill="black"/>
        <path d="M296.9 32.3699L296.77 32.1299L298.52 31.3999L298.65 31.6399L296.9 32.3699Z" fill="black"/>
        <path d="M296.9 33.4298L296.86 33.1498L298.8 32.3398L298.89 32.5998L296.9 33.4298Z" fill="black"/>
        <path d="M297.07 34.36L297.02 34.09L299.04 33.24L299.11 33.51L297.07 34.37V34.36Z" fill="black"/>
        <path d="M297.28 35.35L297.22 35.08L299.29 34.21L299.38 34.47L297.28 35.35Z" fill="black"/>
        <path d="M297.58 36.5101L297.51 36.2401L299.63 35.3501L299.72 35.6101L297.58 36.5101Z" fill="black"/>
        <path d="M298.15 38.3699L298.07 38.1099L300.26 37.1899L300.35 37.4499L298.15 38.3699Z" fill="black"/>
        <path d="M298.87 40.3899L298.77 40.1299L301.02 39.1899L301.13 39.4399L298.87 40.3899Z" fill="black"/>
        <path d="M316.1 46.1699C316.1 46.1699 319.07 54.1399 316.16 56.2599C316.16 56.2599 314.76 56.9899 312.24 54.8599C312.24 54.8599 319.43 60.0999 316.1 46.1699Z"
              fill="black"/>
        <path d="M319.95 141.44C314.53 143.68 308.03 141.47 305.42 136.51C302.82 131.55 305.1 125.71 310.52 123.47C315.94 121.23 322.44 123.44 325.05 128.4C327.65 133.36 325.37 139.2 319.95 141.44Z"
              fill="white"/>
        <path d="M304.68 137.48C301.91 132.2 304.35 125.98 310.11 123.6C315.87 121.22 322.81 123.58 325.58 128.85C328.35 134.13 325.91 140.35 320.15 142.73C314.39 145.11 307.45 142.75 304.68 137.48ZM324.3 129.37C321.87 124.74 315.77 122.67 310.71 124.76C305.65 126.85 303.51 132.32 305.94 136.96C308.37 141.59 314.47 143.66 319.53 141.57C324.59 139.48 326.73 134.01 324.3 129.37Z"
              fill="black"/>
        <path d="M304.79 136.77C302.02 131.49 304.46 125.27 310.22 122.89C315.98 120.51 322.92 122.87 325.69 128.14C328.46 133.42 326.02 139.64 320.26 142.02C314.5 144.4 307.56 142.04 304.79 136.77ZM324.41 128.66C321.98 124.02 315.88 121.96 310.82 124.05C305.76 126.14 303.62 131.61 306.05 136.25C308.48 140.89 314.58 142.95 319.64 140.86C324.7 138.77 326.84 133.3 324.41 128.67V128.66Z"
              fill="white"/>
        <path d="M308.05 140.84C306.6 139.81 305.39 138.48 304.55 136.87C303.17 134.23 303 131.29 304.09 128.58C305.15 125.93 307.29 123.82 310.12 122.66C316.01 120.23 323.11 122.63 325.94 128.03C327.32 130.67 327.49 133.61 326.41 136.32C325.35 138.97 323.21 141.08 320.38 142.24C316.24 143.95 311.5 143.27 308.06 140.83L308.05 140.84ZM322.09 124.45C318.81 122.13 314.28 121.47 310.33 123.11C307.64 124.22 305.6 126.23 304.59 128.75C303.56 131.33 303.71 134.14 305.04 136.66C307.74 141.82 314.53 144.12 320.15 141.8C322.84 140.69 324.88 138.68 325.89 136.16C326.92 133.58 326.77 130.77 325.44 128.25C324.64 126.72 323.47 125.44 322.09 124.46V124.45ZM308.9 139.84C307.62 138.94 306.55 137.76 305.81 136.35C304.59 134.02 304.44 131.43 305.4 129.04C306.34 126.7 308.22 124.85 310.71 123.82C315.9 121.68 322.16 123.8 324.65 128.55C325.87 130.88 326.02 133.47 325.06 135.86C324.12 138.2 322.24 140.05 319.75 141.08C316.1 142.59 311.92 141.99 308.9 139.84ZM321.23 125.45C318.36 123.41 314.4 122.84 310.93 124.27C308.57 125.24 306.79 127 305.9 129.21C304.99 131.47 305.13 133.93 306.29 136.14C308.66 140.66 314.6 142.67 319.52 140.64C321.88 139.67 323.66 137.91 324.55 135.7C325.46 133.44 325.32 130.98 324.16 128.77C323.46 127.43 322.44 126.31 321.23 125.45Z"
              fill="black"/>
        <path d="M314.31 137.77C316.06 137.05 316.48 135.6 316.18 133.21C315.93 131.26 316.09 130.3 317.2 129.84C318.01 129.5 319.32 129.74 320.19 131.4C320.77 132.5 320.84 133.46 320.84 133.95L322.32 133.87C322.34 133.2 322.14 132.18 321.49 130.93C321.49 130.93 321.49 130.92 321.48 130.91L323.29 130.16L322.78 129.19L320.88 129.97C319.6 128.3 317.77 127.66 316.19 128.32C314.51 129.01 314.15 130.66 314.5 132.93C314.74 134.83 314.45 135.75 313.34 136.21C312.14 136.71 310.81 136.11 309.97 134.5C309.4 133.41 309.21 132.24 309.27 131.36L307.77 131.5C307.69 132.33 308.03 133.75 308.64 134.93C308.66 134.96 308.68 134.99 308.69 135.02L307.17 135.65L307.68 136.62L309.28 135.96C310.76 137.97 312.71 138.44 314.31 137.78V137.77Z"
              fill="black"/>
        <path d="M314.46 137.26C316.21 136.54 316.63 135.09 316.33 132.7C316.08 130.75 316.24 129.79 317.36 129.33C318.17 128.99 319.48 129.23 320.35 130.89C320.93 131.99 321 132.95 321 133.44L322.48 133.36C322.5 132.69 322.3 131.67 321.65 130.42C321.65 130.42 321.65 130.41 321.64 130.4L323.45 129.65L322.94 128.68L321.04 129.46C319.76 127.79 317.93 127.15 316.35 127.81C314.67 128.5 314.31 130.15 314.66 132.42C314.91 134.32 314.61 135.24 313.5 135.7C312.3 136.2 310.97 135.6 310.13 133.99C309.56 132.9 309.37 131.73 309.43 130.85L307.93 130.99C307.85 131.82 308.19 133.24 308.8 134.42C308.82 134.45 308.84 134.48 308.85 134.51L307.33 135.14L307.84 136.11L309.44 135.45C310.92 137.46 312.87 137.93 314.47 137.27L314.46 137.26Z"
              fill="white"/>
        <path d="M307.7 136.42L306.96 135.01L308.48 134.38C307.9 133.22 307.56 131.84 307.65 130.96L307.67 130.76L309.7 130.58L309.68 130.87C309.62 131.84 309.87 132.97 310.36 133.9C311.12 135.34 312.27 135.95 313.38 135.49C314.36 135.09 314.62 134.29 314.39 132.46C313.98 129.83 314.56 128.28 316.23 127.59C317.88 126.91 319.78 127.53 321.12 129.16L323.06 128.36L323.8 129.77L321.99 130.52C322.67 131.89 322.75 132.88 322.74 133.36V133.58L320.72 133.69V133.43C320.72 132.86 320.62 131.98 320.1 130.99C319.35 129.55 318.23 129.23 317.46 129.55C316.55 129.93 316.34 130.68 316.59 132.67C316.93 135.32 316.32 136.75 314.57 137.48C312.75 138.23 310.76 137.56 309.34 135.74L307.7 136.42ZM307.68 135.25L307.96 135.78L309.53 135.13L309.66 135.3C310.94 137.04 312.73 137.71 314.35 137.04C315.88 136.41 316.37 135.16 316.06 132.73C315.82 130.8 315.93 129.65 317.24 129.1C318.25 128.68 319.67 129.04 320.58 130.78C321.07 131.72 321.22 132.56 321.25 133.18L322.2 133.13C322.18 132.61 322.02 131.72 321.4 130.53C321.4 130.53 321.4 130.52 321.39 130.51L321.27 130.28L323.08 129.53L322.8 129L320.94 129.77L320.81 129.6C319.62 128.04 317.91 127.43 316.45 128.03C315.03 128.62 314.55 130 314.92 132.39C315.22 134.75 314.61 135.51 313.6 135.92C312.22 136.49 310.76 135.77 309.88 134.09C309.4 133.17 309.13 132.1 309.14 131.11L308.18 131.2C308.17 132.03 308.51 133.29 309.04 134.3C309.04 134.31 309.05 134.33 309.06 134.34C309.06 134.36 309.08 134.37 309.09 134.39L309.21 134.62L307.69 135.25H307.68Z"
              fill="black"/>
        <path d="M167.6 84.4268L166.19 89.6968L167.43 95.3968L168.75 89.7968L167.6 84.4368V84.4268Z" fill="white"/>
        <path d="M172.01 89.7068L167.71 88.7168L163 89.8268L167.57 90.7368L172 89.7068H172.01Z" fill="white"/>
        <path d="M290.04 182.087L288.63 187.357L289.87 193.057L291.19 187.457L290.04 182.097V182.087Z" fill="white"/>
        <path d="M294.45 187.367L290.15 186.377L285.44 187.487L290.01 188.397L294.44 187.367H294.45Z" fill="white"/>
        <path d="M217.33 109.247L215.92 114.517L217.16 120.217L218.48 114.617L217.33 109.257V109.247Z" fill="white"/>
        <path d="M221.74 114.517L217.44 113.527L212.73 114.637L217.3 115.547L221.73 114.517H221.74Z" fill="white"/>
        <path d="M231.174 36.1014L229.099 43.8221L230.913 52.1669L232.843 43.9528L231.159 36.0869L231.174 36.1014Z"
              fill="white"/>
        <path d="M237.632 43.8221L231.333 42.3708L224.44 43.9963L231.145 45.3314L237.632 43.8366V43.8221Z"
              fill="white"/>
        <path d="M328.336 72.0996L326.519 78.8601L328.107 86.1669L329.798 78.9744L328.324 72.0869L328.336 72.0996Z"
              fill="white"/>
        <path d="M333.991 78.8601L328.476 77.5894L322.44 79.0126L328.311 80.1817L333.991 78.8728V78.8601Z"
              fill="white"/>
        <path d="M289.06 106.087L286.414 115.964L288.732 126.627L291.208 116.134L289.06 106.087Z" fill="white"/>
        <path d="M297.312 115.964L289.256 114.117L280.44 116.187L289.007 117.89L297.312 115.964Z" fill="white"/>
        <path d="M187.93 131.737L185.93 139.207L187.69 147.267L189.56 139.327L187.94 131.727L187.93 131.737Z"
              fill="white"/>
        <path d="M194.18 139.197L188.09 137.797L181.43 139.367L187.91 140.647L194.19 139.197H194.18Z" fill="white"/>
        <path d="M285.246 32L283.336 38.3912L284.635 45.368L286.442 38.5694L285.246 32Z" fill="white"/>
        <path d="M290.414 38.5695L285.22 37.22L279.44 38.4167L284.991 39.6644L290.44 38.544L290.414 38.5695Z"
              fill="white"/>
        <path d="M85.0197 129.46C83.4597 133.76 82.3697 138.23 81.7997 142.77C77.7397 142.2 73.6697 141.61 69.6097 141.04C68.3697 140.86 63.3797 140.51 62.8197 141.15C61.6397 142.5 61.2997 144.66 60.8597 146.34C60.6897 146.98 60.3797 149.52 59.4697 149.63C58.0497 149.8 56.3297 150 55.0197 150.6C54.0797 151.02 53.5197 151.99 52.6797 152.62C50.6597 154.13 48.0997 154.92 45.5797 154.77C42.5897 154.59 39.8997 153.87 37.2797 155.78C35.0397 157.41 32.5997 158.43 29.7997 157.49C26.7197 156.46 24.8297 153.42 25.0597 150.2C24.3297 150.98 22.9397 151.51 21.8797 151.6C18.2397 151.9 15.2697 148.23 14.7597 144.9C14.3497 142.18 15.3797 139.42 17.2997 137.5C16.9897 137.81 15.5597 137.21 15.2497 137.06C14.5297 136.71 13.8997 136.17 13.5097 135.46C12.6797 133.92 12.4997 132.12 13.4297 130.58C14.2397 129.23 15.6397 128.32 17.0997 127.74C18.5597 127.16 20.1197 126.86 21.6397 126.46C25.6297 125.4 30.0197 123.64 32.9397 120.65C33.2197 120.37 33.6297 119.69 33.9797 119.53C32.8597 120.04 31.4497 119.81 30.5597 118.97C28.7597 117.3 29.7397 114.91 31.4597 113.66C32.5897 112.85 33.9697 112.48 35.3197 112.18C39.1897 111.32 43.2597 110.91 46.7497 109.03C51.7097 106.36 53.3097 102.62 58.0297 99.54C60.8597 97.69 65.7097 96.01 69.0897 96C72.9597 96 77.1497 97 79.8097 98.83L79.6397 99.32C79.9397 99.14 80.0997 99.03 80.0497 98.99C79.9697 98.93 79.8897 98.88 79.8097 98.82L79.8697 98.66C81.0297 100.33 80.5497 102.58 80.2097 104.58C78.7397 113.06 80.3197 122.25 85.0197 129.46Z"
              fill="black"/>
        <path d="M16.7598 138.61C14.4098 140.48 13.2298 143.72 13.8198 146.66" stroke="black" stroke-width="0.78"
              stroke-linecap="round" stroke-linejoin="round"/>
        <path d="M12.4399 129.56C14.1899 127.74 16.7899 127.03 19.2799 126.64C21.7699 126.25 24.3599 126.08 26.6599 125.04"
              stroke="black" stroke-width="0.78" stroke-linecap="round" stroke-linejoin="round"/>
        <path d="M30.46 113.17C32.06 111.91 34.22 111.64 36.26 111.68C38.3 111.72 40.35 112.01 42.36 111.68"
              stroke="black" stroke-width="0.78" stroke-linecap="round" stroke-linejoin="round"/>
        <path d="M80.0497 98.9901C80.0497 98.9901 79.9296 99.1401 79.6396 99.3201L79.8096 98.8301C79.8896 98.8801 79.9797 98.9401 80.0497 99.0001V98.9901Z"
              fill="black"/>
        <path d="M82.5698 140.5C81.5698 140.58 80.7198 140.61 80.7198 140.45V140.41C80.7198 139.74 80.6598 138.27 80.6598 136.83C80.6598 136.33 80.6398 133.96 80.6598 132.99C79.3798 131.88 78.5598 130.78 77.2798 129.67C74.2798 127.06 71.2698 124.45 68.2698 121.84C67.6298 121.28 66.9098 120.7 66.0598 120.68C65.3198 120.66 64.5898 121.14 64.3198 121.83C64.0498 122.52 64.1098 123.35 64.6598 123.85C65.3598 127.33 66.0798 131.28 65.7598 135.82C65.6498 137.4 65.4898 138.61 65.3398 139.82C65.3198 139.99 65.2998 140.16 65.2798 140.32C64.9398 140.3 64.6098 140.27 64.2798 140.25C63.7398 141.01 64.1498 142.2 64.7798 142.89C67.1498 145.51 70.8298 146.88 74.3298 146.45C77.8298 146.02 80.9098 143.6 82.5698 140.48V140.5Z"
              fill="white" stroke="black" stroke-width="0.78" stroke-linecap="round" stroke-linejoin="round"/>
        <path d="M170.94 102.28L171.57 114.33L100.84 114.31L100.6 109.76L170.94 102.28Z" fill="white" stroke="black"
              stroke-width="0.78" stroke-linecap="round" stroke-linejoin="round"/>
        <path d="M178.86 100.39L179.66 115.38L171.61 115.07L170.9 101.54L178.86 100.39Z" fill="white" stroke="black"
              stroke-width="0.78" stroke-linecap="round" stroke-linejoin="round"/>
        <path d="M150.6 103.87L151.18 114.89L145.27 114.66L144.75 104.72L150.6 103.87Z" fill="white" stroke="black"
              stroke-width="0.78" stroke-linecap="round" stroke-linejoin="round"/>
        <path d="M117.07 107.48L117.46 114.84L113.52 114.68L113.17 108.05L117.07 107.48Z" fill="white" stroke="black"
              stroke-width="0.78" stroke-linecap="round" stroke-linejoin="round"/>
        <path d="M100.586 109.245L98.3887 109.362L98.6831 114.924L100.88 114.807L100.586 109.245Z" fill="white"
              stroke="black" stroke-width="0.78" stroke-linecap="round" stroke-linejoin="round"/>
        <path d="M130.63 105.3C130.86 105.01 131.18 104.78 131.54 104.7C131.9 104.62 132.31 104.73 132.54 105.02C132.76 105.3 132.78 105.68 132.79 106.03C132.83 107.07 132.85 108.15 132.46 109.11C132.32 109.44 132.09 109.79 131.74 109.83C131.34 109.88 131.02 109.51 130.78 109.18"
              fill="white"/>
        <path d="M130.63 105.3C130.86 105.01 131.18 104.78 131.54 104.7C131.9 104.62 132.31 104.73 132.54 105.02C132.76 105.3 132.78 105.68 132.79 106.03C132.83 107.07 132.85 108.15 132.46 109.11C132.32 109.44 132.09 109.79 131.74 109.83C131.34 109.88 131.02 109.51 130.78 109.18"
              stroke="black" stroke-width="0.78" stroke-linecap="round" stroke-linejoin="round"/>
        <path d="M128.09 104.98C128.26 104.69 128.53 104.44 128.85 104.32C129.17 104.2 129.54 104.21 129.84 104.38C130.25 104.61 130.46 105.09 130.59 105.55C130.84 106.43 130.94 107.35 130.87 108.26C130.83 108.73 130.74 109.32 130.42 109.69C130.23 109.9 129.92 110.03 129.66 109.93C129.39 109.83 129.06 109.48 128.89 109.17"
              fill="white"/>
        <path d="M128.09 104.98C128.26 104.69 128.53 104.44 128.85 104.32C129.17 104.2 129.54 104.21 129.84 104.38C130.25 104.61 130.46 105.09 130.59 105.55C130.84 106.43 130.94 107.35 130.87 108.26C130.83 108.73 130.74 109.32 130.42 109.69C130.23 109.9 129.92 110.03 129.66 109.93C129.39 109.83 129.06 109.48 128.89 109.17"
              stroke="black" stroke-width="0.78" stroke-linecap="round" stroke-linejoin="round"/>
        <path d="M125.62 106.53C125.46 106.05 125.48 105.5 125.73 105.06C125.98 104.62 126.5 104.33 127 104.41C127.55 104.5 127.95 104.99 128.21 105.49C128.82 106.61 129.06 107.91 128.88 109.17C128.82 109.58 128.69 110.04 128.31 110.23C128 110.39 127.62 110.3 127.33 110.11C127.04 109.92 126.84 109.63 126.64 109.35"
              fill="white"/>
        <path d="M125.62 106.53C125.46 106.05 125.48 105.5 125.73 105.06C125.98 104.62 126.5 104.33 127 104.41C127.55 104.5 127.95 104.99 128.21 105.49C128.82 106.61 129.06 107.91 128.88 109.17C128.82 109.58 128.69 110.04 128.31 110.23C128 110.39 127.62 110.3 127.33 110.11C127.04 109.92 126.84 109.63 126.64 109.35"
              stroke="black" stroke-width="0.78" stroke-linecap="round" stroke-linejoin="round"/>
        <path d="M123.82 109.4C123.41 108.63 123.11 107.79 122.95 106.93C122.87 106.53 122.83 106.09 123.04 105.75C123.35 105.25 124.09 105.17 124.61 105.44C125.13 105.71 125.47 106.24 125.73 106.76C126.12 107.54 126.4 108.36 126.56 109.22C126.62 109.52 126.6 109.93 126.31 110.03"
              fill="white"/>
        <path d="M123.82 109.4C123.41 108.63 123.11 107.79 122.95 106.93C122.87 106.53 122.83 106.09 123.04 105.75C123.35 105.25 124.09 105.17 124.61 105.44C125.13 105.71 125.47 106.24 125.73 106.76C126.12 107.54 126.4 108.36 126.56 109.22C126.62 109.52 126.6 109.93 126.31 110.03"
              stroke="black" stroke-width="0.78" stroke-linecap="round" stroke-linejoin="round"/>
        <path d="M126.61 114.32L133.32 114.34C133.51 115.14 133.5 115.99 133.3 116.79C133.14 117.41 132.86 118 132.69 118.61C132.4 119.74 132.48 120.94 132.57 122.11C133.2 130.28 133.72 138.46 134.18 146.64C134.42 150.78 134.64 154.92 134.86 159.06C135.04 162.47 134.4 165.89 131.56 168.13C127.28 171.51 122.5 169.44 118.25 167.28C115.91 166.09 113.94 164.65 112.11 163.66L118.04 151.34C119.6 152.4 122.13 154.37 123.6 155.19C123.46 152.6 123.99 150.19 124.16 147.51C124.38 143.97 124.71 140.44 125 136.91C125.4 132.03 125.26 126.97 125.13 122.08C125.11 121.38 125.01 120.69 124.83 120.02C124.71 119.57 124.48 119.17 124.2 118.8C123.04 117.28 121.95 115.7 120.94 114.07C120.6 113.53 120.26 112.95 120.21 112.32C120.13 111.43 120.61 110.61 121.12 109.87C121.39 109.48 121.99 109.21 122.46 109.25C123.99 109.37 125.49 109.8 126.91 110.39C127.4 110.6 127.96 110.92 127.99 111.46C128.01 111.78 127.81 112.08 127.55 112.27C127.29 112.46 126.97 112.54 126.65 112.6C125.47 112.82 124.23 112.72 123.1 112.32"
              fill="white"/>
        <path d="M126.61 114.32L133.32 114.34C133.51 115.14 133.5 115.99 133.3 116.79C133.14 117.41 132.86 118 132.69 118.61C132.4 119.74 132.48 120.94 132.57 122.11C133.2 130.28 133.72 138.46 134.18 146.64C134.42 150.78 134.64 154.92 134.86 159.06C135.04 162.47 134.4 165.89 131.56 168.13C127.28 171.51 122.5 169.44 118.25 167.28C115.91 166.09 113.94 164.65 112.11 163.66L118.04 151.34C119.6 152.4 122.13 154.37 123.6 155.19C123.46 152.6 123.99 150.19 124.16 147.51C124.38 143.97 124.71 140.44 125 136.91C125.4 132.03 125.26 126.97 125.13 122.08C125.11 121.38 125.01 120.69 124.83 120.02C124.71 119.57 124.48 119.17 124.2 118.8C123.04 117.28 121.95 115.7 120.94 114.07C120.6 113.53 120.26 112.95 120.21 112.32C120.13 111.43 120.61 110.61 121.12 109.87C121.39 109.48 121.99 109.21 122.46 109.25C123.99 109.37 125.49 109.8 126.91 110.39C127.4 110.6 127.96 110.92 127.99 111.46C128.01 111.78 127.81 112.08 127.55 112.27C127.29 112.46 126.97 112.54 126.65 112.6C125.47 112.82 124.23 112.72 123.1 112.32"
              stroke="black" stroke-width="0.78" stroke-linecap="round" stroke-linejoin="round"/>
        <path d="M123.92 157.44C123.75 156.67 123.66 155.93 123.62 155.2L123.92 157.44Z" fill="white"/>
        <path d="M123.92 157.44C123.75 156.67 123.66 155.93 123.62 155.2" stroke="black" stroke-width="0.78"
              stroke-linecap="round" stroke-linejoin="round"/>
        <path d="M125.12 112.84C125.75 113.29 126.3 113.85 126.73 114.49C127.01 114.9 127.2 115.39 127.29 115.87"
              fill="white"/>
        <path d="M125.12 112.84C125.75 113.29 126.3 113.85 126.73 114.49C127.01 114.9 127.2 115.39 127.29 115.87"
              stroke="black" stroke-width="0.78" stroke-linecap="round" stroke-linejoin="round"/>
        <path d="M112.9 302.41C112.61 309.66 111.96 318.34 111.19 325.63C110.25 334.38 107.65 349 105.48 357.33C105.21 358.38 101.65 375.21 102.04 375.37C100.78 374.86 99.49 374.5 98.17 374.18C96.7 373.82 95.2 373.5 93.73 373.06C93.38 372.95 93.03 372.85 92.68 372.75C90.22 372.03 87.73 371.36 85.23 370.78C85.02 370.73 84.81 370.68 84.6 370.63C83.75 370.44 82.9 370.26 82.05 370.09C77.89 369.26 73.67 368.7 69.43 368.53C69.03 368.51 68.63 368.49 68.23 368.48C67.37 368.46 66.52 368.45 65.66 368.46C62.63 368.51 59.65 368.7 56.7 368.84C56.02 368.87 55.33 368.9 54.65 368.92C49.68 369.07 44.76 368.88 39.8 367.3C43.25 362.68 44.44 356.41 45.81 350.89C46.95 346.31 47.82 341.65 49.05 337.09C50.52 331.65 51.38 326.03 52.08 320.4C52.44 317.53 52.72 314.64 52.92 311.75C53.07 309.47 52.88 306.87 53.25 303.81C45.58 327.43 42.73 346.57 28.53 366.11C21.58 362.68 15.51 357.86 10 352.15C13.12 349.96 15.88 347.24 18.06 344.11C20.14 341.12 22.24 338.08 24.07 334.92C28.09 328 30.9 320.45 33.19 312.81C34.27 309.2 35.24 305.55 36.15 301.89C41.22 281.55 41.08 261.11 41.76 240.27C42.19 226.92 46.19 211.4 53.31 200.65L90.08 201.85C91.42 207.18 95.24 216.49 96.57 221.82C99.89 235.12 103.16 248.45 106.24 261.83C109.37 275.44 113.46 288.38 112.91 302.41H112.9Z"
              fill="black"/>
        <path d="M83.11 281.83C88.13 298.78 87.82 317.6 82.25 334.34" stroke="white" stroke-width="0.78"
              stroke-linecap="round" stroke-linejoin="round"/>
        <path d="M75.8599 246.52C76.4799 251.73 77.7799 256.86 79.7299 261.74" stroke="white" stroke-width="0.78"
              stroke-linecap="round" stroke-linejoin="round"/>
        <path d="M68.4802 125.16C70.3002 127.67 72.7802 129.66 75.5802 130.97C77.8602 132.03 81.6602 133.45 84.0802 132.33C92.9002 128.2 93.5202 117.65 90.9502 109.36C90.5102 107.95 90.0302 106.72 89.3402 105.45C89.2302 105.26 89.1202 105.06 89.0102 104.87C86.6902 100.92 80.9902 100.17 76.4002 100.01C73.2702 99.9002 66.2301 106.32 65.5001 108.88C64.6201 111.98 64.0402 115.19 65.2302 118.18C66.4202 121.17 66.8802 123.89 69.3402 125.97"
              fill="white"/>
        <path d="M68.48 125.16C70.3 127.67 72.78 129.66 75.58 130.97C77.86 132.03 81.66 133.45 84.08 132.33C92.9 128.2 93.52 117.65 90.95 109.36C90.51 107.95 90.03 106.72 89.34 105.45C89.23 105.26 89.12 105.06 89.01 104.87"
              stroke="black" stroke-width="0.78" stroke-linecap="round" stroke-linejoin="round"/>
        <path d="M64.0601 113.89C64.0601 113.89 63.9701 113.89 63.9301 113.91C62.4101 114.12 61.0301 115.13 60.3201 116.49C60.2901 116.55 60.2501 116.61 60.2301 116.67C60.1301 116.88 60.0501 117.1 59.9801 117.33C59.6501 118.51 59.8201 119.8 60.3901 120.88C60.6901 121.47 61.1201 121.99 61.6501 122.4C62.4701 123.03 63.4901 123.36 64.5101 123.37C64.7201 123.37 64.9201 123.37 65.1201 123.34C65.7701 123.27 66.4001 123.07 66.9601 122.74"
              fill="white"/>
        <path d="M64.0601 113.89C64.0601 113.89 63.9701 113.89 63.9301 113.91C62.4101 114.12 61.0301 115.13 60.3201 116.49C60.2901 116.55 60.2501 116.61 60.2301 116.67C60.1301 116.88 60.0501 117.1 59.9801 117.33C59.6501 118.51 59.8201 119.8 60.3901 120.88C60.6901 121.47 61.1201 121.99 61.6501 122.4C62.4701 123.03 63.4901 123.36 64.5101 123.37C64.7201 123.37 64.9201 123.37 65.1201 123.34C65.7701 123.27 66.4001 123.07 66.9601 122.74"
              stroke="black" stroke-width="0.78" stroke-linecap="round" stroke-linejoin="round"/>
        <path d="M87.2502 117.31C87.6802 117.59 87.9602 118.07 87.9802 118.58C88.0402 119.7 86.9802 120.3 85.9902 119.84"
              stroke="black" stroke-width="0.78" stroke-linecap="round" stroke-linejoin="round"/>
        <path d="M88.6304 122.62C86.4904 123.89 83.5904 123.79 81.5404 122.36C81.2904 124.23 82.2904 126.36 84.1004 126.87C85.2504 127.19 86.4804 126.87 87.4004 126.12C88.3204 125.37 88.7604 123.82 88.6304 122.63V122.62Z"
              fill="black"/>
        <path d="M89.9605 114.47C89.3005 114.53 88.7205 114.04 88.6505 113.38C88.6005 112.72 89.0905 112.13 89.7405 112.07C90.3905 112.01 90.9805 112.5 91.0405 113.16C91.1005 113.82 90.6105 114.4 89.9505 114.46L89.9605 114.47Z"
              fill="black"/>
        <path d="M82.1601 114.98C82.2301 115.64 81.7301 116.22 81.0701 116.28C80.4101 116.34 79.8301 115.85 79.7701 115.19C79.7101 114.53 80.2001 113.95 80.8601 113.89C81.5201 113.83 82.1001 114.31 82.1601 114.98Z"
              fill="black"/>
        <path d="M78.0703 113.76C78.2803 112.7 79.1303 111.78 80.1703 111.5" stroke="black" stroke-width="0.78"
              stroke-linecap="round" stroke-linejoin="round"/>
        <path d="M89.1904 110.51C90.0204 110.45 90.8804 110.84 91.3804 111.5" stroke="black" stroke-width="0.78"
              stroke-linecap="round" stroke-linejoin="round"/>
        <path d="M33.4102 233.12V556.96" stroke="white" stroke-width="10" stroke-linecap="round"
              stroke-linejoin="round"/>
        <path d="M115.03 233.12V556.96" stroke="white" stroke-width="10" stroke-linecap="round"
              stroke-linejoin="round"/>
        <path d="M33.4102 248.28H115.03" stroke="white" stroke-width="5"/>
        <path d="M33.4102 285.05H115.03" stroke="white" stroke-width="5"/>
        <path d="M33.4102 321.82H115.03" stroke="white" stroke-width="5"/>
        <path d="M33.4102 358.6H115.03" stroke="white" stroke-width="5"/>
        <path d="M33.4102 395.37H115.03" stroke="white" stroke-width="5"/>
        <path d="M33.4102 432.14H115.03" stroke="white" stroke-width="5"/>
        <path d="M33.4102 468.91H115.03" stroke="white" stroke-width="5"/>
        <path d="M47.2398 175.79C45.7998 183.46 44.1998 189.13 42.1598 196.67C41.5198 199.02 42.2798 200.31 42.7498 202.1C45.8698 214.22 50.5998 226.14 53.6098 238.29C54.4098 240.34 55.6998 242.39 57.3898 243.72C58.5398 244.63 59.1098 245.83 59.0098 247.38C58.8898 249.37 58.5198 251.43 57.9498 253.35C57.7498 254.01 57.4998 254.79 56.9698 255.25C56.6498 255.53 56.0998 255.61 55.7398 255.41C55.6798 255.85 55.2398 256.25 55.1198 256.32C54.7398 256.53 54.2998 256.57 53.9198 256.39C53.8498 256.78 53.5598 257.13 53.1998 257.27C52.8398 257.41 52.4198 257.33 52.1498 257.07C51.9198 257.64 51.2298 257.89 50.6598 257.79C49.5798 257.59 48.7998 256.62 48.1198 255.82C47.1898 254.73 46.4498 253.47 45.8198 252.16C45.5798 251.65 45.0598 250.93 45.3098 250.33C45.4198 250.07 45.6398 249.87 45.8998 249.78C46.5098 249.56 47.3998 250.15 47.8098 250.56L49.7598 252.42C48.8098 251.61 47.9398 250.68 47.1798 249.67C46.5098 248.79 45.7798 248.13 45.7898 246.88C45.7898 246.56 45.8398 246.24 45.7798 245.93C45.5998 245.01 45.6698 241.78 45.1498 241.06C38.3498 227.95 30.8898 219.24 27.7798 204.34C27.2898 201.99 26.4798 197.58 26.9098 195.19C28.4398 186.77 29.4998 178.26 31.4698 169.93L47.2598 175.8L47.2398 175.79Z"
              fill="white" stroke="black" stroke-width="0.78" stroke-linecap="round" stroke-linejoin="round"/>
        <path d="M49.2499 252.27C49.0399 252.49 48.9199 252.8 48.9199 253.11L49.2499 252.27Z" fill="white"/>
        <path d="M49.2499 252.27C49.0399 252.49 48.9199 252.8 48.9199 253.11" stroke="black" stroke-width="0.78"
              stroke-linecap="round" stroke-linejoin="round"/>
        <path d="M52.98 250.16C53.97 249.75 54.9 249.17 55.7 248.46" stroke="black" stroke-width="0.78"
              stroke-linecap="round" stroke-linejoin="round"/>
        <path d="M119.47 151.75C118.05 153.72 117.02 155.97 116.31 158.29C115.62 160.55 114.69 162.39 113.2 164.25C111.96 165.8 109.66 168.09 108.9 169.92C107.99 168.63 107.45 167.27 105.9 166.64C105.09 166.31 104.22 166.09 103.52 165.57C102.58 164.87 102.08 163.74 101.35 162.82C100.38 161.62 99.07 161.04 97.87 160.14C97.56 159.91 97.24 159.7 96.9 159.48C97.56 160.88 98.08 162.35 98.24 164.19C98.6 168.27 97.03 174.28 94.14 177.17C93.77 187.17 91.27 202.73 91.27 202.73C77.02 206.37 66.03 205.79 52.06 201.18C51.33 190.07 49.94 181.21 48.67 176.36C48.66 176.31 43.28 175.6 42.76 175.48C40.7 174.97 38.68 174.3 36.7 173.52C34.9 172.81 33.13 171.73 31.26 171.29C29.39 170.85 29.16 169.5 26.77 168.82C28.41 166.85 30.05 164.86 31.48 162.72C32.92 160.55 33.7 158.29 34.77 155.97C36.65 151.92 39.74 147.64 43.26 144.88C47.86 141.28 53.49 139.77 59.25 139.59C60.87 139.54 62.7 139.4 64.3 139.71C64.46 140.62 65.58 141.68 66.22 142.3C68.56 144.54 71.61 145.88 74.89 145.3C77.8 144.79 80.84 142.65 82.16 139.99C82.16 139.99 90.08 139.01 92.5 139.09C99.08 139.3 104.03 141.49 109.63 144.91C111.58 146.1 117.37 150.25 119.47 151.73V151.75Z"
              fill="#19D3C5"/>
        <path d="M47.2002 176.09C47.8502 176.19 48.5402 176.18 49.0002 176.17C49.1702 174.16 50.4302 163.83 51.7602 159.08"
              stroke="white" stroke-width="0.78" stroke-linecap="round" stroke-linejoin="round"/>
        <path d="M94.1299 177.18C97.0299 174.28 98.5999 168.27 98.2299 164.2C98.0699 162.36 97.5399 160.89 96.8899 159.49C96.0799 157.78 95.0699 156.16 94.2299 154.06"
              fill="#19D3C5"/>
        <path d="M94.1299 177.18C97.0299 174.28 98.5999 168.27 98.2299 164.2C98.0699 162.36 97.5399 160.89 96.8899 159.49C96.0799 157.78 95.0699 156.16 94.2299 154.06"
              stroke="white" stroke-miterlimit="10" stroke-linecap="round"/>
        <path d="M110.12 403.72C109.75 404.56 109.02 405.2 108.17 405.56C106.14 406.42 103.94 405.839 101.92 405.419C98.83 404.759 94.25 402.66 91.79 400.68C87.97 397.62 85.23 394.34 82.25 390.22L82.62 387.74C84.1 389.8 85.52 391.629 87.05 393.349C88.53 394.999 90.09 396.52 91.91 397.99C91.99 398.06 92.07 398.12 92.15 398.19C94.61 400.16 99.19 402.269 102.28 402.919C104.3 403.349 106.5 403.93 108.53 403.06C109.26 402.75 109.9 402.229 110.31 401.549C110.47 402.259 110.45 402.99 110.13 403.72H110.12Z"
              fill="white" stroke="black" stroke-width="0.78" stroke-linecap="round" stroke-linejoin="round"/>
        <path d="M103.63 392.7C103.19 392.68 102.75 392.69 102.32 392.72C102.1 392.73 101.88 392.75 101.66 392.77C101.58 392.77 101.51 392.79 101.43 392.79C101.2 392.82 100.97 392.86 100.74 392.89C100.74 392.89 100.73 392.89 100.72 392.89C100.46 392.93 100.2 392.98 99.9401 393.04C99.7001 393.09 99.4501 393.16 99.2101 393.23C99.1701 393.23 99.1301 393.25 99.1001 393.26C98.9201 393.31 98.7501 393.36 98.5801 393.43C98.4601 393.47 98.3401 393.51 98.2301 393.55C97.0301 393.98 95.8801 394.56 94.8401 395.28C94.4001 395.58 93.9801 395.91 93.5701 396.26C93.3701 396.43 93.1701 396.62 92.9801 396.8C92.7801 396.98 92.5901 397.17 92.4201 397.37C92.2401 397.57 92.0601 397.77 91.8901 397.97C91.4301 397.6 91.0001 397.23 90.5801 396.86C90.4201 396.72 90.2601 396.58 90.1101 396.43L89.6501 396C89.5001 395.86 89.3501 395.71 89.2001 395.57C89.0501 395.42 88.9001 395.28 88.7601 395.13C88.3701 394.74 87.9901 394.34 87.6001 393.94C87.4201 393.73 87.2301 393.53 87.0401 393.32C87.8601 388.97 86.5301 384.27 83.5801 380.99L84.0501 378.08L84.2901 376.63L85.2301 370.77C87.7401 371.34 90.2201 372.01 92.6801 372.74C93.0301 372.85 93.3801 372.95 93.7301 373.05C95.1901 373.49 96.6901 373.81 98.1701 374.17L97.8901 375.86C97.7801 376.64 97.7101 377.41 97.6901 378.19C97.6801 378.68 97.6901 379.16 97.7101 379.64C97.7401 380.29 97.8101 380.93 97.9301 381.57C98.7001 386.08 100.99 389.5 103.63 392.68V392.7Z"
              fill="white" stroke="black" stroke-width="0.78" stroke-linecap="round" stroke-linejoin="round"/>
        <path d="M110.3 401.55C109.9 402.23 109.25 402.75 108.52 403.06C106.49 403.92 104.29 403.34 102.27 402.92C99.1799 402.27 94.5999 400.16 92.1399 398.19C92.0599 398.13 91.9799 398.06 91.8999 397.99C94.7099 394.55 99.1999 392.55 103.63 392.71C104.93 394.27 106.3 395.78 107.63 397.32C108.7 398.58 109.94 400.02 110.3 401.55Z"
              fill="black" stroke="black" stroke-width="0.78" stroke-linecap="round" stroke-linejoin="round"/>
        <path d="M87.0399 393.34C85.5099 391.62 84.0999 389.789 82.6099 387.729V387.71L83.5799 381C86.5299 384.29 87.8499 388.979 87.0399 393.329V393.34Z"
              fill="black" stroke="black" stroke-width="0.78" stroke-linecap="round" stroke-linejoin="round"/>
        <path d="M75.2502 406.95C74.7302 407.76 73.8802 408.31 72.9502 408.56C70.7202 409.15 68.5202 408.21 66.5002 407.45C63.4002 406.3 58.9802 403.42 56.7302 401C53.2502 397.25 50.9002 393.44 48.4502 388.71L49.2102 386.2C50.4302 388.55 51.6202 390.68 52.9402 392.69C54.2202 394.62 55.6102 396.44 57.2602 398.24C57.3302 398.32 57.4002 398.4 57.4802 398.48C59.7302 400.9 64.1502 403.78 67.2502 404.93C69.2702 405.68 71.4702 406.62 73.7002 406.04C74.5002 405.83 75.2502 405.39 75.7702 404.75C75.8302 405.51 75.6902 406.26 75.2502 406.97V406.95Z"
              fill="white" stroke="black" stroke-width="0.78" stroke-linecap="round" stroke-linejoin="round"/>
        <path d="M70.22 394.56C69.76 394.48 69.3 394.41 68.85 394.38C68.67 394.36 68.48 394.34 68.3 394.34C67.78 394.32 67.27 394.32 66.76 394.34C66.58 394.34 66.4 394.36 66.21 394.38C65.48 394.44 64.76 394.56 64.05 394.72C63.59 394.83 63.14 394.95 62.69 395.1C62.51 395.16 62.32 395.22 62.14 395.3C61.99 395.35 61.83 395.41 61.68 395.48C61.63 395.5 61.59 395.52 61.54 395.54C61.37 395.61 61.21 395.68 61.05 395.75C60.87 395.83 60.69 395.92 60.52 396C60.27 396.12 60.02 396.25 59.79 396.4C59.75 396.42 59.71 396.44 59.68 396.47C59.47 396.59 59.27 396.71 59.08 396.84C58.88 396.96 58.69 397.1 58.51 397.24C58.08 397.55 57.66 397.89 57.27 398.25C56.86 397.8 56.46 397.35 56.08 396.9C55.7 396.44 55.33 395.99 54.97 395.53C54.79 395.3 54.61 395.06 54.44 394.83C54.1 394.37 53.76 393.9 53.43 393.42C53.27 393.18 53.1 392.94 52.94 392.7C53.54 390.96 53.79 389.12 53.73 387.29C53.73 387.17 53.73 387.05 53.71 386.92C53.71 386.8 53.7 386.68 53.69 386.56C53.68 386.39 53.66 386.23 53.64 386.07C53.63 385.96 53.61 385.84 53.59 385.73C53.59 385.66 53.57 385.6 53.57 385.53C53.55 385.41 53.53 385.3 53.51 385.18C53.46 384.9 53.41 384.62 53.34 384.35C53.32 384.23 53.29 384.11 53.25 383.98C53.16 383.61 53.05 383.26 52.94 382.9C52.83 382.55 52.7 382.21 52.55 381.86C52.48 381.69 52.4 381.52 52.32 381.35C52.25 381.18 52.17 381.01 52.08 380.85C52 380.68 51.91 380.52 51.82 380.36C51.64 380.03 51.45 379.72 51.25 379.41L52 377.11L52.46 375.72L54.66 368.95C55.34 368.93 56.03 368.9 56.71 368.87C59.67 368.73 62.65 368.54 65.67 368.49C66.53 368.48 67.38 368.49 68.24 368.51C68.64 368.52 69.04 368.53 69.44 368.56L66.85 376.29C66.69 376.84 66.54 377.41 66.44 377.98C66.32 378.47 66.24 378.96 66.17 379.47C66.05 380.38 66 381.3 66.02 382.21C66.13 386.99 67.98 390.88 70.23 394.58L70.22 394.56Z"
              fill="white" stroke="black" stroke-width="0.78" stroke-linecap="round" stroke-linejoin="round"/>
        <path d="M75.7703 404.73C75.2503 405.37 74.5003 405.81 73.7003 406.02C71.4703 406.61 69.2703 405.67 67.2503 404.91C64.1503 403.76 59.7303 400.88 57.4803 398.46C57.4103 398.38 57.3403 398.3 57.2603 398.22C60.7003 395.09 65.6503 393.7 70.2103 394.55C71.3103 396.36 72.5103 398.14 73.6403 399.94C74.5603 401.41 75.6203 403.09 75.7603 404.73H75.7703Z"
              fill="black" stroke="black" stroke-width="0.78" stroke-linecap="round" stroke-linejoin="round"/>
        <path d="M52.94 392.68C51.62 390.67 50.44 388.55 49.21 386.19V386.17L51.24 379.38C53.79 383.24 54.44 388.3 52.94 392.68Z"
              fill="black" stroke="black" stroke-width="0.78" stroke-linecap="round" stroke-linejoin="round"/>
        <path d="M66.16 379.45C63.54 379.71 60.89 379.57 58.31 379.08C56.14 378.67 54.01 378 52 377.09L52.46 375.7C56.79 377.71 61.7 378.5 66.43 377.96C66.31 378.45 66.23 378.95 66.16 379.45Z"
              fill="black"/>
        <path d="M97.7103 379.66C96.4103 379.79 95.1003 379.84 93.8003 379.81C90.4803 379.73 87.1803 379.15 84.0503 378.1L84.2903 376.65C88.5503 378.13 93.1903 378.67 97.6903 378.22C97.6803 378.71 97.6903 379.18 97.7103 379.67V379.66Z"
              fill="black"/>
        <path d="M91.8001 108.11C91.1301 108.17 90.7201 108.01 90.0801 107.81C88.4901 107.3 87.3001 105.79 86.5901 104.28C85.7101 106.69 83.5801 108.59 81.1301 109.34C81.4701 108.23 81.6401 107.13 81.5001 105.98C80.7901 108.44 78.5901 110.31 76.1401 111.05C76.5101 109.92 76.8001 108.68 76.8101 107.49C76.1501 109.45 75.0301 111.25 73.6001 112.75C72.5301 113.87 71.1601 115.47 68.4001 116.32C68.7301 115.75 69.4201 114.83 69.3601 114.18C68.7401 115.2 67.8301 116.1 66.7701 116.68C66.5001 116.82 64.6401 117.33 63.8401 117.25C63.6401 117.23 63.5101 117.17 63.4801 117.06C62.4001 112.18 63.9101 106.59 67.4101 103.02C70.9201 99.4501 76.2801 97.8101 81.1801 98.8101C86.0801 99.8101 89.9601 103.46 91.7901 108.12L91.8001 108.11Z"
              fill="black"/>
        <path d="M63.5401 113.76C60.6901 104.51 70.0401 95.3701 79.2201 98.4301C77.0601 98.4301 75.0101 98.8101 73.1101 99.5301C67.2201 101.68 63.5901 107.54 63.5301 113.76H63.5401Z"
              fill="white"/>
    </g>
    <defs>
        <clipPath id="clip0_1263_2765">
            <rect width="346" height="501" fill="white"/>
        </clipPath>
    </defs>
</svg>
