<svg width="48" height="48" viewBox="0 0 48 48" fill="none" xmlns="http://www.w3.org/2000/svg">
<rect width="48" height="48" rx="24" fill="white"/>
<path d="M18 14H16C14.8954 14 14 14.8954 14 16V18" stroke="black" stroke-width="1.5" stroke-linecap="round" stroke-linejoin="round"/>
<path d="M30 14H32C33.1046 14 34 14.8954 34 16V18" stroke="black" stroke-width="1.5" stroke-linecap="round" stroke-linejoin="round"/>
<path d="M18 34H16C14.8954 34 14 33.1046 14 32V30" stroke="black" stroke-width="1.5" stroke-linecap="round" stroke-linejoin="round"/>
<path d="M30 34H32C33.1046 34 34 33.1046 34 32V30" stroke="black" stroke-width="1.5" stroke-linecap="round" stroke-linejoin="round"/>
<path d="M23.0628 31.7383L17.9372 28.6999C17.6422 28.5252 17.4122 28.2919 17.2473 28.0001C17.0824 27.7082 17 27.3876 17 27.0383V20.9615C17 20.6123 17.0824 20.2918 17.2473 19.9999C17.4122 19.7081 17.6422 19.4748 17.9372 19.3001L23.0628 16.2617C23.3578 16.0872 23.6702 16 24 16C24.3298 16 24.6422 16.0872 24.9372 16.2617L30.0628 19.3001C30.3578 19.4748 30.5878 19.7081 30.7527 19.9999C30.9176 20.2918 31 20.6123 31 20.9615V27.0383C31 27.3876 30.9176 27.7082 30.7527 28.0001C30.5878 28.2919 30.3578 28.5252 30.0628 28.6999L24.9372 31.7383C24.6422 31.9128 24.3298 32 24 32C23.6702 32 23.3578 31.9128 23.0628 31.7383ZM23.2222 29.9971V24.4481L18.5556 21.698V27.0383C18.5556 27.0929 18.5689 27.144 18.5955 27.1917C18.6221 27.2396 18.6619 27.2806 18.715 27.3146L23.2222 29.9971ZM24.7778 29.9971L29.285 27.3146C29.3381 27.2806 29.3779 27.2396 29.4045 27.1917C29.4311 27.144 29.4444 27.0929 29.4444 27.0383V21.698L24.7778 24.4481V29.9971ZM24 23.0732L28.6348 20.3026L24.1594 17.6571C24.1064 17.6231 24.0532 17.606 24 17.606C23.9468 17.606 23.8936 17.6231 23.8406 17.6571L19.3652 20.3026L24 23.0732Z" fill="black"/>
</svg>
