<svg width="88" height="88" viewBox="0 0 88 88" fill="none" xmlns="http://www.w3.org/2000/svg">
    <rect x="3" y="16" width="82" height="56" rx="4" fill="white"/>
    <rect x="3" y="41" width="82" height="8" fill="#19D3C5"/>
    <path d="M28.0957 34.6428C28.0957 31.0285 31.029 28.0952 34.6433 28.0952C38.2576 28.0952 41.1909 31.0285 41.1909 34.6428C41.1909 38.2571 38.2576 41.1905 34.6433 41.1905H28.0957V34.6428Z"
          stroke="black" stroke-width="2" stroke-linecap="round" stroke-linejoin="round"/>
    <path d="M28.0952 34.6428C28.0952 31.0285 25.1619 28.0952 21.5476 28.0952C17.9333 28.0952 15 31.0285 15 34.6428C15 38.2571 17.9333 41.1905 21.5476 41.1905H28.0952V34.6428Z"
          stroke="black" stroke-width="2" stroke-linecap="round" stroke-linejoin="round"/>
    <path d="M17.6191 51.6666L28.0953 41.1904L38.5715 51.6666" stroke="black" stroke-width="2" stroke-linecap="round"
          stroke-linejoin="round"/>
    <path d="M28.0957 17V30" stroke="black" stroke-width="2" stroke-linecap="round" stroke-linejoin="round"/>
    <path d="M28.0957 43V71" stroke="black" stroke-width="2" stroke-linecap="round" stroke-linejoin="round"/>
    <rect x="4" y="17" width="80" height="54" rx="3" stroke="black" stroke-width="2"/>
</svg>
