<svg width="88" height="88" viewBox="0 0 88 88" fill="none" xmlns="http://www.w3.org/2000/svg">
<path d="M8.89922 28.7L28.6992 8.89995C30.2992 7.29995 32.7992 7.29995 34.3992 8.89995L78.1992 52.7C79.7992 54.2999 79.7992 56.8 78.1992 58.4L58.2992 78.1C56.6992 79.7 54.1992 79.7 52.5992 78.1L8.89922 34.3C7.29922 32.7 7.29922 30.2 8.89922 28.7Z" fill="white" stroke="black" stroke-width="2"/>
<path d="M39.3179 18.3183L18.3184 39.3178L47.4754 68.4749L68.475 47.4753L39.3179 18.3183Z" fill="#19D3C5"/>
<path d="M14.5 38.5999L38.9 14.2" stroke="black" stroke-width="2"/>
<path d="M48.4004 72.5L72.8004 48.1" stroke="black" stroke-width="2"/>
<path d="M72.3 15.7C68.7 12.1 64.4 9.2 59.5 7.1C54.7 5 49.4 4 43.9 4C42.9 4 42 4.1 41 4.2C40.3 4.3 39.7 4.4 39 4.5L56.1 21.5L57.4 20.2L43.2 6H44.4C49.6 6 54.6 7 59.2 9.1C63.8 11.1 67.8 13.9 71.2 17.3C74.6 20.7 77.3 24.8 79.3 29.4C81.2 33.8 82.2 38.7 82.2 43.7H84C83.9 38.4 82.9 33.3 80.9 28.6C78.8 23.7 75.9 19.4 72.3 15.7Z" fill="black"/>
<path d="M31.9 66.4L30.6 67.7L44.9 81.9H43.7C38.5 81.9 33.5 80.9 28.9 78.9C24.3 76.9 20.3 74.2 16.9 70.8C13.5 67.5 10.8 63.4 8.8 58.8C6.9 54.4 5.9 49.6 5.8 44.6H4C4.1 49.9 5.1 54.9 7.1 59.6C9.2 64.4 12.1 68.7 15.7 72.3C19.3 75.9 23.6 78.8 28.4 80.9C33.2 83 38.4 84 43.9 84C44.9 84 46 83.9 47 83.8C47.7 83.7 48.4 83.6 49.1 83.5L31.9 66.4Z" fill="black"/>
</svg>
