<svg width="88" height="88" viewBox="0 0 88 88" fill="none" xmlns="http://www.w3.org/2000/svg">
<path d="M59.1001 79.2999C61.8001 79.2999 64.1001 78.0999 65.8001 75.7999C67.5001 73.4999 68.4001 70.4999 68.3001 66.8999V65.8999L70.7001 62.0999C72.1001 59.7999 73.3001 56.9999 74.2001 53.5999C75.1001 50.2999 75.6001 46.9999 75.6001 43.8999C75.6001 38.9999 74.5001 34.8999 72.3001 31.6999C70.1001 28.4999 67.4001 26.8999 64.1001 26.8999C60.9001 26.8999 58.2001 28.4999 56.0001 31.7999C53.8001 35.0999 52.7001 39.0999 52.7001 43.8999C52.7001 46.9999 53.2001 50.1999 54.2001 53.3999C55.2001 56.5999 56.2001 59.2999 57.1001 61.3999L57.2001 61.4999L55.2001 64.7999C54.4001 66.0999 53.8001 67.3999 53.3001 68.6999C52.9001 69.9999 52.6001 71.1999 52.6001 72.0999C52.6001 74.1999 53.2001 75.8999 54.4001 77.2999C55.7001 78.5999 57.3001 79.2999 59.1001 79.2999ZM56.5001 53.5999C55.3001 50.1999 54.7001 46.8999 54.7001 43.9999C54.7001 39.8999 55.6001 36.3999 57.4001 33.4999C59.2001 30.5999 61.5001 29.0999 64.1001 29.0999C66.7001 29.0999 69.0001 30.5999 70.8001 33.4999C72.6001 36.3999 73.5001 39.8999 73.5001 43.9999C73.5001 47.6999 73.0001 51.0999 72.1001 53.9999C71.2001 56.8999 69.4001 60.2999 66.8001 64.2999L66.7001 64.4999L59.5001 61.8999V61.7999C58.7001 59.7999 57.7001 56.9999 56.5001 53.5999ZM56.0001 67.7999C56.8001 66.3999 57.6001 64.9999 58.2001 63.7999L58.3001 63.5999L66.2001 66.4999V66.6999C66.2001 69.8999 65.5001 72.3999 64.2001 74.3999C62.9001 76.3999 61.1001 77.3999 59.0001 77.3999C57.8001 77.3999 56.8001 76.8999 55.9001 75.7999C55.0001 74.7999 54.6001 73.5999 54.6001 72.1999C54.8001 70.6999 55.2001 69.1999 56.0001 67.7999Z" fill="black"/>
<path d="M23.8 8.69995C20.5 8.69995 17.8 10.3 15.6 13.5C13.4 16.7 12.3 20.8 12.3 25.7C12.3 28.8 12.8 32.1 13.7 35.4C14.6 38.8 15.8 41.5999 17.2 43.7999L19.6 47.5999V48.5C19.5 52.3 20.4 55.2999 22.1 57.5999C23.8 59.7999 26 61 28.8 61C30.7 61 32.2001 60.3 33.4001 59C34.6001 57.6 35.2001 55.8999 35.2001 53.7999C35.2001 52.8999 35 51.7 34.5 50.4C34 49.1 33.4 47.8 32.6 46.5L30.6 43.2L30.7001 43.0999C31.7001 40.9999 32.7001 38.2999 33.7001 35.0999C34.7001 31.8999 35.2001 28.8 35.2001 25.7C35.2001 20.9 34.1 16.9 31.9 13.6C29.8 10.3 27 8.69995 23.8 8.69995ZM32.4001 50C33.0001 51.4 33.3 52.6999 33.3 53.7999C33.3 55.2999 32.9 56.5 32.1 57.4C31.3 58.4 30.2 58.9 28.9 58.9C26.7 58.9 24.9 57.9 23.6 55.9C22.4 53.9 21.7 51.2 21.7 47.7V47.5L29.7001 45.4L29.8 45.5C30.9 47.1 31.8001 48.6 32.4001 50ZM31.5 35.2999C30.4 38.6999 29.3 41.5 28.4 43.4V43.5L20.9 45.5L20.8 45.4C18.9 42.9 17.3 39.8 16.2 36.2C15 32.6 14.4 29.1 14.4 25.6C14.4 21.5 15.3 18 17.1 15.1C18.9 12.2 21.2 10.7 23.8 10.7C26.4 10.7 28.7 12.2 30.5 15.1C32.3 18 33.2001 21.5 33.2001 25.6C33.2001 28.6 32.7 31.8999 31.5 35.2999Z" fill="black"/>
<path d="M31.1999 25.7C31.1999 22 30.3999 18.8 28.7999 16.3C27.3999 14 25.6999 12.8 23.7999 12.8C21.8999 12.8 20.1999 13.9 18.7999 16.3C17.1999 18.9 16.3999 22.1 16.3999 25.7C16.3999 28.9 16.9999 32.3001 18.0999 35.7001C19.0999 38.6001 20.2999 41.2001 21.6999 43.4001L26.9999 42C27.7999 40.2 28.6999 37.8 29.6999 34.8C30.6999 31.4 31.1999 28.4 31.1999 25.7Z" fill="#19D3C5"/>
<path d="M71.6 44C71.6 40.3 70.8 37.1 69.2 34.6C67.8 32.3 66.1 31.1 64.2 31.1C62.3 31.1 60.6001 32.2 59.2001 34.6C57.6001 37.2 56.8 40.4 56.8 44C56.8 46.7 57.4001 49.7 58.4001 53C59.4001 56 60.3 58.4 61.1 60.3L65.9001 62C68.0001 58.7 69.4 55.7 70.2 53.3C71.1 50.7 71.6 47.5 71.6 44Z" fill="#19D3C5"/>
</svg>
