<svg width="88" height="88" viewBox="0 0 88 88" fill="none" xmlns="http://www.w3.org/2000/svg">
    <path fill-rule="evenodd" clip-rule="evenodd"
          d="M37.7924 27.2813C42.4008 25.6061 45.6924 21.1874 45.6924 16C45.6924 9.37258 40.3198 4 33.6924 4C27.065 4 21.6924 9.37258 21.6924 16C21.6924 21.2622 25.0794 25.7332 29.7924 27.352V19C29.7924 16.8 31.5924 15 33.7924 15C35.9924 15 37.7924 16.8 37.7924 19V27.2813Z"
          fill="#19D3C5"/>
    <path fill-rule="evenodd" clip-rule="evenodd"
          d="M27.7923 19C27.7923 15.7 30.4923 13 33.7923 13C37.0923 13 39.7923 15.7 39.7923 19V34.5C40.8923 33.5 42.2923 33 43.7923 33C46.2923 33 48.3923 34.5 49.2923 36.7C50.2923 35.7 51.6923 35 53.2923 35C55.6923 35 57.7923 36.6 58.4923 38.8C59.5923 37.7 61.0923 37 62.7923 37C66.0923 37 68.7923 39.7 68.7923 43V48C68.7923 48.1 68.7923 48.3 68.6923 48.4V74C68.6923 79 64.6923 83 59.6923 83H40.9923C38.4923 83 36.0923 82 34.3923 80.2L22.3923 67.4C19.4923 64.3 19.1923 59.5 21.6923 56L27.6923 47.6V19H27.7923ZM27.7923 51L23.3923 57.1C21.3923 59.8 21.6923 63.5 23.9923 66L35.9923 78.8C37.2923 80.2 39.1923 81 41.0923 81H59.6923C63.5923 81 66.6923 77.9 66.6923 74V45C66.6923 44.9 66.6923 44.7 66.7923 44.6V43C66.7923 40.8 64.9923 39 62.7923 39C60.5923 39 58.7923 40.8 58.7923 43V48C58.7923 48.6 58.3923 49 57.7923 49C57.1923 49 56.7923 48.6 56.7923 48V43V40.5C56.7923 38.6 55.1923 37 53.2923 37C51.3923 37 49.7923 38.6 49.7923 40.5V48C49.7923 48.6 49.3923 49 48.7923 49C48.1923 49 47.7923 48.6 47.7923 48V40.5V39C47.7923 36.8 45.9923 35 43.7923 35C41.5923 35 39.7923 36.8 39.7923 39V47.6V48C39.7923 48.6 39.3923 49 38.7923 49C38.1923 49 37.7923 48.6 37.7923 48V47.6V39V19C37.7923 16.8 35.9923 15 33.7923 15C31.5923 15 29.7923 16.8 29.7923 19V62C29.7923 62.6 29.3923 63 28.7923 63C28.1923 63 27.7923 62.6 27.7923 62V51Z"
          fill="black"/>
    <path d="M9 9L18.5 14" stroke="black" stroke-width="2" stroke-linecap="round"/>
    <path d="M9 22.5L18.5 17.5" stroke="black" stroke-width="2" stroke-linecap="round"/>
    <path d="M58.5 9L49 14" stroke="black" stroke-width="2" stroke-linecap="round"/>
    <path d="M58.5 22.5L49 17.5" stroke="black" stroke-width="2" stroke-linecap="round"/>
</svg>
