<svg width="96" height="96" viewBox="0 0 96 96" fill="none" xmlns="http://www.w3.org/2000/svg">
    <rect x="23" y="12" width="56" height="2" fill="black"/>
    <rect x="23" y="90" width="56" height="2" fill="black"/>
    <mask id="path-3-inside-1_1302_1621" fill="white">
        <path fill-rule="evenodd" clip-rule="evenodd"
              d="M27 12H75V36.7059L57 50.8235V53.1765L75 67.2941V92H27V67.2941L45 53.1765V50.8235L27 36.7059V12Z"/>
    </mask>
    <path d="M75 12H77V10H75V12ZM27 12V10H25V12H27ZM75 36.7059L76.2343 38.2796L77 37.679V36.7059H75ZM57 50.8235L55.7657 49.2498L55 49.8504V50.8235H57ZM57 53.1765H55V54.1496L55.7657 54.7502L57 53.1765ZM75 67.2941H77V66.321L76.2343 65.7204L75 67.2941ZM75 92V94H77V92H75ZM27 92H25V94H27V92ZM27 67.2941L25.7657 65.7204L25 66.321V67.2941H27ZM45 53.1765L46.2343 54.7502L47 54.1496V53.1765H45ZM45 50.8235H47V49.8504L46.2343 49.2498L45 50.8235ZM27 36.7059H25V37.679L25.7657 38.2796L27 36.7059ZM75 10H27V14H75V10ZM77 36.7059V12H73V36.7059H77ZM58.2343 52.3972L76.2343 38.2796L73.7657 35.1322L55.7657 49.2498L58.2343 52.3972ZM55 50.8235V53.1765H59V50.8235H55ZM76.2343 65.7204L58.2343 51.6028L55.7657 54.7502L73.7657 68.8678L76.2343 65.7204ZM77 92V67.2941H73V92H77ZM27 94H75V90H27V94ZM25 67.2941V92H29V67.2941H25ZM43.7657 51.6028L25.7657 65.7204L28.2343 68.8678L46.2343 54.7502L43.7657 51.6028ZM47 53.1765V50.8235H43V53.1765H47ZM25.7657 38.2796L43.7657 52.3972L46.2343 49.2498L28.2343 35.1322L25.7657 38.2796ZM25 12V36.7059H29V12H25Z"
          fill="black" mask="url(#path-3-inside-1_1302_1621)"/>
    <path fill-rule="evenodd" clip-rule="evenodd" d="M71 16H31V34.227L50 48.8313V88H52V48.8313L71 34.227V16Z"
          fill="#19D3C5"/>
    <path d="M10.0178 0L7.06348 12.7556L10.0178 26.6146L12.7541 13.055L10.0178 0Z" fill="white"/>
    <path d="M20 12.9384L10.4148 10.3997L0 12.9384L10.1903 15.2851L20 12.9384Z" fill="white"/>
    <path d="M89.2539 74L87.4097 81.9629L89.2539 90.6146L90.9621 82.1498L89.2539 74Z" fill="white"/>
    <path d="M95.4853 82.0771L89.5016 80.4922L83 82.0771L89.3615 83.542L95.4853 82.0771Z" fill="white"/>
</svg>
