<svg width="64" height="64" viewBox="0 0 64 64" fill="none" xmlns="http://www.w3.org/2000/svg"><g filter="url(#a)"><rect x="8" y="8" width="48" height="48" rx="24" fill="#25D366"/><path fill-rule="evenodd" clip-rule="evenodd" d="M18.47 45.434a.91.91 0 0 0 .89.25l6.449-1.726a13.56 13.56 0 0 0 6.245 1.53c7.575 0 13.74-6.292 13.744-14.025 0-3.747-1.427-7.27-4.022-9.922-2.595-2.65-6.048-4.111-9.722-4.113-7.576 0-13.742 6.292-13.744 14.024v.018a14.3 14.3 0 0 0 1.644 6.646l-1.72 6.406a.96.96 0 0 0 .235.912m7.894-3.31a.9.9 0 0 0-.676-.084l-5.249 1.405 1.396-5.203a.96.96 0 0 0-.09-.72 12.34 12.34 0 0 1-1.588-6.069v-.016c.011-6.686 5.345-12.123 11.897-12.123 3.18.001 6.169 1.266 8.415 3.56s3.483 5.345 3.481 8.589c-.002 6.693-5.34 12.139-11.901 12.139-1.984 0-3.95-.511-5.685-1.477m1.482-16.41c.241.01.51.02.763.538.173.352.462 1.006.694 1.53.174.393.316.713.353.78.085.155.141.337.028.545l-.048.089a1.8 1.8 0 0 1-.291.43q-.085.091-.174.19a5 5 0 0 1-.336.355c-.17.155-.347.323-.149.634.198.312.88 1.33 1.889 2.155a9 9 0 0 0 2.505 1.451q.141.056.225.093c.34.156.538.13.736-.078s.848-.908 1.074-1.22c.226-.31.453-.26.764-.155.312.104 1.98.856 2.32 1.012l.186.083c.236.105.396.176.465.28.084.13.084.753-.199 1.48-.282.726-1.669 1.426-2.29 1.478l-.182.018c-.575.062-1.301.14-3.893-.796-3.19-1.153-5.293-4.01-5.726-4.6l-.073-.097-.004-.005c-.186-.228-1.382-1.695-1.382-3.213 0-1.433.769-2.184 1.122-2.53l.066-.065a1.3 1.3 0 0 1 .906-.389h.045c.21 0 .42 0 .605.008" fill="#fff"/></g><defs><filter id="a" x="0" y="0" width="64" height="64" filterUnits="userSpaceOnUse" color-interpolation-filters="sRGB"><feFlood flood-opacity="0" result="BackgroundImageFix"/><feColorMatrix in="SourceAlpha" values="0 0 0 0 0 0 0 0 0 0 0 0 0 0 0 0 0 0 127 0" result="hardAlpha"/><feOffset/><feGaussianBlur stdDeviation="4"/><feComposite in2="hardAlpha" operator="out"/><feColorMatrix values="0 0 0 0 0 0 0 0 0 0 0 0 0 0 0 0 0 0 0.3 0"/><feBlend in2="BackgroundImageFix" result="effect1_dropShadow_267_65540"/><feBlend in="SourceGraphic" in2="effect1_dropShadow_267_65540" result="shape"/></filter></defs></svg>