<svg width="110" height="252" viewBox="0 0 110 252" fill="none" xmlns="http://www.w3.org/2000/svg">
<g clip-path="url(#clip0_182_2740)">
<path d="M29.8699 185.16L5.18994 75.9099" stroke="white" stroke-width="2"/>
<path d="M79.7202 185.16L104.4 75.9099" stroke="white" stroke-width="2"/>
<path d="M55.03 109.06C84.8699 109.06 109.06 84.8699 109.06 55.03C109.06 25.1901 84.8699 1 55.03 1C25.1901 1 1 25.1901 1 55.03C1 84.8699 25.1901 109.06 55.03 109.06Z" fill="white" stroke="black" stroke-width="2"/>
<path d="M55.0301 102.75C81.3851 102.75 102.75 81.3851 102.75 55.0301C102.75 28.675 81.3851 7.31006 55.0301 7.31006C28.675 7.31006 7.31006 28.675 7.31006 55.0301C7.31006 81.3851 28.675 102.75 55.0301 102.75Z" fill="white" stroke="black" stroke-width="2"/>
<path d="M52.8399 24.93C52.6399 24.97 52.4799 25.01 52.3299 25.04C48.8399 25.77 45.5799 27.04 42.7399 29.22C38.7199 32.31 36.4099 36.34 36.1999 41.47C36.0699 44.81 36.9099 47.87 38.9299 50.57C40.3499 52.47 42.1299 53.96 44.1099 55.22C47.0399 57.09 50.2299 58.4 53.5199 59.51C56.3099 60.45 59.0499 61.52 61.5499 63.12C64.6399 65.09 66.3999 67.79 66.2799 71.57C66.1999 74.05 65.3699 76.2 63.5899 77.96C61.9799 79.55 60.0099 80.47 57.8499 81.03C55.2099 81.71 52.5299 81.8 49.8199 81.57C45.9799 81.24 42.2999 80.29 38.8099 78.65C38.0599 78.3 37.3299 77.9 36.5499 77.5C35.6799 80.03 34.8099 82.54 33.9199 85.12C39.4699 88.19 45.4999 89.09 51.7299 89.28C51.6899 91.9 51.6499 94.5 51.6099 97.12H57.9199C57.9199 96.54 58.0099 89.05 58.0099 89.05C58.0099 89.05 66.5599 87.31 71.2299 82.49C75.8099 77.77 77.0399 72.13 75.4999 65.85C74.6899 62.53 72.6199 60 69.9699 57.92C67.4299 55.93 64.5799 54.5 61.6099 53.31C59.2699 52.37 56.8999 51.54 54.5599 50.59C52.5599 49.78 50.6399 48.79 48.9499 47.4C46.5599 45.43 45.6099 42.89 46.0099 39.85C46.3299 37.45 47.6399 35.65 49.5899 34.29C51.6399 32.86 53.9799 32.23 56.4399 32.03C60.8899 31.67 65.1999 32.36 69.3399 34.05C70.0399 34.34 70.7199 34.67 71.4199 34.99C72.3699 32.52 73.3099 30.08 74.2699 27.6C69.4899 25.14 64.3799 24.46 59.1399 24.36C59.1999 21.21 59.2499 18.1 59.2999 15.01H53.0199C52.9599 18.34 52.8999 21.62 52.8499 24.93H52.8399Z" fill="white" stroke="black" stroke-width="2"/>
<path d="M57.2914 229.518L49.4058 227.624L48.0251 233.37L55.9107 235.265L57.2914 229.518Z" fill="white" stroke="black" stroke-width="0.78" stroke-linecap="round" stroke-linejoin="round"/>
<path d="M64.4995 243.2L51.9695 240.19C51.5495 240.09 51.0495 240.05 50.7695 239.69C50.6195 239.5 50.5295 239.27 50.4395 239.05C50.4195 239 50.3795 238.95 50.3395 238.96C50.3195 238.96 50.2995 238.98 50.2795 239C50.1195 239.15 49.8695 239.51 49.6595 239.58C49.4695 239.65 49.1995 239.53 48.9995 239.48L46.4395 238.86C45.9795 238.75 45.6995 238.29 45.8095 237.83L46.0395 237.15L64.5295 241.59C64.5695 241.75 64.5995 241.92 64.6095 242.08C64.6295 242.45 64.5895 242.83 64.4995 243.19V243.2Z" fill="black" stroke="black" stroke-miterlimit="10"/>
<path d="M64.3795 241.56L46.1895 237.19L47.6395 232.78L50.0795 233.37C51.0595 233.61 52.0495 233.83 53.0295 234.08C53.3495 234.16 53.6595 234.25 53.9595 234.3C54.4795 234.39 54.9695 234.35 55.4595 233.91C55.6395 233.74 55.7895 233.53 55.9795 233.37C56.1695 233.21 56.4195 233.09 56.6595 233.15C57.0395 233.24 57.1995 233.69 57.3195 234.07C57.4495 234.47 57.5995 234.85 57.7895 235.23C58.1195 235.9 58.5295 236.53 59.0295 237.1C59.9295 238.13 62.1195 238.82 63.2595 239.5C63.6795 239.75 64.2195 240.29 64.3395 240.48C64.5895 240.88 64.5395 241.29 64.3795 241.57V241.56Z" fill="white" stroke="black" stroke-width="0.78" stroke-linecap="round" stroke-linejoin="round"/>
<path d="M50.2897 231.73H42.1797V237.64H50.2897V231.73Z" fill="white" stroke="black" stroke-width="0.78" stroke-linecap="round" stroke-linejoin="round"/>
<path d="M60.4898 243.35H47.5998C47.1698 243.35 46.6798 243.43 46.3198 243.14C46.1298 242.99 45.9898 242.79 45.8498 242.59C45.8198 242.55 45.7698 242.5 45.7298 242.52C45.7098 242.52 45.6898 242.55 45.6798 242.57C45.5598 242.75 45.3998 243.16 45.2198 243.28C45.0498 243.39 44.7698 243.34 44.5598 243.34H41.9198C41.4498 243.34 41.0698 242.96 41.0698 242.49L41.1398 241.78H60.1598C60.2398 241.93 60.2998 242.08 60.3498 242.24C60.4598 242.6 60.4998 242.97 60.4998 243.34L60.4898 243.35Z" fill="black" stroke="black" stroke-miterlimit="10"/>
<path d="M59.99 241.79H41.29L41.67 237.16H44.18C45.19 237.16 46.2 237.16 47.21 237.16C47.54 237.16 47.86 237.18 48.17 237.16C48.7 237.13 49.17 236.97 49.54 236.43C49.68 236.22 49.77 235.99 49.92 235.79C50.07 235.59 50.28 235.41 50.53 235.41C50.92 235.41 51.18 235.81 51.39 236.15C51.61 236.51 51.85 236.85 52.12 237.17C52.59 237.75 53.15 238.26 53.76 238.69C54.88 239.48 57.16 239.64 58.44 240.03C58.91 240.17 59.56 240.57 59.72 240.73C60.05 241.06 60.11 241.47 60.02 241.78L59.99 241.79Z" fill="white" stroke="black" stroke-width="0.78" stroke-linecap="round" stroke-linejoin="round"/>
<path d="M51.0797 234.22L41.0697 233.63C40.9697 230.46 41.0297 227.79 40.9497 224.62C40.6297 212.61 39.6697 200.62 38.0697 188.72C37.3997 183.77 36.6197 178.79 36.7997 173.8C36.9797 168.8 38.1897 163.71 41.1497 159.68L57.9197 160.91C60.2697 169.34 62.6197 177.77 64.6997 186.27C65.5797 189.85 66.3997 193.47 66.4597 197.17C66.5197 200.73 65.3897 204.21 64.5297 207.67C62.7097 214.99 59.5197 225.55 57.2397 232.75L51.5897 230.95L51.0797 234.23V234.22Z" fill="black"/>
<path d="M55.2098 174.77C56.6698 185.22 57.6398 193.69 56.1598 202.79C54.6798 211.89 53.1198 221.55 51.5898 230.93" stroke="white" stroke-width="0.78" stroke-linecap="round" stroke-linejoin="round"/>
<path d="M35.6697 167.27C35.4597 167.16 35.0398 167.04 34.8298 167.2C34.7398 167.27 34.6797 167.37 34.6697 167.48C34.6497 167.74 34.9398 167.96 35.0898 168.13C35.4898 168.56 35.9398 168.96 36.4298 169.27C36.7898 169.5 37.2097 169.78 37.6597 169.72C37.8897 169.69 38.1298 169.51 38.1498 169.26C38.2898 169.33 38.4598 169.31 38.5798 169.21C38.6998 169.11 38.7698 168.94 38.7498 168.78C38.9198 168.8 39.0897 168.73 39.2097 168.61C39.2497 168.57 39.3698 168.36 39.3398 168.18C39.4998 168.21 39.7097 168.11 39.7997 167.97C39.9497 167.73 39.9498 167.39 39.9498 167.12C39.9398 166.31 39.8298 165.46 39.6298 164.68C39.4798 164.07 39.1097 163.67 38.5497 163.46C37.7297 163.15 36.9797 162.51 36.4197 161.82C33.7697 157.48 30.8898 153.28 28.1998 148.97C27.3998 147.7 27.1698 147.57 28.4398 146.76C29.0398 146.37 29.6297 145.97 30.2197 145.57C30.2197 145.57 29.7198 144.13 28.6098 142.29C27.5998 140.61 26.2997 139.41 26.2997 139.41C25.3697 140.34 24.4497 141.29 23.5497 142.25C22.0497 143.86 20.4598 145.89 20.7798 148.39C20.8998 149.37 21.7598 150.98 22.2398 151.83C25.2698 157.22 29.2298 159.68 33.4698 163.93C33.7598 164.14 34.1298 165.41 34.3098 165.74C34.3698 165.85 34.3898 165.98 34.4298 166.11C34.5798 166.6 34.9498 166.76 35.3098 167.02C35.7298 167.32 36.1798 167.57 36.6498 167.77" fill="white"/>
<path d="M35.6697 167.27C35.4597 167.16 35.0398 167.04 34.8298 167.2C34.7398 167.27 34.6797 167.37 34.6697 167.48C34.6497 167.74 34.9398 167.96 35.0898 168.13C35.4898 168.56 35.9398 168.96 36.4298 169.27C36.7898 169.5 37.2097 169.78 37.6597 169.72C37.8897 169.69 38.1298 169.51 38.1498 169.26C38.2898 169.33 38.4598 169.31 38.5798 169.21C38.6998 169.11 38.7698 168.94 38.7498 168.78C38.9198 168.8 39.0897 168.73 39.2097 168.61C39.2497 168.57 39.3698 168.36 39.3398 168.18C39.4998 168.21 39.7097 168.11 39.7997 167.97C39.9497 167.73 39.9498 167.39 39.9498 167.12C39.9398 166.31 39.8298 165.46 39.6298 164.68C39.4798 164.07 39.1097 163.67 38.5497 163.46C37.7297 163.15 36.9797 162.51 36.4197 161.82C33.7697 157.48 30.8898 153.28 28.1998 148.97C27.3998 147.7 27.1698 147.57 28.4398 146.76C29.0398 146.37 29.6297 145.97 30.2197 145.57C30.2197 145.57 29.7198 144.13 28.6098 142.29C27.5998 140.61 26.2997 139.41 26.2997 139.41C25.3697 140.34 24.4497 141.29 23.5497 142.25C22.0497 143.86 20.4598 145.89 20.7798 148.39C20.8998 149.37 21.7598 150.98 22.2398 151.83C25.2698 157.22 29.2298 159.68 33.4698 163.93C33.7598 164.14 34.1298 165.41 34.3098 165.74C34.3698 165.85 34.3898 165.98 34.4298 166.11C34.5798 166.6 34.9498 166.76 35.3098 167.02C35.7298 167.32 36.1798 167.57 36.6498 167.77" stroke="black" stroke-width="0.78" stroke-linecap="round" stroke-linejoin="round"/>
<path d="M38.9501 165.39C38.6601 166 38.2801 166.56 37.8301 167.05Z" fill="white"/>
<path d="M38.9501 165.39C38.6601 166 38.2801 166.56 37.8301 167.05" stroke="black" stroke-width="0.78" stroke-linecap="round" stroke-linejoin="round"/>
<path d="M36.45 167.75C36.4 167.86 36.39 168 36.43 168.12Z" fill="white"/>
<path d="M36.45 167.75C36.4 167.86 36.39 168 36.43 168.12" stroke="black" stroke-width="0.78" stroke-linecap="round" stroke-linejoin="round"/>
<path d="M57.5401 119.99C57.5401 120.26 57.3401 120.49 57.0701 120.5C56.8001 120.51 56.5701 120.3 56.5601 120.03C56.5601 119.76 56.7601 119.53 57.0401 119.52C57.3101 119.52 57.5401 119.72 57.5501 119.99H57.5401Z" fill="black"/>
<path d="M52.83 128.44V128.46C52.79 128.87 52.65 130.6 52.61 131.18C52.56 131.79 52.52 132.08 52.51 132.35C52.75 132.35 53 132.34 53.24 132.29L53.71 133.86L49.91 137.29L45.19 131.96C45.51 131.99 46.17 132.05 46.47 132.09C46.56 131.54 46.67 131.01 46.76 130.3C46.79 130.08 46.81 129.84 46.82 129.59C46.99 128.26 46.95 127.01 46.82 125.65C46.78 125.26 46.67 124.91 46.61 124.51C46.61 124.49 46.61 124.46 46.59 124.44C46.59 124.44 46.59 124.4 46.59 124.38H46.56C46.56 124.38 46.48 124.33 46.43 124.32C46.23 124.3 46.12 124.28 45.93 124.18C45.72 124.06 45.51 123.92 45.33 123.76C45.19 123.63 45.07 123.49 44.96 123.33C44.74 122.88 44.7 122.35 44.86 121.88C44.89 121.79 44.93 121.71 44.97 121.62C44.98 121.59 45 121.57 45.01 121.54C45.01 121.54 45.01 121.53 45.01 121.52C45.2 121.26 45.46 121.03 45.74 120.87C45.98 120.73 46.39 120.66 46.66 120.71C47.11 120.8 47.23 120.95 47.44 121.29C47.54 121.45 47.63 121.62 47.72 121.82C47.81 122.02 48.11 121.95 48.11 121.73C48.09 120.49 47.95 119.22 48.54 118.17C48.48 118.46 48.46 118.76 48.43 119.05C48.41 119.27 48.65 119.42 48.84 119.31C49.05 119.19 49.47 119.11 49.63 118.92C49.8 118.7 49.79 118.18 49.88 117.91C50.08 118.43 50.09 118.78 50.69 118.62C51.21 118.48 51.73 118.33 52.26 118.22C53.17 118.03 54.09 117.89 55.02 117.82C55.38 117.79 55.36 117.82 55.47 117.55C55.59 117.25 55.57 116.92 55.72 116.61C55.67 116.73 55.91 117.25 55.95 117.39C56.06 117.74 56.03 117.76 56.39 117.76C56.44 117.76 56.62 117.75 56.82 117.74C57.07 118.26 57.24 118.76 57.39 119.34C58.25 122.71 57.78 126.92 54.16 128.38C53.76 128.54 53.28 128.53 52.79 128.43L52.83 128.44ZM57.07 120.5C57.34 120.5 57.55 120.26 57.54 119.99C57.53 119.72 57.3 119.51 57.03 119.52C56.76 119.52 56.55 119.76 56.55 120.03C56.55 120.3 56.79 120.52 57.06 120.5H57.07ZM53.25 121.4C53.52 121.39 53.73 121.16 53.72 120.89C53.72 120.62 53.48 120.41 53.21 120.42C52.94 120.43 52.73 120.66 52.74 120.93C52.74 121.2 52.98 121.42 53.25 121.41V121.4Z" fill="white"/>
<path d="M55.76 116.62C55.61 116.93 55.63 117.26 55.51 117.56C55.4 117.84 55.42 117.8 55.06 117.83C54.13 117.9 53.21 118.04 52.3 118.23C51.77 118.34 51.25 118.49 50.73 118.63C50.12 118.8 50.12 118.45 49.92 117.92C49.83 118.19 49.84 118.71 49.67 118.93C49.52 119.12 49.1 119.2 48.88 119.32C48.68 119.43 48.45 119.28 48.47 119.06C48.5 118.76 48.52 118.47 48.58 118.18C48.58 118.17 48.58 118.16 48.59 118.15C49.19 117.13 50.15 116.35 51.22 115.85C52.29 115.35 53.47 115.11 54.65 115.02L54.83 115C54.78 114.91 54.73 114.82 54.66 114.74C55.83 115.07 56.85 116.22 57.52 117.33C57.63 117.51 57.49 117.74 57.28 117.74C57.15 117.74 57 117.74 56.87 117.75C56.67 117.75 56.49 117.77 56.44 117.77C56.08 117.77 56.1 117.74 56 117.4C55.96 117.27 55.72 116.74 55.77 116.62H55.76Z" fill="black"/>
<path d="M50.0301 115.84C50.1801 115.7 50.3401 115.58 50.5101 115.46C51.6701 114.65 53.1901 114.36 54.5701 114.7C54.6001 114.7 54.6301 114.71 54.6601 114.73C54.7301 114.81 54.7801 114.9 54.8301 114.99L54.6501 115.01C53.4701 115.1 52.2901 115.34 51.2201 115.84C50.1501 116.34 49.1901 117.12 48.5901 118.14C48.5901 118.15 48.5801 118.16 48.5801 118.17C48.6201 117.98 48.6701 117.79 48.7401 117.6C49.0201 116.9 49.4601 116.33 50.0101 115.86C50.0101 115.86 50.0201 115.86 50.0301 115.84Z" fill="black"/>
<path d="M50.01 115.86C49.46 116.33 49.02 116.9 48.74 117.6C48.67 117.79 48.61 117.98 48.58 118.17C47.98 119.22 48.13 120.49 48.15 121.73C48.15 121.95 47.85 122.02 47.76 121.82C47.67 121.63 47.58 121.45 47.48 121.29C47.27 120.95 47.15 120.79 46.7 120.71C46.43 120.66 46.01 120.73 45.78 120.87C45.5 121.04 45.25 121.26 45.05 121.52C45.05 121.52 45.05 121.53 45.05 121.54C44.84 121.84 44.71 122.18 44.73 122.54C44.74 122.82 44.84 123.09 45 123.32C45.11 123.55 45.27 123.76 45.46 123.93C45.78 124.2 46.18 124.35 46.59 124.38C46.6 124.38 46.61 124.4 46.62 124.41V124.43C46.8 125.68 46.95 127.85 46.84 129.57C46.83 129.68 46.81 129.78 46.79 129.89C46.62 129.91 46.46 129.92 46.29 129.92C46.17 129.92 46.07 129.82 46.07 129.69C46.07 129.54 46.07 129.38 46.07 129.23C46.07 129.18 46.07 128.98 46.07 128.94C46.07 128.91 46.07 128.84 46.02 128.89C45.97 128.95 45.95 129.04 45.91 129.11C45.87 129.18 45.84 129.26 45.8 129.34C45.72 129.49 45.64 129.65 45.56 129.79C45.51 129.87 45.42 129.91 45.33 129.9C44.53 129.76 43.74 129.51 42.98 129.25C42.8 129.19 42.62 129.12 42.45 129.06C42.32 129.02 42.24 128.89 42.24 128.75L42.26 128.13C42.26 128.06 42.16 128.02 42.12 128.09C41.98 128.29 41.93 128.39 41.79 128.57C41.71 128.68 41.54 128.73 41.41 128.68C41.09 128.55 40.78 128.42 40.48 128.26C40.35 128.19 40.31 128.03 40.39 127.92C40.72 127.44 41.1 126.86 41.36 126.45C41.41 126.38 41.31 126.29 41.25 126.35C40.76 126.77 40.14 127.23 39.61 127.6C39.53 127.65 39.44 127.66 39.36 127.6C38.6 127.11 37.85 126.58 37.13 126.03C36.69 125.69 36.31 125.31 35.95 124.88C35.83 124.73 35.69 124.58 35.56 124.42C35.44 124.28 35.5 124.06 35.68 124.01C36.65 123.7 38.79 122.78 41.33 120.31C42.88 118.8 44.18 117.04 45.88 115.68C47.02 114.77 48.33 114.04 49.75 113.74C50.99 113.47 53.72 113.5 54.64 114.69C54.61 114.68 54.58 114.67 54.55 114.66C53.17 114.32 51.65 114.6 50.49 115.42C50.32 115.54 50.16 115.66 50.01 115.8C50.01 115.8 49.99 115.81 49.99 115.82L50.01 115.86Z" fill="black"/>
<path d="M53.73 120.88C53.73 121.15 53.53 121.38 53.26 121.39C52.99 121.39 52.76 121.19 52.75 120.91C52.75 120.64 52.95 120.41 53.22 120.4C53.49 120.4 53.72 120.6 53.73 120.87V120.88Z" fill="black"/>
<path d="M46.8098 129.59C46.9198 127.87 46.7698 125.7 46.5898 124.45C46.5898 124.47 46.5998 124.49 46.6098 124.52C46.6598 124.91 46.7798 125.26 46.8198 125.66C46.9398 127.01 46.9898 128.27 46.8198 129.6L46.8098 129.59Z" fill="black"/>
<path d="M46.44 124.34C46.44 124.34 46.54 124.36 46.57 124.4C46.16 124.37 45.76 124.22 45.44 123.95C45.25 123.78 45.09 123.57 44.98 123.34C45.08 123.5 45.21 123.64 45.35 123.77C45.53 123.93 45.74 124.07 45.95 124.19C46.13 124.3 46.25 124.32 46.45 124.33L46.44 124.34Z" fill="black"/>
<path d="M56.23 118.45C56.56 118.36 56.92 118.44 57.18 118.66" stroke="black" stroke-width="0.78" stroke-linecap="round" stroke-linejoin="round"/>
<path d="M44.98 123.34C44.83 123.1 44.73 122.84 44.71 122.56C44.69 122.2 44.82 121.85 45.03 121.56" stroke="black" stroke-width="0.78" stroke-linecap="round" stroke-linejoin="round"/>
<path d="M50.0303 115.84C50.9503 115.16 52.1103 114.8 53.2603 114.87" stroke="white" stroke-width="0.78" stroke-linecap="round" stroke-linejoin="round"/>
<path d="M49.4399 116.37C49.6199 116.19 49.8099 116.02 50.0099 115.86" stroke="white" stroke-width="0.78" stroke-linecap="round" stroke-linejoin="round"/>
<path d="M48.1099 125.2C48.7799 126.24 49.7399 127.09 50.8299 127.67C51.3599 127.95 52.1099 128.3 52.8299 128.44C53.3199 128.54 53.7999 128.55 54.1999 128.39C57.8199 126.92 58.2899 122.72 57.4299 119.35C57.2799 118.77 57.1099 118.27 56.8599 117.75C56.8199 117.67 56.7799 117.59 56.7399 117.51" stroke="black" stroke-width="0.78" stroke-linecap="round" stroke-linejoin="round"/>
<path d="M44.98 123.34C45.09 123.57 45.25 123.78 45.44 123.95C45.76 124.22 46.16 124.37 46.57 124.4H46.6C46.67 124.4 46.75 124.4 46.82 124.4C47.08 124.39 47.34 124.32 47.57 124.2" stroke="black" stroke-width="0.78" stroke-linecap="round" stroke-linejoin="round"/>
<path d="M45.03 121.55C45.03 121.55 45 121.6 44.99 121.63C44.95 121.72 44.91 121.8 44.88 121.89C44.72 122.36 44.77 122.89 44.98 123.34" stroke="black" stroke-width="0.78" stroke-linecap="round" stroke-linejoin="round"/>
<path d="M46.5798 120.59C46.5798 120.59 46.5498 120.59 46.5298 120.59C45.9198 120.64 45.3598 121.01 45.0498 121.53" stroke="black" stroke-width="0.78" stroke-linecap="round" stroke-linejoin="round"/>
<path d="M51.2202 119.94C51.7002 119.3 52.4602 118.87 53.2602 118.79" stroke="black" stroke-width="0.78" stroke-linecap="round" stroke-linejoin="round"/>
<path d="M56.31 121.63C56.39 121.89 56.38 122.19 56.22 122.41C56.06 122.63 55.74 122.74 55.5 122.61" stroke="black" stroke-width="0.78" stroke-linecap="round" stroke-linejoin="round"/>
<path d="M46.6001 124.45C46.6001 124.45 46.6001 124.41 46.6001 124.39" stroke="black" stroke-width="0.78" stroke-linecap="round" stroke-linejoin="round"/>
<path d="M52.8302 128.46C52.8002 128.87 52.6602 130.6 52.6202 131.18C52.5702 131.79 52.5302 132.08 52.5202 132.35C52.7602 132.35 53.0102 132.34 53.2502 132.29L53.7202 133.86L49.9202 137.29L45.2002 131.96C45.5202 131.99 46.1802 132.05 46.4802 132.09C46.5702 131.54 46.6802 131.01 46.7702 130.3C46.8002 130.08 46.8202 129.84 46.8302 129.59C46.9402 127.87 46.7902 125.7 46.6102 124.45" stroke="black" stroke-width="0.78" stroke-linecap="round" stroke-linejoin="round"/>
<path d="M56.0203 123.48C55.2303 123.9 54.2003 123.81 53.5003 123.26C53.3703 123.92 53.6903 124.7 54.3303 124.91" stroke="black" stroke-width="0.78" stroke-linecap="round" stroke-linejoin="round"/>
<path d="M91.9796 124.15C91.9096 124.38 91.7496 124.57 91.5896 124.76C91.0896 125.35 90.4396 125.95 90.0396 126.6C89.6296 127.27 89.2896 127.94 88.7696 128.55C88.2396 129.17 87.5096 129.61 87.1296 130.32C85.0296 134.19 82.5696 139.01 79.0996 143.19C78.6196 143.76 78.1096 144.35 77.4396 144.67C76.5096 145.11 75.3996 144.99 74.4096 144.72C73.4096 144.45 72.5496 144.19 71.5696 143.86C69.8396 143.27 68.1796 142.6 66.5596 141.88C66.6596 141.49 66.8396 141.13 66.9896 140.74C67.7696 138.82 68.6496 136.93 69.6196 135.1C70.5696 135.67 71.5096 136.24 72.4596 136.81C73.3896 137.37 74.3396 137.88 75.2996 138.4C76.1996 138.89 77.2696 137.39 77.7996 136.84C80.0396 134.5 81.9196 131.86 83.8596 129.27V129.25C84.0396 128.86 84.1496 128.65 84.2396 128.24C84.3996 127.56 84.3396 126.83 84.2396 126.14C84.1496 125.52 83.9796 124.92 83.8296 124.32C83.6796 123.74 83.4496 123.2 83.3596 122.6C83.2896 122.18 83.8196 121.9 84.1096 122.21C84.2296 122.34 84.3296 122.5 84.4196 122.62C84.5796 122.85 84.7096 123.12 84.8396 123.36C84.9796 123.62 85.1896 124.02 85.5396 124C85.5396 124 85.5496 124 85.5596 124C85.8996 123.97 85.9696 123.54 86.0696 123.28C86.1996 122.92 86.3196 122.56 86.4396 122.2C86.6796 121.46 86.9096 120.71 87.1796 119.97C87.2596 119.74 87.4296 119.5 87.6696 119.51C87.8196 119.52 87.9496 119.65 87.9896 119.8C88.0396 119.95 87.9296 120.89 87.9096 121.04C87.8296 121.77 87.7196 122.47 87.5496 123.23C87.5496 123.27 87.5896 123.29 87.6096 123.25C88.2596 122.07 88.7596 121.07 89.2896 120.15C89.3796 119.99 89.4696 119.83 89.6196 119.74C89.7696 119.64 89.9996 119.64 90.1096 119.77C90.2296 119.91 90.1896 120.12 90.1396 120.29C89.8296 121.41 89.2996 122.74 88.8496 123.85C88.8296 123.89 88.8796 123.91 88.9096 123.88C89.4696 123.09 90.1696 122.12 90.7096 121.37C90.7896 121.26 90.8696 121.14 90.9896 121.07C91.1096 121 91.2696 120.99 91.3696 121.08C91.5096 121.2 91.4696 121.42 91.4096 121.59C91.0396 122.75 90.5296 123.82 89.8096 124.8C89.7896 124.83 89.8296 124.87 89.8596 124.85C90.3496 124.44 90.8396 124 91.3496 123.63C91.8096 123.31 92.1596 123.54 91.9696 124.12L91.9796 124.15Z" fill="white" stroke="black" stroke-width="0.78" stroke-linecap="round" stroke-linejoin="round"/>
<path d="M86.3394 126.22C86.4994 125.83 86.3994 125.37 86.1794 125.01C86.0894 124.86 85.9794 124.72 85.8594 124.59" stroke="black" stroke-width="0.78" stroke-linecap="round" stroke-linejoin="round"/>
<path d="M89.1493 125.63C88.8393 124.96 88.2393 124.42 87.5293 124.19" stroke="black" stroke-width="0.78" stroke-linecap="round" stroke-linejoin="round"/>
<path d="M61.3499 141.02C63.9199 142.13 64.5499 142.34 69.1499 143.67C69.1499 143.63 69.5999 141.35 70.3099 139.52C71.0399 137.62 72.0599 136.13 72.0899 136.06C69.8999 134.6 69.0399 134.24 67.4699 133.46C65.5599 132.51 63.4099 131.7 61.3099 131.32C58.6599 130.84 55.9299 130.93 53.2899 131.55C53.2799 131.55 51.7899 135.13 50.3299 136.53C50.3199 136.54 50.2999 136.54 50.2799 136.53C50.2799 136.53 45.1599 131.56 45.1499 131.56C41.6799 131.36 37.3299 131.92 34.3099 133.13C31.8499 134.11 29.9499 135.26 27.9699 137.11C27.2099 137.82 25.1299 139.58 25.1299 139.58C27.2099 141.55 28.9399 144.27 29.7399 147.03C29.7399 147.05 29.7699 147.06 29.7899 147.05C31.8399 146.22 33.0299 145.66 34.3099 144.85C36.1999 143.66 36.7699 143.22 38.3799 142.03C38.3999 142.01 38.4299 142.03 38.4399 142.05C38.6599 143.79 39.0599 146.77 39.2099 147.99C39.4999 150.43 39.7999 152.86 40.1199 155.3C40.3299 156.88 40.6799 160.2 40.6899 160.21C46.6199 161.97 52.1299 162.47 58.1799 161.18C58.1999 161.18 58.2099 161.17 58.2099 161.15C58.6199 156.12 59.3899 150.9 59.7999 145.88C59.7999 145.88 59.7999 145.87 59.7999 145.86C60.7599 144.58 61.3099 143 61.3599 141.39C61.3699 140.94 61.4299 141.48 61.3599 141.03L61.3499 141.02Z" fill="#883E89"/>
<path d="M59.79 145.86C59.79 145.86 59.79 145.85 59.79 145.84C60.75 144.56 61.3 142.98 61.35 141.37C61.39 139.77 60.92 138.15 60.03 136.82" stroke="white" stroke-width="0.78" stroke-linecap="round" stroke-linejoin="round"/>
<path d="M37.8701 141.35L39.2401 142.87" stroke="white" stroke-width="0.78" stroke-linecap="round" stroke-linejoin="round"/>
<path d="M83.2099 184.79L80.1899 206.89C80.1499 207.28 79.9899 207.64 79.7399 207.94C79.4299 208.3 78.9899 208.77 78.6099 209.1C78.2299 209.43 77.9899 209.92 77.9599 210.44L76.7299 242.25C76.4299 243.76 33.6299 243.76 33.3299 242.25L32.0999 210.44C32.0699 209.92 31.8399 209.44 31.4499 209.1C31.0599 208.76 30.6299 208.3 30.3199 207.94C30.0699 207.64 29.9099 207.28 29.8699 206.89L26.8599 184.79H83.2099Z" stroke="white" stroke-width="2"/>
<path d="M26.8501 184.34C26.8501 184.34 36.4901 185.22 55.0301 185.22C73.5701 185.22 83.2101 184.34 83.2101 184.34" stroke="white" stroke-width="10" stroke-linecap="round" stroke-linejoin="round"/>
<path d="M38.1301 184.79C38.1301 188.78 35.6101 192.02 32.4901 192.02C29.3801 192.02 26.8501 188.79 26.8501 184.79" stroke="white" stroke-width="2"/>
<path d="M49.4001 184.79C49.4001 188.78 46.8801 192.02 43.7601 192.02C40.6501 192.02 38.1201 188.79 38.1201 184.79" stroke="white" stroke-width="2"/>
<path d="M60.6701 184.79C60.6701 188.78 58.1501 192.02 55.0301 192.02C51.9201 192.02 49.3901 188.79 49.3901 184.79" stroke="white" stroke-width="2"/>
<path d="M71.9402 184.79C71.9402 188.78 69.4202 192.02 66.3002 192.02C63.1902 192.02 60.6602 188.79 60.6602 184.79" stroke="white" stroke-width="2"/>
<path d="M83.2102 184.79C83.2102 188.78 80.6902 192.02 77.5702 192.02C74.4602 192.02 71.9302 188.79 71.9302 184.79" stroke="white" stroke-width="2"/>
</g>
<defs>
<clipPath id="clip0_182_2740">
<rect width="110" height="252" fill="white"/>
</clipPath>
</defs>
</svg>
