<svg width="272" height="104" viewBox="0 0 272 104" fill="none" xmlns="http://www.w3.org/2000/svg">
<path d="M272 88V16C272 7.16344 264.837 0 256 0H50C41.1635 0 34 7.16344 34 16V34C34 42.8366 26.8366 50 18 50H16C7.16345 50 0 57.1634 0 66V88C0 96.8366 7.16345 104 16 104H256C264.837 104 272 96.8366 272 88Z" fill="white"/>
<path d="M66.261 19.52H69.351L61.401 32.21V41H58.671V32.18L50.751 19.52H53.931L60.111 29.54L66.261 19.52ZM75.2999 25.16C79.1999 25.16 82.9499 27.8 82.9499 33.23C82.9499 38.69 79.1999 41.3 75.2999 41.3C71.4299 41.3 67.7099 38.69 67.7099 33.23C67.7099 27.8 71.4299 25.16 75.2999 25.16ZM70.4099 33.23C70.4099 37.31 72.8399 38.87 75.2999 38.87C77.8199 38.87 80.2499 37.31 80.2499 33.23C80.2499 29.18 77.8199 27.59 75.2999 27.59C72.8399 27.59 70.4099 29.18 70.4099 33.23ZM99.5024 41H96.8624V38.87C95.8424 40.34 94.1624 41.3 92.0624 41.3C88.2524 41.3 85.9724 38.75 85.9724 34.91V25.46H88.6724V34.76C88.6724 37.34 90.3824 38.87 92.7524 38.87C95.0924 38.87 96.8024 37.34 96.8024 34.79V25.46H99.5024V41ZM103.172 25.46H105.752V27.05C106.592 25.91 107.882 25.19 109.682 25.19C112.802 25.19 115.022 27.17 115.022 30.86V31.49L112.442 31.73V31.19C112.442 28.79 111.242 27.62 109.202 27.62C107.252 27.62 105.872 28.91 105.872 31.31V41H103.172V25.46ZM140.922 19.25V23H129.522V29.27H139.662V32.99H129.522V41H125.292V19.25H140.922ZM144.126 25.19H148.266V41H144.126V25.19ZM143.616 20.63C143.616 19.07 144.786 18.05 146.196 18.05C147.606 18.05 148.776 19.07 148.776 20.63C148.776 22.16 147.606 23.18 146.196 23.18C144.786 23.18 143.616 22.16 143.616 20.63ZM151.595 25.19H155.555V27.35C156.545 25.88 158.135 24.89 160.355 24.89C164.165 24.89 166.655 27.59 166.655 31.37V41H162.485V31.88C162.485 29.84 161.075 28.46 159.095 28.46C157.175 28.46 155.765 29.84 155.765 31.88V41H151.595V25.19ZM176.627 24.89C181.067 24.89 183.647 27.38 183.647 31.49V41H179.867V38.72C178.757 40.31 176.957 41.3 174.497 41.3C171.647 41.3 169.517 39.8 169.517 36.98C169.517 34.1 171.797 33.02 174.887 32.21L179.447 31.01C179.177 29.33 178.037 28.46 176.147 28.46C174.437 28.46 173.087 29.3 172.097 30.92L169.187 29.12C170.717 26.51 173.237 24.89 176.627 24.89ZM173.687 36.59C173.687 37.73 174.467 38.27 175.607 38.27C177.527 38.27 179.507 37.13 179.507 34.64V33.56L175.907 34.58C174.467 34.97 173.687 35.57 173.687 36.59ZM186.868 25.19H190.828V27.35C191.818 25.88 193.408 24.89 195.628 24.89C199.438 24.89 201.928 27.59 201.928 31.37V41H197.758V31.88C197.758 29.84 196.348 28.46 194.368 28.46C192.448 28.46 191.038 29.84 191.038 31.88V41H186.868V25.19ZM208.75 33.11C208.75 36.2 210.55 37.61 212.83 37.61C214.63 37.61 216.13 36.68 216.61 34.79L220.75 35.51C219.94 39.32 216.88 41.3 212.83 41.3C208.24 41.3 204.58 38.27 204.58 33.11C204.58 27.95 208.24 24.89 212.83 24.89C216.88 24.89 219.94 26.87 220.75 30.68L216.61 31.43C216.13 29.51 214.63 28.58 212.83 28.58C210.55 28.58 208.75 29.99 208.75 33.11ZM223.403 25.19H227.543V41H223.403V25.19ZM222.893 20.63C222.893 19.07 224.063 18.05 225.473 18.05C226.883 18.05 228.053 19.07 228.053 20.63C228.053 22.16 226.883 23.18 225.473 23.18C224.063 23.18 222.893 22.16 222.893 20.63ZM237.652 24.89C242.092 24.89 244.672 27.38 244.672 31.49V41H240.892V38.72C239.782 40.31 237.982 41.3 235.522 41.3C232.672 41.3 230.542 39.8 230.542 36.98C230.542 34.1 232.822 33.02 235.912 32.21L240.472 31.01C240.202 29.33 239.062 28.46 237.172 28.46C235.462 28.46 234.112 29.3 233.122 30.92L230.212 29.12C231.742 26.51 234.262 24.89 237.652 24.89ZM234.712 36.59C234.712 37.73 235.492 38.27 236.632 38.27C238.552 38.27 240.532 37.13 240.532 34.64V33.56L236.932 34.58C235.492 34.97 234.712 35.57 234.712 36.59ZM255.873 40.49C254.973 40.97 253.863 41.3 252.663 41.3C250.083 41.3 247.923 40.07 247.923 36.53V18.11H252.093V36.08C252.093 37.16 252.543 37.61 253.413 37.61C253.863 37.61 254.283 37.52 254.733 37.31L255.873 40.49Z" fill="black"/>
<path d="M34.2524 65.25V69H22.8524V75.27H32.9924V78.99H22.8524V87H18.6224V65.25H34.2524ZM36.3114 71.19H40.0914V72.81C40.9014 71.67 42.1614 70.92 43.9014 70.92C47.1414 70.92 49.4814 73.02 49.4814 76.65V77.4L45.4614 77.76V77.52C45.4614 75.45 44.6214 74.49 42.9714 74.49C41.4114 74.49 40.4814 75.51 40.4814 77.4V87H36.3114V71.19ZM51.0937 79.11C51.0937 74.13 54.6337 70.89 59.2537 70.89C63.9337 70.89 66.9937 73.71 66.9937 78.81V79.86H55.2937C55.5637 82.44 57.1837 83.73 59.1937 83.73C61.0837 83.73 62.3137 82.89 63.0037 81.3L66.6037 82.65C65.4037 85.47 62.7637 87.3 59.1637 87.3C54.5737 87.3 51.0937 84.06 51.0937 79.11ZM55.5337 77.22H62.6437C62.1937 75.39 60.9937 74.46 59.2537 74.46C57.5737 74.46 56.1037 75.36 55.5337 77.22ZM69.1405 79.11C69.1405 74.13 72.6805 70.89 77.3005 70.89C81.9805 70.89 85.0405 73.71 85.0405 78.81V79.86H73.3405C73.6105 82.44 75.2305 83.73 77.2405 83.73C79.1305 83.73 80.3605 82.89 81.0505 81.3L84.6505 82.65C83.4505 85.47 80.8105 87.3 77.2105 87.3C72.6205 87.3 69.1405 84.06 69.1405 79.11ZM73.5805 77.22H80.6905C80.2405 75.39 79.0405 74.46 77.3005 74.46C75.6205 74.46 74.1505 75.36 73.5805 77.22ZM103.357 64.11V87H99.5774V84.72C98.3774 86.31 96.6374 87.3 94.5374 87.3C90.6074 87.3 87.1874 84.06 87.1874 79.11C87.1874 74.13 90.6074 70.89 94.5374 70.89C96.3974 70.89 98.0174 71.67 99.1874 72.99V64.11H103.357ZM91.3574 79.11C91.3574 82.05 93.0974 83.61 95.2874 83.61C97.4474 83.61 99.1874 82.05 99.1874 79.11C99.1874 76.14 97.4474 74.58 95.2874 74.58C93.0974 74.58 91.3574 76.14 91.3574 79.11ZM114.154 70.89C118.744 70.89 122.254 74.13 122.254 79.11C122.254 84.06 118.744 87.3 114.154 87.3C109.564 87.3 106.084 84.06 106.084 79.11C106.084 74.13 109.564 70.89 114.154 70.89ZM110.254 79.11C110.254 82.14 111.994 83.61 114.154 83.61C116.344 83.61 118.084 82.14 118.084 79.11C118.084 76.05 116.344 74.58 114.154 74.58C111.994 74.58 110.254 76.05 110.254 79.11ZM124.964 71.19H128.924V73.29C129.884 71.85 131.444 70.89 133.634 70.89C136.154 70.89 138.074 72.09 139.064 74.01C139.964 72.15 141.674 70.89 144.284 70.89C148.124 70.89 150.524 73.59 150.524 77.37V87H146.354V77.76C146.354 75.78 145.004 74.46 143.054 74.46C141.194 74.46 139.814 75.78 139.814 77.76V87H135.674V77.76C135.674 75.78 134.294 74.46 132.374 74.46C130.484 74.46 129.134 75.78 129.134 77.76V87H124.964V71.19ZM164.506 68.01V84.51H169.426C173.656 84.51 176.296 81.15 176.296 76.26C176.296 71.37 173.656 68.01 169.426 68.01H164.506ZM161.746 87V65.52H169.426C175.156 65.52 179.056 69.96 179.056 76.26C179.056 82.56 175.156 87 169.426 87H161.746ZM182.449 71.46H185.029V73.05C185.869 71.91 187.159 71.19 188.959 71.19C192.079 71.19 194.299 73.17 194.299 76.86V77.49L191.719 77.73V77.19C191.719 74.79 190.519 73.62 188.479 73.62C186.529 73.62 185.149 74.91 185.149 77.31V87H182.449V71.46ZM196.177 79.23C196.177 73.8 200.017 71.16 203.947 71.16C208.027 71.16 211.177 73.59 211.177 78.93V79.68H198.877C199.057 83.4 201.397 84.9 203.827 84.9C206.077 84.9 207.517 84.06 208.657 82.08L210.817 83.25C209.437 85.86 207.007 87.3 203.797 87.3C199.897 87.3 196.177 84.69 196.177 79.23ZM199.027 77.61H208.447C208.027 74.76 206.287 73.56 203.947 73.56C201.787 73.56 199.627 74.73 199.027 77.61ZM220.035 71.16C223.815 71.16 226.395 73.29 226.395 77.46V87H223.815V84.75C222.585 86.46 220.605 87.3 218.505 87.3C215.835 87.3 213.615 85.83 213.615 83.01C213.615 80.04 216.045 79.14 218.745 78.42L223.695 77.13C223.545 74.79 221.895 73.56 219.825 73.56C217.785 73.56 216.525 74.43 215.385 76.32L213.345 75.15C214.755 72.6 216.915 71.16 220.035 71.16ZM216.315 82.86C216.315 84.42 217.455 85.05 218.925 85.05C220.995 85.05 223.725 84 223.725 81V79.17L219.195 80.37C217.575 80.79 216.315 81.39 216.315 82.86ZM229.998 71.46H232.638V73.59C233.658 72.12 235.308 71.16 237.408 71.16C239.928 71.16 241.788 72.27 242.718 74.16C243.708 72.36 245.538 71.16 248.088 71.16C251.988 71.16 254.238 73.71 254.238 77.55V87H251.538V77.67C251.538 75.09 249.858 73.56 247.488 73.56C245.148 73.56 243.468 75.09 243.468 77.64V87H240.768V77.67C240.768 75.09 239.088 73.56 236.718 73.56C234.378 73.56 232.698 75.09 232.698 77.64V87H229.998V71.46Z" fill="black"/>
</svg>
