<svg width="376" height="812" viewBox="0 0 376 812" fill="none" xmlns="http://www.w3.org/2000/svg"><g clip-path="url(#a)"><path fill="#19D3C5" d="M0 0h376v812H0z"/><path d="M81.01 143.32c0 .19 0 .39.02.59h83.11c0-3-.49-5.88-1.4-8.57-3.58-10.66-13.65-18.34-25.51-18.34-8.88 0-16.75 4.29-21.65 10.93-1.65-.56-3.42-.87-5.26-.87-5.28 0-9.98 2.52-12.95 6.42-1.55-.83-3.33-1.3-5.22-1.3-3.03 0-5.77 1.2-7.78 3.16a11.13 11.13 0 0 0-3.37 7.99zm59.25 150.83h118.7c-.4-11.39-9.75-20.49-21.24-20.49-3.38 0-6.58.79-9.42 2.2-6.17-10.11-17.31-16.86-30.02-16.86-15.93 0-29.39 10.6-33.7 25.14a14.5 14.5 0 0 0-9.78-3.78c-7.79 0-14.15 6.11-14.54 13.8zM-31 442.51h94.04c-.39-11.18-9.57-20.11-20.83-20.11-3.32 0-6.46.77-9.24 2.15C26.91 414.63 15.98 408 3.51 408c-19.06 0-34.5 15.45-34.5 34.5z" stroke="#fff" stroke-width=".78" stroke-linecap="round" stroke-linejoin="round"/><path d="m95.01 105-1.773 7.655 1.773 8.316 1.642-8.137z" fill="#fff"/><path d="m101 112.764-5.75-1.524-6.25 1.524 6.113 1.408zM14.012 234l-2.069 8.93 2.069 9.703 1.915-9.493z" fill="#fff"/><path d="m21 243.059-6.708-1.778L7 243.059l7.132 1.643zm336.01-62.397-1.773 7.655 1.773 8.316 1.642-8.137z" fill="#fff"/><path d="m363 188.427-5.75-1.524-6.25 1.524 6.113 1.408zM232.018 153l-2.955 12.756 2.955 13.859 2.736-13.56z" fill="#fff"/><path d="m242 165.938-9.585-2.538L222 165.938l10.19 2.347z" fill="#fff"/><g clip-path="url(#b)"><path d="M247.764 622H376v190H0V543l55.359 13.255A20.39 20.39 0 0 1 71 576.084c0 11.26 9.129 20.389 20.39 20.389h130.846c7.05 0 12.764 5.714 12.764 12.763 0 7.05 5.714 12.764 12.764 12.764" fill="#fff"/><g clip-path="url(#c)"><path d="m209.19 637.25-7.88 3.04-5.09 8.74h26.84c0-19.34-15.68-35.03-35.03-35.03S153 629.69 153 649.03h27.5l-5.04-5.77-8.3-1.49a.5.5 0 0 1-.4-.58.52.52 0 0 1 .58-.41l7.08 1.28-2.72-3.12-3.16-3.62a.505.505 0 0 1 .05-.71c.21-.18.53-.16.71.05l2.44 2.8.45-3.16c.03-.28.29-.46.56-.43.27.04.46.29.43.56l-.57 4.03 3.5 4.01s.01.01.01.02l5.43 6.22c.08.09.12.21.12.32h5.86v-8.1l-7.31-9.1a.502.502 0 0 1 .78-.63l6.53 8.14V626.7c0-.27.22-.5.5-.5s.5.23.5.5v22.33h6.6c0-.08.02-.17.07-.25l1.47-2.53-.73-4.94c-.05-.27.14-.52.42-.57.26-.03.52.15.56.42l.56 3.71 3.07-5.26 3.59-6.18a.49.49 0 0 1 .68-.17c.24.13.32.44.18.68l-2.89 4.97 6.73-2.59c.26-.1.54.03.64.29.1.25-.03.54-.29.64" fill="#fff"/></g><path fill-rule="evenodd" clip-rule="evenodd" d="M145.91 503.18c0 3.47-.97 6.72-2.66 9.47 6.2 4.7 10.19 12.14 10.19 20.51 0 14.03-11.24 25.45-25.22 25.71v-26.13l7.3-9.1c.18-.22.14-.53-.07-.71a.517.517 0 0 0-.71.08l-6.52 8.13v-30.75c0-.28-.22-.5-.5-.5s-.5.22-.5.5v16.06l-6.53-8.13a.504.504 0 0 0-.7-.08c-.21.18-.25.49-.08.71l7.31 9.1v23.36l-3.55-4.42a.51.51 0 0 0-.71-.08c-.21.17-.25.49-.07.7l4.33 5.4v15.86c-13.98-.26-25.22-11.68-25.22-25.71 0-8.37 3.99-15.81 10.18-20.51-1.68-2.75-2.65-6-2.65-9.47 0-10.04 8.15-18.18 18.19-18.18s18.19 8.14 18.19 18.18m-17.689 94.26v-38.57h-1v38.57c0 .28.22.5.5.5s.5-.22.5-.5" fill="#fff"/><path d="m330.19 610.25-7.88 3.04-5.09 8.74h26.84c0-19.34-15.68-35.03-35.03-35.03S274 602.69 274 622.03h27.5l-5.04-5.77-8.3-1.49a.5.5 0 0 1-.4-.58.52.52 0 0 1 .58-.41l7.08 1.28-2.72-3.12-3.16-3.62a.505.505 0 0 1 .05-.71c.21-.18.53-.16.71.05l2.44 2.8.45-3.16c.03-.28.29-.46.56-.43.27.04.46.29.43.56l-.57 4.03 3.5 4.01s.01.01.01.02l5.43 6.22c.08.09.12.21.12.32h5.86v-8.1l-7.31-9.1a.502.502 0 0 1 .78-.63l6.53 8.14V599.7c0-.27.22-.5.5-.5s.5.23.5.5v22.33h6.6c0-.08.02-.17.07-.25l1.47-2.53-.73-4.94c-.05-.27.14-.52.42-.57.26-.03.52.15.56.42l.56 3.71 3.07-5.26 3.59-6.18a.49.49 0 0 1 .68-.17c.24.13.32.44.18.68l-2.89 4.97 6.73-2.59c.26-.1.54.03.64.29.1.25-.03.54-.29.64" fill="#fff"/></g></g><defs><clipPath id="a"><path fill="#fff" d="M0 0h376v812H0z"/></clipPath><clipPath id="b"><path fill="#fff" d="M0 485h376v327H0z"/></clipPath><clipPath id="c"><path fill="#fff" d="M153 614h70.06v35.03H153z"/></clipPath></defs></svg>