<svg width="376" height="812" viewBox="0 0 376 812" fill="none" xmlns="http://www.w3.org/2000/svg"><g clip-path="url(#a)"><path fill="#883E89" d="M0 0h376v812H0z"/><path d="m136.992 140.629-2.663 11.514 2.663 12.517 2.472-12.246z" fill="#fff"/><path d="m146 152.312-8.658-2.291-9.402 2.291 9.199 2.122zm52.74 216.038-1.77 7.65 1.77 8.31 1.64-8.14-1.64-7.83z" fill="#fff"/><path d="m204.73 376.11-5.75-1.52-6.25 1.52 6.11 1.41zM274.01 182l-1.77 7.65 1.77 8.32 1.64-8.14z" fill="#fff"/><path d="m280 189.76-5.75-1.52-6.25 1.52 6.11 1.41zM334.11 326l-2.4 10.36 2.4 11.26 2.22-11.01-2.22-10.6z" fill="#fff"/><path d="m342.21 336.51-7.78-2.06-8.46 2.06 8.27 1.91zm-62.24 27.008c5.108 9.902 1.179 22.301-8.77 27.697-9.949 5.385-22.14 1.722-27.247-8.192-5.108-9.914-1.179-22.302 8.77-27.698 9.949-5.385 22.14-1.722 27.247 8.193" fill="#fff"/><path d="M273.291 392.509c-10.573 5.72-23.584 1.815-29.003-8.724s-1.237-23.757 9.336-29.488c10.573-5.72 23.584-1.815 29.004 8.724 5.419 10.538 1.236 23.757-9.337 29.488m-18.476-35.878c-9.291 5.026-12.965 16.651-8.205 25.895 4.761 9.256 16.189 12.687 25.48 7.661 9.29-5.027 12.964-16.651 8.204-25.895-4.761-9.256-16.189-12.688-25.479-7.661" fill="#000"/><path d="M271.801 392.371c-10.573 5.72-23.584 1.814-29.003-8.724s-1.237-23.758 9.336-29.489c10.573-5.72 23.584-1.814 29.004 8.724 5.419 10.538 1.236 23.757-9.337 29.489m-18.477-35.879c-9.29 5.026-12.965 16.651-8.204 25.895 4.761 9.256 16.189 12.688 25.479 7.661 9.291-5.026 12.965-16.651 8.204-25.895-4.76-9.256-16.188-12.687-25.479-7.661" fill="#fff"/><path d="M279.855 385.842a22.8 22.8 0 0 1-7.811 6.968c-5.281 2.866-11.313 3.478-16.975 1.722-5.547-1.71-10.065-5.501-12.722-10.666-5.547-10.769-1.271-24.3 9.544-30.159 5.281-2.865 11.313-3.478 16.975-1.733 5.546 1.71 10.064 5.5 12.722 10.665 3.906 7.581 2.947 16.524-1.733 23.192zM244.9 361.264c-4.46 6.379-5.384 14.918-1.652 22.152 2.531 4.922 6.841 8.527 12.121 10.157 5.397 1.664 11.151 1.074 16.201-1.653 10.33-5.592 14.421-18.523 9.128-28.807-2.53-4.922-6.84-8.528-12.121-10.157-5.396-1.664-11.151-1.074-16.2 1.653a21.66 21.66 0 0 0-7.465 6.667zm32.829 23.088a19.94 19.94 0 0 1-6.876 6.135c-4.656 2.519-9.972 3.062-14.952 1.526-4.888-1.514-8.863-4.842-11.209-9.395-4.887-9.498-1.12-21.411 8.413-26.577 4.656-2.519 9.972-3.062 14.952-1.525 4.888 1.514 8.863 4.842 11.208 9.394 3.444 6.679 2.589 14.56-1.525 20.442zm-30.702-21.585c-3.906 5.581-4.715 13.057-1.456 19.389a17.75 17.75 0 0 0 10.607 8.898c4.726 1.456 9.764.947 14.178-1.445 9.048-4.899 12.63-16.212 7.997-25.225a17.75 17.75 0 0 0-10.608-8.897c-4.726-1.456-9.764-.948-14.178 1.444a19.1 19.1 0 0 0-6.54 5.836" fill="#000"/><path d="M272.979 374.449c-1.652-3.201-4.668-3.837-9.533-3.016-3.975.658-5.974.462-7.025-1.572-.763-1.49-.416-3.952 2.923-5.754 2.207-1.202 4.172-1.433 5.177-1.479l-.312-2.762c-1.375.035-3.443.509-5.951 1.86-.011 0-.023.012-.046.024l-1.699-3.305-1.941 1.051 1.791 3.467c-3.305 2.565-4.449 6.066-2.958 8.955 1.583 3.074 4.992 3.571 9.625 2.681 3.883-.659 5.79-.196 6.829 1.837 1.133 2.196.024 4.738-3.2 6.483-2.173 1.178-4.576 1.652-6.39 1.641l.416 2.796c1.71.069 4.599-.717 6.956-1.988.069-.034.115-.069.185-.104l1.433 2.785 1.941-1.051-1.502-2.924c3.998-2.969 4.772-6.679 3.27-9.602z" fill="#000"/><path d="M271.916 374.218c-1.652-3.201-4.668-3.837-9.533-3.016-3.975.659-5.974.462-7.025-1.572-.763-1.49-.416-3.951 2.923-5.754 2.207-1.202 4.172-1.433 5.177-1.479l-.312-2.762c-1.364.035-3.443.509-5.951 1.861-.011 0-.023.011-.046.023l-1.699-3.305-1.941 1.051 1.791 3.467c-3.305 2.565-4.449 6.066-2.958 8.955 1.583 3.074 4.992 3.582 9.637 2.681 3.882-.659 5.789-.196 6.829 1.837 1.132 2.196.023 4.738-3.201 6.483-2.172 1.178-4.576 1.652-6.39 1.641l.416 2.796c1.699.069 4.599-.716 6.956-1.988.07-.034.116-.069.185-.104l1.433 2.785 1.941-1.051-1.502-2.924c3.998-2.969 4.773-6.679 3.27-9.602z" fill="#fff"/><path d="m270.819 386.951-2.831 1.526-1.433-2.774c-2.323 1.202-5.131 1.976-6.945 1.907h-.416l-.566-3.802h.589c1.999.012 4.299-.577 6.148-1.583 2.889-1.56 4.032-3.79 2.992-5.812-.924-1.791-2.576-2.195-6.309-1.571-5.361 1.04-8.597.104-10.157-2.947-1.56-3.016-.462-6.644 2.774-9.313l-1.826-3.548 2.831-1.537 1.71 3.317c2.75-1.41 4.772-1.676 5.766-1.699h.462l.428 3.744-.543.023c-1.156.046-2.958.335-4.957 1.421-2.878 1.56-3.444 3.675-2.716 5.085.855 1.664 2.438 1.976 6.494 1.305 5.396-.901 8.412.081 10.065 3.282 1.71 3.328.531 7.118-3.086 9.972l1.537 2.993zm-2.404.162 1.063-.578-1.479-2.865.347-.254c3.455-2.566 4.645-5.998 3.131-8.967-1.432-2.785-4.044-3.582-9.001-2.762-3.94.659-6.321.566-7.546-1.837-.947-1.837-.346-4.541 3.132-6.436a12.65 12.65 0 0 1 4.853-1.503l-.196-1.768c-1.064.093-2.878.486-5.27 1.768-.011 0-.023.012-.046.023l-.45.243-1.699-3.305-1.063.578 1.756 3.409-.335.254c-3.085 2.392-4.194 5.662-2.819 8.32 1.329 2.588 4.217 3.362 9.082 2.415 4.807-.809 6.425.254 7.372 2.103 1.294 2.519-.034 5.327-3.409 7.153-1.837.993-4.009 1.606-6.043 1.687l.266 1.791c1.71-.058 4.264-.832 6.274-1.93.023-.012.058-.035.081-.046.035-.023.07-.035.104-.058l.451-.254 1.433 2.785z" fill="#000"/><path d="M185.41 414.32c.83 2.64-5.87 7.13-14.95 10.03-9.09 2.9-17.13 3.1-17.96.46s5.87-7.13 14.95-10.03c9.09-2.9 17.13-3.1 17.96-.46" fill="#fff"/><path d="M171.43 426.82c-9.66 3.08-18.39 2.82-19.45-.58s5.93-8.67 15.59-11.75 18.39-2.82 19.45.58c1.07 3.4-5.93 8.67-15.59 11.75m-2.41-11.79c-8.49 2.7-14.76 6.91-13.99 9.38s8.31 2.28 16.79-.43 14.76-6.91 13.98-9.38c-.77-2.47-8.31-2.28-16.79.43z" fill="#fff"/><path d="m172.02 426.8-.54.18c-4.7 1.5-9.34 2.26-13.05 2.15-3.76-.11-6.13-1.11-6.66-2.82-.31-.98 0-2.12.94-3.37 1.12-1.5 3.07-3.09 5.64-4.6 2.63-1.54 5.8-2.92 9.17-3.99 4.7-1.5 9.34-2.26 13.05-2.15 3.76.11 6.13 1.11 6.66 2.82.31.98 0 2.12-.94 3.37-1.12 1.5-3.07 3.09-5.64 4.6-2.49 1.46-5.46 2.77-8.63 3.82zm-.63-.13c6.6-2.1 12.31-5.4 14.54-8.41.87-1.17 1.17-2.22.88-3.12-.5-1.58-2.75-2.51-6.34-2.62-3.65-.11-8.21.65-12.85 2.13-6.6 2.1-12.31 5.4-14.54 8.41-.87 1.17-1.17 2.22-.88 3.12.5 1.58 2.75 2.51 6.34 2.62 3.65.11 8.21-.65 12.85-2.13m1.07-2.72c-.19.06-.39.13-.58.19-4.13 1.32-8.17 2.09-11.37 2.17-3.27.08-5.28-.57-5.68-1.83-.19-.62.01-1.34.61-2.15 1.86-2.5 7.17-5.43 13.54-7.46 4.13-1.32 8.17-2.09 11.37-2.17 3.27-.08 5.28.56 5.68 1.82.19.62-.01 1.34-.61 2.15-1.8 2.42-6.85 5.25-12.96 7.27zm-3.94-8.59c-5.93 1.96-11 4.78-12.72 7.09-.54.72-.72 1.36-.55 1.89.35 1.13 2.25 1.71 5.33 1.63 3.15-.08 7.13-.84 11.21-2.14 6.16-1.97 11.5-4.89 13.27-7.27.54-.72.72-1.36.55-1.89-.35-1.13-2.25-1.71-5.33-1.63-3.15.08-7.13.84-11.2 2.14-.18.06-.37.12-.55.18z" fill="#000"/><path d="M170.56 424.67c-9.66 3.08-18.24 3.3-19.12.49s6.26-7.6 15.92-10.68 18.24-3.3 19.12-.49-6.26 7.6-15.92 10.68m-3-9.57c-8.49 2.7-14.76 6.91-13.99 9.38s8.31 2.28 16.79-.43 14.76-6.91 13.98-9.38c-.77-2.47-8.31-2.28-16.79.43z" fill="#fff"/><path d="m171.26 424.6-.66.21c-4.7 1.5-9.29 2.37-12.93 2.47-3.71.09-6-.64-6.44-2.06q-.33-1.05.69-2.43c2.11-2.84 8.15-6.17 15.39-8.48 4.7-1.5 9.29-2.37 12.93-2.47 3.71-.09 6 .64 6.44 2.06q.33 1.05-.69 2.43c-2.04 2.75-7.79 5.96-14.73 8.26zm-4.51-9.77c-3.3 1.09-6.37 2.41-8.93 3.82-2.65 1.47-4.56 2.94-5.54 4.26-.61.83-.83 1.56-.64 2.17.41 1.29 2.57 1.96 6.09 1.87 3.59-.09 8.12-.96 12.77-2.44 3.54-1.13 6.85-2.52 9.58-4.04 2.65-1.47 4.56-2.94 5.54-4.26.61-.83.83-1.56.64-2.17-.41-1.29-2.57-1.96-6.09-1.87-3.59.09-8.12.96-12.77 2.44-.22.07-.44.14-.65.21zm4.23 9.17c-.19.06-.39.13-.58.19-4.13 1.32-8.17 2.09-11.37 2.17-3.27.08-5.28-.57-5.68-1.82-.19-.62.01-1.34.61-2.15 1.86-2.5 7.17-5.43 13.54-7.46 4.13-1.32 8.17-2.09 11.37-2.17 3.27-.08 5.28.57 5.68 1.82.19.62-.01 1.34-.61 2.15-1.8 2.42-6.85 5.25-12.96 7.27m-3.94-8.59c-5.93 1.96-11 4.78-12.72 7.09-.54.72-.72 1.36-.55 1.89.35 1.13 2.25 1.71 5.33 1.63 3.15-.08 7.13-.84 11.21-2.14.18-.06.37-.12.55-.18 5.93-1.96 11-4.78 12.72-7.09.54-.72.72-1.36.55-1.89-.35-1.13-2.25-1.71-5.33-1.63-3.15.08-7.13.84-11.2 2.14-.18.06-.37.12-.55.18z" fill="#000"/><path d="M176.86 418.69c-.27-.85-2.34-.72-6.23.11-3.18.67-4.62.84-4.79.29-.12-.4.89-1.24 3.93-2.21 2.02-.64 3.57-.95 4.33-1.08l.6-.87c-1.04.17-2.74.56-5.03 1.29-.01 0-.03 0-.04.01l-.28-.88-1.78.57.29.93c-3.26 1.21-5.17 2.48-4.93 3.26.26.82 2.66.59 6.41-.23 3.11-.66 4.4-.73 4.57-.19.18.59-1.41 1.54-4.36 2.48-1.99.63-3.93 1.06-5.29 1.27l-.53.86c1.26-.17 3.66-.76 5.81-1.45.06-.02.11-.04.17-.06l.23.74 1.78-.57-.25-.78c3.9-1.43 5.6-2.73 5.36-3.5z" fill="#000"/><path d="M176.13 418.74c-.27-.85-2.34-.72-6.23.11-3.18.67-4.62.84-4.79.29-.12-.4.89-1.24 3.93-2.21 2.02-.64 3.57-.95 4.33-1.08l.6-.87c-1.04.17-2.74.56-5.03 1.29-.01 0-.03 0-.04.01l-.28-.88-1.78.57.29.93c-3.26 1.21-5.17 2.49-4.93 3.26.26.82 2.66.59 6.41-.23 3.11-.66 4.4-.73 4.57-.19.18.59-1.41 1.54-4.36 2.48-1.99.63-3.93 1.06-5.29 1.27l-.53.86c1.26-.17 3.66-.76 5.81-1.45.06-.02.11-.04.17-.06l.23.74 1.78-.57-.25-.78c3.9-1.43 5.6-2.73 5.36-3.5z" fill="#fff"/><path d="m171.28 423.11-2.2.7-.23-.74c-2.07.66-4.52 1.26-5.83 1.45l-.35.05.75-1.22.13-.02c1.54-.23 3.5-.7 5.24-1.26 2.17-.69 3.71-1.43 4.11-1.98.08-.11.11-.2.08-.28-.13-.42-1.43-.34-4.34.28-4.32.95-6.37 1-6.64.14s1.6-2.15 4.88-3.4l-.29-.94 2.2-.7.28.88c2.54-.8 4.15-1.12 4.9-1.24l.39-.06-.86 1.23-.12.02c-.92.16-2.4.47-4.29 1.07-2.88.92-3.56 1.6-3.7 1.79-.04.06-.09.14-.07.2.14.45 1.85.19 4.56-.39 3.64-.77 6.13-1.07 6.46-.02.29.94-1.69 2.3-5.31 3.65zm-1.87.26 1.35-.43-.24-.77.2-.07c4.13-1.51 5.39-2.72 5.21-3.29-.22-.69-2.07-.63-6.01.2-3.23.68-4.8.89-5.02.2-.03-.09-.03-.25.13-.46.44-.6 1.85-1.3 3.97-1.97 1.84-.59 3.31-.9 4.25-1.07l.34-.49c-.86.16-2.38.51-4.59 1.21h-.04l-.21.08-.28-.88-1.35.43.29.92-.19.07c-3.54 1.32-4.95 2.48-4.78 3.04.2.64 2.28.53 6.18-.33 3.34-.71 4.6-.73 4.8-.09.05.16 0 .34-.14.54-.48.65-2.04 1.42-4.39 2.16-1.72.55-3.65 1.02-5.2 1.26l-.31.5c1.35-.23 3.54-.78 5.41-1.38.03 0 .06-.02.09-.03.03 0 .05-.02.08-.03l.21-.07.23.74zm4.94-10s8.25-1.61 9.99 1.3c0 0 .55 1.36-1.86 3.35 0 0 6.07-5.78-8.13-4.65" fill="#000"/><path d="M190.911 215.839c-9.445 6.616-22.704 4.32-29.607-5.126-6.902-9.445-4.852-22.471 4.593-29.087s22.704-4.32 29.607 5.126c6.903 9.445 4.853 22.471-4.593 29.087" fill="#fff"/><path d="M160.266 213.037c-7.34-10.047-5.153-23.934 4.893-30.974 10.033-7.039 24.181-4.593 31.521 5.454s5.153 23.934-4.894 30.974c-10.033 7.039-24.18 4.593-31.52-5.454m34.199-23.962c-6.451-8.816-18.863-10.962-27.693-4.784-8.816 6.179-10.744 18.385-4.292 27.201 6.452 8.817 18.863 10.963 27.693 4.785 8.817-6.179 10.744-18.385 4.292-27.202" fill="#000"/><path d="M160.197 211.492c-7.34-10.046-5.153-23.934 4.894-30.973 10.033-7.04 24.18-4.593 31.52 5.453 7.341 10.047 5.154 23.935-4.893 30.961-10.047 7.039-24.18 4.592-31.521-5.454zm34.2-23.961c-6.452-8.817-18.877-10.963-27.693-4.784s-10.744 18.384-4.292 27.201 18.863 10.962 27.693 4.784c8.817-6.178 10.744-18.385 4.292-27.201" fill="#fff"/><path d="M168.002 218.846a23.5 23.5 0 0 1-8.229-7.039c-3.676-5.017-5.139-11.113-4.141-17.168.984-5.933 4.237-11.086 9.158-14.53 10.265-7.19 24.741-4.703 32.245 5.577 3.677 5.016 5.14 11.112 4.142 17.168-.984 5.932-4.238 11.085-9.159 14.53-7.217 5.057-16.525 5.331-24.016 1.462m20.312-39.284c-7.162-3.691-16.033-3.431-22.936 1.394-4.689 3.281-7.792 8.201-8.721 13.847-.957 5.768.451 11.591 3.95 16.389 7.176 9.814 20.996 12.206 30.81 5.331 4.688-3.281 7.791-8.202 8.721-13.847.957-5.768-.451-11.591-3.95-16.375a22.56 22.56 0 0 0-7.874-6.726zm-19.082 36.892a20.5 20.5 0 0 1-7.244-6.205c-3.24-4.429-4.538-9.801-3.65-15.132.861-5.221 3.732-9.773 8.065-12.808 9.049-6.342 21.788-4.141 28.404 4.907 3.24 4.429 4.538 9.801 3.65 15.132-.862 5.221-3.732 9.773-8.065 12.808-6.37 4.456-14.558 4.688-21.16 1.298m17.852-34.5c-6.26-3.226-14.038-3.007-20.08 1.216a18.4 18.4 0 0 0-7.641 12.125c-.833 5.057.397 10.142 3.459 14.338 6.287 8.598 18.384 10.69 26.968 4.675a18.4 18.4 0 0 0 7.641-12.124c.834-5.058-.396-10.142-3.458-14.339a19.56 19.56 0 0 0-6.889-5.891" fill="#000"/><path d="M178.718 210.194c3.049-2.132 3.281-5.317 1.764-10.197-1.23-3.978-1.312-6.055.629-7.422 1.421-.998 3.991-.971 6.315 2.187 1.531 2.105 2.05 4.087 2.241 5.098l2.789-.711c-.233-1.394-.998-3.471-2.734-5.85 0-.014-.027-.027-.027-.041l3.157-2.214-1.353-1.846-3.308 2.324c-3.089-3.034-6.834-3.718-9.582-1.777-2.925 2.051-2.966 5.618-1.394 10.252 1.216 3.882 1.011 5.905-.93 7.258-2.091 1.463-4.852.684-7.094-2.378-1.517-2.064-2.337-4.456-2.57-6.315l-2.802.82c.164 1.763 1.367 4.606 3.008 6.848.041.068.095.109.136.178l-2.652 1.859 1.354 1.845 2.788-1.955c3.609 3.677 7.518 3.964 10.293 2.01z" fill="#000"/><path d="M178.814 209.073c3.048-2.132 3.281-5.317 1.763-10.197-1.23-3.978-1.312-6.055.629-7.422 1.422-.998 3.992-.971 6.302 2.187 1.531 2.105 2.05 4.087 2.241 5.098l2.789-.71c-.233-1.395-.998-3.472-2.734-5.837 0-.014-.027-.027-.027-.041l3.157-2.214-1.353-1.846-3.308 2.324c-3.089-3.035-6.834-3.718-9.582-1.777-2.925 2.05-2.966 5.618-1.394 10.252 1.216 3.895 1.011 5.905-.93 7.258-2.091 1.462-4.852.683-7.094-2.378-1.517-2.064-2.337-4.457-2.57-6.329l-2.802.82c.164 1.763 1.367 4.62 3.008 6.848.041.068.095.109.136.178l-2.652 1.859 1.354 1.845 2.788-1.955c3.609 3.677 7.518 3.964 10.293 2.01z" fill="#fff"/><path d="m165.61 209.729-1.968-2.679 2.651-1.859c-1.558-2.214-2.747-4.989-2.925-6.862l-.041-.423 3.8-1.108.082.602c.274 2.05 1.189 4.333 2.474 6.082 2.01 2.734 4.443 3.609 6.37 2.256 1.709-1.189 1.9-2.939.724-6.684-1.818-5.359-1.312-8.803 1.6-10.84 2.87-2.009 6.738-1.408 9.937 1.531l3.376-2.365 1.969 2.693-3.158 2.215c1.832 2.624 2.378 4.661 2.556 5.672l.082.479-3.8.956-.096-.546c-.218-1.19-.765-2.994-2.146-4.88-1.995-2.734-4.251-3.007-5.59-2.078-1.586 1.107-1.695 2.775-.438 6.835 1.682 5.413 1.094 8.638-1.968 10.771-3.171 2.228-7.217 1.544-10.648-1.764zm-.492-2.447.738.998 2.734-1.913.314.314c3.117 3.185 6.807 3.937 9.623 1.955 2.665-1.859 3.117-4.648 1.572-9.61-1.23-3.95-1.463-6.397.834-7.996 1.763-1.23 4.606-.998 7.026 2.31 1.298 1.777 1.927 3.499 2.214 4.771l1.791-.452c-.246-1.079-.889-2.884-2.557-5.153 0 0-.027-.027-.027-.041l-.314-.423 3.157-2.215-.738-.998-3.253 2.269-.314-.3c-2.885-2.83-6.384-3.5-8.926-1.723-2.474 1.736-2.857 4.798-1.203 9.664 1.503 4.825.642 6.63-1.121 7.86-2.406 1.681-5.468.711-7.805-2.488-1.285-1.749-2.201-3.895-2.57-5.959l-1.804.533c.301 1.749 1.449 4.251 2.857 6.164.013.028.041.055.055.082.027.028.054.055.068.096l.328.424-2.652 1.859z" fill="#000"/><path d="M145.6 224.37c0 .19 0 .39-.02.59H62.47c0-3 .49-5.88 1.4-8.57 3.58-10.66 13.65-18.34 25.51-18.34 8.88 0 16.75 4.29 21.65 10.93 1.65-.56 3.42-.87 5.26-.87 5.28 0 9.98 2.52 12.95 6.42 1.55-.83 3.33-1.3 5.22-1.3 3.03 0 5.77 1.2 7.78 3.16a11.13 11.13 0 0 1 3.37 7.99zm189.2-70.79H216.1c.4-11.39 9.75-20.49 21.24-20.49 3.38 0 6.58.79 9.42 2.2 6.17-10.11 17.31-16.86 30.02-16.86 15.93 0 29.39 10.6 33.7 25.14 2.59-2.35 6.01-3.78 9.78-3.78 7.79 0 14.15 6.11 14.54 13.8zm24.31 289.44h-94.04c.39-11.18 9.57-20.11 20.83-20.11 3.32 0 6.46.77 9.24 2.15 6.06-9.92 16.99-16.55 29.46-16.55 19.06 0 34.5 15.45 34.5 34.5z" stroke="#fff" stroke-width=".78" stroke-linecap="round" stroke-linejoin="round"/><path d="M304.29 177.63c-3.07 2.21-11.79-4.54-19.46-15.1-7.67-10.55-11.4-20.9-8.33-23.12 3.07-2.21 11.79 4.54 19.46 15.1 7.67 10.55 11.4 20.9 8.33 23.12" fill="#fff"/><path d="M282.05 164.85c-8.16-11.22-11.58-22.66-7.63-25.51s13.8 3.96 21.96 15.18 11.58 22.66 7.63 25.51-13.8-3.96-21.96-15.18m14.25-8.21c-7.17-9.85-15.33-16.19-18.2-14.12s.63 11.77 7.79 21.62c7.17 9.85 15.33 16.19 18.2 14.12s-.62-11.77-7.79-21.62" fill="#fff"/><path d="M282.33 165.61c-.15-.21-.31-.42-.46-.63-3.97-5.46-6.96-11.15-8.42-16.01-1.48-4.93-1.2-8.44.78-9.87 1.14-.82 2.75-.9 4.78-.23 2.43.8 5.33 2.65 8.4 5.34 3.13 2.76 6.29 6.28 9.13 10.19 3.97 5.46 6.96 11.15 8.42 16.01 1.48 4.93 1.2 8.44-.78 9.87-1.14.82-2.75.9-4.78.23-2.43-.8-5.33-2.65-8.4-5.34-2.96-2.61-5.95-5.9-8.67-9.56m-.11-.88c5.58 7.67 12.32 13.66 17.17 15.26 1.89.62 3.38.56 4.43-.19 1.84-1.32 2.08-4.65.67-9.36-1.43-4.78-4.38-10.38-8.3-15.77-5.58-7.66-12.32-13.66-17.17-15.26-1.89-.62-3.38-.56-4.43.19-1.84 1.33-2.08 4.65-.66 9.36 1.43 4.78 4.38 10.38 8.3 15.77zm3.98.22c-.16-.22-.33-.44-.49-.67-3.49-4.8-6.23-9.71-7.71-13.83-1.52-4.21-1.54-7.11-.08-8.16.72-.52 1.74-.56 3.05-.13 4.04 1.33 10.13 6.97 15.51 14.37 3.49 4.8 6.23 9.71 7.71 13.83 1.52 4.21 1.54 7.11.08 8.16-.72.52-1.74.56-3.05.13-3.92-1.29-9.76-6.63-15.01-13.7zm9.45-8.81c-5.1-6.86-10.94-12.22-14.68-13.46-1.17-.39-2.07-.35-2.69.09-1.31.94-1.24 3.65.18 7.62 1.46 4.05 4.16 8.89 7.6 13.63 5.21 7.16 11.29 12.82 15.15 14.09 1.17.39 2.07.35 2.69-.09 1.31-.94 1.24-3.65-.18-7.62-1.46-4.05-4.16-8.9-7.6-13.63-.15-.21-.31-.43-.47-.64z" fill="#000"/><path d="M284.47 162.79c-8.16-11.22-12.14-22.26-8.87-24.62 3.27-2.35 12.56 4.86 20.72 16.07 8.16 11.22 12.14 22.26 8.87 24.62-3.27 2.35-12.56-4.86-20.72-16.07m11.13-8.02c-7.17-9.85-15.33-16.19-18.2-14.12s.62 11.77 7.79 21.62 15.33 16.19 18.2 14.12-.62-11.77-7.79-21.62" fill="#fff"/><path d="M284.86 163.68c-.19-.25-.37-.51-.56-.77-3.97-5.46-7.08-11.04-8.77-15.73-1.72-4.77-1.75-8.06-.1-9.25.81-.58 1.97-.63 3.45-.15 4.59 1.51 11.51 7.93 17.63 16.34 3.97 5.46 7.08 11.04 8.77 15.73 1.72 4.77 1.75 8.06.1 9.26-.81.58-1.97.63-3.45.15-4.45-1.47-11.09-7.54-17.07-15.57zm10.73-10.06c-2.83-3.81-5.87-7.24-8.81-9.95-3.04-2.81-5.78-4.66-7.91-5.36-1.34-.44-2.38-.4-3.09.11-1.5 1.08-1.43 4.18.2 8.71 1.67 4.62 4.74 10.14 8.67 15.53 2.99 4.11 6.23 7.81 9.36 10.7 3.04 2.8 5.78 4.66 7.91 5.36 1.34.44 2.38.4 3.09-.11 1.5-1.08 1.43-4.18-.2-8.71-1.67-4.62-4.74-10.14-8.67-15.53a37 37 0 0 0-.56-.76zm-10.08 9.45-.49-.67c-3.49-4.8-6.23-9.71-7.71-13.83-1.52-4.21-1.54-7.11-.08-8.16.72-.52 1.74-.56 3.05-.13 4.04 1.33 10.13 6.97 15.51 14.37 3.49 4.8 6.23 9.71 7.71 13.83 1.52 4.21 1.54 7.11.08 8.16-.72.52-1.74.56-3.05.13-3.92-1.29-9.76-6.63-15.01-13.7zm9.45-8.81c-5.1-6.86-10.94-12.22-14.68-13.46-1.17-.39-2.07-.35-2.69.09-1.31.94-1.24 3.65.18 7.62 1.46 4.05 4.16 8.9 7.6 13.63.15.21.31.43.47.64 5.1 6.86 10.94 12.22 14.68 13.46 1.17.39 2.07.35 2.69-.09 1.31-.94 1.24-3.65-.18-7.62-1.46-4.05-4.16-8.89-7.6-13.63-.15-.21-.31-.43-.47-.64" fill="#000"/><path d="M294.94 168.4c.99-.72-.08-3.34-2.83-8.05-2.24-3.84-3.08-5.64-2.45-6.1.46-.33 1.99.62 4.56 4.16 1.71 2.35 2.76 4.22 3.26 5.16l1.38.41c-.67-1.28-1.91-3.32-3.84-5.97-.01-.02-.02-.03-.03-.05l1.03-.74-1.5-2.06-1.08.78c-2.98-3.71-5.45-5.64-6.35-4.99-.95.69.38 3.71 3.07 8.23 2.2 3.76 2.84 5.4 2.21 5.85-.68.49-2.61-1.17-5.1-4.59-1.68-2.31-3.07-4.65-3.92-6.32l-1.35-.32c.77 1.56 2.56 4.43 4.38 6.93.05.07.1.13.15.2l-.86.62 1.5 2.06.91-.65c3.53 4.44 5.95 6.1 6.85 5.45z" fill="#000"/><path d="M294.57 167.48c.99-.71-.08-3.34-2.83-8.05-2.24-3.84-3.08-5.64-2.45-6.1.46-.33 1.99.62 4.56 4.16 1.71 2.35 2.76 4.22 3.26 5.16l1.38.41c-.67-1.28-1.91-3.32-3.84-5.97-.01-.02-.02-.03-.03-.05l1.03-.74-1.5-2.06-1.08.78c-2.98-3.7-5.45-5.64-6.35-4.99-.95.69.38 3.71 3.07 8.23 2.2 3.76 2.84 5.4 2.21 5.85-.68.49-2.61-1.17-5.1-4.59-1.68-2.31-3.07-4.65-3.92-6.32l-1.35-.32c.77 1.56 2.56 4.43 4.38 6.93.05.07.1.13.15.2l-.86.62 1.5 2.06.91-.65c3.53 4.44 5.95 6.1 6.86 5.45z" fill="#fff"/><path d="m286.8 163.06-1.85-2.55.86-.62c-1.75-2.41-3.59-5.32-4.39-6.94l-.21-.43 1.9.45.08.16c.97 1.9 2.42 4.24 3.89 6.26 1.83 2.52 3.45 4.2 4.34 4.49.18.06.31.05.4-.01.49-.35-.18-2-2.23-5.52-3.1-5.2-4.04-7.85-3.04-8.56 1-.72 3.48 1.15 6.51 4.87l1.09-.79 1.85 2.55-1.03.74c2.13 2.95 3.25 4.91 3.73 5.83l.25.47-1.97-.59-.08-.15c-.6-1.12-1.64-2.92-3.23-5.11-2.44-3.35-3.61-3.94-3.91-4.04-.09-.03-.22-.06-.29 0-.52.38.56 2.48 2.47 5.76 2.57 4.4 4.03 7.5 2.81 8.38-1.09.79-3.71-1.2-7.02-5.33l-.92.66zm-1.15-2.32 1.14 1.57.9-.65.18.23c3.74 4.71 5.85 5.82 6.51 5.35.81-.58-.07-2.96-2.85-7.71-2.28-3.9-3.22-5.86-2.42-6.43.11-.08.31-.15.65-.03.97.32 2.48 1.85 4.27 4.31 1.55 2.13 2.59 3.9 3.21 5.06l.79.23c-.58-1.05-1.68-2.87-3.55-5.44l-.03-.05-.18-.24 1.03-.74-1.14-1.57-1.07.77-.18-.22c-3.24-4.03-5.35-5.36-6-4.89-.75.54.29 3.19 3.09 7.89 2.36 4.04 2.93 5.66 2.19 6.19-.19.14-.44.15-.76.05-1.05-.35-2.72-2.04-4.7-4.76-1.45-2-2.89-4.3-3.88-6.21l-.78-.18c.87 1.65 2.54 4.26 4.12 6.43.03.03.05.07.07.1s.05.06.07.1l.18.24-.86.62zm5.26 14.05-.28-.25 2.45-1.74.27.26zm.83.72-.29-.25 2.42-1.72.28.25-2.41 1.71zm.74.6-.3-.24 2.4-1.7.29.25-2.38 1.69zm.87.69-.31-.24 2.36-1.67.29.25-2.35 1.66zm.84.63-.32-.23 2.33-1.65.3.24zm.77.53-.33-.22 2.3-1.63.31.23-2.27 1.61zm.82.56-.31-.23 2.25-1.59.32.22-2.25 1.6zm.78.47-.21-.3 2.1-1.49.33.22zm.92.51-.21-.3 2.05-1.45.35.21-2.18 1.54zm.98.4-.39-.17 2.1-1.49.37.19zm.83.31-.42-.15 2.06-1.46.4.17-2.03 1.44zm.91.27-.46-.13 2-1.42.44.14-1.98 1.4zm.86.15-.52-.08 1.96-1.39.5.1-1.94 1.38zm.69.05-.48-.04 1.92-1.36.5.03-1.93 1.37zm.71-.05-.48.04 1.94-1.37.53-.08z" fill="#000"/><path d="m289.8 173.77-.27-.26 2.48-1.76.25.28-2.45 1.74z" fill="#000" opacity=".74"/><path d="m288.22 172.2-.27-.26 2.53-1.79.26.27z" fill="#000" opacity=".55"/><path d="m272.8 142.81.05-.49 1.6-1.14.02.44zm0 1.06-.03-.43 1.74-1.23.05.41zm.06 1.22-.04-.42 1.86-1.32.08.4-1.9 1.35zm.2 1.23-.08-.39 1.96-1.39.1.38-1.98 1.41zm.24 1.18-.09-.39 2.05-1.46.11.37-2.07 1.47zm.5 1.22-.21-.3 1.95-1.38.21.3zm.27 1.43-.12-.37 2.17-1.54.18.32-2.22 1.58zm.44 1.21-.13-.36 2.26-1.6.16.34-2.28 1.62zm.51 1.28-.15-.35 2.32-1.64.17.33zm.65 1.49-.16-.34 2.37-1.68.18.33zm1.17 2.37-.17-.33 2.45-1.74.18.33zm1.4 2.54-.18-.32 2.51-1.78.19.32-2.52 1.79zm22.53 3.81s5.65 10.02 2.62 13.54c0 0-1.53 1.3-5.15-.97 0 0 10.12 5.38 2.53-12.56z" fill="#000"/><g clip-path="url(#b)" fill="#fff"><path d="M62 526H-1v289h377V625H228c-15.464 0-28-12.536-28-28s-12.536-28-28-28h-67c-11.874 0-21.5-9.626-21.5-21.5S73.874 526 62 526"/><path fill-rule="evenodd" clip-rule="evenodd" d="M15 460.72C15 446.51 26.52 435 40.73 435c14.2 0 25.72 11.69 25.72 25.72s-11.25 25.45-25.22 25.71v-11.84l7.27-7.27c.19-.19.19-.51 0-.7-.2-.2-.52-.2-.71 0l-6.56 6.55V452.8c0-.28-.22-.5-.5-.5s-.5.22-.5.5v10.86l-6.56-6.57a.513.513 0 0 0-.71 0c-.2.2-.2.51 0 .71l7.27 7.27v21.36C26.25 486.17 15 474.93 15 460.72M41.23 525v-38.57h-1V525c0 .28.23.5.5.5s.5-.22.5-.5m243.68 6.18c0 3.47-.97 6.72-2.66 9.47 6.2 4.7 10.19 12.14 10.19 20.51 0 14.03-11.24 25.45-25.22 25.71v-26.13l7.3-9.1c.18-.22.14-.53-.07-.71a.517.517 0 0 0-.71.08l-6.52 8.13v-30.75c0-.28-.22-.5-.5-.5s-.5.22-.5.5v16.06l-6.53-8.13a.504.504 0 0 0-.7-.08c-.21.18-.25.49-.08.71l7.31 9.1v23.36l-3.55-4.42a.51.51 0 0 0-.71-.08c-.21.17-.25.49-.07.7l4.33 5.4v15.86c-13.98-.26-25.22-11.68-25.22-25.71 0-8.37 3.99-15.81 10.18-20.51-1.68-2.75-2.65-6-2.65-9.47 0-10.04 8.15-18.18 18.19-18.18s18.19 8.14 18.19 18.18m-17.689 94.26v-38.57h-1v38.57c0 .28.22.5.5.5s.5-.22.5-.5"/></g><path d="M49.111 618.026c-6.136 0-11.111 3.456-11.111 7.72h22.222c0-4.264-4.974-7.72-11.11-7.72" fill="#fff"/><path d="M66.889 618.026c-6.137 0-11.111 3.456-11.111 7.72H78c0-4.264-4.975-7.72-11.111-7.72" fill="#fff"/><path d="M68.043 626.489c-3.723-3.456-8.717-4.16-11.154-1.573l13.483 12.515c2.437-2.588 1.394-7.486-2.329-10.942" fill="#fff"/><path d="M46.964 626.489c3.723-3.456 8.717-4.16 11.154-1.573l-13.483 12.515c-2.437-2.588-1.395-7.486 2.329-10.942m7.493-14.549c-4.91-2.173-10.233-.943-11.89 2.747l17.78 7.867c1.657-3.69-.98-8.442-5.89-10.614" fill="#fff"/><path d="M62.654 611.933c4.91-2.172 10.233-.942 11.89 2.748l-17.78 7.866c-1.657-3.689.98-8.442 5.89-10.614" fill="#fff"/></g><defs><clipPath id="a"><path fill="#fff" d="M0 0h376v812H0z"/></clipPath><clipPath id="b"><path fill="#fff" d="M-1 435h377v380H-1z"/></clipPath></defs></svg>