<svg width="376" height="812" viewBox="0 0 376 812" fill="none" xmlns="http://www.w3.org/2000/svg">
<g clip-path="url(#clip0_234_2786)">
<rect width="376" height="812" fill="#FFA168"/>
<g clip-path="url(#clip1_234_2786)">
<path d="M172.247 582H0V812H376V467H355.111C345.039 467 336.875 475.165 336.875 485.236C336.875 495.308 328.71 503.473 318.638 503.473H236.247C218.574 503.473 204.247 517.8 204.247 535.473V550C204.247 567.673 189.92 582 172.247 582Z" fill="white"/>
<path fill-rule="evenodd" clip-rule="evenodd" d="M310.91 409.18C310.91 412.65 309.94 415.9 308.25 418.65C314.45 423.35 318.44 430.79 318.44 439.16C318.44 453.19 307.2 464.61 293.22 464.87V438.74L300.52 429.64C300.7 429.42 300.66 429.11 300.45 428.93C300.23 428.76 299.92 428.8 299.74 429.01L293.22 437.14V406.39C293.22 406.11 293 405.89 292.72 405.89C292.44 405.89 292.22 406.11 292.22 406.39V422.45L285.69 414.32C285.52 414.11 285.21 414.07 284.99 414.24C284.78 414.42 284.74 414.73 284.91 414.95L292.22 424.05V447.41L288.67 442.99C288.49 442.77 288.18 442.74 287.96 442.91C287.75 443.08 287.71 443.4 287.89 443.61L292.22 449.01V464.87C278.24 464.61 267 453.19 267 439.16C267 430.79 270.99 423.35 277.18 418.65C275.5 415.9 274.53 412.65 274.53 409.18C274.53 399.14 282.68 391 292.72 391C302.76 391 310.91 399.14 310.91 409.18ZM293.221 503.44V464.87H292.721H292.221V503.44C292.221 503.72 292.441 503.94 292.721 503.94C293.001 503.94 293.221 503.72 293.221 503.44Z" fill="white"/>
</g>
<path d="M160.7 140.15H42C42.4 128.76 51.75 119.66 63.24 119.66C66.62 119.66 69.82 120.45 72.66 121.86C78.83 111.75 89.97 105 102.68 105C118.61 105 132.07 115.6 136.38 130.14C138.97 127.79 142.39 126.36 146.16 126.36C153.95 126.36 160.31 132.47 160.7 140.16V140.15Z" stroke="white" stroke-width="0.78" stroke-linecap="round" stroke-linejoin="round"/>
<path d="M254.13 278.32C254.13 278.51 254.13 278.71 254.11 278.91H171C171 275.91 171.49 273.03 172.4 270.34C175.98 259.68 186.05 252 197.91 252C206.79 252 214.66 256.29 219.56 262.93C221.21 262.37 222.98 262.06 224.82 262.06C230.1 262.06 234.8 264.58 237.77 268.48C239.32 267.65 241.1 267.18 242.99 267.18C246.02 267.18 248.76 268.38 250.77 270.34C252.85 272.37 254.14 275.2 254.14 278.33L254.13 278.32Z" stroke="white" stroke-width="0.78" stroke-linecap="round" stroke-linejoin="round"/>
</g>
<defs>
<clipPath id="clip0_234_2786">
<rect width="376" height="812" fill="white"/>
</clipPath>
<clipPath id="clip1_234_2786">
<rect width="376" height="421" fill="white" transform="translate(0 391)"/>
</clipPath>
</defs>
</svg>
