<svg width="376" height="812" viewBox="0 0 376 812" fill="none" xmlns="http://www.w3.org/2000/svg"><g clip-path="url(#a)"><path fill="#FFA168" d="M0 0h376v812H0z"/><g clip-path="url(#b)" fill="#fff"><path d="M172.247 582H0v230h376V467h-20.889c-10.072 0-18.236 8.165-18.236 18.236s-8.165 18.237-18.237 18.237h-82.391c-17.673 0-32 14.327-32 32V550c0 17.673-14.327 32-32 32"/><path fill-rule="evenodd" clip-rule="evenodd" d="M310.91 409.18c0 3.47-.97 6.72-2.66 9.47 6.2 4.7 10.19 12.14 10.19 20.51 0 14.03-11.24 25.45-25.22 25.71v-26.13l7.3-9.1c.18-.22.14-.53-.07-.71a.517.517 0 0 0-.71.08l-6.52 8.13v-30.75c0-.28-.22-.5-.5-.5s-.5.22-.5.5v16.06l-6.53-8.13a.504.504 0 0 0-.7-.08c-.21.18-.25.49-.08.71l7.31 9.1v23.36l-3.55-4.42a.51.51 0 0 0-.71-.08c-.21.17-.25.49-.07.7l4.33 5.4v15.86c-13.98-.26-25.22-11.68-25.22-25.71 0-8.37 3.99-15.81 10.18-20.51-1.68-2.75-2.65-6-2.65-9.47 0-10.04 8.15-18.18 18.19-18.18s18.19 8.14 18.19 18.18m-17.689 94.26v-38.57h-1v38.57c0 .28.22.5.5.5s.5-.22.5-.5"/></g><path d="M160.7 140.15H42c.4-11.39 9.75-20.49 21.24-20.49 3.38 0 6.58.79 9.42 2.2C78.83 111.75 89.97 105 102.68 105c15.93 0 29.39 10.6 33.7 25.14 2.59-2.35 6.01-3.78 9.78-3.78 7.79 0 14.15 6.11 14.54 13.8zm93.43 138.17c0 .19 0 .39-.02.59H171c0-3 .49-5.88 1.4-8.57 3.58-10.66 13.65-18.34 25.51-18.34 8.88 0 16.75 4.29 21.65 10.93 1.65-.56 3.42-.87 5.26-.87 5.28 0 9.98 2.52 12.95 6.42 1.55-.83 3.33-1.3 5.22-1.3 3.03 0 5.77 1.2 7.78 3.16a11.13 11.13 0 0 1 3.37 7.99z" stroke="#fff" stroke-width=".78" stroke-linecap="round" stroke-linejoin="round"/></g><defs><clipPath id="a"><path fill="#fff" d="M0 0h376v812H0z"/></clipPath><clipPath id="b"><path fill="#fff" d="M0 391h376v421H0z"/></clipPath></defs></svg>