<svg width="376" height="812" viewBox="0 0 376 812" fill="none" xmlns="http://www.w3.org/2000/svg">
<g clip-path="url(#clip0_234_2763)">
<rect width="376" height="812" fill="#883E89"/>
<path d="M136.992 140.629L134.329 152.143L136.992 164.66L139.464 152.414L136.992 140.629Z" fill="white"/>
<path d="M146 152.312L137.342 150.021L127.94 152.312L137.139 154.434L146 152.312Z" fill="white"/>
<path d="M198.74 368.35L196.97 376L198.74 384.31L200.38 376.17L198.74 368.34V368.35Z" fill="white"/>
<path d="M204.73 376.11L198.98 374.59L192.73 376.11L198.84 377.52L204.73 376.11Z" fill="white"/>
<path d="M274.01 182L272.24 189.65L274.01 197.97L275.65 189.83L274.01 182Z" fill="white"/>
<path d="M280 189.76L274.25 188.24L268 189.76L274.11 191.17L280 189.76Z" fill="white"/>
<path d="M334.11 326L331.71 336.36L334.11 347.62L336.33 336.61L334.11 326.01V326Z" fill="white"/>
<path d="M342.21 336.51L334.43 334.45L325.97 336.51L334.24 338.42L342.21 336.51Z" fill="white"/>
<path d="M279.97 363.518C285.078 373.42 281.149 385.819 271.2 391.215C261.251 396.6 249.06 392.937 243.953 383.023C238.845 373.109 242.774 360.721 252.723 355.325C262.672 349.94 274.863 353.603 279.97 363.518Z" fill="white"/>
<path d="M273.291 392.509C262.718 398.229 249.707 394.324 244.288 383.785C238.868 373.247 243.051 360.028 253.624 354.297C264.197 348.577 277.208 352.482 282.628 363.021C288.047 373.559 283.864 386.778 273.291 392.509ZM254.815 356.631C245.524 361.657 241.85 373.282 246.61 382.526C251.371 391.782 262.799 395.213 272.09 390.187C281.38 385.16 285.054 373.536 280.294 364.292C275.533 355.036 264.105 351.604 254.815 356.631Z" fill="black"/>
<path d="M271.801 392.371C261.228 398.091 248.217 394.185 242.798 383.647C237.378 373.108 241.561 359.889 252.134 354.158C262.707 348.438 275.718 352.344 281.138 362.882C286.557 373.42 282.374 386.639 271.801 392.371ZM253.324 356.492C244.034 361.518 240.359 373.143 245.12 382.387C249.881 391.643 261.309 395.075 270.599 390.048C279.89 385.022 283.564 373.397 278.803 364.153C274.043 354.897 262.615 351.466 253.324 356.492Z" fill="white"/>
<path d="M279.855 385.842C277.879 388.662 275.256 391.065 272.044 392.81C266.763 395.676 260.731 396.288 255.069 394.532C249.522 392.822 245.004 389.031 242.347 383.866C236.8 373.097 241.076 359.566 251.891 353.707C257.172 350.842 263.204 350.229 268.866 351.974C274.412 353.684 278.93 357.474 281.588 362.639C285.494 370.22 284.535 379.163 279.855 385.831V385.842ZM244.9 361.264C240.44 367.643 239.516 376.182 243.248 383.416C245.779 388.338 250.089 391.943 255.369 393.573C260.766 395.237 266.52 394.647 271.57 391.92C281.9 386.328 285.991 373.397 280.698 363.113C278.168 358.191 273.858 354.585 268.577 352.956C263.181 351.292 257.426 351.882 252.377 354.609C249.314 356.272 246.795 358.572 244.912 361.276L244.9 361.264ZM277.729 384.352C275.995 386.836 273.673 388.962 270.853 390.487C266.197 393.006 260.881 393.549 255.901 392.013C251.013 390.499 247.038 387.171 244.692 382.618C239.805 373.12 243.572 361.207 253.105 356.041C257.761 353.522 263.077 352.979 268.057 354.516C272.945 356.03 276.92 359.358 279.265 363.91C282.709 370.589 281.854 378.47 277.74 384.352H277.729ZM247.027 362.767C243.121 368.348 242.312 375.824 245.571 382.156C247.789 386.466 251.556 389.621 256.178 391.054C260.904 392.51 265.942 392.001 270.356 389.609C279.404 384.71 282.986 373.397 278.353 364.384C276.134 360.074 272.367 356.92 267.745 355.487C263.019 354.031 257.981 354.539 253.567 356.931C250.886 358.387 248.679 360.409 247.027 362.767Z" fill="black"/>
<path d="M272.979 374.449C271.327 371.248 268.311 370.612 263.446 371.433C259.471 372.091 257.472 371.895 256.421 369.861C255.658 368.371 256.005 365.909 259.344 364.107C261.551 362.905 263.516 362.674 264.521 362.628L264.209 359.866C262.834 359.901 260.766 360.375 258.258 361.726C258.247 361.726 258.235 361.738 258.212 361.75L256.513 358.445L254.572 359.496L256.363 362.963C253.058 365.528 251.914 369.029 253.405 371.918C254.988 374.992 258.397 375.489 263.03 374.599C266.913 373.94 268.82 374.403 269.859 376.436C270.992 378.632 269.883 381.174 266.659 382.919C264.486 384.097 262.083 384.571 260.269 384.56L260.685 387.356C262.395 387.425 265.284 386.639 267.641 385.368C267.71 385.334 267.756 385.299 267.826 385.264L269.259 388.049L271.2 386.998L269.698 384.074C273.696 381.105 274.47 377.395 272.968 374.472L272.979 374.449Z" fill="black"/>
<path d="M271.916 374.218C270.264 371.017 267.248 370.381 262.383 371.202C258.408 371.861 256.409 371.664 255.358 369.63C254.595 368.14 254.942 365.679 258.281 363.876C260.488 362.674 262.453 362.443 263.458 362.397L263.146 359.635C261.782 359.67 259.703 360.144 257.195 361.496C257.184 361.496 257.172 361.507 257.149 361.519L255.45 358.214L253.509 359.265L255.3 362.732C251.995 365.297 250.851 368.798 252.342 371.687C253.925 374.761 257.334 375.269 261.979 374.368C265.861 373.709 267.768 374.172 268.808 376.205C269.94 378.401 268.831 380.943 265.607 382.688C263.435 383.866 261.031 384.34 259.217 384.329L259.633 387.125C261.332 387.194 264.232 386.409 266.589 385.137C266.659 385.103 266.705 385.068 266.774 385.033L268.207 387.818L270.148 386.767L268.646 383.843C272.644 380.874 273.419 377.164 271.916 374.241V374.218Z" fill="white"/>
<path d="M270.819 386.951L267.988 388.477L266.555 385.703C264.232 386.905 261.424 387.679 259.61 387.61H259.194L258.628 383.808H259.217C261.216 383.82 263.516 383.231 265.365 382.225C268.254 380.665 269.397 378.435 268.357 376.413C267.433 374.622 265.781 374.218 262.048 374.842C256.687 375.882 253.451 374.946 251.891 371.895C250.331 368.879 251.429 365.251 254.665 362.582L252.839 359.034L255.67 357.497L257.38 360.814C260.13 359.404 262.152 359.138 263.146 359.115H263.608L264.036 362.859L263.493 362.882C262.337 362.928 260.535 363.217 258.536 364.303C255.658 365.863 255.092 367.978 255.82 369.388C256.675 371.052 258.258 371.364 262.314 370.693C267.71 369.792 270.726 370.774 272.379 373.975C274.089 377.303 272.91 381.093 269.293 383.947L270.83 386.94L270.819 386.951ZM268.415 387.113L269.478 386.535L267.999 383.67L268.346 383.416C271.801 380.85 272.991 377.418 271.477 374.449C270.045 371.664 267.433 370.867 262.476 371.687C258.536 372.346 256.155 372.253 254.93 369.85C253.983 368.013 254.584 365.309 258.062 363.414C259.934 362.397 261.667 362.027 262.915 361.911L262.719 360.143C261.655 360.236 259.841 360.629 257.449 361.911C257.438 361.911 257.426 361.923 257.403 361.934L256.953 362.177L255.254 358.872L254.191 359.45L255.947 362.859L255.612 363.113C252.527 365.505 251.418 368.775 252.793 371.433C254.122 374.021 257.01 374.795 261.875 373.848C266.682 373.039 268.3 374.102 269.247 375.951C270.541 378.47 269.213 381.278 265.838 383.104C264.001 384.097 261.829 384.71 259.795 384.791L260.061 386.582C261.771 386.524 264.325 385.75 266.335 384.652C266.358 384.64 266.393 384.617 266.416 384.606C266.451 384.583 266.486 384.571 266.52 384.548L266.971 384.294L268.404 387.079L268.415 387.113Z" fill="black"/>
<path d="M185.41 414.32C186.24 416.96 179.54 421.45 170.46 424.35C161.37 427.25 153.33 427.45 152.5 424.81C151.67 422.17 158.37 417.68 167.45 414.78C176.54 411.88 184.58 411.68 185.41 414.32Z" fill="white"/>
<path d="M171.43 426.82C161.77 429.9 153.04 429.64 151.98 426.24C150.92 422.84 157.91 417.57 167.57 414.49C177.23 411.41 185.96 411.67 187.02 415.07C188.09 418.47 181.09 423.74 171.43 426.82ZM169.02 415.03C160.53 417.73 154.26 421.94 155.03 424.41C155.8 426.88 163.34 426.69 171.82 423.98C180.3 421.27 186.58 417.07 185.8 414.6C185.03 412.13 177.49 412.32 169.01 415.03H169.02Z" fill="white"/>
<path d="M172.02 426.8C171.84 426.86 171.66 426.92 171.48 426.98C166.78 428.48 162.14 429.24 158.43 429.13C154.67 429.02 152.3 428.02 151.77 426.31C151.46 425.33 151.77 424.19 152.71 422.94C153.83 421.44 155.78 419.85 158.35 418.34C160.98 416.8 164.15 415.42 167.52 414.35C172.22 412.85 176.86 412.09 180.57 412.2C184.33 412.31 186.7 413.31 187.23 415.02C187.54 416 187.23 417.14 186.29 418.39C185.17 419.89 183.22 421.48 180.65 422.99C178.16 424.45 175.19 425.76 172.02 426.81V426.8ZM171.39 426.67C177.99 424.57 183.7 421.27 185.93 418.26C186.8 417.09 187.1 416.04 186.81 415.14C186.31 413.56 184.06 412.63 180.47 412.52C176.82 412.41 172.26 413.17 167.62 414.65C161.02 416.75 155.31 420.05 153.08 423.06C152.21 424.23 151.91 425.28 152.2 426.18C152.7 427.76 154.95 428.69 158.54 428.8C162.19 428.91 166.75 428.15 171.39 426.67ZM172.46 423.95C172.27 424.01 172.07 424.08 171.88 424.14C167.75 425.46 163.71 426.23 160.51 426.31C157.24 426.39 155.23 425.74 154.83 424.48C154.64 423.86 154.84 423.14 155.44 422.33C157.3 419.83 162.61 416.9 168.98 414.87C173.11 413.55 177.15 412.78 180.35 412.7C183.62 412.62 185.63 413.26 186.03 414.52C186.22 415.14 186.02 415.86 185.42 416.67C183.62 419.09 178.57 421.92 172.46 423.94V423.95ZM168.52 415.36C162.59 417.32 157.52 420.14 155.8 422.45C155.26 423.17 155.08 423.81 155.25 424.34C155.6 425.47 157.5 426.05 160.58 425.97C163.73 425.89 167.71 425.13 171.79 423.83C177.95 421.86 183.29 418.94 185.06 416.56C185.6 415.84 185.78 415.2 185.61 414.67C185.26 413.54 183.36 412.96 180.28 413.04C177.13 413.12 173.15 413.88 169.08 415.18C168.9 415.24 168.71 415.3 168.53 415.36H168.52Z" fill="black"/>
<path d="M170.56 424.67C160.9 427.75 152.32 427.97 151.44 425.16C150.56 422.35 157.7 417.56 167.36 414.48C177.02 411.4 185.6 411.18 186.48 413.99C187.36 416.8 180.22 421.59 170.56 424.67ZM167.56 415.1C159.07 417.8 152.8 422.01 153.57 424.48C154.34 426.95 161.88 426.76 170.36 424.05C178.84 421.34 185.12 417.14 184.34 414.67C183.57 412.2 176.03 412.39 167.55 415.1H167.56Z" fill="white"/>
<path d="M171.26 424.6C171.04 424.67 170.82 424.74 170.6 424.81C165.9 426.31 161.31 427.18 157.67 427.28C153.96 427.37 151.67 426.64 151.23 425.22C151.01 424.52 151.24 423.71 151.92 422.79C154.03 419.95 160.07 416.62 167.31 414.31C172.01 412.81 176.6 411.94 180.24 411.84C183.95 411.75 186.24 412.48 186.68 413.9C186.9 414.6 186.67 415.41 185.99 416.33C183.95 419.08 178.2 422.29 171.26 424.59V424.6ZM166.75 414.83C163.45 415.92 160.38 417.24 157.82 418.65C155.17 420.12 153.26 421.59 152.28 422.91C151.67 423.74 151.45 424.47 151.64 425.08C152.05 426.37 154.21 427.04 157.73 426.95C161.32 426.86 165.85 425.99 170.5 424.51C174.04 423.38 177.35 421.99 180.08 420.47C182.73 419 184.64 417.53 185.62 416.21C186.23 415.38 186.45 414.65 186.26 414.04C185.85 412.75 183.69 412.08 180.17 412.17C176.58 412.26 172.05 413.13 167.4 414.61C167.18 414.68 166.96 414.75 166.75 414.82V414.83ZM170.98 424C170.79 424.06 170.59 424.13 170.4 424.19C166.27 425.51 162.23 426.28 159.03 426.36C155.76 426.44 153.75 425.79 153.35 424.54C153.16 423.92 153.36 423.2 153.96 422.39C155.82 419.89 161.13 416.96 167.5 414.93C171.63 413.61 175.67 412.84 178.87 412.76C182.14 412.68 184.15 413.33 184.55 414.58C184.74 415.2 184.54 415.92 183.94 416.73C182.14 419.15 177.09 421.98 170.98 424ZM167.04 415.41C161.11 417.37 156.04 420.19 154.32 422.5C153.78 423.22 153.6 423.86 153.77 424.39C154.12 425.52 156.02 426.1 159.1 426.02C162.25 425.94 166.23 425.18 170.31 423.88C170.49 423.82 170.68 423.76 170.86 423.7C176.79 421.74 181.86 418.92 183.58 416.61C184.12 415.89 184.3 415.25 184.13 414.72C183.78 413.59 181.88 413.01 178.8 413.09C175.65 413.17 171.67 413.93 167.6 415.23C167.42 415.29 167.23 415.35 167.05 415.41H167.04Z" fill="black"/>
<path d="M176.86 418.69C176.59 417.84 174.52 417.97 170.63 418.8C167.45 419.47 166.01 419.64 165.84 419.09C165.72 418.69 166.73 417.85 169.77 416.88C171.79 416.24 173.34 415.93 174.1 415.8L174.7 414.93C173.66 415.1 171.96 415.49 169.67 416.22C169.66 416.22 169.64 416.22 169.63 416.23L169.35 415.35L167.57 415.92L167.86 416.85C164.6 418.06 162.69 419.33 162.93 420.11C163.19 420.93 165.59 420.7 169.34 419.88C172.45 419.22 173.74 419.15 173.91 419.69C174.09 420.28 172.5 421.23 169.55 422.17C167.56 422.8 165.62 423.23 164.26 423.44L163.73 424.3C164.99 424.13 167.39 423.54 169.54 422.85C169.6 422.83 169.65 422.81 169.71 422.79L169.94 423.53L171.72 422.96L171.47 422.18C175.37 420.75 177.07 419.45 176.83 418.68L176.86 418.69Z" fill="black"/>
<path d="M176.13 418.74C175.86 417.89 173.79 418.02 169.9 418.85C166.72 419.52 165.28 419.69 165.11 419.14C164.99 418.74 166 417.9 169.04 416.93C171.06 416.29 172.61 415.98 173.37 415.85L173.97 414.98C172.93 415.15 171.23 415.54 168.94 416.27C168.93 416.27 168.91 416.27 168.9 416.28L168.62 415.4L166.84 415.97L167.13 416.9C163.87 418.11 161.96 419.39 162.2 420.16C162.46 420.98 164.86 420.75 168.61 419.93C171.72 419.27 173.01 419.2 173.18 419.74C173.36 420.33 171.77 421.28 168.82 422.22C166.83 422.85 164.89 423.28 163.53 423.49L163 424.35C164.26 424.18 166.66 423.59 168.81 422.9C168.87 422.88 168.92 422.86 168.98 422.84L169.21 423.58L170.99 423.01L170.74 422.23C174.64 420.8 176.34 419.5 176.1 418.73L176.13 418.74Z" fill="white"/>
<path d="M171.28 423.11L169.08 423.81L168.85 423.07C166.78 423.73 164.33 424.33 163.02 424.52L162.67 424.57L163.42 423.35L163.55 423.33C165.09 423.1 167.05 422.63 168.79 422.07C170.96 421.38 172.5 420.64 172.9 420.09C172.98 419.98 173.01 419.89 172.98 419.81C172.85 419.39 171.55 419.47 168.64 420.09C164.32 421.04 162.27 421.09 162 420.23C161.73 419.37 163.6 418.08 166.88 416.83L166.59 415.89L168.79 415.19L169.07 416.07C171.61 415.27 173.22 414.95 173.97 414.83L174.36 414.77L173.5 416L173.38 416.02C172.46 416.18 170.98 416.49 169.09 417.09C166.21 418.01 165.53 418.69 165.39 418.88C165.35 418.94 165.3 419.02 165.32 419.08C165.46 419.53 167.17 419.27 169.88 418.69C173.52 417.92 176.01 417.62 176.34 418.67C176.63 419.61 174.65 420.97 171.03 422.32L171.28 423.11ZM169.41 423.37L170.76 422.94L170.52 422.17L170.72 422.1C174.85 420.59 176.11 419.38 175.93 418.81C175.71 418.12 173.86 418.18 169.92 419.01C166.69 419.69 165.12 419.9 164.9 419.21C164.87 419.12 164.87 418.96 165.03 418.75C165.47 418.15 166.88 417.45 169 416.78C170.84 416.19 172.31 415.88 173.25 415.71L173.59 415.22C172.73 415.38 171.21 415.73 169 416.43H168.96L168.75 416.51L168.47 415.63L167.12 416.06L167.41 416.98L167.22 417.05C163.68 418.37 162.27 419.53 162.44 420.09C162.64 420.73 164.72 420.62 168.62 419.76C171.96 419.05 173.22 419.03 173.42 419.67C173.47 419.83 173.42 420.01 173.28 420.21C172.8 420.86 171.24 421.63 168.89 422.37C167.17 422.92 165.24 423.39 163.69 423.63L163.38 424.13C164.73 423.9 166.92 423.35 168.79 422.75C168.82 422.75 168.85 422.73 168.88 422.72C168.91 422.72 168.93 422.7 168.96 422.69L169.17 422.62L169.4 423.36L169.41 423.37Z" fill="black"/>
<path d="M174.35 413.37C174.35 413.37 182.6 411.76 184.34 414.67C184.34 414.67 184.89 416.03 182.48 418.02C182.48 418.02 188.55 412.24 174.35 413.37Z" fill="black"/>
<path d="M190.911 215.839C181.466 222.455 168.207 220.159 161.304 210.713C154.402 201.268 156.452 188.242 165.897 181.626C175.342 175.01 188.601 177.306 195.504 186.752C202.407 196.197 200.357 209.223 190.911 215.839Z" fill="white"/>
<path d="M160.266 213.037C152.926 202.99 155.113 189.103 165.159 182.063C175.192 175.024 189.34 177.47 196.68 187.517C204.02 197.564 201.833 211.451 191.786 218.491C181.753 225.53 167.606 223.084 160.266 213.037ZM194.465 189.075C188.014 180.259 175.602 178.113 166.772 184.291C157.956 190.47 156.028 202.676 162.48 211.492C168.932 220.309 181.343 222.455 190.173 216.277C198.99 210.098 200.917 197.892 194.465 189.075Z" fill="black"/>
<path d="M160.197 211.492C152.857 201.446 155.044 187.558 165.091 180.519C175.124 173.479 189.271 175.926 196.611 185.972C203.952 196.019 201.765 209.907 191.718 216.933C181.671 223.972 167.538 221.525 160.197 211.479V211.492ZM194.397 187.531C187.945 178.714 175.52 176.568 166.704 182.747C157.887 188.925 155.96 201.131 162.412 209.948C168.864 218.764 181.275 220.91 190.105 214.732C198.922 208.554 200.849 196.347 194.397 187.531Z" fill="white"/>
<path d="M168.002 218.846C164.845 217.22 162.001 214.855 159.773 211.807C156.097 206.79 154.634 200.694 155.632 194.639C156.616 188.706 159.869 183.553 164.79 180.109C175.055 172.919 189.531 175.406 197.035 185.686C200.712 190.702 202.175 196.798 201.177 202.854C200.193 208.786 196.939 213.939 192.018 217.384C184.801 222.441 175.493 222.715 168.002 218.846ZM188.314 179.562C181.152 175.871 172.281 176.131 165.378 180.956C160.689 184.237 157.586 189.157 156.657 194.803C155.7 200.571 157.108 206.394 160.607 211.192C167.783 221.006 181.603 223.398 191.417 216.523C196.105 213.242 199.208 208.321 200.138 202.676C201.095 196.908 199.687 191.085 196.188 186.301C194.055 183.389 191.335 181.134 188.314 179.575V179.562ZM169.232 216.454C166.444 215.019 163.942 212.941 161.988 210.249C158.748 205.82 157.45 200.448 158.338 195.117C159.199 189.896 162.07 185.344 166.403 182.309C175.452 175.967 188.191 178.168 194.807 187.216C198.047 191.645 199.345 197.017 198.457 202.348C197.595 207.569 194.725 212.121 190.392 215.156C184.022 219.612 175.834 219.844 169.232 216.454ZM187.084 181.954C180.824 178.728 173.046 178.947 167.004 183.17C162.904 186.041 160.184 190.36 159.363 195.295C158.53 200.352 159.76 205.437 162.822 209.633C169.109 218.231 181.206 220.323 189.79 214.308C193.891 211.438 196.611 207.118 197.431 202.184C198.265 197.126 197.035 192.042 193.973 187.845C192.114 185.289 189.736 183.321 187.084 181.954Z" fill="black"/>
<path d="M178.718 210.194C181.767 208.062 181.999 204.877 180.482 199.997C179.252 196.019 179.17 193.942 181.111 192.575C182.532 191.577 185.102 191.604 187.426 194.762C188.957 196.867 189.476 198.849 189.667 199.86L192.456 199.149C192.223 197.755 191.458 195.678 189.722 193.299C189.722 193.285 189.695 193.272 189.695 193.258L192.852 191.044L191.499 189.198L188.191 191.522C185.102 188.488 181.357 187.804 178.609 189.745C175.684 191.796 175.643 195.363 177.215 199.997C178.431 203.879 178.226 205.902 176.285 207.255C174.194 208.718 171.433 207.939 169.191 204.877C167.674 202.813 166.854 200.421 166.621 198.562L163.819 199.382C163.983 201.145 165.186 203.988 166.827 206.23C166.868 206.298 166.922 206.339 166.963 206.408L164.311 208.267L165.665 210.112L168.453 208.157C172.062 211.834 175.971 212.121 178.746 210.167L178.718 210.194Z" fill="black"/>
<path d="M178.814 209.073C181.862 206.941 182.095 203.756 180.577 198.876C179.347 194.898 179.265 192.821 181.206 191.454C182.628 190.456 185.198 190.483 187.508 193.641C189.039 195.746 189.558 197.728 189.749 198.739L192.538 198.029C192.305 196.634 191.54 194.557 189.804 192.192C189.804 192.178 189.777 192.165 189.777 192.151L192.934 189.937L191.581 188.091L188.273 190.415C185.184 187.38 181.439 186.697 178.691 188.638C175.766 190.688 175.725 194.256 177.297 198.89C178.513 202.785 178.308 204.795 176.367 206.148C174.276 207.61 171.515 206.831 169.273 203.77C167.756 201.706 166.936 199.313 166.703 197.441L163.901 198.261C164.065 200.024 165.268 202.881 166.909 205.109C166.95 205.177 167.004 205.218 167.045 205.287L164.393 207.146L165.747 208.991L168.535 207.036C172.144 210.713 176.053 211 178.828 209.046L178.814 209.073Z" fill="white"/>
<path d="M165.61 209.729L163.642 207.05L166.293 205.191C164.735 202.977 163.546 200.202 163.368 198.329L163.327 197.906L167.127 196.798L167.209 197.4C167.483 199.45 168.398 201.733 169.683 203.482C171.693 206.216 174.126 207.091 176.053 205.738C177.762 204.549 177.953 202.799 176.777 199.054C174.959 193.695 175.465 190.251 178.377 188.214C181.247 186.205 185.115 186.806 188.314 189.745L191.69 187.38L193.659 190.073L190.501 192.288C192.333 194.912 192.879 196.949 193.057 197.96L193.139 198.439L189.339 199.395L189.243 198.849C189.025 197.659 188.478 195.855 187.097 193.969C185.102 191.235 182.846 190.962 181.507 191.891C179.921 192.998 179.812 194.666 181.069 198.726C182.751 204.139 182.163 207.364 179.101 209.497C175.93 211.725 171.884 211.041 168.453 207.733L165.61 209.729ZM165.118 207.282L165.856 208.28L168.59 206.367L168.904 206.681C172.021 209.866 175.711 210.618 178.527 208.636C181.192 206.777 181.644 203.988 180.099 199.026C178.869 195.076 178.636 192.629 180.933 191.03C182.696 189.8 185.539 190.032 187.959 193.34C189.257 195.117 189.886 196.839 190.173 198.111L191.964 197.659C191.718 196.58 191.075 194.775 189.407 192.506C189.407 192.506 189.38 192.479 189.38 192.465L189.066 192.042L192.223 189.827L191.485 188.829L188.232 191.098L187.918 190.798C185.033 187.968 181.534 187.298 178.992 189.075C176.518 190.811 176.135 193.873 177.789 198.739C179.292 203.564 178.431 205.369 176.668 206.599C174.262 208.28 171.2 207.31 168.863 204.111C167.578 202.362 166.662 200.216 166.293 198.152L164.489 198.685C164.79 200.434 165.938 202.936 167.346 204.849C167.359 204.877 167.387 204.904 167.401 204.931C167.428 204.959 167.455 204.986 167.469 205.027L167.797 205.451L165.145 207.31L165.118 207.282Z" fill="black"/>
<path d="M145.6 224.37C145.6 224.56 145.6 224.76 145.58 224.96H62.4697C62.4697 221.96 62.9597 219.08 63.8697 216.39C67.4497 205.73 77.5197 198.05 89.3797 198.05C98.2597 198.05 106.13 202.34 111.03 208.98C112.68 208.42 114.45 208.11 116.29 208.11C121.57 208.11 126.27 210.63 129.24 214.53C130.79 213.7 132.57 213.23 134.46 213.23C137.49 213.23 140.23 214.43 142.24 216.39C144.32 218.42 145.61 221.25 145.61 224.38L145.6 224.37Z" stroke="white" stroke-width="0.78" stroke-linecap="round" stroke-linejoin="round"/>
<path d="M334.8 153.58H216.1C216.5 142.19 225.85 133.09 237.34 133.09C240.72 133.09 243.92 133.88 246.76 135.29C252.93 125.18 264.07 118.43 276.78 118.43C292.71 118.43 306.17 129.03 310.48 143.57C313.07 141.22 316.49 139.79 320.26 139.79C328.05 139.79 334.41 145.9 334.8 153.59V153.58Z" stroke="white" stroke-width="0.78" stroke-linecap="round" stroke-linejoin="round"/>
<path d="M359.11 443.02H265.07C265.46 431.84 274.64 422.91 285.9 422.91C289.22 422.91 292.36 423.68 295.14 425.06C301.2 415.14 312.13 408.51 324.6 408.51C343.66 408.51 359.1 423.96 359.1 443.01L359.11 443.02Z" stroke="white" stroke-width="0.78" stroke-linecap="round" stroke-linejoin="round"/>
<path d="M304.29 177.63C301.22 179.84 292.5 173.09 284.83 162.53C277.16 151.98 273.43 141.63 276.5 139.41C279.57 137.2 288.29 143.95 295.96 154.51C303.63 165.06 307.36 175.41 304.29 177.63Z" fill="white"/>
<path d="M282.05 164.85C273.89 153.63 270.47 142.19 274.42 139.34C278.37 136.49 288.22 143.3 296.38 154.52C304.54 165.74 307.96 177.18 304.01 180.03C300.06 182.88 290.21 176.07 282.05 164.85ZM296.3 156.64C289.13 146.79 280.97 140.45 278.1 142.52C275.23 144.59 278.73 154.29 285.89 164.14C293.06 173.99 301.22 180.33 304.09 178.26C306.96 176.19 303.47 166.49 296.3 156.64Z" fill="white"/>
<path d="M282.33 165.61C282.18 165.4 282.02 165.19 281.87 164.98C277.9 159.52 274.91 153.83 273.45 148.97C271.97 144.04 272.25 140.53 274.23 139.1C275.37 138.28 276.98 138.2 279.01 138.87C281.44 139.67 284.34 141.52 287.41 144.21C290.54 146.97 293.7 150.49 296.54 154.4C300.51 159.86 303.5 165.55 304.96 170.41C306.44 175.34 306.16 178.85 304.18 180.28C303.04 181.1 301.43 181.18 299.4 180.51C296.97 179.71 294.07 177.86 291 175.17C288.04 172.56 285.05 169.27 282.33 165.61ZM282.22 164.73C287.8 172.4 294.54 178.39 299.39 179.99C301.28 180.61 302.77 180.55 303.82 179.8C305.66 178.48 305.9 175.15 304.49 170.44C303.06 165.66 300.11 160.06 296.19 154.67C290.61 147.01 283.87 141.01 279.02 139.41C277.13 138.79 275.64 138.85 274.59 139.6C272.75 140.93 272.51 144.25 273.93 148.96C275.36 153.74 278.31 159.34 282.23 164.73H282.22ZM286.2 164.95C286.04 164.73 285.87 164.51 285.71 164.28C282.22 159.48 279.48 154.57 278 150.45C276.48 146.24 276.46 143.34 277.92 142.29C278.64 141.77 279.66 141.73 280.97 142.16C285.01 143.49 291.1 149.13 296.48 156.53C299.97 161.33 302.71 166.24 304.19 170.36C305.71 174.57 305.73 177.47 304.27 178.52C303.55 179.04 302.53 179.08 301.22 178.65C297.3 177.36 291.46 172.02 286.21 164.95H286.2ZM295.65 156.14C290.55 149.28 284.71 143.92 280.97 142.68C279.8 142.29 278.9 142.33 278.28 142.77C276.97 143.71 277.04 146.42 278.46 150.39C279.92 154.44 282.62 159.28 286.06 164.02C291.27 171.18 297.35 176.84 301.21 178.11C302.38 178.5 303.28 178.46 303.9 178.02C305.21 177.08 305.14 174.37 303.72 170.4C302.26 166.35 299.56 161.5 296.12 156.77C295.97 156.56 295.81 156.34 295.65 156.13V156.14Z" fill="black"/>
<path d="M284.47 162.79C276.31 151.57 272.33 140.53 275.6 138.17C278.87 135.82 288.16 143.03 296.32 154.24C304.48 165.46 308.46 176.5 305.19 178.86C301.92 181.21 292.63 174 284.47 162.79ZM295.6 154.77C288.43 144.92 280.27 138.58 277.4 140.65C274.53 142.72 278.02 152.42 285.19 162.27C292.36 172.12 300.52 178.46 303.39 176.39C306.26 174.32 302.77 164.62 295.6 154.77Z" fill="white"/>
<path d="M284.86 163.68C284.67 163.43 284.49 163.17 284.3 162.91C280.33 157.45 277.22 151.87 275.53 147.18C273.81 142.41 273.78 139.12 275.43 137.93C276.24 137.35 277.4 137.3 278.88 137.78C283.47 139.29 290.39 145.71 296.51 154.12C300.48 159.58 303.59 165.16 305.28 169.85C307 174.62 307.03 177.91 305.38 179.11C304.57 179.69 303.41 179.74 301.93 179.26C297.48 177.79 290.84 171.72 284.86 163.69V163.68ZM295.59 153.62C292.76 149.81 289.72 146.38 286.78 143.67C283.74 140.86 281 139.01 278.87 138.31C277.53 137.87 276.49 137.91 275.78 138.42C274.28 139.5 274.35 142.6 275.98 147.13C277.65 151.75 280.72 157.27 284.65 162.66C287.64 166.77 290.88 170.47 294.01 173.36C297.05 176.16 299.79 178.02 301.92 178.72C303.26 179.16 304.3 179.12 305.01 178.61C306.51 177.53 306.44 174.43 304.81 169.9C303.14 165.28 300.07 159.76 296.14 154.37C295.96 154.12 295.77 153.86 295.58 153.61L295.59 153.62ZM285.51 163.07C285.35 162.85 285.18 162.62 285.02 162.4C281.53 157.6 278.79 152.69 277.31 148.57C275.79 144.36 275.77 141.46 277.23 140.41C277.95 139.89 278.97 139.85 280.28 140.28C284.32 141.61 290.41 147.25 295.79 154.65C299.28 159.45 302.02 164.36 303.5 168.48C305.02 172.69 305.04 175.59 303.58 176.64C302.86 177.16 301.84 177.2 300.53 176.77C296.61 175.48 290.77 170.14 285.52 163.07H285.51ZM294.96 154.26C289.86 147.4 284.02 142.04 280.28 140.8C279.11 140.41 278.21 140.45 277.59 140.89C276.28 141.83 276.35 144.54 277.77 148.51C279.23 152.56 281.93 157.41 285.37 162.14C285.52 162.35 285.68 162.57 285.84 162.78C290.94 169.64 296.78 175 300.52 176.24C301.69 176.63 302.59 176.59 303.21 176.15C304.52 175.21 304.45 172.5 303.03 168.53C301.57 164.48 298.87 159.64 295.43 154.9C295.28 154.69 295.12 154.47 294.96 154.26Z" fill="black"/>
<path d="M294.94 168.4C295.93 167.68 294.86 165.06 292.11 160.35C289.87 156.51 289.03 154.71 289.66 154.25C290.12 153.92 291.65 154.87 294.22 158.41C295.93 160.76 296.98 162.63 297.48 163.57L298.86 163.98C298.19 162.7 296.95 160.66 295.02 158.01C295.01 157.99 295 157.98 294.99 157.96L296.02 157.22L294.52 155.16L293.44 155.94C290.46 152.23 287.99 150.3 287.09 150.95C286.14 151.64 287.47 154.66 290.16 159.18C292.36 162.94 293 164.58 292.37 165.03C291.69 165.52 289.76 163.86 287.27 160.44C285.59 158.13 284.2 155.79 283.35 154.12L282 153.8C282.77 155.36 284.56 158.23 286.38 160.73C286.43 160.8 286.48 160.86 286.53 160.93L285.67 161.55L287.17 163.61L288.08 162.96C291.61 167.4 294.03 169.06 294.93 168.41L294.94 168.4Z" fill="black"/>
<path d="M294.57 167.48C295.56 166.77 294.49 164.14 291.74 159.43C289.5 155.59 288.66 153.79 289.29 153.33C289.75 153 291.28 153.95 293.85 157.49C295.56 159.84 296.61 161.71 297.11 162.65L298.49 163.06C297.82 161.78 296.58 159.74 294.65 157.09C294.64 157.07 294.63 157.06 294.62 157.04L295.65 156.3L294.15 154.24L293.07 155.02C290.09 151.32 287.62 149.38 286.72 150.03C285.77 150.72 287.1 153.74 289.79 158.26C291.99 162.02 292.63 163.66 292 164.11C291.32 164.6 289.39 162.94 286.9 159.52C285.22 157.21 283.83 154.87 282.98 153.2L281.63 152.88C282.4 154.44 284.19 157.31 286.01 159.81C286.06 159.88 286.11 159.94 286.16 160.01L285.3 160.63L286.8 162.69L287.71 162.04C291.24 166.48 293.66 168.14 294.57 167.49V167.48Z" fill="white"/>
<path d="M286.8 163.06L284.95 160.51L285.81 159.89C284.06 157.48 282.22 154.57 281.42 152.95L281.21 152.52L283.11 152.97L283.19 153.13C284.16 155.03 285.61 157.37 287.08 159.39C288.91 161.91 290.53 163.59 291.42 163.88C291.6 163.94 291.73 163.93 291.82 163.87C292.31 163.52 291.64 161.87 289.59 158.35C286.49 153.15 285.55 150.5 286.55 149.79C287.55 149.07 290.03 150.94 293.06 154.66L294.15 153.87L296 156.42L294.97 157.16C297.1 160.11 298.22 162.07 298.7 162.99L298.95 163.46L296.98 162.87L296.9 162.72C296.3 161.6 295.26 159.8 293.67 157.61C291.23 154.26 290.06 153.67 289.76 153.57C289.67 153.54 289.54 153.51 289.47 153.57C288.95 153.95 290.03 156.05 291.94 159.33C294.51 163.73 295.97 166.83 294.75 167.71C293.66 168.5 291.04 166.51 287.73 162.38L286.81 163.04L286.8 163.06ZM285.65 160.74L286.79 162.31L287.69 161.66L287.87 161.89C291.61 166.6 293.72 167.71 294.38 167.24C295.19 166.66 294.31 164.28 291.53 159.53C289.25 155.63 288.31 153.67 289.11 153.1C289.22 153.02 289.42 152.95 289.76 153.07C290.73 153.39 292.24 154.92 294.03 157.38C295.58 159.51 296.62 161.28 297.24 162.44L298.03 162.67C297.45 161.62 296.35 159.8 294.48 157.23L294.45 157.18L294.27 156.94L295.3 156.2L294.16 154.63L293.09 155.4L292.91 155.18C289.67 151.15 287.56 149.82 286.91 150.29C286.16 150.83 287.2 153.48 290 158.18C292.36 162.22 292.93 163.84 292.19 164.37C292 164.51 291.75 164.52 291.43 164.42C290.38 164.07 288.71 162.38 286.73 159.66C285.28 157.66 283.84 155.36 282.85 153.45L282.07 153.27C282.94 154.92 284.61 157.53 286.19 159.7C286.22 159.73 286.24 159.77 286.26 159.8C286.28 159.83 286.31 159.86 286.33 159.9L286.51 160.14L285.65 160.76V160.74Z" fill="black"/>
<path d="M290.91 174.79L290.63 174.54L293.08 172.8L293.35 173.06L290.91 174.79Z" fill="black"/>
<path d="M291.74 175.51L291.45 175.26L293.87 173.54L294.15 173.79L291.74 175.5V175.51Z" fill="black"/>
<path d="M292.48 176.11L292.18 175.87L294.58 174.17L294.87 174.42L292.49 176.11H292.48Z" fill="black"/>
<path d="M293.35 176.8L293.04 176.56L295.4 174.89L295.69 175.14L293.34 176.8H293.35Z" fill="black"/>
<path d="M294.19 177.43L293.87 177.2L296.2 175.55L296.5 175.79L294.19 177.43Z" fill="black"/>
<path d="M294.96 177.96L294.63 177.74L296.93 176.11L297.24 176.34L294.97 177.95L294.96 177.96Z" fill="black"/>
<path d="M295.78 178.52L295.47 178.29L297.72 176.7L298.04 176.92L295.79 178.52H295.78Z" fill="black"/>
<path d="M296.56 178.99L296.35 178.69L298.45 177.2L298.78 177.42L296.56 178.99Z" fill="black"/>
<path d="M297.48 179.5L297.27 179.2L299.32 177.75L299.67 177.96L297.49 179.5H297.48Z" fill="black"/>
<path d="M298.46 179.9L298.07 179.73L300.17 178.24L300.54 178.43L298.46 179.9Z" fill="black"/>
<path d="M299.29 180.21L298.87 180.06L300.93 178.6L301.33 178.77L299.3 180.21H299.29Z" fill="black"/>
<path d="M300.2 180.48L299.74 180.35L301.74 178.93L302.18 179.07L300.2 180.47V180.48Z" fill="black"/>
<path d="M301.06 180.63L300.54 180.55L302.5 179.16L303 179.26L301.06 180.64V180.63Z" fill="black"/>
<path d="M301.75 180.68L301.27 180.64L303.19 179.28L303.69 179.31L301.76 180.68H301.75Z" fill="black"/>
<path d="M302.46 180.63L301.98 180.67L303.92 179.3L304.45 179.22L302.46 180.63Z" fill="black"/>
<g opacity="0.74">
<path d="M289.8 173.77L289.53 173.51L292.01 171.75L292.26 172.03L289.81 173.77H289.8Z" fill="black"/>
</g>
<g opacity="0.55">
<path d="M288.22 172.2L287.95 171.94L290.48 170.15L290.74 170.42L288.22 172.2Z" fill="black"/>
</g>
<path d="M272.8 142.81L272.85 142.32L274.45 141.18L274.47 141.62L272.8 142.81Z" fill="black"/>
<path d="M272.8 143.87L272.77 143.44L274.51 142.21L274.56 142.62L272.8 143.87Z" fill="black"/>
<path d="M272.86 145.09L272.82 144.67L274.68 143.35L274.76 143.75L272.86 145.1V145.09Z" fill="black"/>
<path d="M273.06 146.32L272.98 145.93L274.94 144.54L275.04 144.92L273.06 146.33V146.32Z" fill="black"/>
<path d="M273.3 147.5L273.21 147.11L275.26 145.65L275.37 146.02L273.3 147.49V147.5Z" fill="black"/>
<path d="M273.8 148.72L273.59 148.42L275.54 147.04L275.75 147.34L273.8 148.72Z" fill="black"/>
<path d="M274.07 150.15L273.95 149.78L276.12 148.24L276.3 148.56L274.08 150.14L274.07 150.15Z" fill="black"/>
<path d="M274.51 151.36L274.38 151L276.64 149.4L276.8 149.74L274.52 151.36H274.51Z" fill="black"/>
<path d="M275.02 152.64L274.87 152.29L277.19 150.65L277.36 150.98L275.02 152.64Z" fill="black"/>
<path d="M275.67 154.13L275.51 153.79L277.88 152.11L278.06 152.44L275.67 154.13Z" fill="black"/>
<path d="M276.84 156.5L276.67 156.17L279.12 154.43L279.3 154.76L276.84 156.5Z" fill="black"/>
<path d="M278.24 159.04L278.06 158.72L280.57 156.94L280.76 157.26L278.24 159.05V159.04Z" fill="black"/>
<path d="M300.77 162.85C300.77 162.85 306.42 172.87 303.39 176.39C303.39 176.39 301.86 177.69 298.24 175.42C298.24 175.42 308.36 180.8 300.77 162.86V162.85Z" fill="black"/>
<g clip-path="url(#clip1_234_2763)">
<path d="M62 526H-1V815H376V625H228C212.536 625 200 612.464 200 597C200 581.536 187.464 569 172 569H105C93.1259 569 83.5 559.374 83.5 547.5C83.5 535.626 73.8741 526 62 526Z" fill="white"/>
<path fill-rule="evenodd" clip-rule="evenodd" d="M15 460.72C15 446.51 26.52 435 40.73 435C54.93 435 66.45 446.69 66.45 460.72C66.45 474.75 55.2 486.17 41.23 486.43V474.59L48.5 467.32C48.69 467.13 48.69 466.81 48.5 466.62C48.3 466.42 47.98 466.42 47.79 466.62L41.23 473.17V452.8C41.23 452.52 41.01 452.3 40.73 452.3C40.45 452.3 40.23 452.52 40.23 452.8V463.66L33.67 457.09C33.47 456.9 33.15 456.9 32.96 457.09C32.76 457.29 32.76 457.6 32.96 457.8L40.23 465.07V486.43C26.25 486.17 15 474.93 15 460.72ZM41.23 525V486.43H40.73H40.23V525C40.23 525.28 40.46 525.5 40.73 525.5C41 525.5 41.23 525.28 41.23 525Z" fill="white"/>
<path fill-rule="evenodd" clip-rule="evenodd" d="M284.91 531.18C284.91 534.65 283.94 537.9 282.25 540.65C288.45 545.35 292.44 552.79 292.44 561.16C292.44 575.19 281.2 586.61 267.22 586.87V560.74L274.52 551.64C274.7 551.42 274.66 551.11 274.45 550.93C274.23 550.76 273.92 550.8 273.74 551.01L267.22 559.14V528.39C267.22 528.11 267 527.89 266.72 527.89C266.44 527.89 266.22 528.11 266.22 528.39V544.45L259.69 536.32C259.52 536.11 259.21 536.07 258.99 536.24C258.78 536.42 258.74 536.73 258.91 536.95L266.22 546.05V569.41L262.67 564.99C262.49 564.77 262.18 564.74 261.96 564.91C261.75 565.08 261.71 565.4 261.89 565.61L266.22 571.01V586.87C252.24 586.61 241 575.19 241 561.16C241 552.79 244.99 545.35 251.18 540.65C249.5 537.9 248.53 534.65 248.53 531.18C248.53 521.14 256.68 513 266.72 513C276.76 513 284.91 521.14 284.91 531.18ZM267.221 625.44V586.87H266.721H266.221V625.44C266.221 625.72 266.441 625.94 266.721 625.94C267.001 625.94 267.221 625.72 267.221 625.44Z" fill="white"/>
</g>
<path d="M49.1111 618.026C42.9746 618.026 38 621.482 38 625.746H60.2222C60.2222 621.482 55.2476 618.026 49.1111 618.026Z" fill="white"/>
<path d="M66.8889 618.026C60.7524 618.026 55.7778 621.482 55.7778 625.746H78.0001C78.0001 621.482 73.0254 618.026 66.8889 618.026Z" fill="white"/>
<path d="M68.0432 626.489C64.32 623.033 59.3262 622.329 56.8892 624.916L70.3721 637.431C72.8091 634.843 71.7664 629.945 68.0432 626.489Z" fill="white"/>
<path d="M46.9636 626.489C50.6868 623.033 55.6807 622.329 58.1177 624.916L44.6347 637.431C42.1977 634.843 43.2404 629.945 46.9636 626.489Z" fill="white"/>
<path d="M54.4574 611.94C49.5476 609.767 44.2244 610.997 42.5676 614.687L60.3477 622.554C62.0044 618.864 59.3672 614.112 54.4574 611.94Z" fill="white"/>
<path d="M62.6539 611.933C67.5638 609.761 72.887 610.991 74.5437 614.681L56.7637 622.547C55.1069 618.858 57.7441 614.105 62.6539 611.933Z" fill="white"/>
</g>
<defs>
<clipPath id="clip0_234_2763">
<rect width="376" height="812" fill="white"/>
</clipPath>
<clipPath id="clip1_234_2763">
<rect width="377" height="380" fill="white" transform="translate(-1 435)"/>
</clipPath>
</defs>
</svg>
