<svg width="200" height="200" viewBox="0 0 120 120" fill="none" xmlns="http://www.w3.org/2000/svg">
<g filter="url(#filter0_d_128_3056)">
<rect x="24" y="24" width="72" height="72" rx="36" fill="#FF0008" shape-rendering="crispEdges"/>
<mask id="path-2-inside-1_128_3056" fill="white">
<path fill-rule="evenodd" clip-rule="evenodd" d="M55.6723 46.364C54.8621 46.364 54.1319 46.8528 53.8232 47.6019L52.6474 50.455H49.0911V49.0001H45.4548V50.455H43.8179C42.7133 50.455 41.8179 51.3504 41.8179 52.455V71.6368C41.8179 72.7414 42.7133 73.6368 43.8179 73.6368H76.1815C77.2861 73.6368 78.1815 72.7414 78.1815 71.6368V52.455C78.1815 51.3504 77.2861 50.455 76.1815 50.455H67.3527L66.1769 47.602C65.8682 46.8528 65.138 46.364 64.3278 46.364H55.6723ZM67.2723 62.0452C67.2723 66.1873 64.0162 69.5452 59.9996 69.5452C55.983 69.5452 52.7269 66.1873 52.7269 62.0452C52.7269 57.903 55.983 54.5452 59.9996 54.5452C64.0162 54.5452 67.2723 57.903 67.2723 62.0452Z"/>
</mask>
<path fill-rule="evenodd" clip-rule="evenodd" d="M55.6723 46.364C54.8621 46.364 54.1319 46.8528 53.8232 47.6019L52.6474 50.455H49.0911V49.0001H45.4548V50.455H43.8179C42.7133 50.455 41.8179 51.3504 41.8179 52.455V71.6368C41.8179 72.7414 42.7133 73.6368 43.8179 73.6368H76.1815C77.2861 73.6368 78.1815 72.7414 78.1815 71.6368V52.455C78.1815 51.3504 77.2861 50.455 76.1815 50.455H67.3527L66.1769 47.602C65.8682 46.8528 65.138 46.364 64.3278 46.364H55.6723ZM67.2723 62.0452C67.2723 66.1873 64.0162 69.5452 59.9996 69.5452C55.983 69.5452 52.7269 66.1873 52.7269 62.0452C52.7269 57.903 55.983 54.5452 59.9996 54.5452C64.0162 54.5452 67.2723 57.903 67.2723 62.0452Z" fill="white"/>
<path d="M53.8232 47.6019L55.6723 48.364V48.364L53.8232 47.6019ZM52.6474 50.455V52.455H53.9864L54.4965 51.2171L52.6474 50.455ZM49.0911 50.455H47.0911V52.455H49.0911V50.455ZM49.0911 49.0001H51.0911V47.0001H49.0911V49.0001ZM45.4548 49.0001V47.0001H43.4548V49.0001H45.4548ZM45.4548 50.455V52.455H47.4548V50.455H45.4548ZM67.3527 50.455L65.5036 51.2171L66.0138 52.455H67.3527V50.455ZM66.1769 47.602L64.3278 48.364V48.364L66.1769 47.602ZM55.6723 48.364L55.6723 48.364V44.364C54.0519 44.364 52.5915 45.3417 51.9741 46.8399L55.6723 48.364ZM54.4965 51.2171L55.6723 48.364L51.9741 46.8399L50.7983 49.6929L54.4965 51.2171ZM52.6474 48.455H49.0911V52.455H52.6474V48.455ZM51.0911 50.455V49.0001H47.0911V50.455H51.0911ZM49.0911 47.0001H45.4548V51.0001H49.0911V47.0001ZM43.4548 49.0001V50.455H47.4548V49.0001H43.4548ZM45.4548 48.455H43.8179V52.455H45.4548V48.455ZM43.8179 48.455C41.6087 48.455 39.8179 50.2459 39.8179 52.455H43.8179V48.455ZM39.8179 52.455V71.6368H43.8179V52.455H39.8179ZM39.8179 71.6368C39.8179 73.846 41.6087 75.6368 43.8179 75.6368V71.6368H39.8179ZM43.8179 75.6368H76.1815V71.6368H43.8179V75.6368ZM76.1815 75.6368C78.3906 75.6368 80.1815 73.846 80.1815 71.6368H76.1815V75.6368ZM80.1815 71.6368V52.455H76.1815V71.6368H80.1815ZM80.1815 52.455C80.1815 50.2459 78.3906 48.455 76.1815 48.455V52.455H80.1815ZM76.1815 48.455H67.3527V52.455H76.1815V48.455ZM64.3278 48.364L65.5036 51.2171L69.2018 49.6929L68.026 46.8399L64.3278 48.364ZM64.3278 48.364L64.3278 48.364L68.026 46.8399C67.4086 45.3417 65.9482 44.364 64.3278 44.364V48.364ZM55.6723 48.364H64.3278V44.364H55.6723V48.364ZM59.9996 71.5452C65.1784 71.5452 69.2723 67.2334 69.2723 62.0452H65.2723C65.2723 65.1412 62.8541 67.5452 59.9996 67.5452V71.5452ZM50.7269 62.0452C50.7269 67.2334 54.8209 71.5452 59.9996 71.5452V67.5452C57.1451 67.5452 54.7269 65.1412 54.7269 62.0452H50.7269ZM59.9996 52.5452C54.8209 52.5452 50.7269 56.8569 50.7269 62.0452H54.7269C54.7269 58.9491 57.1451 56.5452 59.9996 56.5452V52.5452ZM69.2723 62.0452C69.2723 56.8569 65.1784 52.5452 59.9996 52.5452V56.5452C62.8541 56.5452 65.2723 58.9491 65.2723 62.0452H69.2723Z" fill="white" mask="url(#path-2-inside-1_128_3056)"/>
</g>
<circle cx="60" cy="60" r="42" stroke="white" stroke-width="4"/>
<defs>
<filter id="filter0_d_128_3056" x="8" y="12" width="104" height="104" filterUnits="userSpaceOnUse" color-interpolation-filters="sRGB">
<feFlood flood-opacity="0" result="BackgroundImageFix"/>
<feColorMatrix in="SourceAlpha" type="matrix" values="0 0 0 0 0 0 0 0 0 0 0 0 0 0 0 0 0 0 127 0" result="hardAlpha"/>
<feOffset dy="4"/>
<feGaussianBlur stdDeviation="8"/>
<feComposite in2="hardAlpha" operator="out"/>
<feColorMatrix type="matrix" values="0 0 0 0 1 0 0 0 0 0 0 0 0 0 0.0313726 0 0 0 0.5 0"/>
<feBlend mode="normal" in2="BackgroundImageFix" result="effect1_dropShadow_128_3056"/>
<feBlend mode="normal" in="SourceGraphic" in2="effect1_dropShadow_128_3056" result="shape"/>
</filter>
</defs>
</svg>
