<svg width="104" height="104" viewBox="0 0 104 104" fill="none" xmlns="http://www.w3.org/2000/svg">
<g filter="url(#filter0_d_156_1422)">
<rect x="16" y="12" width="72" height="72" rx="36" fill="#FF0008" shape-rendering="crispEdges"/>
<mask id="path-2-inside-1_156_1422" fill="white">
<path fill-rule="evenodd" clip-rule="evenodd" d="M47.6723 34.364C46.8621 34.364 46.1319 34.8528 45.8232 35.6019L44.6474 38.455H41.0911V37.0001H37.4548V38.455H35.8179C34.7133 38.455 33.8179 39.3504 33.8179 40.455V59.6368C33.8179 60.7414 34.7133 61.6368 35.8179 61.6368H68.1815C69.2861 61.6368 70.1815 60.7414 70.1815 59.6368V40.455C70.1815 39.3504 69.2861 38.455 68.1815 38.455H59.3527L58.1769 35.602C57.8682 34.8528 57.138 34.364 56.3278 34.364H47.6723ZM59.2723 50.0452C59.2723 54.1873 56.0162 57.5452 51.9996 57.5452C47.983 57.5452 44.7269 54.1873 44.7269 50.0452C44.7269 45.903 47.983 42.5452 51.9996 42.5452C56.0162 42.5452 59.2723 45.903 59.2723 50.0452Z"/>
</mask>
<path fill-rule="evenodd" clip-rule="evenodd" d="M47.6723 34.364C46.8621 34.364 46.1319 34.8528 45.8232 35.6019L44.6474 38.455H41.0911V37.0001H37.4548V38.455H35.8179C34.7133 38.455 33.8179 39.3504 33.8179 40.455V59.6368C33.8179 60.7414 34.7133 61.6368 35.8179 61.6368H68.1815C69.2861 61.6368 70.1815 60.7414 70.1815 59.6368V40.455C70.1815 39.3504 69.2861 38.455 68.1815 38.455H59.3527L58.1769 35.602C57.8682 34.8528 57.138 34.364 56.3278 34.364H47.6723ZM59.2723 50.0452C59.2723 54.1873 56.0162 57.5452 51.9996 57.5452C47.983 57.5452 44.7269 54.1873 44.7269 50.0452C44.7269 45.903 47.983 42.5452 51.9996 42.5452C56.0162 42.5452 59.2723 45.903 59.2723 50.0452Z" fill="white"/>
<path d="M45.8232 35.6019L47.6723 36.364V36.364L45.8232 35.6019ZM44.6474 38.455V40.455H45.9864L46.4965 39.2171L44.6474 38.455ZM41.0911 38.455H39.0911V40.455H41.0911V38.455ZM41.0911 37.0001H43.0911V35.0001H41.0911V37.0001ZM37.4548 37.0001V35.0001H35.4548V37.0001H37.4548ZM37.4548 38.455V40.455H39.4548V38.455H37.4548ZM59.3527 38.455L57.5036 39.2171L58.0138 40.455H59.3527V38.455ZM58.1769 35.602L56.3278 36.364V36.364L58.1769 35.602ZM47.6723 36.364L47.6723 36.364V32.364C46.0519 32.364 44.5915 33.3417 43.9741 34.8399L47.6723 36.364ZM46.4965 39.2171L47.6723 36.364L43.9741 34.8399L42.7983 37.6929L46.4965 39.2171ZM44.6474 36.455H41.0911V40.455H44.6474V36.455ZM43.0911 38.455V37.0001H39.0911V38.455H43.0911ZM41.0911 35.0001H37.4548V39.0001H41.0911V35.0001ZM35.4548 37.0001V38.455H39.4548V37.0001H35.4548ZM37.4548 36.455H35.8179V40.455H37.4548V36.455ZM35.8179 36.455C33.6087 36.455 31.8179 38.2459 31.8179 40.455H35.8179V36.455ZM31.8179 40.455V59.6368H35.8179V40.455H31.8179ZM31.8179 59.6368C31.8179 61.846 33.6087 63.6368 35.8179 63.6368V59.6368H31.8179ZM35.8179 63.6368H68.1815V59.6368H35.8179V63.6368ZM68.1815 63.6368C70.3906 63.6368 72.1815 61.846 72.1815 59.6368H68.1815V63.6368ZM72.1815 59.6368V40.455H68.1815V59.6368H72.1815ZM72.1815 40.455C72.1815 38.2459 70.3906 36.455 68.1815 36.455V40.455H72.1815ZM68.1815 36.455H59.3527V40.455H68.1815V36.455ZM56.3278 36.364L57.5036 39.2171L61.2018 37.6929L60.026 34.8399L56.3278 36.364ZM56.3278 36.364L56.3278 36.364L60.026 34.8399C59.4086 33.3417 57.9482 32.364 56.3278 32.364V36.364ZM47.6723 36.364H56.3278V32.364H47.6723V36.364ZM51.9996 59.5452C57.1784 59.5452 61.2723 55.2334 61.2723 50.0452H57.2723C57.2723 53.1412 54.8541 55.5452 51.9996 55.5452V59.5452ZM42.7269 50.0452C42.7269 55.2334 46.8209 59.5452 51.9996 59.5452V55.5452C49.1451 55.5452 46.7269 53.1412 46.7269 50.0452H42.7269ZM51.9996 40.5452C46.8209 40.5452 42.7269 44.8569 42.7269 50.0452H46.7269C46.7269 46.9491 49.1451 44.5452 51.9996 44.5452V40.5452ZM61.2723 50.0452C61.2723 44.8569 57.1784 40.5452 51.9996 40.5452V44.5452C54.8541 44.5452 57.2723 46.9491 57.2723 50.0452H61.2723Z" fill="white" mask="url(#path-2-inside-1_156_1422)"/>
</g>
<defs>
<filter id="filter0_d_156_1422" x="0" y="0" width="104" height="104" filterUnits="userSpaceOnUse" color-interpolation-filters="sRGB">
<feFlood flood-opacity="0" result="BackgroundImageFix"/>
<feColorMatrix in="SourceAlpha" type="matrix" values="0 0 0 0 0 0 0 0 0 0 0 0 0 0 0 0 0 0 127 0" result="hardAlpha"/>
<feOffset dy="4"/>
<feGaussianBlur stdDeviation="8"/>
<feComposite in2="hardAlpha" operator="out"/>
<feColorMatrix type="matrix" values="0 0 0 0 1 0 0 0 0 0 0 0 0 0 0.0313726 0 0 0 0.5 0"/>
<feBlend mode="normal" in2="BackgroundImageFix" result="effect1_dropShadow_156_1422"/>
<feBlend mode="normal" in="SourceGraphic" in2="effect1_dropShadow_156_1422" result="shape"/>
</filter>
</defs>
</svg>
